  0
SECTION
  2
HEADER
  9
$ACADVER
  1
AC1009
  9
$INSBASE
 10
0.0
 20
0.0
 30
0.0
  9
$EXTMIN
 10
0.0
 20
0.0
 30
0.0
  9
$EXTMAX
 10
0.0
 20
0.0
 30
0.0
  0
ENDSEC
  0
SECTION
  2
TABLES
  0
TABLE
  2
VPORT
 70
0
  0
ENDTAB
  0
TABLE
  2
LTYPE
 70
1
  0
LTYPE
  2
CONTINUOUS
 70
0
  3
Solid line
 72
65
 73
0
 40
0.0
  0
ENDTAB
  0
TABLE
  2
LAYER
 70
1
  0
LAYER
  2
0
 70
64
 62
7
  6
continuous
  0
ENDTAB
  0
TABLE
  2
STYLE
 70
1
  0
STYLE
  2
STANDARD
 70
0
 40
0
 41
1.0
 50
0.0
 71
0
 42
1
 3
ARIAL.TTF
 4

  0
ENDTAB
  0
TABLE
  2
VIEW
 70
0
  0
ENDTAB
  0
ENDSEC
  0
SECTION
  2
BLOCKS
  0
ENDSEC
  0
SECTION
  2
ENTITIES
  0
LINE
  8
0
 62
0
 10
12.55
 20
-2.525
 30
0.0
 11
25.55
 21
-2.525
 31
0.0
  0
LINE
  8
0
 62
0
 10
7.2875
 20
-41.125
 30
0.0
 11
7.2875
 21
-54.125
 31
0.0
  0
LINE
  8
0
 62
0
 10
200.16875
 20
-31.6
 30
0.0
 11
200.16875
 21
-44.6
 31
0.0
  0
LINE
  8
0
 62
0
 10
174.475
 20
-35.575
 30
0.0
 11
187.475
 21
-35.575
 31
0.0
  0
LINE
  8
0
 62
0
 10
155.425
 20
-21.575
 30
0.0
 11
168.425
 21
-21.575
 31
0.0
  0
ARC
  8
0
 62
0
 10
212.66875
 20
-47.038000000000004
 30
0.0
 40
0.5
 50
-0.0
 51
90.0
  0
LINE
  8
0
 62
0
 10
198.16875
 20
-23.162
 30
0.0
 11
198.16875
 21
-29.162
 31
0.0
  0
ARC
  8
0
 62
0
 10
213.66875
 20
-44.6
 30
0.0
 40
0.5
 50
-90.0
 51
-0.0
  0
ARC
  8
0
 62
0
 10
187.475
 20
-35.075
 30
0.0
 40
0.5
 50
-90.0
 51
-0.0
  0
ARC
  8
0
 62
0
 10
155.425
 20
-35.075
 30
0.0
 40
0.5
 50
-180.0
 51
-90.0
  0
ARC
  8
0
 62
0
 10
155.425
 20
-22.075
 30
0.0
 40
0.5
 50
90.0
 51
-180.0
  0
ARC
  8
0
 62
0
 10
174.475
 20
-35.075
 30
0.0
 40
0.5
 50
-180.0
 51
-90.0
  0
LINE
  8
0
 62
0
 10
214.16875
 20
-31.6
 30
0.0
 11
214.16875
 21
-44.6
 31
0.0
  0
LINE
  8
0
 62
0
 10
187.975
 20
-22.075
 30
0.0
 11
187.975
 21
-35.075
 31
0.0
  0
LINE
  8
0
 62
0
 10
213.66875
 20
-31.1
 30
0.0
 11
200.66875
 21
-31.1
 31
0.0
  0
ARC
  8
0
 62
0
 10
213.66875
 20
-31.6
 30
0.0
 40
0.5
 50
-0.0
 51
90.0
  0
ARC
  8
0
 62
0
 10
136.375
 20
-22.075
 30
0.0
 40
0.5
 50
90.0
 51
-180.0
  0
LINE
  8
0
 62
0
 10
149.875
 20
-22.075
 30
0.0
 11
149.875
 21
-35.075
 31
0.0
  0
ARC
  8
0
 62
0
 10
174.475
 20
-22.075
 30
0.0
 40
0.5
 50
90.0
 51
-180.0
  0
ARC
  8
0
 62
0
 10
168.425
 20
-22.075
 30
0.0
 40
0.5
 50
-0.0
 51
90.0
  0
ARC
  8
0
 62
0
 10
200.66875
 20
-31.6
 30
0.0
 40
0.5
 50
90.0
 51
-180.0
  0
LINE
  8
0
 62
0
 10
173.975
 20
-22.075
 30
0.0
 11
173.975
 21
-35.075
 31
0.0
  0
ARC
  8
0
 62
0
 10
168.425
 20
-35.075
 30
0.0
 40
0.5
 50
-90.0
 51
-0.0
  0
LINE
  8
0
 62
0
 10
213.16875
 20
-47.038000000000004
 30
0.0
 11
213.16875
 21
-53.038000000000004
 31
0.0
  0
LINE
  8
0
 62
0
 10
212.66875
 20
-53.538000000000004
 30
0.0
 11
198.66875
 21
-53.538000000000004
 31
0.0
  0
LINE
  8
0
 62
0
 10
168.925
 20
-22.075
 30
0.0
 11
168.925
 21
-35.075
 31
0.0
  0
ARC
  8
0
 62
0
 10
187.475
 20
-22.075
 30
0.0
 40
0.5
 50
-0.0
 51
90.0
  0
ARC
  8
0
 62
0
 10
198.66875
 20
-47.038000000000004
 30
0.0
 40
0.5
 50
90.0
 51
-180.0
  0
LINE
  8
0
 62
0
 10
154.925
 20
-22.075
 30
0.0
 11
154.925
 21
-35.075
 31
0.0
  0
LINE
  8
0
 62
0
 10
174.475
 20
-21.575
 30
0.0
 11
187.475
 21
-21.575
 31
0.0
  0
LINE
  8
0
 62
0
 10
212.66875
 20
-46.538000000000004
 30
0.0
 11
198.66875
 21
-46.538000000000004
 31
0.0
  0
LINE
  8
0
 62
0
 10
198.16875
 20
-47.038000000000004
 30
0.0
 11
198.16875
 21
-53.038000000000004
 31
0.0
  0
ARC
  8
0
 62
0
 10
149.375
 20
-22.075
 30
0.0
 40
0.5
 50
-0.0
 51
90.0
  0
ARC
  8
0
 62
0
 10
149.375
 20
-35.075
 30
0.0
 40
0.5
 50
-90.0
 51
-0.0
  0
LINE
  8
0
 62
0
 10
213.16875
 20
-23.162
 30
0.0
 11
213.16875
 21
-29.162
 31
0.0
  0
LINE
  8
0
 62
0
 10
155.425
 20
-35.575
 30
0.0
 11
168.425
 21
-35.575
 31
0.0
  0
LINE
  8
0
 62
0
 10
212.66875
 20
-22.662
 30
0.0
 11
198.66875
 21
-22.662
 31
0.0
  0
ARC
  8
0
 62
0
 10
212.66875
 20
-53.038000000000004
 30
0.0
 40
0.5
 50
-90.0
 51
-0.0
  0
LINE
  8
0
 62
0
 10
213.66875
 20
-45.1
 30
0.0
 11
200.66875
 21
-45.1
 31
0.0
  0
LINE
  8
0
 62
0
 10
212.66875
 20
-29.662
 30
0.0
 11
198.66875
 21
-29.662
 31
0.0
  0
ARC
  8
0
 62
0
 10
212.66875
 20
-23.162
 30
0.0
 40
0.5
 50
-0.0
 51
90.0
  0
ARC
  8
0
 62
0
 10
212.66875
 20
-29.162
 30
0.0
 40
0.5
 50
-90.0
 51
-0.0
  0
ARC
  8
0
 62
0
 10
136.375
 20
-35.075
 30
0.0
 40
0.5
 50
-180.0
 51
-90.0
  0
ARC
  8
0
 62
0
 10
198.66875
 20
-53.038000000000004
 30
0.0
 40
0.5
 50
-180.0
 51
-90.0
  0
ARC
  8
0
 62
0
 10
198.66875
 20
-29.162
 30
0.0
 40
0.5
 50
-180.0
 51
-90.0
  0
ARC
  8
0
 62
0
 10
200.66875
 20
-44.6
 30
0.0
 40
0.5
 50
-180.0
 51
-90.0
  0
ARC
  8
0
 62
0
 10
198.66875
 20
-23.162
 30
0.0
 40
0.5
 50
90.0
 51
-180.0
  0
LINE
  8
0
 62
0
 10
7.7875
 20
-40.625
 30
0.0
 11
20.7875
 21
-40.625
 31
0.0
  0
LINE
  8
0
 62
0
 10
7.7875
 20
-54.625
 30
0.0
 11
20.7875
 21
-54.625
 31
0.0
  0
ARC
  8
0
 62
0
 10
7.7875
 20
-41.125
 30
0.0
 40
0.5
 50
90.0
 51
-180.0
  0
ARC
  8
0
 62
0
 10
20.7875
 20
-41.125
 30
0.0
 40
0.5
 50
-0.0
 51
90.0
  0
ARC
  8
0
 62
0
 10
7.7875
 20
-54.125
 30
0.0
 40
0.5
 50
-180.0
 51
-90.0
  0
LINE
  8
0
 62
0
 10
31.6
 20
-40.625
 30
0.0
 11
44.6
 21
-40.625
 31
0.0
  0
LINE
  8
0
 62
0
 10
31.6
 20
-54.625
 30
0.0
 11
44.6
 21
-54.625
 31
0.0
  0
LINE
  8
0
 62
0
 10
21.2875
 20
-41.125
 30
0.0
 11
21.2875
 21
-54.125
 31
0.0
  0
LINE
  8
0
 62
0
 10
31.1
 20
-41.125
 30
0.0
 11
31.1
 21
-54.125
 31
0.0
  0
LINE
  8
0
 62
0
 10
45.1
 20
-41.125
 30
0.0
 11
45.1
 21
-54.125
 31
0.0
  0
ARC
  8
0
 62
0
 10
44.6
 20
-54.125
 30
0.0
 40
0.5
 50
-90.0
 51
-0.0
  0
ARC
  8
0
 62
0
 10
44.6
 20
-41.125
 30
0.0
 40
0.5
 50
-0.0
 51
90.0
  0
LINE
  8
0
 62
0
 10
50.65
 20
-40.625
 30
0.0
 11
63.65
 21
-40.625
 31
0.0
  0
ARC
  8
0
 62
0
 10
31.6
 20
-54.125
 30
0.0
 40
0.5
 50
-180.0
 51
-90.0
  0
ARC
  8
0
 62
0
 10
20.7875
 20
-54.125
 30
0.0
 40
0.5
 50
-90.0
 51
-0.0
  0
LINE
  8
0
 62
0
 10
50.65
 20
-54.625
 30
0.0
 11
63.65
 21
-54.625
 31
0.0
  0
LINE
  8
0
 62
0
 10
50.15
 20
-41.125
 30
0.0
 11
50.15
 21
-54.125
 31
0.0
  0
ARC
  8
0
 62
0
 10
31.6
 20
-41.125
 30
0.0
 40
0.5
 50
90.0
 51
-180.0
  0
ARC
  8
0
 62
0
 10
69.7
 20
-54.125
 30
0.0
 40
0.5
 50
-180.0
 51
-90.0
  0
LINE
  8
0
 62
0
 10
121.3
 20
-41.125
 30
0.0
 11
121.3
 21
-54.125
 31
0.0
  0
ARC
  8
0
 62
0
 10
50.65
 20
-54.125
 30
0.0
 40
0.5
 50
-180.0
 51
-90.0
  0
ARC
  8
0
 62
0
 10
82.7
 20
-54.125
 30
0.0
 40
0.5
 50
-90.0
 51
-0.0
  0
ARC
  8
0
 62
0
 10
82.7
 20
-41.125
 30
0.0
 40
0.5
 50
-0.0
 51
90.0
  0
ARC
  8
0
 62
0
 10
107.8
 20
-41.125
 30
0.0
 40
0.5
 50
90.0
 51
-180.0
  0
LINE
  8
0
 62
0
 10
126.85
 20
-54.625
 30
0.0
 11
139.85
 21
-54.625
 31
0.0
  0
LINE
  8
0
 62
0
 10
88.25
 20
-41.125
 30
0.0
 11
88.25
 21
-54.125
 31
0.0
  0
ARC
  8
0
 62
0
 10
63.65
 20
-41.125
 30
0.0
 40
0.5000000000000071
 50
-0.0
 51
90.0
  0
ARC
  8
0
 62
0
 10
50.65
 20
-41.125
 30
0.0
 40
0.5
 50
90.0
 51
-180.0
  0
ARC
  8
0
 62
0
 10
88.75
 20
-41.125
 30
0.0
 40
0.5
 50
90.0
 51
-180.0
  0
LINE
  8
0
 62
0
 10
64.15
 20
-41.125
 30
0.0
 11
64.15
 21
-54.125
 31
0.0
  0
ARC
  8
0
 62
0
 10
120.8
 20
-41.125
 30
0.0
 40
0.5
 50
-0.0
 51
90.0
  0
LINE
  8
0
 62
0
 10
83.2
 20
-41.125
 30
0.0
 11
83.2
 21
-54.125
 31
0.0
  0
LINE
  8
0
 62
0
 10
102.25
 20
-41.125
 30
0.0
 11
102.25
 21
-54.125
 31
0.0
  0
ARC
  8
0
 62
0
 10
69.7
 20
-41.125
 30
0.0
 40
0.5
 50
90.0
 51
-180.0
  0
LINE
  8
0
 62
0
 10
88.75
 20
-40.625
 30
0.0
 11
101.75
 21
-40.625
 31
0.0
  0
ARC
  8
0
 62
0
 10
101.75
 20
-41.125
 30
0.0
 40
0.5
 50
-0.0
 51
90.0
  0
ARC
  8
0
 62
0
 10
101.75
 20
-54.125
 30
0.0
 40
0.5
 50
-90.0
 51
-0.0
  0
ARC
  8
0
 62
0
 10
120.8
 20
-54.125
 30
0.0
 40
0.5
 50
-90.0
 51
-0.0
  0
LINE
  8
0
 62
0
 10
107.8
 20
-40.625
 30
0.0
 11
120.8
 21
-40.625
 31
0.0
  0
LINE
  8
0
 62
0
 10
69.7
 20
-40.625
 30
0.0
 11
82.7
 21
-40.625
 31
0.0
  0
LINE
  8
0
 62
0
 10
88.75
 20
-54.625
 30
0.0
 11
101.75
 21
-54.625
 31
0.0
  0
ARC
  8
0
 62
0
 10
107.8
 20
-54.125
 30
0.0
 40
0.5
 50
-180.0
 51
-90.0
  0
LINE
  8
0
 62
0
 10
126.85
 20
-40.625
 30
0.0
 11
139.85
 21
-40.625
 31
0.0
  0
LINE
  8
0
 62
0
 10
69.2
 20
-41.125
 30
0.0
 11
69.2
 21
-54.125
 31
0.0
  0
ARC
  8
0
 62
0
 10
88.75
 20
-54.125
 30
0.0
 40
0.5
 50
-180.0
 51
-90.0
  0
LINE
  8
0
 62
0
 10
107.8
 20
-54.625
 30
0.0
 11
120.8
 21
-54.625
 31
0.0
  0
LINE
  8
0
 62
0
 10
107.3
 20
-41.125
 30
0.0
 11
107.3
 21
-54.125
 31
0.0
  0
ARC
  8
0
 62
0
 10
63.65
 20
-54.125
 30
0.0
 40
0.5
 50
-90.0
 51
-0.0
  0
LINE
  8
0
 62
0
 10
69.7
 20
-54.625
 30
0.0
 11
82.7
 21
-54.625
 31
0.0
  0
ARC
  8
0
 62
0
 10
158.9
 20
-41.125
 30
0.0
 40
0.5
 50
-0.0
 51
90.0
  0
LINE
  8
0
 62
0
 10
145.4
 20
-41.125
 30
0.0
 11
145.4
 21
-54.125
 31
0.0
  0
ARC
  8
0
 62
0
 10
126.85
 20
-54.125
 30
0.0
 40
0.5
 50
-180.0
 51
-90.0
  0
LINE
  8
0
 62
0
 10
172.09375
 20
-54.625
 30
0.0
 11
185.09375
 21
-54.625
 31
0.0
  0
LINE
  8
0
 62
0
 10
0.0
 20
0.0
 30
0.0
 11
219.075
 21
0.0
 31
0.0
  0
LINE
  8
0
 62
0
 10
145.9
 20
-40.625
 30
0.0
 11
158.9
 21
-40.625
 31
0.0
  0
ARC
  8
0
 62
0
 10
172.09375
 20
-54.125
 30
0.0
 40
0.5
 50
-180.0
 51
-90.0
  0
LINE
  8
0
 62
0
 10
0.0
 20
-57.15
 30
0.0
 11
219.075
 21
-57.15
 31
0.0
  0
LINE
  8
0
 62
0
 10
185.59375
 20
-41.125
 30
0.0
 11
185.59375
 21
-54.125
 31
0.0
  0
ARC
  8
0
 62
0
 10
139.85
 20
-41.125
 30
0.0
 40
0.5
 50
-0.0
 51
90.0
  0
ARC
  8
0
 62
0
 10
145.9
 20
-54.125
 30
0.0
 40
0.5
 50
-180.0
 51
-90.0
  0
LINE
  8
0
 62
0
 10
171.59375
 20
-41.125
 30
0.0
 11
171.59375
 21
-54.125
 31
0.0
  0
LINE
  8
0
 62
0
 10
126.35
 20
-41.125
 30
0.0
 11
126.35
 21
-54.125
 31
0.0
  0
ARC
  8
0
 62
0
 10
158.9
 20
-54.125
 30
0.0
 40
0.5
 50
-90.0
 51
-0.0
  0
ARC
  8
0
 62
0
 10
126.85
 20
-41.125
 30
0.0
 40
0.5
 50
90.0
 51
-180.0
  0
LINE
  8
0
 62
0
 10
172.09375
 20
-40.625
 30
0.0
 11
185.09375
 21
-40.625
 31
0.0
  0
ARC
  8
0
 62
0
 10
185.09375
 20
-41.125
 30
0.0
 40
0.5
 50
-0.0
 51
90.0
  0
LINE
  8
0
 62
0
 10
145.9
 20
-54.625
 30
0.0
 11
158.9
 21
-54.625
 31
0.0
  0
ARC
  8
0
 62
0
 10
185.09375
 20
-54.125
 30
0.0
 40
0.5
 50
-90.0
 51
-0.0
  0
ARC
  8
0
 62
0
 10
172.09375
 20
-41.125
 30
0.0
 40
0.5
 50
90.0
 51
-180.0
  0
LINE
  8
0
 62
0
 10
159.4
 20
-41.125
 30
0.0
 11
159.4
 21
-54.125
 31
0.0
  0
ARC
  8
0
 62
0
 10
145.9
 20
-41.125
 30
0.0
 40
0.5
 50
90.0
 51
-180.0
  0
LINE
  8
0
 62
0
 10
0.0
 20
0.0
 30
0.0
 11
0.0
 21
-57.15
 31
0.0
  0
ARC
  8
0
 62
0
 10
139.85
 20
-54.125
 30
0.0
 40
0.5
 50
-90.0
 51
-0.0
  0
LINE
  8
0
 62
0
 10
140.35
 20
-41.125
 30
0.0
 11
140.35
 21
-54.125
 31
0.0
  0
LINE
  8
0
 62
0
 10
219.075
 20
0.0
 30
0.0
 11
219.075
 21
-57.15
 31
0.0
  0
ARC
  8
0
 62
0
 10
12.55
 20
-3.025
 30
0.0
 40
0.5
 50
90.0
 51
-180.0
  0
LINE
  8
0
 62
0
 10
12.55
 20
-16.525
 30
0.0
 11
25.55
 21
-16.525
 31
0.0
  0
LINE
  8
0
 62
0
 10
12.05
 20
-3.025
 30
0.0
 11
12.05
 21
-16.025
 31
0.0
  0
LINE
  8
0
 62
0
 10
26.05
 20
-3.025
 30
0.0
 11
26.05
 21
-16.025
 31
0.0
  0
LINE
  8
0
 62
0
 10
41.125
 20
-35.575
 30
0.0
 11
54.125
 21
-35.575
 31
0.0
  0
LINE
  8
0
 62
0
 10
60.175
 20
-35.575
 30
0.0
 11
73.175
 21
-35.575
 31
0.0
  0
LINE
  8
0
 62
0
 10
92.725
 20
-22.075
 30
0.0
 11
92.725
 21
-35.075
 31
0.0
  0
ARC
  8
0
 62
0
 10
111.275
 20
-35.075
 30
0.0
 40
0.5
 50
-90.0
 51
-0.0
  0
ARC
  8
0
 62
0
 10
117.325
 20
-22.075
 30
0.0
 40
0.5
 50
90.0
 51
-180.0
  0
LINE
  8
0
 62
0
 10
40.625
 20
-22.075
 30
0.0
 11
40.625
 21
-35.075
 31
0.0
  0
ARC
  8
0
 62
0
 10
130.325
 20
-22.075
 30
0.0
 40
0.5
 50
-0.0
 51
90.0
  0
LINE
  8
0
 62
0
 10
59.675
 20
-22.075
 30
0.0
 11
59.675
 21
-35.075
 31
0.0
  0
ARC
  8
0
 62
0
 10
79.225
 20
-35.075
 30
0.0
 40
0.5
 50
-180.0
 51
-90.0
  0
ARC
  8
0
 62
0
 10
98.275
 20
-22.075
 30
0.0
 40
0.5
 50
90.0
 51
-180.0
  0
LINE
  8
0
 62
0
 10
78.725
 20
-22.075
 30
0.0
 11
78.725
 21
-35.075
 31
0.0
  0
LINE
  8
0
 62
0
 10
136.375
 20
-21.575
 30
0.0
 11
149.375
 21
-21.575
 31
0.0
  0
LINE
  8
0
 62
0
 10
54.625
 20
-22.075
 30
0.0
 11
54.625
 21
-35.075
 31
0.0
  0
LINE
  8
0
 62
0
 10
98.275
 20
-35.575
 30
0.0
 11
111.275
 21
-35.575
 31
0.0
  0
LINE
  8
0
 62
0
 10
111.775
 20
-22.075
 30
0.0
 11
111.775
 21
-35.075
 31
0.0
  0
ARC
  8
0
 62
0
 10
111.275
 20
-22.075
 30
0.0
 40
0.5
 50
-0.0
 51
90.0
  0
LINE
  8
0
 62
0
 10
136.375
 20
-35.575
 30
0.0
 11
149.375
 21
-35.575
 31
0.0
  0
ARC
  8
0
 62
0
 10
54.125
 20
-35.075
 30
0.0
 40
0.5
 50
-90.0
 51
-0.0
  0
ARC
  8
0
 62
0
 10
60.175
 20
-22.075
 30
0.0
 40
0.5
 50
90.0
 51
-180.0
  0
ARC
  8
0
 62
0
 10
73.175
 20
-22.075
 30
0.0
 40
0.5
 50
-0.0
 51
90.0
  0
LINE
  8
0
 62
0
 10
60.175
 20
-21.575
 30
0.0
 11
73.175
 21
-21.575
 31
0.0
  0
ARC
  8
0
 62
0
 10
60.175
 20
-35.075
 30
0.0
 40
0.5
 50
-180.0
 51
-90.0
  0
ARC
  8
0
 62
0
 10
92.225
 20
-22.075
 30
0.0
 40
0.5
 50
-0.0
 51
90.0
  0
ARC
  8
0
 62
0
 10
22.075
 20
-22.075
 30
0.0
 40
0.5
 50
90.0
 51
-180.0
  0
ARC
  8
0
 62
0
 10
41.125
 20
-22.075
 30
0.0
 40
0.5
 50
90.0
 51
-180.0
  0
LINE
  8
0
 62
0
 10
130.825
 20
-22.075
 30
0.0
 11
130.825
 21
-35.075
 31
0.0
  0
LINE
  8
0
 62
0
 10
73.675
 20
-22.075
 30
0.0
 11
73.675
 21
-35.075
 31
0.0
  0
ARC
  8
0
 62
0
 10
73.175
 20
-35.075
 30
0.0
 40
0.5
 50
-90.0
 51
-0.0
  0
ARC
  8
0
 62
0
 10
92.225
 20
-35.075
 30
0.0
 40
0.5
 50
-90.0
 51
-0.0
  0
LINE
  8
0
 62
0
 10
117.325
 20
-35.575
 30
0.0
 11
130.325
 21
-35.575
 31
0.0
  0
LINE
  8
0
 62
0
 10
79.225
 20
-21.575
 30
0.0
 11
92.225
 21
-21.575
 31
0.0
  0
ARC
  8
0
 62
0
 10
117.325
 20
-35.075
 30
0.0
 40
0.5
 50
-180.0
 51
-90.0
  0
LINE
  8
0
 62
0
 10
79.225
 20
-35.575
 30
0.0
 11
92.225
 21
-35.575
 31
0.0
  0
LINE
  8
0
 62
0
 10
98.275
 20
-21.575
 30
0.0
 11
111.275
 21
-21.575
 31
0.0
  0
LINE
  8
0
 62
0
 10
117.325
 20
-21.575
 30
0.0
 11
130.325
 21
-21.575
 31
0.0
  0
ARC
  8
0
 62
0
 10
130.325
 20
-35.075
 30
0.0
 40
0.5
 50
-90.0
 51
-0.0
  0
LINE
  8
0
 62
0
 10
135.875
 20
-22.075
 30
0.0
 11
135.875
 21
-35.075
 31
0.0
  0
LINE
  8
0
 62
0
 10
97.775
 20
-22.075
 30
0.0
 11
97.775
 21
-35.075
 31
0.0
  0
ARC
  8
0
 62
0
 10
35.075
 20
-35.075
 30
0.0
 40
0.5
 50
-90.0
 51
-0.0
  0
ARC
  8
0
 62
0
 10
35.075
 20
-22.075
 30
0.0
 40
0.5
 50
-0.0
 51
90.0
  0
LINE
  8
0
 62
0
 10
41.125
 20
-21.575
 30
0.0
 11
54.125
 21
-21.575
 31
0.0
  0
LINE
  8
0
 62
0
 10
116.825
 20
-22.075
 30
0.0
 11
116.825
 21
-35.075
 31
0.0
  0
ARC
  8
0
 62
0
 10
41.125
 20
-35.075
 30
0.0
 40
0.5
 50
-180.0
 51
-90.0
  0
ARC
  8
0
 62
0
 10
98.275
 20
-35.075
 30
0.0
 40
0.5
 50
-180.0
 51
-90.0
  0
ARC
  8
0
 62
0
 10
22.075
 20
-35.075
 30
0.0
 40
0.5
 50
-180.0
 51
-90.0
  0
ARC
  8
0
 62
0
 10
79.225
 20
-22.075
 30
0.0
 40
0.5
 50
90.0
 51
-180.0
  0
ARC
  8
0
 62
0
 10
54.125
 20
-22.075
 30
0.0
 40
0.5
 50
-0.0
 51
90.0
  0
LINE
  8
0
 62
0
 10
69.7
 20
-2.525
 30
0.0
 11
82.7
 21
-2.525
 31
0.0
  0
ARC
  8
0
 62
0
 10
25.55
 20
-3.025
 30
0.0
 40
0.5
 50
-0.0
 51
90.0
  0
ARC
  8
0
 62
0
 10
31.6
 20
-3.025
 30
0.0
 40
0.5
 50
90.0
 51
-180.0
  0
LINE
  8
0
 62
0
 10
64.15
 20
-3.025
 30
0.0
 11
64.15
 21
-16.025
 31
0.0
  0
ARC
  8
0
 62
0
 10
44.6
 20
-16.025
 30
0.0
 40
0.5
 50
-90.0
 51
-0.0
  0
LINE
  8
0
 62
0
 10
88.75
 20
-2.525
 30
0.0
 11
101.75
 21
-2.525
 31
0.0
  0
LINE
  8
0
 62
0
 10
145.9
 20
-2.525
 30
0.0
 11
158.9
 21
-2.525
 31
0.0
  0
LINE
  8
0
 62
0
 10
31.1
 20
-3.025
 30
0.0
 11
31.1
 21
-16.025
 31
0.0
  0
LINE
  8
0
 62
0
 10
159.4
 20
-3.025
 30
0.0
 11
159.4
 21
-16.025
 31
0.0
  0
ARC
  8
0
 62
0
 10
82.7
 20
-16.025
 30
0.0
 40
0.5
 50
-90.0
 51
-0.0
  0
ARC
  8
0
 62
0
 10
107.8
 20
-3.025
 30
0.0
 40
0.5
 50
90.0
 51
-180.0
  0
ARC
  8
0
 62
0
 10
120.8
 20
-16.025
 30
0.0
 40
0.5
 50
-90.0
 51
-0.0
  0
LINE
  8
0
 62
0
 10
164.95
 20
-16.525
 30
0.0
 11
177.95
 21
-16.525
 31
0.0
  0
LINE
  8
0
 62
0
 10
102.25
 20
-3.025
 30
0.0
 11
102.25
 21
-16.025
 31
0.0
  0
ARC
  8
0
 62
0
 10
25.55
 20
-16.025
 30
0.0
 40
0.5
 50
-90.0
 51
-0.0
  0
LINE
  8
0
 62
0
 10
31.6
 20
-2.525
 30
0.0
 11
44.6
 21
-2.525
 31
0.0
  0
LINE
  8
0
 62
0
 10
88.25
 20
-3.025
 30
0.0
 11
88.25
 21
-16.025
 31
0.0
  0
LINE
  8
0
 62
0
 10
126.85
 20
-16.525
 30
0.0
 11
139.85
 21
-16.525
 31
0.0
  0
LINE
  8
0
 62
0
 10
50.15
 20
-3.025
 30
0.0
 11
50.15
 21
-16.025
 31
0.0
  0
ARC
  8
0
 62
0
 10
88.75
 20
-16.025
 30
0.0
 40
0.5
 50
-180.0
 51
-90.0
  0
LINE
  8
0
 62
0
 10
126.35
 20
-3.025
 30
0.0
 11
126.35
 21
-16.025
 31
0.0
  0
ARC
  8
0
 62
0
 10
120.8
 20
-3.025
 30
0.0
 40
0.5
 50
-0.0
 51
90.0
  0
LINE
  8
0
 62
0
 10
140.35
 20
-3.025
 30
0.0
 11
140.35
 21
-16.025
 31
0.0
  0
LINE
  8
0
 62
0
 10
83.2
 20
-3.025
 30
0.0
 11
83.2
 21
-16.025
 31
0.0
  0
ARC
  8
0
 62
0
 10
69.7
 20
-3.025
 30
0.0
 40
0.5
 50
90.0
 51
-180.0
  0
LINE
  8
0
 62
0
 10
50.65
 20
-16.525
 30
0.0
 11
63.65
 21
-16.525
 31
0.0
  0
ARC
  8
0
 62
0
 10
126.85
 20
-3.025
 30
0.0
 40
0.5
 50
90.0
 51
-180.0
  0
ARC
  8
0
 62
0
 10
69.7
 20
-16.025
 30
0.0
 40
0.5
 50
-180.0
 51
-90.0
  0
ARC
  8
0
 62
0
 10
126.85
 20
-16.025
 30
0.0
 40
0.5
 50
-180.0
 51
-90.0
  0
LINE
  8
0
 62
0
 10
50.65
 20
-2.525
 30
0.0
 11
63.65
 21
-2.525
 31
0.0
  0
ARC
  8
0
 62
0
 10
101.75
 20
-3.025
 30
0.0
 40
0.5
 50
-0.0
 51
90.0
  0
ARC
  8
0
 62
0
 10
82.7
 20
-3.025
 30
0.0
 40
0.5
 50
-0.0
 51
90.0
  0
ARC
  8
0
 62
0
 10
50.65
 20
-3.025
 30
0.0
 40
0.5
 50
90.0
 51
-180.0
  0
LINE
  8
0
 62
0
 10
45.1
 20
-3.025
 30
0.0
 11
45.1
 21
-16.025
 31
0.0
  0
LINE
  8
0
 62
0
 10
126.85
 20
-2.525
 30
0.0
 11
139.85
 21
-2.525
 31
0.0
  0
ARC
  8
0
 62
0
 10
139.85
 20
-3.025
 30
0.0
 40
0.5
 50
-0.0
 51
90.0
  0
ARC
  8
0
 62
0
 10
63.65
 20
-16.025
 30
0.0
 40
0.5
 50
-90.0
 51
-0.0
  0
ARC
  8
0
 62
0
 10
50.65
 20
-16.025
 30
0.0
 40
0.5
 50
-180.0
 51
-90.0
  0
LINE
  8
0
 62
0
 10
31.6
 20
-16.525
 30
0.0
 11
44.6
 21
-16.525
 31
0.0
  0
ARC
  8
0
 62
0
 10
31.6
 20
-16.025
 30
0.0
 40
0.5
 50
-180.0
 51
-90.0
  0
LINE
  8
0
 62
0
 10
69.7
 20
-16.525
 30
0.0
 11
82.7
 21
-16.525
 31
0.0
  0
ARC
  8
0
 62
0
 10
88.75
 20
-3.025
 30
0.0
 40
0.5
 50
90.0
 51
-180.0
  0
ARC
  8
0
 62
0
 10
101.75
 20
-16.025
 30
0.0
 40
0.5
 50
-90.0
 51
-0.0
  0
ARC
  8
0
 62
0
 10
44.6
 20
-3.025
 30
0.0
 40
0.5
 50
-0.0
 51
90.0
  0
ARC
  8
0
 62
0
 10
12.55
 20
-16.025
 30
0.0
 40
0.5
 50
-180.0
 51
-90.0
  0
LINE
  8
0
 62
0
 10
107.8
 20
-2.525
 30
0.0
 11
120.8
 21
-2.525
 31
0.0
  0
LINE
  8
0
 62
0
 10
107.8
 20
-16.525
 30
0.0
 11
120.8
 21
-16.525
 31
0.0
  0
ARC
  8
0
 62
0
 10
63.65
 20
-3.025
 30
0.0
 40
0.5000000000000071
 50
-0.0
 51
90.0
  0
LINE
  8
0
 62
0
 10
107.3
 20
-3.025
 30
0.0
 11
107.3
 21
-16.025
 31
0.0
  0
LINE
  8
0
 62
0
 10
121.3
 20
-3.025
 30
0.0
 11
121.3
 21
-16.025
 31
0.0
  0
ARC
  8
0
 62
0
 10
107.8
 20
-16.025
 30
0.0
 40
0.5
 50
-180.0
 51
-90.0
  0
LINE
  8
0
 62
0
 10
69.2
 20
-3.025
 30
0.0
 11
69.2
 21
-16.025
 31
0.0
  0
LINE
  8
0
 62
0
 10
88.75
 20
-16.525
 30
0.0
 11
101.75
 21
-16.525
 31
0.0
  0
ARC
  8
0
 62
0
 10
139.85
 20
-16.025
 30
0.0
 40
0.5
 50
-90.0
 51
-0.0
  0
LINE
  8
0
 62
0
 10
145.9
 20
-16.525
 30
0.0
 11
158.9
 21
-16.525
 31
0.0
  0
LINE
  8
0
 62
0
 10
145.4
 20
-3.025
 30
0.0
 11
145.4
 21
-16.025
 31
0.0
  0
ARC
  8
0
 62
0
 10
145.9
 20
-3.025
 30
0.0
 40
0.5
 50
90.0
 51
-180.0
  0
ARC
  8
0
 62
0
 10
158.9
 20
-3.025
 30
0.0
 40
0.5
 50
-0.0
 51
90.0
  0
ARC
  8
0
 62
0
 10
145.9
 20
-16.025
 30
0.0
 40
0.5
 50
-180.0
 51
-90.0
  0
ARC
  8
0
 62
0
 10
158.9
 20
-16.025
 30
0.0
 40
0.5
 50
-90.0
 51
-0.0
  0
LINE
  8
0
 62
0
 10
164.95
 20
-2.525
 30
0.0
 11
177.95
 21
-2.525
 31
0.0
  0
LINE
  8
0
 62
0
 10
164.45
 20
-3.025
 30
0.0
 11
164.45
 21
-16.025
 31
0.0
  0
LINE
  8
0
 62
0
 10
178.45
 20
-3.025
 30
0.0
 11
178.45
 21
-16.025
 31
0.0
  0
ARC
  8
0
 62
0
 10
164.95
 20
-3.025
 30
0.0
 40
0.5
 50
90.0
 51
-180.0
  0
LINE
  8
0
 62
0
 10
22.075
 20
-35.575
 30
0.0
 11
35.075
 21
-35.575
 31
0.0
  0
ARC
  8
0
 62
0
 10
184.0
 20
-16.025
 30
0.0
 40
0.5
 50
-180.0
 51
-90.0
  0
ARC
  8
0
 62
0
 10
197.0
 20
-16.025
 30
0.0
 40
0.5
 50
-90.0
 51
-0.0
  0
ARC
  8
0
 62
0
 10
164.95
 20
-16.025
 30
0.0
 40
0.5
 50
-180.0
 51
-90.0
  0
LINE
  8
0
 62
0
 10
203.05
 20
-2.525
 30
0.0
 11
216.05
 21
-2.525
 31
0.0
  0
LINE
  8
0
 62
0
 10
202.55
 20
-3.025
 30
0.0
 11
202.55
 21
-16.025
 31
0.0
  0
ARC
  8
0
 62
0
 10
3.025
 20
-22.075
 30
0.0
 40
0.5
 50
90.0
 51
-180.0
  0
ARC
  8
0
 62
0
 10
216.05
 20
-3.025
 30
0.0
 40
0.5
 50
-0.0
 51
90.0
  0
LINE
  8
0
 62
0
 10
16.525
 20
-22.075
 30
0.0
 11
16.525
 21
-35.075
 31
0.0
  0
ARC
  8
0
 62
0
 10
3.025
 20
-35.075
 30
0.0
 40
0.5
 50
-180.0
 51
-90.0
  0
LINE
  8
0
 62
0
 10
21.575
 20
-22.075
 30
0.0
 11
21.575
 21
-35.075
 31
0.0
  0
ARC
  8
0
 62
0
 10
203.05
 20
-3.025
 30
0.0
 40
0.5
 50
90.0
 51
-180.0
  0
LINE
  8
0
 62
0
 10
203.05
 20
-16.525
 30
0.0
 11
216.05
 21
-16.525
 31
0.0
  0
LINE
  8
0
 62
0
 10
184.0
 20
-16.525
 30
0.0
 11
197.0
 21
-16.525
 31
0.0
  0
ARC
  8
0
 62
0
 10
216.05
 20
-16.025
 30
0.0
 40
0.5
 50
-90.0
 51
-0.0
  0
ARC
  8
0
 62
0
 10
184.0
 20
-3.025
 30
0.0
 40
0.5
 50
90.0
 51
-180.0
  0
LINE
  8
0
 62
0
 10
3.025
 20
-35.575
 30
0.0
 11
16.025
 21
-35.575
 31
0.0
  0
LINE
  8
0
 62
0
 10
2.525
 20
-22.075
 30
0.0
 11
2.525
 21
-35.075
 31
0.0
  0
ARC
  8
0
 62
0
 10
16.025
 20
-22.075
 30
0.0
 40
0.5
 50
-0.0
 51
90.0
  0
ARC
  8
0
 62
0
 10
177.95
 20
-3.025
 30
0.0
 40
0.5
 50
-0.0
 51
90.0
  0
LINE
  8
0
 62
0
 10
197.5
 20
-3.025
 30
0.0
 11
197.5
 21
-16.025
 31
0.0
  0
LINE
  8
0
 62
0
 10
216.55
 20
-3.025
 30
0.0
 11
216.55
 21
-16.025
 31
0.0
  0
ARC
  8
0
 62
0
 10
203.05
 20
-16.025
 30
0.0
 40
0.5
 50
-180.0
 51
-90.0
  0
LINE
  8
0
 62
0
 10
22.075
 20
-21.575
 30
0.0
 11
35.075
 21
-21.575
 31
0.0
  0
ARC
  8
0
 62
0
 10
197.0
 20
-3.025
 30
0.0
 40
0.5
 50
-0.0
 51
90.0
  0
LINE
  8
0
 62
0
 10
35.575
 20
-22.075
 30
0.0
 11
35.575
 21
-35.075
 31
0.0
  0
LINE
  8
0
 62
0
 10
183.5
 20
-3.025
 30
0.0
 11
183.5
 21
-16.025
 31
0.0
  0
LINE
  8
0
 62
0
 10
3.025
 20
-21.575
 30
0.0
 11
16.025
 21
-21.575
 31
0.0
  0
ARC
  8
0
 62
0
 10
177.95
 20
-16.025
 30
0.0
 40
0.5
 50
-90.0
 51
-0.0
  0
LINE
  8
0
 62
0
 10
184.0
 20
-2.525
 30
0.0
 11
197.0
 21
-2.525
 31
0.0
  0
ARC
  8
0
 62
0
 10
16.025
 20
-35.075
 30
0.0
 40
0.5
 50
-90.0
 51
-0.0
  0
ENDSEC
  0
EOF
