<svg width="215.625mm" height="72.15mm" viewBox="0 0 215.625 72.15" xmlns="http://www.w3.org/2000/svg"><g id="svgGroup" stroke-linecap="round" fill-rule="evenodd" font-size="9pt" stroke="#000" stroke-width="0.25mm" fill="none" style="stroke:#000;stroke-width:0.25mm;fill:none"><path d="M 10.325 13.75 A 0.25 0.25 0 0 0 10.575 14 L 24.075 14 A 0.25 0.25 0 0 0 24.325 13.75 L 24.325 13 L 24.875 13 A 0.25 0.25 0 0 0 25.125 12.75 L 25.125 10.15 A 0.25 0.25 0 0 0 24.875 9.9 L 24.325 9.9 L 24.325 4.1 L 24.875 4.1 A 0.25 0.25 0 0 0 25.125 3.85 L 25.125 1.25 A 0.25 0.25 0 0 0 24.875 1 L 24.325 1 L 24.325 0.25 A 0.25 0.25 0 0 0 24.075 0 L 10.575 0 A 0.25 0.25 0 0 0 10.325 0.25 L 10.325 1 L 9.775 1 A 0.25 0.25 0 0 0 9.525 1.25 L 9.525 3.85 A 0.25 0.25 0 0 0 9.775 4.1 L 10.325 4.1 L 10.325 9.9 L 9.775 9.9 A 0.25 0.25 0 0 0 9.525 10.15 L 9.525 12.75 A 0.25 0.25 0 0 0 9.775 13 L 10.325 13 L 10.325 13.75 Z M 29.375 13.75 A 0.25 0.25 0 0 0 29.625 14 L 43.125 14 A 0.25 0.25 0 0 0 43.375 13.75 L 43.375 13 L 43.925 13 A 0.25 0.25 0 0 0 44.175 12.75 L 44.175 10.15 A 0.25 0.25 0 0 0 43.925 9.9 L 43.375 9.9 L 43.375 4.1 L 43.925 4.1 A 0.25 0.25 0 0 0 44.175 3.85 L 44.175 1.25 A 0.25 0.25 0 0 0 43.925 1 L 43.375 1 L 43.375 0.25 A 0.25 0.25 0 0 0 43.125 0 L 29.625 0 A 0.25 0.25 0 0 0 29.375 0.25 L 29.375 1 L 28.825 1 A 0.25 0.25 0 0 0 28.575 1.25 L 28.575 3.85 A 0.25 0.25 0 0 0 28.825 4.1 L 29.375 4.1 L 29.375 9.9 L 28.825 9.9 A 0.25 0.25 0 0 0 28.575 10.15 L 28.575 12.75 A 0.25 0.25 0 0 0 28.825 13 L 29.375 13 L 29.375 13.75 Z M 48.425 13.75 A 0.25 0.25 0 0 0 48.675 14 L 62.175 14 A 0.25 0.25 0 0 0 62.425 13.75 L 62.425 13 L 62.975 13 A 0.25 0.25 0 0 0 63.225 12.75 L 63.225 10.15 A 0.25 0.25 0 0 0 62.975 9.9 L 62.425 9.9 L 62.425 4.1 L 62.975 4.1 A 0.25 0.25 0 0 0 63.225 3.85 L 63.225 1.25 A 0.25 0.25 0 0 0 62.975 1 L 62.425 1 L 62.425 0.25 A 0.25 0.25 0 0 0 62.175 0 L 48.675 0 A 0.25 0.25 0 0 0 48.425 0.25 L 48.425 1 L 47.875 1 A 0.25 0.25 0 0 0 47.625 1.25 L 47.625 3.85 A 0.25 0.25 0 0 0 47.875 4.1 L 48.425 4.1 L 48.425 9.9 L 47.875 9.9 A 0.25 0.25 0 0 0 47.625 10.15 L 47.625 12.75 A 0.25 0.25 0 0 0 47.875 13 L 48.425 13 L 48.425 13.75 Z M 67.475 13.75 A 0.25 0.25 0 0 0 67.725 14 L 81.225 14 A 0.25 0.25 0 0 0 81.475 13.75 L 81.475 13 L 82.025 13 A 0.25 0.25 0 0 0 82.275 12.75 L 82.275 10.15 A 0.25 0.25 0 0 0 82.025 9.9 L 81.475 9.9 L 81.475 4.1 L 82.025 4.1 A 0.25 0.25 0 0 0 82.275 3.85 L 82.275 1.25 A 0.25 0.25 0 0 0 82.025 1 L 81.475 1 L 81.475 0.25 A 0.25 0.25 0 0 0 81.225 0 L 67.725 0 A 0.25 0.25 0 0 0 67.475 0.25 L 67.475 1 L 66.925 1 A 0.25 0.25 0 0 0 66.675 1.25 L 66.675 3.85 A 0.25 0.25 0 0 0 66.925 4.1 L 67.475 4.1 L 67.475 9.9 L 66.925 9.9 A 0.25 0.25 0 0 0 66.675 10.15 L 66.675 12.75 A 0.25 0.25 0 0 0 66.925 13 L 67.475 13 L 67.475 13.75 Z M 86.525 13.75 A 0.25 0.25 0 0 0 86.775 14 L 100.275 14 A 0.25 0.25 0 0 0 100.525 13.75 L 100.525 13 L 101.075 13 A 0.25 0.25 0 0 0 101.325 12.75 L 101.325 10.15 A 0.25 0.25 0 0 0 101.075 9.9 L 100.525 9.9 L 100.525 4.1 L 101.075 4.1 A 0.25 0.25 0 0 0 101.325 3.85 L 101.325 1.25 A 0.25 0.25 0 0 0 101.075 1 L 100.525 1 L 100.525 0.25 A 0.25 0.25 0 0 0 100.275 0 L 86.775 0 A 0.25 0.25 0 0 0 86.525 0.25 L 86.525 1 L 85.975 1 A 0.25 0.25 0 0 0 85.725 1.25 L 85.725 3.85 A 0.25 0.25 0 0 0 85.975 4.1 L 86.525 4.1 L 86.525 9.9 L 85.975 9.9 A 0.25 0.25 0 0 0 85.725 10.15 L 85.725 12.75 A 0.25 0.25 0 0 0 85.975 13 L 86.525 13 L 86.525 13.75 Z M 105.575 13.75 A 0.25 0.25 0 0 0 105.825 14 L 119.325 14 A 0.25 0.25 0 0 0 119.575 13.75 L 119.575 13 L 120.125 13 A 0.25 0.25 0 0 0 120.375 12.75 L 120.375 10.15 A 0.25 0.25 0 0 0 120.125 9.9 L 119.575 9.9 L 119.575 4.1 L 120.125 4.1 A 0.25 0.25 0 0 0 120.375 3.85 L 120.375 1.25 A 0.25 0.25 0 0 0 120.125 1 L 119.575 1 L 119.575 0.25 A 0.25 0.25 0 0 0 119.325 0 L 105.825 0 A 0.25 0.25 0 0 0 105.575 0.25 L 105.575 1 L 105.025 1 A 0.25 0.25 0 0 0 104.775 1.25 L 104.775 3.85 A 0.25 0.25 0 0 0 105.025 4.1 L 105.575 4.1 L 105.575 9.9 L 105.025 9.9 A 0.25 0.25 0 0 0 104.775 10.15 L 104.775 12.75 A 0.25 0.25 0 0 0 105.025 13 L 105.575 13 L 105.575 13.75 Z M 124.625 13.75 A 0.25 0.25 0 0 0 124.875 14 L 138.375 14 A 0.25 0.25 0 0 0 138.625 13.75 L 138.625 13 L 139.175 13 A 0.25 0.25 0 0 0 139.425 12.75 L 139.425 10.15 A 0.25 0.25 0 0 0 139.175 9.9 L 138.625 9.9 L 138.625 4.1 L 139.175 4.1 A 0.25 0.25 0 0 0 139.425 3.85 L 139.425 1.25 A 0.25 0.25 0 0 0 139.175 1 L 138.625 1 L 138.625 0.25 A 0.25 0.25 0 0 0 138.375 0 L 124.875 0 A 0.25 0.25 0 0 0 124.625 0.25 L 124.625 1 L 124.075 1 A 0.25 0.25 0 0 0 123.825 1.25 L 123.825 3.85 A 0.25 0.25 0 0 0 124.075 4.1 L 124.625 4.1 L 124.625 9.9 L 124.075 9.9 A 0.25 0.25 0 0 0 123.825 10.15 L 123.825 12.75 A 0.25 0.25 0 0 0 124.075 13 L 124.625 13 L 124.625 13.75 Z M 143.675 13.75 A 0.25 0.25 0 0 0 143.925 14 L 157.425 14 A 0.25 0.25 0 0 0 157.675 13.75 L 157.675 13 L 158.225 13 A 0.25 0.25 0 0 0 158.475 12.75 L 158.475 10.15 A 0.25 0.25 0 0 0 158.225 9.9 L 157.675 9.9 L 157.675 4.1 L 158.225 4.1 A 0.25 0.25 0 0 0 158.475 3.85 L 158.475 1.25 A 0.25 0.25 0 0 0 158.225 1 L 157.675 1 L 157.675 0.25 A 0.25 0.25 0 0 0 157.425 0 L 143.925 0 A 0.25 0.25 0 0 0 143.675 0.25 L 143.675 1 L 143.125 1 A 0.25 0.25 0 0 0 142.875 1.25 L 142.875 3.85 A 0.25 0.25 0 0 0 143.125 4.1 L 143.675 4.1 L 143.675 9.9 L 143.125 9.9 A 0.25 0.25 0 0 0 142.875 10.15 L 142.875 12.75 A 0.25 0.25 0 0 0 143.125 13 L 143.675 13 L 143.675 13.75 Z M 162.725 13.75 A 0.25 0.25 0 0 0 162.975 14 L 176.475 14 A 0.25 0.25 0 0 0 176.725 13.75 L 176.725 13 L 177.275 13 A 0.25 0.25 0 0 0 177.525 12.75 L 177.525 10.15 A 0.25 0.25 0 0 0 177.275 9.9 L 176.725 9.9 L 176.725 4.1 L 177.275 4.1 A 0.25 0.25 0 0 0 177.525 3.85 L 177.525 1.25 A 0.25 0.25 0 0 0 177.275 1 L 176.725 1 L 176.725 0.25 A 0.25 0.25 0 0 0 176.475 0 L 162.975 0 A 0.25 0.25 0 0 0 162.725 0.25 L 162.725 1 L 162.175 1 A 0.25 0.25 0 0 0 161.925 1.25 L 161.925 3.85 A 0.25 0.25 0 0 0 162.175 4.1 L 162.725 4.1 L 162.725 9.9 L 162.175 9.9 A 0.25 0.25 0 0 0 161.925 10.15 L 161.925 12.75 A 0.25 0.25 0 0 0 162.175 13 L 162.725 13 L 162.725 13.75 Z M 181.775 13.75 A 0.25 0.25 0 0 0 182.025 14 L 195.525 14 A 0.25 0.25 0 0 0 195.775 13.75 L 195.775 13 L 196.325 13 A 0.25 0.25 0 0 0 196.575 12.75 L 196.575 10.15 A 0.25 0.25 0 0 0 196.325 9.9 L 195.775 9.9 L 195.775 4.1 L 196.325 4.1 A 0.25 0.25 0 0 0 196.575 3.85 L 196.575 1.25 A 0.25 0.25 0 0 0 196.325 1 L 195.775 1 L 195.775 0.25 A 0.25 0.25 0 0 0 195.525 0 L 182.025 0 A 0.25 0.25 0 0 0 181.775 0.25 L 181.775 1 L 181.225 1 A 0.25 0.25 0 0 0 180.975 1.25 L 180.975 3.85 A 0.25 0.25 0 0 0 181.225 4.1 L 181.775 4.1 L 181.775 9.9 L 181.225 9.9 A 0.25 0.25 0 0 0 180.975 10.15 L 180.975 12.75 A 0.25 0.25 0 0 0 181.225 13 L 181.775 13 L 181.775 13.75 Z M 200.825 13.75 A 0.25 0.25 0 0 0 201.075 14 L 214.575 14 A 0.25 0.25 0 0 0 214.825 13.75 L 214.825 13 L 215.375 13 A 0.25 0.25 0 0 0 215.625 12.75 L 215.625 10.15 A 0.25 0.25 0 0 0 215.375 9.9 L 214.825 9.9 L 214.825 4.1 L 215.375 4.1 A 0.25 0.25 0 0 0 215.625 3.85 L 215.625 1.25 A 0.25 0.25 0 0 0 215.375 1 L 214.825 1 L 214.825 0.25 A 0.25 0.25 0 0 0 214.575 0 L 201.075 0 A 0.25 0.25 0 0 0 200.825 0.25 L 200.825 1 L 200.275 1 A 0.25 0.25 0 0 0 200.025 1.25 L 200.025 3.85 A 0.25 0.25 0 0 0 200.275 4.1 L 200.825 4.1 L 200.825 9.9 L 200.275 9.9 A 0.25 0.25 0 0 0 200.025 10.15 L 200.025 12.75 A 0.25 0.25 0 0 0 200.275 13 L 200.825 13 L 200.825 13.75 Z M 15.0875 32.8 A 0.25 0.25 0 0 0 15.3375 33.05 L 28.8375 33.05 A 0.25 0.25 0 0 0 29.0875 32.8 L 29.0875 32.05 L 29.6375 32.05 A 0.25 0.25 0 0 0 29.8875 31.8 L 29.8875 29.2 A 0.25 0.25 0 0 0 29.6375 28.95 L 29.0875 28.95 L 29.0875 23.15 L 29.6375 23.15 A 0.25 0.25 0 0 0 29.8875 22.9 L 29.8875 20.3 A 0.25 0.25 0 0 0 29.6375 20.05 L 29.0875 20.05 L 29.0875 19.3 A 0.25 0.25 0 0 0 28.8375 19.05 L 15.3375 19.05 A 0.25 0.25 0 0 0 15.0875 19.3 L 15.0875 20.05 L 14.5375 20.05 A 0.25 0.25 0 0 0 14.2875 20.3 L 14.2875 22.9 A 0.25 0.25 0 0 0 14.5375 23.15 L 15.0875 23.15 L 15.0875 28.95 L 14.5375 28.95 A 0.25 0.25 0 0 0 14.2875 29.2 L 14.2875 31.8 A 0.25 0.25 0 0 0 14.5375 32.05 L 15.0875 32.05 L 15.0875 32.8 Z M 34.1375 32.8 A 0.25 0.25 0 0 0 34.3875 33.05 L 47.8875 33.05 A 0.25 0.25 0 0 0 48.1375 32.8 L 48.1375 32.05 L 48.6875 32.05 A 0.25 0.25 0 0 0 48.9375 31.8 L 48.9375 29.2 A 0.25 0.25 0 0 0 48.6875 28.95 L 48.1375 28.95 L 48.1375 23.15 L 48.6875 23.15 A 0.25 0.25 0 0 0 48.9375 22.9 L 48.9375 20.3 A 0.25 0.25 0 0 0 48.6875 20.05 L 48.1375 20.05 L 48.1375 19.3 A 0.25 0.25 0 0 0 47.8875 19.05 L 34.3875 19.05 A 0.25 0.25 0 0 0 34.1375 19.3 L 34.1375 20.05 L 33.5875 20.05 A 0.25 0.25 0 0 0 33.3375 20.3 L 33.3375 22.9 A 0.25 0.25 0 0 0 33.5875 23.15 L 34.1375 23.15 L 34.1375 28.95 L 33.5875 28.95 A 0.25 0.25 0 0 0 33.3375 29.2 L 33.3375 31.8 A 0.25 0.25 0 0 0 33.5875 32.05 L 34.1375 32.05 L 34.1375 32.8 Z M 53.1875 32.8 A 0.25 0.25 0 0 0 53.4375 33.05 L 66.9375 33.05 A 0.25 0.25 0 0 0 67.1875 32.8 L 67.1875 32.05 L 67.7375 32.05 A 0.25 0.25 0 0 0 67.9875 31.8 L 67.9875 29.2 A 0.25 0.25 0 0 0 67.7375 28.95 L 67.1875 28.95 L 67.1875 23.15 L 67.7375 23.15 A 0.25 0.25 0 0 0 67.9875 22.9 L 67.9875 20.3 A 0.25 0.25 0 0 0 67.7375 20.05 L 67.1875 20.05 L 67.1875 19.3 A 0.25 0.25 0 0 0 66.9375 19.05 L 53.4375 19.05 A 0.25 0.25 0 0 0 53.1875 19.3 L 53.1875 20.05 L 52.6375 20.05 A 0.25 0.25 0 0 0 52.3875 20.3 L 52.3875 22.9 A 0.25 0.25 0 0 0 52.6375 23.15 L 53.1875 23.15 L 53.1875 28.95 L 52.6375 28.95 A 0.25 0.25 0 0 0 52.3875 29.2 L 52.3875 31.8 A 0.25 0.25 0 0 0 52.6375 32.05 L 53.1875 32.05 L 53.1875 32.8 Z M 72.2375 32.8 A 0.25 0.25 0 0 0 72.4875 33.05 L 85.9875 33.05 A 0.25 0.25 0 0 0 86.2375 32.8 L 86.2375 32.05 L 86.7875 32.05 A 0.25 0.25 0 0 0 87.0375 31.8 L 87.0375 29.2 A 0.25 0.25 0 0 0 86.7875 28.95 L 86.2375 28.95 L 86.2375 23.15 L 86.7875 23.15 A 0.25 0.25 0 0 0 87.0375 22.9 L 87.0375 20.3 A 0.25 0.25 0 0 0 86.7875 20.05 L 86.2375 20.05 L 86.2375 19.3 A 0.25 0.25 0 0 0 85.9875 19.05 L 72.4875 19.05 A 0.25 0.25 0 0 0 72.2375 19.3 L 72.2375 20.05 L 71.6875 20.05 A 0.25 0.25 0 0 0 71.4375 20.3 L 71.4375 22.9 A 0.25 0.25 0 0 0 71.6875 23.15 L 72.2375 23.15 L 72.2375 28.95 L 71.6875 28.95 A 0.25 0.25 0 0 0 71.4375 29.2 L 71.4375 31.8 A 0.25 0.25 0 0 0 71.6875 32.05 L 72.2375 32.05 L 72.2375 32.8 Z M 91.2875 32.8 A 0.25 0.25 0 0 0 91.5375 33.05 L 105.0375 33.05 A 0.25 0.25 0 0 0 105.2875 32.8 L 105.2875 32.05 L 105.8375 32.05 A 0.25 0.25 0 0 0 106.0875 31.8 L 106.0875 29.2 A 0.25 0.25 0 0 0 105.8375 28.95 L 105.2875 28.95 L 105.2875 23.15 L 105.8375 23.15 A 0.25 0.25 0 0 0 106.0875 22.9 L 106.0875 20.3 A 0.25 0.25 0 0 0 105.8375 20.05 L 105.2875 20.05 L 105.2875 19.3 A 0.25 0.25 0 0 0 105.0375 19.05 L 91.5375 19.05 A 0.25 0.25 0 0 0 91.2875 19.3 L 91.2875 20.05 L 90.7375 20.05 A 0.25 0.25 0 0 0 90.4875 20.3 L 90.4875 22.9 A 0.25 0.25 0 0 0 90.7375 23.15 L 91.2875 23.15 L 91.2875 28.95 L 90.7375 28.95 A 0.25 0.25 0 0 0 90.4875 29.2 L 90.4875 31.8 A 0.25 0.25 0 0 0 90.7375 32.05 L 91.2875 32.05 L 91.2875 32.8 Z M 110.3375 32.8 A 0.25 0.25 0 0 0 110.5875 33.05 L 124.0875 33.05 A 0.25 0.25 0 0 0 124.3375 32.8 L 124.3375 32.05 L 124.8875 32.05 A 0.25 0.25 0 0 0 125.1375 31.8 L 125.1375 29.2 A 0.25 0.25 0 0 0 124.8875 28.95 L 124.3375 28.95 L 124.3375 23.15 L 124.8875 23.15 A 0.25 0.25 0 0 0 125.1375 22.9 L 125.1375 20.3 A 0.25 0.25 0 0 0 124.8875 20.05 L 124.3375 20.05 L 124.3375 19.3 A 0.25 0.25 0 0 0 124.0875 19.05 L 110.5875 19.05 A 0.25 0.25 0 0 0 110.3375 19.3 L 110.3375 20.05 L 109.7875 20.05 A 0.25 0.25 0 0 0 109.5375 20.3 L 109.5375 22.9 A 0.25 0.25 0 0 0 109.7875 23.15 L 110.3375 23.15 L 110.3375 28.95 L 109.7875 28.95 A 0.25 0.25 0 0 0 109.5375 29.2 L 109.5375 31.8 A 0.25 0.25 0 0 0 109.7875 32.05 L 110.3375 32.05 L 110.3375 32.8 Z M 129.3875 32.8 A 0.25 0.25 0 0 0 129.6375 33.05 L 143.1375 33.05 A 0.25 0.25 0 0 0 143.3875 32.8 L 143.3875 32.05 L 143.9375 32.05 A 0.25 0.25 0 0 0 144.1875 31.8 L 144.1875 29.2 A 0.25 0.25 0 0 0 143.9375 28.95 L 143.3875 28.95 L 143.3875 23.15 L 143.9375 23.15 A 0.25 0.25 0 0 0 144.1875 22.9 L 144.1875 20.3 A 0.25 0.25 0 0 0 143.9375 20.05 L 143.3875 20.05 L 143.3875 19.3 A 0.25 0.25 0 0 0 143.1375 19.05 L 129.6375 19.05 A 0.25 0.25 0 0 0 129.3875 19.3 L 129.3875 20.05 L 128.8375 20.05 A 0.25 0.25 0 0 0 128.5875 20.3 L 128.5875 22.9 A 0.25 0.25 0 0 0 128.8375 23.15 L 129.3875 23.15 L 129.3875 28.95 L 128.8375 28.95 A 0.25 0.25 0 0 0 128.5875 29.2 L 128.5875 31.8 A 0.25 0.25 0 0 0 128.8375 32.05 L 129.3875 32.05 L 129.3875 32.8 Z M 148.4375 32.8 A 0.25 0.25 0 0 0 148.6875 33.05 L 162.1875 33.05 A 0.25 0.25 0 0 0 162.4375 32.8 L 162.4375 32.05 L 162.9875 32.05 A 0.25 0.25 0 0 0 163.2375 31.8 L 163.2375 29.2 A 0.25 0.25 0 0 0 162.9875 28.95 L 162.4375 28.95 L 162.4375 23.15 L 162.9875 23.15 A 0.25 0.25 0 0 0 163.2375 22.9 L 163.2375 20.3 A 0.25 0.25 0 0 0 162.9875 20.05 L 162.4375 20.05 L 162.4375 19.3 A 0.25 0.25 0 0 0 162.1875 19.05 L 148.6875 19.05 A 0.25 0.25 0 0 0 148.4375 19.3 L 148.4375 20.05 L 147.8875 20.05 A 0.25 0.25 0 0 0 147.6375 20.3 L 147.6375 22.9 A 0.25 0.25 0 0 0 147.8875 23.15 L 148.4375 23.15 L 148.4375 28.95 L 147.8875 28.95 A 0.25 0.25 0 0 0 147.6375 29.2 L 147.6375 31.8 A 0.25 0.25 0 0 0 147.8875 32.05 L 148.4375 32.05 L 148.4375 32.8 Z M 167.4875 32.8 A 0.25 0.25 0 0 0 167.7375 33.05 L 181.2375 33.05 A 0.25 0.25 0 0 0 181.4875 32.8 L 181.4875 32.05 L 182.0375 32.05 A 0.25 0.25 0 0 0 182.2875 31.8 L 182.2875 29.2 A 0.25 0.25 0 0 0 182.0375 28.95 L 181.4875 28.95 L 181.4875 23.15 L 182.0375 23.15 A 0.25 0.25 0 0 0 182.2875 22.9 L 182.2875 20.3 A 0.25 0.25 0 0 0 182.0375 20.05 L 181.4875 20.05 L 181.4875 19.3 A 0.25 0.25 0 0 0 181.2375 19.05 L 167.7375 19.05 A 0.25 0.25 0 0 0 167.4875 19.3 L 167.4875 20.05 L 166.9375 20.05 A 0.25 0.25 0 0 0 166.6875 20.3 L 166.6875 22.9 A 0.25 0.25 0 0 0 166.9375 23.15 L 167.4875 23.15 L 167.4875 28.95 L 166.9375 28.95 A 0.25 0.25 0 0 0 166.6875 29.2 L 166.6875 31.8 A 0.25 0.25 0 0 0 166.9375 32.05 L 167.4875 32.05 L 167.4875 32.8 Z M 198.44375 42.325 A 0.25 0.25 0 0 0 198.69375 42.575 L 212.19375 42.575 A 0.25 0.25 0 0 0 212.44375 42.325 L 212.44375 41.575 L 212.99375 41.575 A 0.25 0.25 0 0 0 213.24375 41.325 L 213.24375 38.725 A 0.25 0.25 0 0 0 212.99375 38.475 L 212.44375 38.475 L 212.44375 32.675 L 212.99375 32.675 A 0.25 0.25 0 0 0 213.24375 32.425 L 213.24375 29.825 A 0.25 0.25 0 0 0 212.99375 29.575 L 212.44375 29.575 L 212.44375 28.825 A 0.25 0.25 0 0 0 212.19375 28.575 L 198.69375 28.575 A 0.25 0.25 0 0 0 198.44375 28.825 L 198.44375 29.575 L 197.89375 29.575 A 0.25 0.25 0 0 0 197.64375 29.825 L 197.64375 32.425 A 0.25 0.25 0 0 0 197.89375 32.675 L 198.44375 32.675 L 198.44375 38.475 L 197.89375 38.475 A 0.25 0.25 0 0 0 197.64375 38.725 L 197.64375 41.325 A 0.25 0.25 0 0 0 197.89375 41.575 L 198.44375 41.575 L 198.44375 42.325 Z M 24.6125 51.85 A 0.25 0.25 0 0 0 24.8625 52.1 L 38.3625 52.1 A 0.25 0.25 0 0 0 38.6125 51.85 L 38.6125 51.1 L 39.1625 51.1 A 0.25 0.25 0 0 0 39.4125 50.85 L 39.4125 48.25 A 0.25 0.25 0 0 0 39.1625 48 L 38.6125 48 L 38.6125 42.2 L 39.1625 42.2 A 0.25 0.25 0 0 0 39.4125 41.95 L 39.4125 39.35 A 0.25 0.25 0 0 0 39.1625 39.1 L 38.6125 39.1 L 38.6125 38.35 A 0.25 0.25 0 0 0 38.3625 38.1 L 24.8625 38.1 A 0.25 0.25 0 0 0 24.6125 38.35 L 24.6125 39.1 L 24.0625 39.1 A 0.25 0.25 0 0 0 23.8125 39.35 L 23.8125 41.95 A 0.25 0.25 0 0 0 24.0625 42.2 L 24.6125 42.2 L 24.6125 48 L 24.0625 48 A 0.25 0.25 0 0 0 23.8125 48.25 L 23.8125 50.85 A 0.25 0.25 0 0 0 24.0625 51.1 L 24.6125 51.1 L 24.6125 51.85 Z M 43.6625 51.85 A 0.25 0.25 0 0 0 43.9125 52.1 L 57.4125 52.1 A 0.25 0.25 0 0 0 57.6625 51.85 L 57.6625 51.1 L 58.2125 51.1 A 0.25 0.25 0 0 0 58.4625 50.85 L 58.4625 48.25 A 0.25 0.25 0 0 0 58.2125 48 L 57.6625 48 L 57.6625 42.2 L 58.2125 42.2 A 0.25 0.25 0 0 0 58.4625 41.95 L 58.4625 39.35 A 0.25 0.25 0 0 0 58.2125 39.1 L 57.6625 39.1 L 57.6625 38.35 A 0.25 0.25 0 0 0 57.4125 38.1 L 43.9125 38.1 A 0.25 0.25 0 0 0 43.6625 38.35 L 43.6625 39.1 L 43.1125 39.1 A 0.25 0.25 0 0 0 42.8625 39.35 L 42.8625 41.95 A 0.25 0.25 0 0 0 43.1125 42.2 L 43.6625 42.2 L 43.6625 48 L 43.1125 48 A 0.25 0.25 0 0 0 42.8625 48.25 L 42.8625 50.85 A 0.25 0.25 0 0 0 43.1125 51.1 L 43.6625 51.1 L 43.6625 51.85 Z M 62.7125 51.85 A 0.25 0.25 0 0 0 62.9625 52.1 L 76.4625 52.1 A 0.25 0.25 0 0 0 76.7125 51.85 L 76.7125 51.1 L 77.2625 51.1 A 0.25 0.25 0 0 0 77.5125 50.85 L 77.5125 48.25 A 0.25 0.25 0 0 0 77.2625 48 L 76.7125 48 L 76.7125 42.2 L 77.2625 42.2 A 0.25 0.25 0 0 0 77.5125 41.95 L 77.5125 39.35 A 0.25 0.25 0 0 0 77.2625 39.1 L 76.7125 39.1 L 76.7125 38.35 A 0.25 0.25 0 0 0 76.4625 38.1 L 62.9625 38.1 A 0.25 0.25 0 0 0 62.7125 38.35 L 62.7125 39.1 L 62.1625 39.1 A 0.25 0.25 0 0 0 61.9125 39.35 L 61.9125 41.95 A 0.25 0.25 0 0 0 62.1625 42.2 L 62.7125 42.2 L 62.7125 48 L 62.1625 48 A 0.25 0.25 0 0 0 61.9125 48.25 L 61.9125 50.85 A 0.25 0.25 0 0 0 62.1625 51.1 L 62.7125 51.1 L 62.7125 51.85 Z M 81.7625 51.85 A 0.25 0.25 0 0 0 82.0125 52.1 L 95.5125 52.1 A 0.25 0.25 0 0 0 95.7625 51.85 L 95.7625 51.1 L 96.3125 51.1 A 0.25 0.25 0 0 0 96.5625 50.85 L 96.5625 48.25 A 0.25 0.25 0 0 0 96.3125 48 L 95.7625 48 L 95.7625 42.2 L 96.3125 42.2 A 0.25 0.25 0 0 0 96.5625 41.95 L 96.5625 39.35 A 0.25 0.25 0 0 0 96.3125 39.1 L 95.7625 39.1 L 95.7625 38.35 A 0.25 0.25 0 0 0 95.5125 38.1 L 82.0125 38.1 A 0.25 0.25 0 0 0 81.7625 38.35 L 81.7625 39.1 L 81.2125 39.1 A 0.25 0.25 0 0 0 80.9625 39.35 L 80.9625 41.95 A 0.25 0.25 0 0 0 81.2125 42.2 L 81.7625 42.2 L 81.7625 48 L 81.2125 48 A 0.25 0.25 0 0 0 80.9625 48.25 L 80.9625 50.85 A 0.25 0.25 0 0 0 81.2125 51.1 L 81.7625 51.1 L 81.7625 51.85 Z M 100.8125 51.85 A 0.25 0.25 0 0 0 101.0625 52.1 L 114.5625 52.1 A 0.25 0.25 0 0 0 114.8125 51.85 L 114.8125 51.1 L 115.3625 51.1 A 0.25 0.25 0 0 0 115.6125 50.85 L 115.6125 48.25 A 0.25 0.25 0 0 0 115.3625 48 L 114.8125 48 L 114.8125 42.2 L 115.3625 42.2 A 0.25 0.25 0 0 0 115.6125 41.95 L 115.6125 39.35 A 0.25 0.25 0 0 0 115.3625 39.1 L 114.8125 39.1 L 114.8125 38.35 A 0.25 0.25 0 0 0 114.5625 38.1 L 101.0625 38.1 A 0.25 0.25 0 0 0 100.8125 38.35 L 100.8125 39.1 L 100.2625 39.1 A 0.25 0.25 0 0 0 100.0125 39.35 L 100.0125 41.95 A 0.25 0.25 0 0 0 100.2625 42.2 L 100.8125 42.2 L 100.8125 48 L 100.2625 48 A 0.25 0.25 0 0 0 100.0125 48.25 L 100.0125 50.85 A 0.25 0.25 0 0 0 100.2625 51.1 L 100.8125 51.1 L 100.8125 51.85 Z M 119.8625 51.85 A 0.25 0.25 0 0 0 120.1125 52.1 L 133.6125 52.1 A 0.25 0.25 0 0 0 133.8625 51.85 L 133.8625 51.1 L 134.4125 51.1 A 0.25 0.25 0 0 0 134.6625 50.85 L 134.6625 48.25 A 0.25 0.25 0 0 0 134.4125 48 L 133.8625 48 L 133.8625 42.2 L 134.4125 42.2 A 0.25 0.25 0 0 0 134.6625 41.95 L 134.6625 39.35 A 0.25 0.25 0 0 0 134.4125 39.1 L 133.8625 39.1 L 133.8625 38.35 A 0.25 0.25 0 0 0 133.6125 38.1 L 120.1125 38.1 A 0.25 0.25 0 0 0 119.8625 38.35 L 119.8625 39.1 L 119.3125 39.1 A 0.25 0.25 0 0 0 119.0625 39.35 L 119.0625 41.95 A 0.25 0.25 0 0 0 119.3125 42.2 L 119.8625 42.2 L 119.8625 48 L 119.3125 48 A 0.25 0.25 0 0 0 119.0625 48.25 L 119.0625 50.85 A 0.25 0.25 0 0 0 119.3125 51.1 L 119.8625 51.1 L 119.8625 51.85 Z M 138.9125 51.85 A 0.25 0.25 0 0 0 139.1625 52.1 L 152.6625 52.1 A 0.25 0.25 0 0 0 152.9125 51.85 L 152.9125 51.1 L 153.4625 51.1 A 0.25 0.25 0 0 0 153.7125 50.85 L 153.7125 48.25 A 0.25 0.25 0 0 0 153.4625 48 L 152.9125 48 L 152.9125 42.2 L 153.4625 42.2 A 0.25 0.25 0 0 0 153.7125 41.95 L 153.7125 39.35 A 0.25 0.25 0 0 0 153.4625 39.1 L 152.9125 39.1 L 152.9125 38.35 A 0.25 0.25 0 0 0 152.6625 38.1 L 139.1625 38.1 A 0.25 0.25 0 0 0 138.9125 38.35 L 138.9125 39.1 L 138.3625 39.1 A 0.25 0.25 0 0 0 138.1125 39.35 L 138.1125 41.95 A 0.25 0.25 0 0 0 138.3625 42.2 L 138.9125 42.2 L 138.9125 48 L 138.3625 48 A 0.25 0.25 0 0 0 138.1125 48.25 L 138.1125 50.85 A 0.25 0.25 0 0 0 138.3625 51.1 L 138.9125 51.1 L 138.9125 51.85 Z M 157.9625 51.85 A 0.25 0.25 0 0 0 158.2125 52.1 L 171.7125 52.1 A 0.25 0.25 0 0 0 171.9625 51.85 L 171.9625 51.1 L 172.5125 51.1 A 0.25 0.25 0 0 0 172.7625 50.85 L 172.7625 48.25 A 0.25 0.25 0 0 0 172.5125 48 L 171.9625 48 L 171.9625 42.2 L 172.5125 42.2 A 0.25 0.25 0 0 0 172.7625 41.95 L 172.7625 39.35 A 0.25 0.25 0 0 0 172.5125 39.1 L 171.9625 39.1 L 171.9625 38.35 A 0.25 0.25 0 0 0 171.7125 38.1 L 158.2125 38.1 A 0.25 0.25 0 0 0 157.9625 38.35 L 157.9625 39.1 L 157.4125 39.1 A 0.25 0.25 0 0 0 157.1625 39.35 L 157.1625 41.95 A 0.25 0.25 0 0 0 157.4125 42.2 L 157.9625 42.2 L 157.9625 48 L 157.4125 48 A 0.25 0.25 0 0 0 157.1625 48.25 L 157.1625 50.85 A 0.25 0.25 0 0 0 157.4125 51.1 L 157.9625 51.1 L 157.9625 51.85 Z M 177.0125 51.85 A 0.25 0.25 0 0 0 177.2625 52.1 L 190.7625 52.1 A 0.25 0.25 0 0 0 191.0125 51.85 L 191.0125 51.1 L 191.5625 51.1 A 0.25 0.25 0 0 0 191.8125 50.85 L 191.8125 48.25 A 0.25 0.25 0 0 0 191.5625 48 L 191.0125 48 L 191.0125 42.2 L 191.5625 42.2 A 0.25 0.25 0 0 0 191.8125 41.95 L 191.8125 39.35 A 0.25 0.25 0 0 0 191.5625 39.1 L 191.0125 39.1 L 191.0125 38.35 A 0.25 0.25 0 0 0 190.7625 38.1 L 177.2625 38.1 A 0.25 0.25 0 0 0 177.0125 38.35 L 177.0125 39.1 L 176.4625 39.1 A 0.25 0.25 0 0 0 176.2125 39.35 L 176.2125 41.95 A 0.25 0.25 0 0 0 176.4625 42.2 L 177.0125 42.2 L 177.0125 48 L 176.4625 48 A 0.25 0.25 0 0 0 176.2125 48.25 L 176.2125 50.85 A 0.25 0.25 0 0 0 176.4625 51.1 L 177.0125 51.1 L 177.0125 51.85 Z M 0.8 70.9 A 0.25 0.25 0 0 0 1.05 71.15 L 14.55 71.15 A 0.25 0.25 0 0 0 14.8 70.9 L 14.8 70.15 L 15.35 70.15 A 0.25 0.25 0 0 0 15.6 69.9 L 15.6 67.3 A 0.25 0.25 0 0 0 15.35 67.05 L 14.8 67.05 L 14.8 61.25 L 15.35 61.25 A 0.25 0.25 0 0 0 15.6 61 L 15.6 58.4 A 0.25 0.25 0 0 0 15.35 58.15 L 14.8 58.15 L 14.8 57.4 A 0.25 0.25 0 0 0 14.55 57.15 L 1.05 57.15 A 0.25 0.25 0 0 0 0.8 57.4 L 0.8 58.15 L 0.25 58.15 A 0.25 0.25 0 0 0 0 58.4 L 0 61 A 0.25 0.25 0 0 0 0.25 61.25 L 0.8 61.25 L 0.8 67.05 L 0.25 67.05 A 0.25 0.25 0 0 0 0 67.3 L 0 69.9 A 0.25 0.25 0 0 0 0.25 70.15 L 0.8 70.15 L 0.8 70.9 Z M 31.75625 70.9 A 0.25 0.25 0 0 0 32.00625 71.15 L 45.50625 71.15 A 0.25 0.25 0 0 0 45.75625 70.9 L 45.75625 70.15 L 46.30625 70.15 A 0.25 0.25 0 0 0 46.55625 69.9 L 46.55625 67.3 A 0.25 0.25 0 0 0 46.30625 67.05 L 45.75625 67.05 L 45.75625 61.25 L 46.30625 61.25 A 0.25 0.25 0 0 0 46.55625 61 L 46.55625 58.4 A 0.25 0.25 0 0 0 46.30625 58.15 L 45.75625 58.15 L 45.75625 57.4 A 0.25 0.25 0 0 0 45.50625 57.15 L 32.00625 57.15 A 0.25 0.25 0 0 0 31.75625 57.4 L 31.75625 58.15 L 31.20625 58.15 A 0.25 0.25 0 0 0 30.95625 58.4 L 30.95625 61 A 0.25 0.25 0 0 0 31.20625 61.25 L 31.75625 61.25 L 31.75625 67.05 L 31.20625 67.05 A 0.25 0.25 0 0 0 30.95625 67.3 L 30.95625 69.9 A 0.25 0.25 0 0 0 31.20625 70.15 L 31.75625 70.15 L 31.75625 70.9 Z M 103.19375 70.9 A 0.25 0.25 0 0 0 103.44375 71.15 L 116.94375 71.15 A 0.25 0.25 0 0 0 117.19375 70.9 L 117.19375 70.15 L 117.74375 70.15 A 0.25 0.25 0 0 0 117.99375 69.9 L 117.99375 67.3 A 0.25 0.25 0 0 0 117.74375 67.05 L 117.19375 67.05 L 117.19375 61.25 L 117.74375 61.25 A 0.25 0.25 0 0 0 117.99375 61 L 117.99375 58.4 A 0.25 0.25 0 0 0 117.74375 58.15 L 117.19375 58.15 L 117.19375 57.4 A 0.25 0.25 0 0 0 116.94375 57.15 L 103.44375 57.15 A 0.25 0.25 0 0 0 103.19375 57.4 L 103.19375 58.15 L 102.64375 58.15 A 0.25 0.25 0 0 0 102.39375 58.4 L 102.39375 61 A 0.25 0.25 0 0 0 102.64375 61.25 L 103.19375 61.25 L 103.19375 67.05 L 102.64375 67.05 A 0.25 0.25 0 0 0 102.39375 67.3 L 102.39375 69.9 A 0.25 0.25 0 0 0 102.64375 70.15 L 103.19375 70.15 L 103.19375 70.9 Z M 174.63125 70.9 A 0.25 0.25 0 0 0 174.88125 71.15 L 188.38125 71.15 A 0.25 0.25 0 0 0 188.63125 70.9 L 188.63125 70.15 L 189.18125 70.15 A 0.25 0.25 0 0 0 189.43125 69.9 L 189.43125 67.3 A 0.25 0.25 0 0 0 189.18125 67.05 L 188.63125 67.05 L 188.63125 61.25 L 189.18125 61.25 A 0.25 0.25 0 0 0 189.43125 61 L 189.43125 58.4 A 0.25 0.25 0 0 0 189.18125 58.15 L 188.63125 58.15 L 188.63125 57.4 A 0.25 0.25 0 0 0 188.38125 57.15 L 174.88125 57.15 A 0.25 0.25 0 0 0 174.63125 57.4 L 174.63125 58.15 L 174.08125 58.15 A 0.25 0.25 0 0 0 173.83125 58.4 L 173.83125 61 A 0.25 0.25 0 0 0 174.08125 61.25 L 174.63125 61.25 L 174.63125 67.05 L 174.08125 67.05 A 0.25 0.25 0 0 0 173.83125 67.3 L 173.83125 69.9 A 0.25 0.25 0 0 0 174.08125 70.15 L 174.63125 70.15 L 174.63125 70.9 Z M 198.44375 70.9 A 0.25 0.25 0 0 0 198.69375 71.15 L 212.19375 71.15 A 0.25 0.25 0 0 0 212.44375 70.9 L 212.44375 70.15 L 212.99375 70.15 A 0.25 0.25 0 0 0 213.24375 69.9 L 213.24375 67.3 A 0.25 0.25 0 0 0 212.99375 67.05 L 212.44375 67.05 L 212.44375 61.25 L 212.99375 61.25 A 0.25 0.25 0 0 0 213.24375 61 L 213.24375 58.4 A 0.25 0.25 0 0 0 212.99375 58.15 L 212.44375 58.15 L 212.44375 57.4 A 0.25 0.25 0 0 0 212.19375 57.15 L 198.69375 57.15 A 0.25 0.25 0 0 0 198.44375 57.4 L 198.44375 58.15 L 197.89375 58.15 A 0.25 0.25 0 0 0 197.64375 58.4 L 197.64375 61 A 0.25 0.25 0 0 0 197.89375 61.25 L 198.44375 61.25 L 198.44375 67.05 L 197.89375 67.05 A 0.25 0.25 0 0 0 197.64375 67.3 L 197.64375 69.9 A 0.25 0.25 0 0 0 197.89375 70.15 L 198.44375 70.15 L 198.44375 70.9 Z M 197.94375 20.262 A 0.5 0.5 0 0 0 197.44375 20.762 L 197.44375 26.512 A 0.5 0.5 0 0 0 197.94375 27.012 L 210.94375 27.012 A 0.5 0.5 0 0 0 211.44375 26.512 L 211.44375 20.762 A 0.5 0.5 0 0 0 210.94375 20.262 L 197.94375 20.262 Z M 197.94375 44.138 A 0.5 0.5 0 0 0 197.44375 44.638 L 197.44375 50.388 A 0.5 0.5 0 0 0 197.94375 50.888 L 210.94375 50.888 A 0.5 0.5 0 0 0 211.44375 50.388 L 211.44375 44.638 A 0.5 0.5 0 0 0 210.94375 44.138 L 197.94375 44.138 Z M 56.81875 71.65 A 0.5 0.5 0 0 0 57.31875 72.15 L 63.06875 72.15 A 0.5 0.5 0 0 0 63.56875 71.65 L 63.56875 58.65 A 0.5 0.5 0 0 0 63.06875 58.15 L 57.31875 58.15 A 0.5 0.5 0 0 0 56.81875 58.65 L 56.81875 71.65 Z M 156.81875 71.65 A 0.5 0.5 0 0 0 157.31875 72.15 L 163.06875 72.15 A 0.5 0.5 0 0 0 163.56875 71.65 L 163.56875 58.65 A 0.5 0.5 0 0 0 163.06875 58.15 L 157.31875 58.15 A 0.5 0.5 0 0 0 156.81875 58.65 L 156.81875 71.65 Z" vector-effect="non-scaling-stroke"/></g></svg>