  0
SECTION
  2
HEADER
  9
$ACADVER
  1
AC1009
  9
$INSBASE
 10
0.0
 20
0.0
 30
0.0
  9
$EXTMIN
 10
0.0
 20
0.0
 30
0.0
  9
$EXTMAX
 10
0.0
 20
0.0
 30
0.0
  0
ENDSEC
  0
SECTION
  2
TABLES
  0
TABLE
  2
VPORT
 70
0
  0
ENDTAB
  0
TABLE
  2
LTYPE
 70
1
  0
LTYPE
  2
CONTINUOUS
 70
0
  3
Solid line
 72
65
 73
0
 40
0.0
  0
ENDTAB
  0
TABLE
  2
LAYER
 70
1
  0
LAYER
  2
0
 70
64
 62
7
  6
continuous
  0
ENDTAB
  0
TABLE
  2
STYLE
 70
1
  0
STYLE
  2
STANDARD
 70
0
 40
0
 41
1.0
 50
0.0
 71
0
 42
1
 3
ARIAL.TTF
 4

  0
ENDTAB
  0
TABLE
  2
VIEW
 70
0
  0
ENDTAB
  0
ENDSEC
  0
SECTION
  2
BLOCKS
  0
ENDSEC
  0
SECTION
  2
ENTITIES
  0
ARC
  8
0
 62
0
 10
-8.76377952755909
 20
1.4005905511810557
 30
0.0
 40
0.01968503937007782
 50
0.0
 51
90.0
  0
ARC
  8
0
 62
0
 10
-5.110954724409483
 20
0.6899606299212472
 30
0.0
 40
0.01968503937007871
 50
-180.0
 51
-90.0
  0
ARC
  8
0
 62
0
 10
-7.076279527559089
 20
1.4005905511810557
 30
0.0
 40
0.01968503937007959
 50
0.0
 51
90.0
  0
ARC
  8
0
 62
0
 10
-2.0137795275590977
 20
2.1505905511810557
 30
0.0
 40
0.01968503937007804
 50
0.0
 51
90.0000000000013
  0
ARC
  8
0
 62
0
 10
-3.513779527559098
 20
1.6387795275590398
 30
0.0
 40
0.01968503937007959
 50
-90.0
 51
0.0
  0
ARC
  8
0
 62
0
 10
-2.0137795275590977
 20
1.6387795275590398
 30
0.0
 40
0.01968503937007804
 50
-90.0000000000013
 51
0.0
  0
ARC
  8
0
 62
0
 10
-2.525590551181136
 20
1.6387795275590398
 30
0.0
 40
0.01968503937007693
 50
180.0
 51
-90.0
  0
ARC
  8
0
 62
0
 10
-2.525590551181136
 20
2.1505905511810557
 30
0.0
 40
0.01968503937007693
 50
90.0
 51
180.0
  0
ARC
  8
0
 62
0
 10
-4.025590551181126
 20
1.6387795275590398
 30
0.0
 40
0.01968503937007959
 50
180.0
 51
-90.0
  0
ARC
  8
0
 62
0
 10
-7.588090551181127
 20
1.4005905511810557
 30
0.0
 40
0.01968503937007782
 50
90.0
 51
180.0
  0
ARC
  8
0
 62
0
 10
-4.025590551181126
 20
2.1505905511810557
 30
0.0
 40
0.01968503937007959
 50
90.0
 51
180.0
  0
ARC
  8
0
 62
0
 10
-2.150590285203368
 20
0.13877953412961297
 30
0.0
 40
0.01968503937007826
 50
180.0
 51
-90.0
  0
ARC
  8
0
 62
0
 10
-7.076279527559089
 20
0.8887795275590397
 30
0.0
 40
0.01968503937007959
 50
-90.0
 51
0.0
  0
ARC
  8
0
 62
0
 10
-2.150590285203368
 20
0.6505905577516721
 30
0.0
 40
0.01968503937007826
 50
90.0
 51
-180.0
  0
ARC
  8
0
 62
0
 10
-7.588090551181127
 20
0.8887795275590397
 30
0.0
 40
0.01968503937007871
 50
180.0
 51
-90.0
  0
ARC
  8
0
 62
0
 10
-7.451279527559088
 20
2.900590551181056
 30
0.0
 40
0.01968503937007871
 50
-0.0
 51
90.0
  0
ARC
  8
0
 62
0
 10
-4.826279527559088
 20
1.4005905511810557
 30
0.0
 40
0.01968503937007959
 50
0.0
 51
90.0
  0
ARC
  8
0
 62
0
 10
-3.8380905511811263
 20
0.8887795275590397
 30
0.0
 40
0.01968503937007915
 50
180.0
 51
-89.99999999999872
  0
ARC
  8
0
 62
0
 10
-3.3262795275590986
 20
1.4005905511810557
 30
0.0
 40
0.01968503937007826
 50
0.0
 51
90.0000000000013
  0
ARC
  8
0
 62
0
 10
-3.3262795275590986
 20
0.8887795275590397
 30
0.0
 40
0.01968503937007826
 50
-90.0000000000013
 51
0.0
  0
ARC
  8
0
 62
0
 10
-5.013779527559088
 20
2.1505905511810557
 30
0.0
 40
0.01968503937007871
 50
0.0
 51
90.0
  0
ARC
  8
0
 62
0
 10
-3.8380905511811263
 20
1.4005905511810557
 30
0.0
 40
0.01968503937007871
 50
89.99999999999872
 51
180.0
  0
ARC
  8
0
 62
0
 10
-2.338090551181136
 20
1.4005905511810557
 30
0.0
 40
0.01968503937007959
 50
90.0
 51
180.0
  0
ARC
  8
0
 62
0
 10
-5.338090551181126
 20
1.4005905511810557
 30
0.0
 40
0.01968503937007871
 50
90.0
 51
180.0
  0
ARC
  8
0
 62
0
 10
-2.338090551181136
 20
0.8887795275590397
 30
0.0
 40
0.01968503937007959
 50
180.0
 51
-90.0
  0
ARC
  8
0
 62
0
 10
-0.8887792615813092
 20
0.6505905577516721
 30
0.0
 40
0.01968503937007959
 50
-0.0
 51
89.99999999999969
  0
ARC
  8
0
 62
0
 10
-1.4005902852033676
 20
0.6505905577516721
 30
0.0
 40
0.01968503937007826
 50
90.0000000000013
 51
-180.0
  0
ARC
  8
0
 62
0
 10
-1.826279527559098
 20
0.8887795275590397
 30
0.0
 40
0.01968503937007826
 50
-90.0
 51
0.0
  0
ARC
  8
0
 62
0
 10
-4.826279527559088
 20
0.8887795275590397
 30
0.0
 40
0.01968503937007959
 50
-90.0
 51
0.0
  0
ARC
  8
0
 62
0
 10
-8.713090551181129
 20
2.900590551181056
 30
0.0
 40
0.01968503937007959
 50
90.0
 51
-180.0
  0
ARC
  8
0
 62
0
 10
-1.826279527559098
 20
1.4005905511810557
 30
0.0
 40
0.01968503937007826
 50
0.0
 51
90.0
  0
ARC
  8
0
 62
0
 10
-8.20127952755909
 20
2.900590551181056
 30
0.0
 40
0.01968503937007782
 50
-0.0
 51
90.0
  0
ARC
  8
0
 62
0
 10
-1.4005902852033676
 20
0.13877953412961297
 30
0.0
 40
0.01968503937007826
 50
180.0
 51
-90.0000000000013
  0
ARC
  8
0
 62
0
 10
-0.8887792615813092
 20
0.13877953412961297
 30
0.0
 40
0.01968503937007961
 50
-89.99999999999969
 51
0.0
  0
ARC
  8
0
 62
0
 10
-5.338090551181126
 20
0.8887795275590397
 30
0.0
 40
0.01968503937007871
 50
180.0
 51
-90.0
  0
ARC
  8
0
 62
0
 10
-8.20127952755909
 20
2.3887795275590404
 30
0.0
 40
0.01968503937007782
 50
-90.0
 51
-0.0
  0
ARC
  8
0
 62
0
 10
-8.713090551181129
 20
2.3887795275590404
 30
0.0
 40
0.01968503937007959
 50
-180.0
 51
-90.0
  0
ARC
  8
0
 62
0
 10
-7.963090551181128
 20
2.900590551181056
 30
0.0
 40
0.01968503937007959
 50
90.0
 51
-180.0
  0
ARC
  8
0
 62
0
 10
-0.3262795275590983
 20
2.1505905511810557
 30
0.0
 40
0.01968503937007959
 50
0.0
 51
89.9999999999992
  0
ARC
  8
0
 62
0
 10
-0.2325295275590982
 20
2.1077952755905347
 30
0.0
 40
0.01968503937007962
 50
0.0
 51
89.99999999999945
  0
ARC
  8
0
 62
0
 10
-0.2325295275590982
 20
1.871574803149559
 30
0.0
 40
0.01968503937007959
 50
-89.99999999999945
 51
-0.0
  0
ARC
  8
0
 62
0
 10
-7.775590551181128
 20
2.1505905511810557
 30
0.0
 40
0.01968503937007959
 50
90.0
 51
180.0
  0
ARC
  8
0
 62
0
 10
-5.763779527559088
 20
1.6387795275590398
 30
0.0
 40
0.01968503937007959
 50
-90.0
 51
0.0
  0
ARC
  8
0
 62
0
 10
-3.0880905511811365
 20
0.6505905511810559
 30
0.0
 40
0.01968503937007693
 50
90.0000000000013
 51
180.0
  0
ARC
  8
0
 62
0
 10
-0.7837106299212845
 20
1.1677952755905365
 30
0.0
 40
0.01968503937007826
 50
89.99999999999872
 51
180.0
  0
ARC
  8
0
 62
0
 10
-6.275590551181128
 20
1.6387795275590398
 30
0.0
 40
0.01968503937007959
 50
180.0
 51
-90.0
  0
ARC
  8
0
 62
0
 10
-6.987204724409483
 20
0.6899606299212472
 30
0.0
 40
0.01968503937007959
 50
-180.0
 51
-90.0
  0
ARC
  8
0
 62
0
 10
-7.302165354330734
 20
0.6899606364918205
 30
0.0
 40
0.01968503937007959
 50
-90.0
 51
-9.545479552082124e-06
  0
ARC
  8
0
 62
0
 10
-3.0880905511811365
 20
0.13877952755903955
 30
0.0
 40
0.01968503937007693
 50
180.0
 51
-90.0000000000013
  0
ARC
  8
0
 62
0
 10
-7.826279527559089
 20
0.6505905511810559
 30
0.0
 40
0.01968503937007871
 50
0.0
 51
90.0
  0
ARC
  8
0
 62
0
 10
-0.28690944881892844
 20
1.8322047244094097
 30
0.0
 40
0.01968503937007826
 50
89.99999999999872
 51
180.0
  0
ARC
  8
0
 62
0
 10
-0.7837106299212845
 20
0.8922047244094122
 30
0.0
 40
0.01968503937007959
 50
-0.0
 51
90.00000000000162
  0
ARC
  8
0
 62
0
 10
-0.7837106299212845
 20
1.2071653543306855
 30
0.0
 40
0.01968503937007959
 50
-90.00000000000162
 51
0.0
  0
ARC
  8
0
 62
0
 10
-2.526574803149639
 20
0.6899606299212472
 30
0.0
 40
0.01968503937007959
 50
-0.0
 51
90.0
  0
ARC
  8
0
 62
0
 10
-0.7837106299212845
 20
1.5994094488188488
 30
0.0
 40
0.01968503937007959
 50
0.0
 51
89.99999999999872
  0
ARC
  8
0
 62
0
 10
-0.8380905511811358
 20
2.1505905511810557
 30
0.0
 40
0.01968503937007826
 50
90.00000000000033
 51
180.0
  0
ARC
  8
0
 62
0
 10
-8.76377952755909
 20
0.8887795275590397
 30
0.0
 40
0.01968503937007782
 50
-90.0
 51
0.0
  0
ARC
  8
0
 62
0
 10
-6.275590551181128
 20
2.1505905511810557
 30
0.0
 40
0.01968503937007959
 50
90.0
 51
180.0
  0
ARC
  8
0
 62
0
 10
-7.306840551181128
 20
0.6505905511810559
 30
0.0
 40
0.01968503937007782
 50
90.0
 51
180.0
  0
ARC
  8
0
 62
0
 10
-8.338090551181127
 20
0.6505905511810559
 30
0.0
 40
0.01968503937007959
 50
90.0
 51
180.0
  0
ARC
  8
0
 62
0
 10
-5.763779527559088
 20
2.1505905511810557
 30
0.0
 40
0.01968503937007959
 50
0.0
 51
90.0
  0
ARC
  8
0
 62
0
 10
-2.7627952755905953
 20
0.6899606299212472
 30
0.0
 40
0.01968503937007826
 50
89.99999999999872
 51
-180.0
  0
ARC
  8
0
 62
0
 10
-1.6387792615813086
 20
0.6505905577516721
 30
0.0
 40
0.01968503937007826
 50
-0.0
 51
90.0000000000013
  0
ARC
  8
0
 62
0
 10
-0.28690944881892844
 20
1.8149606299212466
 30
0.0
 40
0.01968503937007821
 50
180.0
 51
-90.00000000000162
  0
ARC
  8
0
 62
0
 10
-7.826279527559089
 20
0.13877952755903955
 30
0.0
 40
0.01968503937007871
 50
-90.0
 51
0.0
  0
ARC
  8
0
 62
0
 10
-0.2325295275590982
 20
1.775590551181056
 30
0.0
 40
0.01968503937007962
 50
-0.0
 51
89.99999999999945
  0
ARC
  8
0
 62
0
 10
-7.263779527559089
 20
1.6387795275590398
 30
0.0
 40
0.01968503937007871
 50
-90.0
 51
0.0
  0
ARC
  8
0
 62
0
 10
-2.526574803149639
 20
0.13877952755903955
 30
0.0
 40
0.01968503937007961
 50
-90.0
 51
0.0
  0
ARC
  8
0
 62
0
 10
-1.6387792615813086
 20
0.13877953412961297
 30
0.0
 40
0.0196850393700783
 50
-90.0000000000013
 51
0.0
  0
ARC
  8
0
 62
0
 10
-9.275590551181129
 20
1.4005905511810557
 30
0.0
 40
0.01968503937007782
 50
90.0
 51
180.0
  0
ARC
  8
0
 62
0
 10
-7.0265748031496305
 20
0.6899606299212472
 30
0.0
 40
0.01968503937007871
 50
-0.0
 51
89.99999999999741
  0
ARC
  8
0
 62
0
 10
-6.795029527559088
 20
0.6505905511810559
 30
0.0
 40
0.01968503937007871
 50
0.0
 51
90.0
  0
ARC
  8
0
 62
0
 10
-7.306840551181128
 20
0.13877952755903955
 30
0.0
 40
0.01968503937007782
 50
180.0
 51
-90.0
  0
ARC
  8
0
 62
0
 10
-0.2325295275590982
 20
0.8887795275590397
 30
0.0
 40
0.01968503937007959
 50
-89.99999999999945
 51
0.0
  0
ARC
  8
0
 62
0
 10
-7.263779527559089
 20
2.1505905511810557
 30
0.0
 40
0.01968503937007871
 50
0.0
 51
90.0
  0
ARC
  8
0
 62
0
 10
-0.8380905511811358
 20
1.6387795275590398
 30
0.0
 40
0.01968503937007826
 50
180.0
 51
-90.00000000000033
  0
ARC
  8
0
 62
0
 10
-7.775590551181128
 20
1.6387795275590398
 30
0.0
 40
0.01968503937007959
 50
180.0
 51
-90.0
  0
ARC
  8
0
 62
0
 10
-0.28690944881892844
 20
2.147165354330683
 30
0.0
 40
0.01968503937007821
 50
-180.0
 51
-90.00000000000162
  0
ARC
  8
0
 62
0
 10
-9.275590551181129
 20
0.8887795275590397
 30
0.0
 40
0.01968503937007959
 50
180.0
 51
-90.0
  0
ARC
  8
0
 62
0
 10
-7.262795275590586
 20
0.6899606299212472
 30
0.0
 40
0.01968503937007782
 50
90.0
 51
179.99999045452046
  0
ARC
  8
0
 62
0
 10
-2.8021653543307434
 20
0.6899606299212472
 30
0.0
 40
0.01968503937007959
 50
-89.99999999999872
 51
-0.0
  0
ARC
  8
0
 62
0
 10
-8.338090551181127
 20
0.13877952755903955
 30
0.0
 40
0.01968503937007959
 50
180.0
 51
-90.0
  0
ARC
  8
0
 62
0
 10
-6.795029527559088
 20
0.13877952755903955
 30
0.0
 40
0.01968503937007871
 50
-90.0
 51
0.0
  0
ARC
  8
0
 62
0
 10
-0.744340551181136
 20
0.8887795275590397
 30
0.0
 40
0.01968503937007826
 50
-180.0
 51
-90.0
  0
ARC
  8
0
 62
0
 10
-0.7837106299212845
 20
0.9315748031495609
 30
0.0
 40
0.01968503937007826
 50
180.0
 51
-90.00000000000162
  0
ARC
  8
0
 62
0
 10
-2.576279527559098
 20
0.8887795275590397
 30
0.0
 40
0.01968503937007959
 50
-90.0
 51
0.0
  0
ARC
  8
0
 62
0
 10
-4.0762795275590875
 20
0.8887795275590397
 30
0.0
 40
0.01968503937007871
 50
-90.00000000000259
 51
0.0
  0
ARC
  8
0
 62
0
 10
-4.588090551181126
 20
0.8887795275590397
 30
0.0
 40
0.01968503937007871
 50
180.0
 51
-90.0
  0
ARC
  8
0
 62
0
 10
-2.576279527559098
 20
1.4005905511810557
 30
0.0
 40
0.01968503937007959
 50
0.0
 51
90.0
  0
ARC
  8
0
 62
0
 10
-4.775590551181127
 20
2.1505905511810557
 30
0.0
 40
0.01968503937007871
 50
90.0
 51
180.0
  0
ARC
  8
0
 62
0
 10
-1.7755905511811358
 20
1.6387795275590398
 30
0.0
 40
0.01968503937007826
 50
180.0
 51
-90.00000000000065
  0
ARC
  8
0
 62
0
 10
-6.326279527559088
 20
0.8887795275590397
 30
0.0
 40
0.01968503937007959
 50
-90.0
 51
0.0
  0
ARC
  8
0
 62
0
 10
-6.838090551181127
 20
1.4005905511810557
 30
0.0
 40
0.01968503937007959
 50
90.0
 51
180.0
  0
ARC
  8
0
 62
0
 10
-6.326279527559088
 20
1.4005905511810557
 30
0.0
 40
0.01968503937007959
 50
0.0
 51
90.0
  0
LINE
  8
0
 62
0
 10
-7.588090551181127
 20
0.869094488188965
 30
0.0
 11
-7.076279527559089
 21
0.869094488188965
 31
0.0
  0
LINE
  8
0
 62
0
 10
-7.076279527559089
 20
1.420275590551173
 30
0.0
 11
-7.588090551181127
 21
1.420275590551173
 31
0.0
  0
ARC
  8
0
 62
0
 10
-1.2637795275590977
 20
1.6387795275590398
 30
0.0
 40
0.01968503937007959
 50
-90.00000000000065
 51
0.0
  0
ARC
  8
0
 62
0
 10
-1.2637795275590977
 20
2.1505905511810557
 30
0.0
 40
0.01968503937007959
 50
0.0
 51
90.00000000000065
  0
LINE
  8
0
 62
0
 10
-7.056594488188994
 20
0.88877952755904
 30
0.0
 11
-7.056594488188994
 21
1.400590551181056
 31
0.0
  0
LINE
  8
0
 62
0
 10
-1.994094488189003
 20
1.63877952755904
 30
0.0
 11
-1.994094488189003
 21
2.150590551181056
 31
0.0
  0
LINE
  8
0
 62
0
 10
-3.513779527559098
 20
2.170275590551173
 30
0.0
 11
-4.025590551181126
 21
2.170275590551173
 31
0.0
  0
ARC
  8
0
 62
0
 10
-3.0880905511811365
 20
1.4005905511810557
 30
0.0
 40
0.01968503937007693
 50
90.0000000000013
 51
180.0
  0
LINE
  8
0
 62
0
 10
-3.494094488189004
 20
1.63877952755904
 30
0.0
 11
-3.494094488189004
 21
2.150590551181056
 31
0.0
  0
LINE
  8
0
 62
0
 10
-5.525590551181127
 20
1.619094488188966
 30
0.0
 11
-5.013779527559088
 21
1.619094488188966
 31
0.0
  0
ARC
  8
0
 62
0
 10
-3.0880905511811365
 20
0.8887795275590397
 30
0.0
 40
0.01968503937007693
 50
180.0
 51
-90.0000000000013
  0
ARC
  8
0
 62
0
 10
-4.2637795275590875
 20
2.1505905511810557
 30
0.0
 40
0.01968503937007782
 50
0.0
 51
90.00000000000259
  0
LINE
  8
0
 62
0
 10
-7.607775590551201
 20
1.400590551181056
 30
0.0
 11
-7.607775590551201
 21
0.888779527559039
 31
0.0
  0
ARC
  8
0
 62
0
 10
-4.775590551181127
 20
1.6387795275590398
 30
0.0
 40
0.01968503937007871
 50
180.0
 51
-90.0
  0
ARC
  8
0
 62
0
 10
-5.576279527559088
 20
0.8887795275590397
 30
0.0
 40
0.01968503937007871
 50
-90.0
 51
0.0
  0
ARC
  8
0
 62
0
 10
-4.588090551181126
 20
1.4005905511810557
 30
0.0
 40
0.01968503937007871
 50
90.0
 51
180.0
  0
ARC
  8
0
 62
0
 10
-4.0762795275590875
 20
1.4005905511810557
 30
0.0
 40
0.01968503937007871
 50
0.0
 51
90.00000000000259
  0
ARC
  8
0
 62
0
 10
-3.275590551181137
 20
2.1505905511810557
 30
0.0
 40
0.01968503937007959
 50
90.0
 51
180.0
  0
LINE
  8
0
 62
0
 10
-2.54527559055121
 20
2.150590551181056
 30
0.0
 11
-2.54527559055121
 21
1.63877952755904
 31
0.0
  0
LINE
  8
0
 62
0
 10
-2.525590551181136
 20
1.619094488188966
 30
0.0
 11
-2.013779527559098
 21
1.619094488188966
 31
0.0
  0
LINE
  8
0
 62
0
 10
-2.013779527559098
 20
2.170275590551173
 30
0.0
 11
-2.525590551181136
 21
2.170275590551173
 31
0.0
  0
ARC
  8
0
 62
0
 10
-6.088090551181127
 20
0.8887795275590397
 30
0.0
 40
0.01968503937007959
 50
180.0
 51
-90.0
  0
ARC
  8
0
 62
0
 10
-6.838090551181127
 20
0.8887795275590397
 30
0.0
 40
0.01968503937007959
 50
180.0
 51
-90.0
  0
LINE
  8
0
 62
0
 10
-5.545275590551201
 20
2.150590551181056
 30
0.0
 11
-5.545275590551201
 21
1.63877952755904
 31
0.0
  0
LINE
  8
0
 62
0
 10
-5.013779527559088
 20
2.170275590551173
 30
0.0
 11
-5.525590551181127
 21
2.170275590551173
 31
0.0
  0
LINE
  8
0
 62
0
 10
-5.338090551181126
 20
0.869094488188965
 30
0.0
 11
-4.826279527559088
 21
0.869094488188965
 31
0.0
  0
ARC
  8
0
 62
0
 10
-6.088090551181127
 20
1.4005905511810557
 30
0.0
 40
0.01968503937007959
 50
90.0
 51
180.0
  0
LINE
  8
0
 62
0
 10
-4.994094488188994
 20
1.63877952755904
 30
0.0
 11
-4.994094488188994
 21
2.150590551181056
 31
0.0
  0
ARC
  8
0
 62
0
 10
-5.576279527559088
 20
1.4005905511810557
 30
0.0
 40
0.01968503937007871
 50
0.0
 51
90.0
  0
LINE
  8
0
 62
0
 10
-4.0452755905512
 20
2.150590551181056
 30
0.0
 11
-4.0452755905512
 21
1.63877952755904
 31
0.0
  0
LINE
  8
0
 62
0
 10
-5.357775590551201
 20
1.400590551181056
 30
0.0
 11
-5.357775590551201
 21
0.888779527559039
 31
0.0
  0
ARC
  8
0
 62
0
 10
-2.763779527559098
 20
2.1505905511810557
 30
0.0
 40
0.01968503937007959
 50
0.0
 51
90.0
  0
LINE
  8
0
 62
0
 10
-4.025590551181126
 20
1.619094488188966
 30
0.0
 11
-3.513779527559098
 21
1.619094488188966
 31
0.0
  0
LINE
  8
0
 62
0
 10
-4.826279527559088
 20
1.420275590551173
 30
0.0
 11
-5.338090551181126
 21
1.420275590551173
 31
0.0
  0
ARC
  8
0
 62
0
 10
-2.763779527559098
 20
1.6387795275590398
 30
0.0
 40
0.01968503937007959
 50
-90.0
 51
0.0
  0
ARC
  8
0
 62
0
 10
-3.275590551181137
 20
1.6387795275590398
 30
0.0
 40
0.01968503937007959
 50
180.0
 51
-90.0
  0
ARC
  8
0
 62
0
 10
-4.2637795275590875
 20
1.6387795275590398
 30
0.0
 40
0.01968503937007782
 50
-90.00000000000259
 51
0.0
  0
ARC
  8
0
 62
0
 10
-1.7755905511811358
 20
2.1505905511810557
 30
0.0
 40
0.01968503937007826
 50
90.00000000000065
 51
180.0
  0
ARC
  8
0
 62
0
 10
-5.713090551181127
 20
2.3887795275590404
 30
0.0
 40
0.01968503937007871
 50
-180.0
 51
-90.0
  0
ARC
  8
0
 62
0
 10
-4.4512795275590875
 20
2.900590551181056
 30
0.0
 40
0.01968503937007782
 50
-0.0
 51
90.00000000000259
  0
ARC
  8
0
 62
0
 10
-6.463090551181128
 20
2.900590551181056
 30
0.0
 40
0.01968503937007959
 50
90.0
 51
-180.0
  0
ARC
  8
0
 62
0
 10
-4.4512795275590875
 20
2.3887795275590404
 30
0.0
 40
0.01968503937007782
 50
-90.00000000000259
 51
-0.0
  0
ARC
  8
0
 62
0
 10
-4.963090551181126
 20
2.3887795275590404
 30
0.0
 40
0.01968503937007871
 50
-180.0
 51
-90.0
  0
ARC
  8
0
 62
0
 10
-4.213090551181126
 20
2.900590551181056
 30
0.0
 40
0.01968503937007871
 50
90.0
 51
-180.0
  0
ARC
  8
0
 62
0
 10
-3.7012795275590884
 20
2.3887795275590404
 30
0.0
 40
0.01968503937007915
 50
-89.99999999999872
 51
-0.0
  0
ARC
  8
0
 62
0
 10
-4.213090551181126
 20
2.3887795275590404
 30
0.0
 40
0.01968503937007871
 50
-180.0
 51
-90.0
  0
ARC
  8
0
 62
0
 10
-7.213090551181128
 20
2.3887795275590404
 30
0.0
 40
0.01968503937007782
 50
-180.0
 51
-90.0
  0
ARC
  8
0
 62
0
 10
-3.7012795275590884
 20
2.900590551181056
 30
0.0
 40
0.01968503937007915
 50
-0.0
 51
89.99999999999872
  0
ARC
  8
0
 62
0
 10
-5.713090551181127
 20
2.900590551181056
 30
0.0
 40
0.01968503937007871
 50
90.0
 51
-180.0
  0
ARC
  8
0
 62
0
 10
-3.4630905511811365
 20
2.900590551181056
 30
0.0
 40
0.01968503937007826
 50
90.0000000000013
 51
-180.0
  0
ARC
  8
0
 62
0
 10
-7.963090551181128
 20
2.3887795275590404
 30
0.0
 40
0.01968503937007959
 50
-180.0
 51
-90.0
  0
ARC
  8
0
 62
0
 10
-5.951279527559088
 20
2.900590551181056
 30
0.0
 40
0.01968503937007871
 50
-0.0
 51
90.0
  0
ARC
  8
0
 62
0
 10
-7.451279527559088
 20
2.3887795275590404
 30
0.0
 40
0.01968503937007871
 50
-90.0
 51
-0.0
  0
ARC
  8
0
 62
0
 10
-5.951279527559088
 20
2.3887795275590404
 30
0.0
 40
0.01968503937007871
 50
-90.0
 51
-0.0
  0
ARC
  8
0
 62
0
 10
-6.463090551181128
 20
2.3887795275590404
 30
0.0
 40
0.01968503937007959
 50
-180.0
 51
-90.0
  0
ARC
  8
0
 62
0
 10
-6.701279527559088
 20
2.900590551181056
 30
0.0
 40
0.01968503937007959
 50
-0.0
 51
90.0
  0
ARC
  8
0
 62
0
 10
-5.201279527559088
 20
2.900590551181056
 30
0.0
 40
0.01968503937007782
 50
-0.0
 51
90.0
  0
ARC
  8
0
 62
0
 10
-5.201279527559088
 20
2.3887795275590404
 30
0.0
 40
0.01968503937007782
 50
-90.0
 51
-0.0
  0
ARC
  8
0
 62
0
 10
-6.701279527559088
 20
2.3887795275590404
 30
0.0
 40
0.01968503937007959
 50
-90.0
 51
-0.0
  0
ARC
  8
0
 62
0
 10
-4.963090551181126
 20
2.900590551181056
 30
0.0
 40
0.01968503937007871
 50
90.0
 51
-180.0
  0
ARC
  8
0
 62
0
 10
-7.213090551181128
 20
2.900590551181056
 30
0.0
 40
0.01968503937007782
 50
90.0
 51
-180.0
  0
ARC
  8
0
 62
0
 10
-1.9630905511811358
 20
2.900590551181056
 30
0.0
 40
0.01968503937007959
 50
90.00000000000065
 51
-180.0
  0
ARC
  8
0
 62
0
 10
-0.9318405511811358
 20
2.900590551181056
 30
0.0
 40
0.01968503937007959
 50
90.00000000000033
 51
-180.0
  0
ARC
  8
0
 62
0
 10
-0.42002952755909834
 20
2.900590551181056
 30
0.0
 40
0.01968503937007832
 50
-0.0
 51
89.99999999999903
  0
ARC
  8
0
 62
0
 10
-2.951279527559098
 20
2.900590551181056
 30
0.0
 40
0.01968503937007826
 50
-0.0
 51
90.0
  0
ARC
  8
0
 62
0
 10
-3.4630905511811365
 20
2.3887795275590404
 30
0.0
 40
0.01968503937007826
 50
-180.0
 51
-90.0000000000013
  0
ARC
  8
0
 62
0
 10
-6.513779527559089
 20
1.6387795275590398
 30
0.0
 40
0.01968503937007959
 50
-90.0
 51
0.0
  0
ARC
  8
0
 62
0
 10
-6.513779527559089
 20
2.1505905511810557
 30
0.0
 40
0.01968503937007959
 50
0.0
 51
90.0
  0
ARC
  8
0
 62
0
 10
-8.01377952755909
 20
2.1505905511810557
 30
0.0
 40
0.01968503937007871
 50
0.0
 51
90.0
  0
ARC
  8
0
 62
0
 10
-2.2012795275590977
 20
2.900590551181056
 30
0.0
 40
0.01968503937007959
 50
-0.0
 51
90.0000000000013
  0
ARC
  8
0
 62
0
 10
-0.42002952755909834
 20
2.3887795275590404
 30
0.0
 40
0.01968503937007826
 50
-89.99999999999903
 51
-0.0
  0
ARC
  8
0
 62
0
 10
-2.7130905511811365
 20
2.900590551181056
 30
0.0
 40
0.01968503937007826
 50
90.0000000000013
 51
-180.0
  0
ARC
  8
0
 62
0
 10
-1.4512795275590977
 20
2.3887795275590404
 30
0.0
 40
0.01968503937007826
 50
-90.00000000000065
 51
-0.0
  0
ARC
  8
0
 62
0
 10
-0.9318405511811358
 20
2.3887795275590404
 30
0.0
 40
0.01968503937007948
 50
-180.0
 51
-90.00000000000033
  0
ARC
  8
0
 62
0
 10
-2.951279527559098
 20
2.3887795275590404
 30
0.0
 40
0.01968503937007826
 50
-90.0
 51
-0.0
  0
ARC
  8
0
 62
0
 10
-7.025590551181127
 20
1.6387795275590398
 30
0.0
 40
0.01968503937007782
 50
180.0
 51
-90.0
  0
ARC
  8
0
 62
0
 10
-7.025590551181127
 20
2.1505905511810557
 30
0.0
 40
0.01968503937007782
 50
90.0
 51
180.0
  0
ARC
  8
0
 62
0
 10
-8.525590551181127
 20
1.6387795275590398
 30
0.0
 40
0.01968503937007959
 50
180.0
 51
-90.0
  0
ARC
  8
0
 62
0
 10
-2.2012795275590977
 20
2.3887795275590404
 30
0.0
 40
0.01968503937007959
 50
-90.0000000000013
 51
-0.0
  0
ARC
  8
0
 62
0
 10
-2.7130905511811365
 20
2.3887795275590404
 30
0.0
 40
0.01968503937007826
 50
-180.0
 51
-90.0000000000013
  0
ARC
  8
0
 62
0
 10
-8.01377952755909
 20
1.6387795275590398
 30
0.0
 40
0.01968503937007871
 50
-90.0
 51
0.0
  0
ARC
  8
0
 62
0
 10
-1.4512795275590977
 20
2.900590551181056
 30
0.0
 40
0.01968503937007826
 50
-0.0
 51
90.00000000000065
  0
ARC
  8
0
 62
0
 10
-8.525590551181127
 20
2.1505905511810557
 30
0.0
 40
0.01968503937007959
 50
90.0
 51
180.0
  0
ARC
  8
0
 62
0
 10
-1.9630905511811358
 20
2.3887795275590404
 30
0.0
 40
0.01968503937007959
 50
-180.0
 51
-90.00000000000065
  0
ARC
  8
0
 62
0
 10
-1.5880905511811356
 20
1.4005905511810557
 30
0.0
 40
0.01968503937007826
 50
90.0000000000013
 51
180.0
  0
ARC
  8
0
 62
0
 10
-3.556574803149642
 20
0.6899606299212472
 30
0.0
 40
0.01968503937007826
 50
-0.0
 51
90.0
  0
ARC
  8
0
 62
0
 10
-5.386545275590587
 20
0.6899606299212472
 30
0.0
 40
0.01968503937007871
 50
90.0
 51
-180.0
  0
ARC
  8
0
 62
0
 10
-5.150324803149631
 20
0.6899606299212472
 30
0.0
 40
0.01968503937007782
 50
-0.0
 51
90.0
  0
ARC
  8
0
 62
0
 10
-3.7927952755905854
 20
0.13877952755903955
 30
0.0
 40
0.01968503937007871
 50
180.0
 51
-89.99999999999872
  0
ARC
  8
0
 62
0
 10
-9.369340551181129
 20
0.13877952755903955
 30
0.0
 40
0.01968503937007959
 50
180.0
 51
-90.0
  0
ARC
  8
0
 62
0
 10
-8.338090551181127
 20
1.4005905511810557
 30
0.0
 40
0.01968503937007959
 50
90.0
 51
180.0
  0
ARC
  8
0
 62
0
 10
-0.650590285203368
 20
0.6505905577516721
 30
0.0
 40
0.01968503937007826
 50
90.0
 51
-180.0
  0
ARC
  8
0
 62
0
 10
-5.994340551181127
 20
0.13877952755903955
 30
0.0
 40
0.01968503937007959
 50
180.0
 51
-90.0
  0
ARC
  8
0
 62
0
 10
-0.13877926158130904
 20
0.6505905577516721
 30
0.0
 40
0.01968503937007961
 50
-0.0
 51
89.99999999999984
  0
ARC
  8
0
 62
0
 10
-8.951279527559091
 20
2.3887795275590404
 30
0.0
 40
0.01968503937007782
 50
-90.0
 51
-0.0
  0
ARC
  8
0
 62
0
 10
-1.0762795275590975
 20
0.8887795275590397
 30
0.0
 40
0.01968503937007826
 50
-90.0000000000013
 51
0.0
  0
ARC
  8
0
 62
0
 10
-0.650590285203368
 20
0.13877953412961297
 30
0.0
 40
0.01968503937007826
 50
180.0
 51
-90.0
  0
ARC
  8
0
 62
0
 10
-9.369340551181129
 20
2.1505905511810557
 30
0.0
 40
0.01968503937007782
 50
90.0
 51
180.0
  0
ARC
  8
0
 62
0
 10
-8.338090551181127
 20
0.8887795275590397
 30
0.0
 40
0.01968503937007959
 50
180.0
 51
-90.0
  0
ARC
  8
0
 62
0
 10
-5.482529527559088
 20
0.13877952755903955
 30
0.0
 40
0.01968503937007871
 50
-90.0
 51
0.0
  0
ARC
  8
0
 62
0
 10
-6.326545275590584
 20
0.6899606299212472
 30
0.0
 40
0.01968503937007959
 50
90.0
 51
-180.0
  0
ARC
  8
0
 62
0
 10
-3.7927952755905854
 20
0.6899606299212472
 30
0.0
 40
0.01968503937007871
 50
89.99999999999872
 51
-180.0
  0
ARC
  8
0
 62
0
 10
-1.5880905511811356
 20
0.8887795275590397
 30
0.0
 40
0.01968503937007848
 50
180.0
 51
-90.0000000000013
  0
ARC
  8
0
 62
0
 10
-1.0762795275590975
 20
1.4005905511810557
 30
0.0
 40
0.01968503937007826
 50
0.0
 51
90.0000000000013
  0
ARC
  8
0
 62
0
 10
-4.400590551181126
 20
0.13877952755903955
 30
0.0
 40
0.01968503937007959
 50
180.0
 51
-90.0
  0
ARC
  8
0
 62
0
 10
-4.400590551181126
 20
0.6505905511810559
 30
0.0
 40
0.01968503937007959
 50
90.0
 51
180.0
  0
ARC
  8
0
 62
0
 10
-9.463090551181129
 20
2.900590551181056
 30
0.0
 40
0.01968503937007782
 50
90.0
 51
-180.0
  0
ARC
  8
0
 62
0
 10
-3.888779527559089
 20
0.6505905511810559
 30
0.0
 40
0.01968503937007915
 50
0.0
 51
90.0
  0
ARC
  8
0
 62
0
 10
-8.857529527559091
 20
1.6387795275590398
 30
0.0
 40
0.01968503937007782
 50
-90.0
 51
0.0
  0
ARC
  8
0
 62
0
 10
-4.732795275590583
 20
0.6899606299212472
 30
0.0
 40
0.01968503937007871
 50
90.0
 51
-180.0
  0
ARC
  8
0
 62
0
 10
-7.826279527559089
 20
1.4005905511810557
 30
0.0
 40
0.01968503937007871
 50
0.0
 51
90.0
  0
ARC
  8
0
 62
0
 10
-5.482529527559088
 20
0.6505905511810559
 30
0.0
 40
0.01968503937007871
 50
0.0
 51
90.0
  0
ARC
  8
0
 62
0
 10
-4.772165354330732
 20
0.6899606299212472
 30
0.0
 40
0.01968503937007871
 50
-90.0
 51
-0.0
  0
ARC
  8
0
 62
0
 10
-4.4965748031496275
 20
0.6899606299212472
 30
0.0
 40
0.01968503937007871
 50
-0.0
 51
90.00000000000259
  0
ARC
  8
0
 62
0
 10
-9.369340551181129
 20
1.6387795275590398
 30
0.0
 40
0.01968503937007782
 50
180.0
 51
-90.0
  0
ARC
  8
0
 62
0
 10
-6.090324803149628
 20
0.6899606299212472
 30
0.0
 40
0.01968503937007871
 50
-0.0
 51
90.0
  0
ARC
  8
0
 62
0
 10
-6.326545275590584
 20
0.13877952755903955
 30
0.0
 40
0.01968503937007959
 50
180.0
 51
-90.0
  0
ARC
  8
0
 62
0
 10
-3.556574803149642
 20
0.13877952755903955
 30
0.0
 40
0.0196850393700783
 50
-90.0
 51
0.0
  0
ARC
  8
0
 62
0
 10
-8.857529527559091
 20
0.6505905511810559
 30
0.0
 40
0.01968503937007782
 50
0.0
 51
90.0
  0
ARC
  8
0
 62
0
 10
-0.13877926158130904
 20
0.13877953412961297
 30
0.0
 40
0.01968503937007961
 50
-89.99999999999984
 51
0.0
  0
ARC
  8
0
 62
0
 10
-3.888779527559089
 20
0.13877952755903955
 30
0.0
 40
0.0196850393700792
 50
-90.0
 51
0.0
  0
ARC
  8
0
 62
0
 10
-8.857529527559091
 20
2.1505905511810557
 30
0.0
 40
0.01968503937007782
 50
0.0
 51
90.0
  0
ARC
  8
0
 62
0
 10
-6.090324803149628
 20
0.13877952755903955
 30
0.0
 40
0.01968503937007871
 50
-90.0
 51
0.0
  0
ARC
  8
0
 62
0
 10
-7.826279527559089
 20
0.8887795275590397
 30
0.0
 40
0.01968503937007871
 50
-90.0
 51
0.0
  0
ARC
  8
0
 62
0
 10
-9.369340551181129
 20
0.6505905511810559
 30
0.0
 40
0.01968503937007782
 50
90.0
 51
180.0
  0
ARC
  8
0
 62
0
 10
-9.463090551181129
 20
2.3887795275590404
 30
0.0
 40
0.01968503937007782
 50
-180.0
 51
-90.0
  0
ARC
  8
0
 62
0
 10
-4.4965748031496275
 20
0.13877952755903955
 30
0.0
 40
0.01968503937007871
 50
-90.00000000000259
 51
0.0
  0
ARC
  8
0
 62
0
 10
-5.386545275590587
 20
0.13877952755903955
 30
0.0
 40
0.01968503937007871
 50
180.0
 51
-90.0
  0
ARC
  8
0
 62
0
 10
-5.994340551181127
 20
0.6505905511810559
 30
0.0
 40
0.01968503937007959
 50
90.0
 51
180.0
  0
ARC
  8
0
 62
0
 10
-8.951279527559091
 20
2.900590551181056
 30
0.0
 40
0.01968503937007782
 50
-0.0
 51
90.0
  0
ARC
  8
0
 62
0
 10
-8.857529527559091
 20
0.13877952755903955
 30
0.0
 40
0.01968503937007782
 50
-90.0
 51
0.0
  0
LINE
  8
0
 62
0
 10
-4.806594488188993
 20
0.88877952755904
 30
0.0
 11
-4.806594488188993
 21
1.400590551181056
 31
0.0
  0
LINE
  8
0
 62
0
 10
-5.951279527559088
 20
2.369094488188965
 30
0.0
 11
-6.463090551181128
 21
2.369094488188965
 31
0.0
  0
LINE
  8
0
 62
0
 10
-6.482775590551201
 20
2.38877952755904
 30
0.0
 11
-6.482775590551201
 21
2.900590551181056
 31
0.0
  0
LINE
  8
0
 62
0
 10
-6.463090551181128
 20
2.920275590551173
 30
0.0
 11
-5.951279527559088
 21
2.920275590551173
 31
0.0
  0
LINE
  8
0
 62
0
 10
-5.181594488188993
 20
2.900590551181056
 30
0.0
 11
-5.181594488188993
 21
2.38877952755904
 31
0.0
  0
LINE
  8
0
 62
0
 10
-5.201279527559088
 20
2.369094488188965
 30
0.0
 11
-5.713090551181127
 21
2.369094488188965
 31
0.0
  0
LINE
  8
0
 62
0
 10
-1.420275324573442
 20
0.650590557751672
 30
0.0
 11
-1.420275324573442
 21
0.138779534129613
 31
0.0
  0
LINE
  8
0
 62
0
 10
-4.963090551181126
 20
2.920275590551173
 30
0.0
 11
-4.451279527559088
 21
2.920275590551173
 31
0.0
  0
LINE
  8
0
 62
0
 10
-4.2327755905512
 20
2.38877952755904
 30
0.0
 11
-4.2327755905512
 21
2.900590551181056
 31
0.0
  0
LINE
  8
0
 62
0
 10
-2.35777559055121
 20
1.400590551181056
 30
0.0
 11
-2.35777559055121
 21
0.888779527559039
 31
0.0
  0
LINE
  8
0
 62
0
 10
-7.963090551181128
 20
2.920275590551173
 30
0.0
 11
-7.451279527559088
 21
2.920275590551173
 31
0.0
  0
LINE
  8
0
 62
0
 10
-5.713090551181127
 20
2.920275590551173
 30
0.0
 11
-5.201279527559088
 21
2.920275590551173
 31
0.0
  0
LINE
  8
0
 62
0
 10
-5.732775590551201
 20
2.38877952755904
 30
0.0
 11
-5.732775590551201
 21
2.900590551181056
 31
0.0
  0
LINE
  8
0
 62
0
 10
-4.431594488188993
 20
2.900590551181056
 30
0.0
 11
-4.431594488188993
 21
2.38877952755904
 31
0.0
  0
LINE
  8
0
 62
0
 10
-4.213090551181126
 20
2.920275590551173
 30
0.0
 11
-3.701279527559088
 21
2.920275590551173
 31
0.0
  0
LINE
  8
0
 62
0
 10
-3.463090551181137
 20
2.920275590551173
 30
0.0
 11
-2.951279527559098
 21
2.920275590551173
 31
0.0
  0
LINE
  8
0
 62
0
 10
-2.931594488189003
 20
2.900590551181056
 30
0.0
 11
-2.931594488189003
 21
2.38877952755904
 31
0.0
  0
LINE
  8
0
 62
0
 10
-3.48277559055121
 20
2.38877952755904
 30
0.0
 11
-3.48277559055121
 21
2.900590551181056
 31
0.0
  0
LINE
  8
0
 62
0
 10
-3.306594488189003
 20
0.88877952755904
 30
0.0
 11
-3.306594488189003
 21
1.400590551181056
 31
0.0
  0
LINE
  8
0
 62
0
 10
-2.338090551181136
 20
0.869094488188965
 30
0.0
 11
-1.826279527559098
 21
0.869094488188965
 31
0.0
  0
LINE
  8
0
 62
0
 10
-8.713090551181129
 20
2.920275590551173
 30
0.0
 11
-8.20127952755909
 21
2.920275590551173
 31
0.0
  0
LINE
  8
0
 62
0
 10
-0.888779261581309
 20
0.670275597121746
 30
0.0
 11
-1.400590285203368
 21
0.670275597121746
 31
0.0
  0
LINE
  8
0
 62
0
 10
-8.181594488188994
 20
2.900590551181056
 30
0.0
 11
-8.181594488188994
 21
2.38877952755904
 31
0.0
  0
LINE
  8
0
 62
0
 10
-8.20127952755909
 20
2.369094488188965
 30
0.0
 11
-8.713090551181129
 21
2.369094488188965
 31
0.0
  0
LINE
  8
0
 62
0
 10
-1.400590285203368
 20
0.119094494759539
 30
0.0
 11
-0.888779261581309
 21
0.119094494759539
 31
0.0
  0
LINE
  8
0
 62
0
 10
-3.8577755905512
 20
1.400590551181056
 30
0.0
 11
-3.8577755905512
 21
0.888779527559039
 31
0.0
  0
LINE
  8
0
 62
0
 10
-1.826279527559098
 20
1.420275590551173
 30
0.0
 11
-2.338090551181136
 21
1.420275590551173
 31
0.0
  0
LINE
  8
0
 62
0
 10
-7.982775590551202
 20
2.38877952755904
 30
0.0
 11
-7.982775590551202
 21
2.900590551181056
 31
0.0
  0
LINE
  8
0
 62
0
 10
-6.681594488188995
 20
2.900590551181056
 30
0.0
 11
-6.681594488188995
 21
2.38877952755904
 31
0.0
  0
LINE
  8
0
 62
0
 10
-6.701279527559088
 20
2.369094488188965
 30
0.0
 11
-7.213090551181128
 21
2.369094488188965
 31
0.0
  0
LINE
  8
0
 62
0
 10
-5.931594488188994
 20
2.900590551181056
 30
0.0
 11
-5.931594488188994
 21
2.38877952755904
 31
0.0
  0
LINE
  8
0
 62
0
 10
-4.982775590551201
 20
2.38877952755904
 30
0.0
 11
-4.982775590551201
 21
2.900590551181056
 31
0.0
  0
LINE
  8
0
 62
0
 10
-7.025590551181127
 20
1.619094488188966
 30
0.0
 11
-6.513779527559089
 21
1.619094488188966
 31
0.0
  0
LINE
  8
0
 62
0
 10
-7.045275590551201
 20
2.150590551181056
 30
0.0
 11
-7.045275590551201
 21
1.63877952755904
 31
0.0
  0
LINE
  8
0
 62
0
 10
-3.701279527559088
 20
2.369094488188965
 30
0.0
 11
-4.213090551181126
 21
2.369094488188965
 31
0.0
  0
LINE
  8
0
 62
0
 10
-7.213090551181128
 20
2.920275590551173
 30
0.0
 11
-6.701279527559088
 21
2.920275590551173
 31
0.0
  0
LINE
  8
0
 62
0
 10
-2.951279527559098
 20
2.369094488188965
 30
0.0
 11
-3.463090551181137
 21
2.369094488188965
 31
0.0
  0
LINE
  8
0
 62
0
 10
-7.451279527559088
 20
2.369094488188965
 30
0.0
 11
-7.963090551181128
 21
2.369094488188965
 31
0.0
  0
LINE
  8
0
 62
0
 10
-1.806594488189003
 20
0.88877952755904
 30
0.0
 11
-1.806594488189003
 21
1.400590551181056
 31
0.0
  0
LINE
  8
0
 62
0
 10
-7.431594488188995
 20
2.900590551181056
 30
0.0
 11
-7.431594488188995
 21
2.38877952755904
 31
0.0
  0
LINE
  8
0
 62
0
 10
-4.451279527559088
 20
2.369094488188965
 30
0.0
 11
-4.963090551181126
 21
2.369094488188965
 31
0.0
  0
LINE
  8
0
 62
0
 10
-3.681594488188993
 20
2.900590551181056
 30
0.0
 11
-3.681594488188993
 21
2.38877952755904
 31
0.0
  0
LINE
  8
0
 62
0
 10
-3.838090551181126
 20
0.869094488188965
 30
0.0
 11
-3.326279527559099
 21
0.869094488188965
 31
0.0
  0
LINE
  8
0
 62
0
 10
-3.326279527559099
 20
1.420275590551173
 30
0.0
 11
-3.838090551181126
 21
1.420275590551173
 31
0.0
  0
LINE
  8
0
 62
0
 10
-8.732775590551201
 20
2.38877952755904
 30
0.0
 11
-8.732775590551201
 21
2.900590551181056
 31
0.0
  0
LINE
  8
0
 62
0
 10
-7.232775590551202
 20
2.38877952755904
 30
0.0
 11
-7.232775590551202
 21
2.900590551181056
 31
0.0
  0
LINE
  8
0
 62
0
 10
-0.869094222211235
 20
0.138779534129613
 30
0.0
 11
-0.869094222211235
 21
0.650590557751672
 31
0.0
  0
LINE
  8
0
 62
0
 10
-6.513779527559089
 20
2.170275590551173
 30
0.0
 11
-7.025590551181127
 21
2.170275590551173
 31
0.0
  0
LINE
  8
0
 62
0
 10
-0.400344488189003
 20
2.900590551181056
 30
0.0
 11
-0.400344488189003
 21
2.38877952755904
 31
0.0
  0
LINE
  8
0
 62
0
 10
-8.837844488188995
 20
0.13877952755904
 30
0.0
 11
-8.837844488188995
 21
0.650590551181056
 31
0.0
  0
LINE
  8
0
 62
0
 10
-5.462844488188994
 20
0.13877952755904
 30
0.0
 11
-5.462844488188994
 21
0.650590551181056
 31
0.0
  0
LINE
  8
0
 62
0
 10
-7.994094488188995
 20
1.63877952755904
 30
0.0
 11
-7.994094488188995
 21
2.150590551181056
 31
0.0
  0
LINE
  8
0
 62
0
 10
-0.119094222211235
 20
0.138779534129613
 30
0.0
 11
-0.119094222211235
 21
0.650590557751672
 31
0.0
  0
LINE
  8
0
 62
0
 10
-1.60777559055121
 20
1.400590551181056
 30
0.0
 11
-1.60777559055121
 21
0.888779527559039
 31
0.0
  0
LINE
  8
0
 62
0
 10
-6.070639763779555
 20
0.13877952755904
 30
0.0
 11
-6.070639763779555
 21
0.689960629921247
 31
0.0
  0
LINE
  8
0
 62
0
 10
-3.81248031496066
 20
0.689960629921247
 30
0.0
 11
-3.81248031496066
 21
0.138779527559039
 31
0.0
  0
LINE
  8
0
 62
0
 10
-9.389025590551203
 20
0.650590551181056
 30
0.0
 11
-9.389025590551203
 21
0.138779527559039
 31
0.0
  0
LINE
  8
0
 62
0
 10
-8.951279527559091
 20
2.369094488188965
 30
0.0
 11
-9.463090551181129
 21
2.369094488188965
 31
0.0
  0
LINE
  8
0
 62
0
 10
-3.869094488188993
 20
0.13877952755904
 30
0.0
 11
-3.869094488188993
 21
0.650590551181056
 31
0.0
  0
LINE
  8
0
 62
0
 10
-2.713090551181137
 20
2.920275590551173
 30
0.0
 11
-2.201279527559098
 21
2.920275590551173
 31
0.0
  0
LINE
  8
0
 62
0
 10
-4.476889763779554
 20
0.13877952755904
 30
0.0
 11
-4.476889763779554
 21
0.689960629921247
 31
0.0
  0
LINE
  8
0
 62
0
 10
-9.463090551181129
 20
2.920275590551173
 30
0.0
 11
-8.951279527559091
 21
2.920275590551173
 31
0.0
  0
LINE
  8
0
 62
0
 10
-9.389025590551203
 20
1.63877952755904
 30
0.0
 11
-9.389025590551203
 21
2.150590551181056
 31
0.0
  0
LINE
  8
0
 62
0
 10
-8.338090551181127
 20
0.869094488188965
 30
0.0
 11
-7.826279527559089
 21
0.869094488188965
 31
0.0
  0
LINE
  8
0
 62
0
 10
-3.536889763779567
 20
0.13877952755904
 30
0.0
 11
-3.536889763779567
 21
0.689960629921247
 31
0.0
  0
LINE
  8
0
 62
0
 10
-1.98277559055121
 20
2.38877952755904
 30
0.0
 11
-1.98277559055121
 21
2.900590551181056
 31
0.0
  0
LINE
  8
0
 62
0
 10
-6.090324803149628
 20
0.709645669291321
 30
0.0
 11
-6.326545275590584
 21
0.709645669291321
 31
0.0
  0
LINE
  8
0
 62
0
 10
-8.525590551181127
 20
1.619094488188966
 30
0.0
 11
-8.01377952755909
 21
1.619094488188966
 31
0.0
  0
LINE
  8
0
 62
0
 10
-6.326545275590584
 20
0.119094494759539
 30
0.0
 11
-6.090324803149628
 21
0.119094494759539
 31
0.0
  0
LINE
  8
0
 62
0
 10
-0.931840551181136
 20
2.920275590551173
 30
0.0
 11
-0.420029527559098
 21
2.920275590551173
 31
0.0
  0
LINE
  8
0
 62
0
 10
-9.369340551181129
 20
0.119094494759539
 30
0.0
 11
-8.857529527559091
 21
0.119094494759539
 31
0.0
  0
LINE
  8
0
 62
0
 10
-3.792795275590585
 20
0.119094488188965
 30
0.0
 11
-3.556574803149642
 21
0.119094488188965
 31
0.0
  0
LINE
  8
0
 62
0
 10
-5.994340551181127
 20
0.119094494759539
 30
0.0
 11
-5.482529527559088
 21
0.119094494759539
 31
0.0
  0
LINE
  8
0
 62
0
 10
-8.931594488188995
 20
2.900590551181056
 30
0.0
 11
-8.931594488188995
 21
2.38877952755904
 31
0.0
  0
LINE
  8
0
 62
0
 10
-6.494094488188994
 20
1.63877952755904
 30
0.0
 11
-6.494094488188994
 21
2.150590551181056
 31
0.0
  0
LINE
  8
0
 62
0
 10
-8.01377952755909
 20
2.170275590551173
 30
0.0
 11
-8.525590551181127
 21
2.170275590551173
 31
0.0
  0
LINE
  8
0
 62
0
 10
-2.201279527559098
 20
2.369094488188965
 30
0.0
 11
-2.713090551181137
 21
2.369094488188965
 31
0.0
  0
LINE
  8
0
 62
0
 10
-0.95152559055121
 20
2.38877952755904
 30
0.0
 11
-0.95152559055121
 21
2.900590551181056
 31
0.0
  0
LINE
  8
0
 62
0
 10
-9.369340551181129
 20
2.170275590551173
 30
0.0
 11
-8.857529527559091
 21
2.170275590551173
 31
0.0
  0
LINE
  8
0
 62
0
 10
-6.34623031496066
 20
0.689960629921247
 30
0.0
 11
-6.34623031496066
 21
0.138779527559039
 31
0.0
  0
LINE
  8
0
 62
0
 10
-8.857529527559091
 20
0.670275590551173
 30
0.0
 11
-9.369340551181129
 21
0.670275590551173
 31
0.0
  0
LINE
  8
0
 62
0
 10
-6.014025590551201
 20
0.650590551181056
 30
0.0
 11
-6.014025590551201
 21
0.138779527559039
 31
0.0
  0
LINE
  8
0
 62
0
 10
-2.181594488189003
 20
2.900590551181056
 30
0.0
 11
-2.181594488189003
 21
2.38877952755904
 31
0.0
  0
LINE
  8
0
 62
0
 10
-2.73277559055121
 20
2.38877952755904
 30
0.0
 11
-2.73277559055121
 21
2.900590551181056
 31
0.0
  0
LINE
  8
0
 62
0
 10
-8.545275590551201
 20
2.150590551181056
 30
0.0
 11
-8.545275590551201
 21
1.63877952755904
 31
0.0
  0
LINE
  8
0
 62
0
 10
-1.451279527559098
 20
2.369094488188965
 30
0.0
 11
-1.963090551181136
 21
2.369094488188965
 31
0.0
  0
LINE
  8
0
 62
0
 10
-1.431594488189003
 20
2.900590551181056
 30
0.0
 11
-1.431594488189003
 21
2.38877952755904
 31
0.0
  0
LINE
  8
0
 62
0
 10
-1.963090551181136
 20
2.920275590551173
 30
0.0
 11
-1.451279527559098
 21
2.920275590551173
 31
0.0
  0
LINE
  8
0
 62
0
 10
-0.420029527559098
 20
2.369094488188965
 30
0.0
 11
-0.931840551181136
 21
2.369094488188965
 31
0.0
  0
LINE
  8
0
 62
0
 10
-8.857529527559091
 20
1.619094488188966
 30
0.0
 11
-9.369340551181129
 21
1.619094488188966
 31
0.0
  0
LINE
  8
0
 62
0
 10
-8.357775590551201
 20
1.400590551181056
 30
0.0
 11
-8.357775590551201
 21
0.888779527559039
 31
0.0
  0
LINE
  8
0
 62
0
 10
-3.556574803149642
 20
0.709645669291321
 30
0.0
 11
-3.792795275590585
 21
0.709645669291321
 31
0.0
  0
LINE
  8
0
 62
0
 10
-0.138779261581309
 20
0.670275597121746
 30
0.0
 11
-0.650590285203368
 21
0.670275597121746
 31
0.0
  0
LINE
  8
0
 62
0
 10
-0.650590285203368
 20
0.119094494759539
 30
0.0
 11
-0.138779261581309
 21
0.119094494759539
 31
0.0
  0
LINE
  8
0
 62
0
 10
-8.837844488188995
 20
2.150590551181056
 30
0.0
 11
-8.837844488188995
 21
1.63877952755904
 31
0.0
  0
LINE
  8
0
 62
0
 10
-7.826279527559089
 20
1.420275590551173
 30
0.0
 11
-8.338090551181127
 21
1.420275590551173
 31
0.0
  0
LINE
  8
0
 62
0
 10
-7.806594488188994
 20
0.88877952755904
 30
0.0
 11
-7.806594488188994
 21
1.400590551181056
 31
0.0
  0
LINE
  8
0
 62
0
 10
-0.670275324573442
 20
0.650590557751672
 30
0.0
 11
-0.670275324573442
 21
0.138779534129613
 31
0.0
  0
LINE
  8
0
 62
0
 10
-5.482529527559088
 20
0.670275590551173
 30
0.0
 11
-5.994340551181127
 21
0.670275590551173
 31
0.0
  0
LINE
  8
0
 62
0
 10
-9.482775590551203
 20
2.38877952755904
 30
0.0
 11
-9.482775590551203
 21
2.900590551181056
 31
0.0
  0
LINE
  8
0
 62
0
 10
-1.076279527559098
 20
0.869094488188965
 30
0.0
 11
-1.588090551181136
 21
0.869094488188965
 31
0.0
  0
LINE
  8
0
 62
0
 10
-1.588090551181136
 20
1.420275590551173
 30
0.0
 11
-1.076279527559098
 21
1.420275590551173
 31
0.0
  0
LINE
  8
0
 62
0
 10
-1.056594488189002
 20
0.88877952755904
 30
0.0
 11
-1.056594488189002
 21
1.400590551181056
 31
0.0
  0
LINE
  8
0
 62
0
 10
-4.400590551181126
 20
0.119094494759539
 30
0.0
 11
-3.888779527559089
 21
0.119094494759539
 31
0.0
  0
LINE
  8
0
 62
0
 10
-4.4202755905512
 20
0.650590551181056
 30
0.0
 11
-4.4202755905512
 21
0.138779527559039
 31
0.0
  0
LINE
  8
0
 62
0
 10
-3.888779527559089
 20
0.670275590551173
 30
0.0
 11
-4.400590551181126
 21
0.670275590551173
 31
0.0
  0
LINE
  8
0
 62
0
 10
-4.772165354330732
 20
0.670275590551173
 30
0.0
 11
-5.110954724409483
 21
0.670275590551173
 31
0.0
  0
LINE
  8
0
 62
0
 10
-4.496574803149628
 20
0.709645669291321
 30
0.0
 11
-4.732795275590583
 21
0.709645669291321
 31
0.0
  0
LINE
  8
0
 62
0
 10
-5.386545275590587
 20
0.119094488188965
 30
0.0
 11
-4.496574803149628
 21
0.119094488188965
 31
0.0
  0
LINE
  8
0
 62
0
 10
-5.40623031496066
 20
0.689960629921247
 30
0.0
 11
-5.40623031496066
 21
0.13877952755904
 31
0.0
  0
LINE
  8
0
 62
0
 10
-5.150324803149631
 20
0.709645669291321
 30
0.0
 11
-5.386545275590587
 21
0.709645669291321
 31
0.0
  0
LINE
  8
0
 62
0
 10
-8.338090551181127
 20
0.119094494759539
 30
0.0
 11
-7.826279527559089
 21
0.119094494759539
 31
0.0
  0
LINE
  8
0
 62
0
 10
-0.783710629921284
 20
1.619094488188966
 30
0.0
 11
-0.838090551181136
 21
1.619094488188966
 31
0.0
  0
LINE
  8
0
 62
0
 10
-0.838090551181136
 20
2.170275590551173
 30
0.0
 11
-0.326279527559098
 21
2.170275590551173
 31
0.0
  0
LINE
  8
0
 62
0
 10
-9.295275590551201
 20
1.400590551181056
 30
0.0
 11
-9.295275590551201
 21
0.888779527559039
 31
0.0
  0
LINE
  8
0
 62
0
 10
-7.775590551181128
 20
1.619094488188966
 30
0.0
 11
-7.263779527559089
 21
1.619094488188966
 31
0.0
  0
LINE
  8
0
 62
0
 10
-2.802165354330743
 20
0.670275590551173
 30
0.0
 11
-3.088090551181137
 21
0.670275590551173
 31
0.0
  0
LINE
  8
0
 62
0
 10
-9.275590551181129
 20
0.869094488188965
 30
0.0
 11
-8.76377952755909
 21
0.869094488188965
 31
0.0
  0
LINE
  8
0
 62
0
 10
-0.85777559055121
 20
1.63877952755904
 30
0.0
 11
-0.85777559055121
 21
2.150590551181056
 31
0.0
  0
LINE
  8
0
 62
0
 10
-3.088090551181137
 20
0.119094494759539
 30
0.0
 11
-2.526574803149639
 21
0.119094494759539
 31
0.0
  0
LINE
  8
0
 62
0
 10
-0.212844488189003
 20
1.871574803149559
 30
0.0
 11
-0.212844488189003
 21
2.107795275590535
 31
0.0
  0
LINE
  8
0
 62
0
 10
-8.357775590551201
 20
0.650590551181056
 30
0.0
 11
-8.357775590551201
 21
0.138779527559039
 31
0.0
  0
LINE
  8
0
 62
0
 10
-7.02657480314963
 20
0.709645669291321
 30
0.0
 11
-7.262795275590586
 21
0.709645669291321
 31
0.0
  0
LINE
  8
0
 62
0
 10
-0.80339566929138
 20
1.167795275590537
 30
0.0
 11
-0.80339566929138
 21
0.931574803149561
 31
0.0
  0
LINE
  8
0
 62
0
 10
-0.76402559055121
 20
1.599409448818849
 30
0.0
 11
-0.76402559055121
 21
1.207165354330686
 31
0.0
  0
LINE
  8
0
 62
0
 10
-0.232529527559098
 20
2.127480314960609
 30
0.0
 11
-0.286909448818928
 21
2.127480314960609
 31
0.0
  0
LINE
  8
0
 62
0
 10
-7.795275590551203
 20
2.150590551181056
 30
0.0
 11
-7.795275590551203
 21
1.63877952755904
 31
0.0
  0
LINE
  8
0
 62
0
 10
-6.795029527559088
 20
0.670275590551173
 30
0.0
 11
-6.987204724409483
 21
0.670275590551173
 31
0.0
  0
LINE
  8
0
 62
0
 10
-7.326525590551202
 20
0.650590551181056
 30
0.0
 11
-7.326525590551202
 21
0.13877952755904
 31
0.0
  0
LINE
  8
0
 62
0
 10
-8.744094488188994
 20
0.88877952755904
 30
0.0
 11
-8.744094488188994
 21
1.400590551181056
 31
0.0
  0
LINE
  8
0
 62
0
 10
-2.506889763779566
 20
0.13877952755904
 30
0.0
 11
-2.506889763779566
 21
0.689960629921247
 31
0.0
  0
LINE
  8
0
 62
0
 10
-3.10777559055121
 20
0.650590551181056
 30
0.0
 11
-3.10777559055121
 21
0.13877952755904
 31
0.0
  0
LINE
  8
0
 62
0
 10
-7.306840551181128
 20
0.119094494759539
 30
0.0
 11
-6.795029527559088
 21
0.119094494759539
 31
0.0
  0
LINE
  8
0
 62
0
 10
-0.212844488189003
 20
0.88877952755904
 30
0.0
 11
-0.212844488189003
 21
1.775590551181056
 31
0.0
  0
LINE
  8
0
 62
0
 10
-0.232529527559098
 20
0.869094488188965
 30
0.0
 11
-0.744340551181136
 21
0.869094488188965
 31
0.0
  0
LINE
  8
0
 62
0
 10
-6.775344488188995
 20
0.13877952755904
 30
0.0
 11
-6.775344488188995
 21
0.650590551181056
 31
0.0
  0
LINE
  8
0
 62
0
 10
-7.806594488188994
 20
0.13877952755904
 30
0.0
 11
-7.806594488188994
 21
0.650590551181056
 31
0.0
  0
LINE
  8
0
 62
0
 10
-2.526574803149639
 20
0.709645669291321
 30
0.0
 11
-2.762795275590595
 21
0.709645669291321
 31
0.0
  0
LINE
  8
0
 62
0
 10
-0.286909448818928
 20
1.851889763779484
 30
0.0
 11
-0.232529527559098
 21
1.851889763779484
 31
0.0
  0
LINE
  8
0
 62
0
 10
-0.232529527559098
 20
1.795275590551173
 30
0.0
 11
-0.286909448818928
 21
1.795275590551173
 31
0.0
  0
LINE
  8
0
 62
0
 10
-8.76377952755909
 20
1.42027559055113
 30
0.0
 11
-9.275590551181129
 21
1.42027559055113
 31
0.0
  0
LINE
  8
0
 62
0
 10
-7.826279527559089
 20
0.670275590551173
 30
0.0
 11
-8.338090551181127
 21
0.670275590551173
 31
0.0
  0
ARC
  8
0
 62
0
 10
-9.673720472425446
 20
2.9143700787401503
 30
0.0
 40
0.10531496062987777
 50
90.0
 51
127.87921976709167
  0
LINE
  8
0
 62
0
 10
-7.244094488188995
 20
1.63877952755904
 30
0.0
 11
-7.244094488188995
 21
2.150590551181056
 31
0.0
  0
LINE
  8
0
 62
0
 10
-1.775590551181136
 20
1.619094488188966
 30
0.0
 11
-1.263779527559098
 21
1.619094488188966
 31
0.0
  0
LINE
  8
0
 62
0
 10
-1.79527559055121
 20
2.150590551181056
 30
0.0
 11
-1.79527559055121
 21
1.63877952755904
 31
0.0
  0
ARC
  8
0
 62
0
 10
-9.641240157480341
 20
0.28937007874010773
 30
0.0
 40
0.05905511811023523
 50
-90.0
 51
-0.0
  0
LINE
  8
0
 62
0
 10
-3.295275590551211
 20
2.150590551181056
 30
0.0
 11
-3.295275590551211
 21
1.63877952755904
 31
0.0
  0
LINE
  8
0
 62
0
 10
-1.638779261581309
 20
0.670275597121746
 30
0.0
 11
-2.150590285203368
 21
0.670275597121746
 31
0.0
  0
LINE
  8
0
 62
0
 10
-2.170275324573442
 20
0.650590557751672
 30
0.0
 11
-2.170275324573442
 21
0.138779534129613
 31
0.0
  0
LINE
  8
0
 62
0
 10
-3.088090551181137
 20
0.869094488188965
 30
0.0
 11
-2.576279527559098
 21
0.869094488188965
 31
0.0
  0
LINE
  8
0
 62
0
 10
-4.588090551181126
 20
0.869094488188965
 30
0.0
 11
-4.076279527559088
 21
0.869094488188965
 31
0.0
  0
LINE
  8
0
 62
0
 10
-2.744094488189003
 20
1.63877952755904
 30
0.0
 11
-2.744094488189003
 21
2.150590551181056
 31
0.0
  0
LINE
  8
0
 62
0
 10
-6.306594488188994
 20
0.88877952755904
 30
0.0
 11
-6.306594488188994
 21
1.400590551181056
 31
0.0
  0
ARC
  8
0
 62
0
 10
0.12442707721232796
 20
0.1925882812763167
 30
0.0
 40
0.01968503937007691
 50
-78.81194424868173
 51
52.120780325474236
  0
ARC
  8
0
 62
0
 10
-9.726297155957138
 20
2.8467817974008534
 30
0.0
 40
0.01968503937007969
 50
101.1880557474289
 51
-127.87921965928507
  0
LINE
  8
0
 62
0
 10
-5.763779527559088
 20
2.170275590551173
 30
0.0
 11
-6.275590551181128
 21
2.170275590551173
 31
0.0
  0
LINE
  8
0
 62
0
 10
-3.10777559055121
 20
1.400590551181056
 30
0.0
 11
-3.10777559055121
 21
0.88877952755904
 31
0.0
  0
LINE
  8
0
 62
0
 10
-5.576279527559088
 20
1.420275590551173
 30
0.0
 11
-6.088090551181127
 21
1.420275590551173
 31
0.0
  0
ARC
  8
0
 62
0
 10
0.12442707721232796
 20
0.05741171872361583
 30
0.0
 40
0.01968503937007961
 50
-52.12078032549506
 51
78.81194424868949
  0
ARC
  8
0
 62
0
 10
0.07185039370076045
 20
2.914370078740108
 30
0.0
 40
0.1053149606299213
 50
-90.00000000000024
 51
-52.12078032547656
  0
ARC
  8
0
 62
0
 10
-9.739665354330736
 20
0.12499999999998754
 30
0.0
 40
0.04921259842519707
 50
-78.81194424868843
 51
78.81194424868211
  0
ARC
  8
0
 62
0
 10
0.12442707721232796
 20
2.9819583600164803
 30
0.0
 40
0.01968503937007695
 50
-78.81194424868781
 51
52.120780325493556
  0
LINE
  8
0
 62
0
 10
-6.088090551181127
 20
0.869094488188965
 30
0.0
 11
-5.576279527559088
 21
0.869094488188965
 31
0.0
  0
LINE
  8
0
 62
0
 10
-4.607775590551201
 20
1.400590551181056
 30
0.0
 11
-4.607775590551201
 21
0.888779527559039
 31
0.0
  0
LINE
  8
0
 62
0
 10
-6.107775590551201
 20
1.400590551181056
 30
0.0
 11
-6.107775590551201
 21
0.888779527559039
 31
0.0
  0
LINE
  8
0
 62
0
 10
-2.576279527559098
 20
1.420275590551173
 30
0.0
 11
-3.088090551181137
 21
1.420275590551173
 31
0.0
  0
LINE
  8
0
 62
0
 10
-7.263779527559089
 20
2.170275590551173
 30
0.0
 11
-7.775590551181128
 21
2.170275590551173
 31
0.0
  0
LINE
  8
0
 62
0
 10
-4.775590551181127
 20
1.619094488188966
 30
0.0
 11
-4.263779527559088
 21
1.619094488188966
 31
0.0
  0
LINE
  8
0
 62
0
 10
-6.275590551181128
 20
1.619094488188966
 30
0.0
 11
-5.763779527559088
 21
1.619094488188966
 31
0.0
  0
LINE
  8
0
 62
0
 10
-4.7952755905512
 20
2.150590551181056
 30
0.0
 11
-4.7952755905512
 21
1.63877952755904
 31
0.0
  0
LINE
  8
0
 62
0
 10
-5.744094488188994
 20
1.63877952755904
 30
0.0
 11
-5.744094488188994
 21
2.150590551181056
 31
0.0
  0
LINE
  8
0
 62
0
 10
-4.263779527559088
 20
2.170275590551173
 30
0.0
 11
-4.775590551181127
 21
2.170275590551173
 31
0.0
  0
LINE
  8
0
 62
0
 10
-4.244094488188993
 20
1.63877952755904
 30
0.0
 11
-4.244094488188993
 21
2.150590551181056
 31
0.0
  0
LINE
  8
0
 62
0
 10
-3.275590551181137
 20
1.619094488188966
 30
0.0
 11
-2.763779527559098
 21
1.619094488188966
 31
0.0
  0
LINE
  8
0
 62
0
 10
-2.763779527559098
 20
2.170275590551173
 30
0.0
 11
-3.275590551181137
 21
2.170275590551173
 31
0.0
  0
LINE
  8
0
 62
0
 10
-1.263779527559098
 20
2.170275590551173
 30
0.0
 11
-1.775590551181136
 21
2.170275590551173
 31
0.0
  0
LINE
  8
0
 62
0
 10
-6.857775590551201
 20
1.400590551181056
 30
0.0
 11
-6.857775590551201
 21
0.888779527559039
 31
0.0
  0
LINE
  8
0
 62
0
 10
-6.326279527559088
 20
1.420275590551173
 30
0.0
 11
-6.838090551181127
 21
1.420275590551173
 31
0.0
  0
LINE
  8
0
 62
0
 10
-2.150590285203368
 20
0.119094494759539
 30
0.0
 11
-1.638779261581309
 21
0.119094494759539
 31
0.0
  0
LINE
  8
0
 62
0
 10
-1.244094488189002
 20
1.63877952755904
 30
0.0
 11
-1.244094488189002
 21
2.150590551181056
 31
0.0
  0
LINE
  8
0
 62
0
 10
-2.556594488189003
 20
0.88877952755904
 30
0.0
 11
-2.556594488189003
 21
1.400590551181056
 31
0.0
  0
LINE
  8
0
 62
0
 10
-6.838090551181127
 20
0.869094488188965
 30
0.0
 11
-6.326279527559088
 21
0.869094488188965
 31
0.0
  0
LINE
  8
0
 62
0
 10
-6.295275590551201
 20
2.150590551181056
 30
0.0
 11
-6.295275590551201
 21
1.63877952755904
 31
0.0
  0
LINE
  8
0
 62
0
 10
-4.076279527559088
 20
1.420275590551173
 30
0.0
 11
-4.588090551181126
 21
1.420275590551173
 31
0.0
  0
LINE
  8
0
 62
0
 10
-5.556594488188994
 20
0.88877952755904
 30
0.0
 11
-5.556594488188994
 21
1.400590551181056
 31
0.0
  0
LINE
  8
0
 62
0
 10
-4.056594488188993
 20
0.88877952755904
 30
0.0
 11
-4.056594488188993
 21
1.400590551181056
 31
0.0
  0
ARC
  8
0
 62
0
 10
0.13779527559050928
 20
0.12499999999998754
 30
0.0
 40
0.04921259842519633
 50
101.1880557513192
 51
-101.18805575131321
  0
LINE
  8
0
 62
0
 10
-1.619094222211235
 20
0.138779534129613
 30
0.0
 11
-1.619094222211235
 21
0.650590557751672
 31
0.0
  0
ARC
  8
0
 62
0
 10
0.07185039370076045
 20
2.914370078740108
 30
0.0
 40
0.10531496062992009
 50
52.120780325493506
 51
90.00000000000024
  0
ARC
  8
0
 62
0
 10
-9.72629715608433
 20
2.98195835998054
 30
0.0
 40
0.01968503930799283
 50
127.87921976709356
 51
-101.1880556396094
  0
ARC
  8
0
 62
0
 10
-9.726297155952553
 20
0.1925882812763167
 30
0.0
 40
0.01968503937007878
 50
127.87921967453458
 51
-101.18805575132403
  0
ARC
  8
0
 62
0
 10
0.12442707721232796
 20
2.8467817974637795
 30
0.0
 40
0.01968503937007839
 50
-52.120780325478094
 51
78.81194424868279
  0
ARC
  8
0
 62
0
 10
0.03937007874013791
 20
2.7499999999999885
 30
0.0
 40
0.05905511811023612
 50
89.99999999999991
 51
-180.0
  0
ARC
  8
0
 62
0
 10
0.13779527559050928
 20
2.914370078740108
 30
0.0
 40
0.04921259842519764
 50
101.18805575131287
 51
-101.18805575132015
  0
ARC
  8
0
 62
0
 10
-9.739665354330736
 20
2.9143700786781204
 30
0.0
 40
0.04921259842519644
 50
-78.81194425257142
 51
78.81194436039488
  0
ARC
  8
0
 62
0
 10
-9.673720472440964
 20
0.12499999999998754
 30
0.0
 40
0.10531496062992121
 50
-127.87921967451861
 51
-90.0
  0
ARC
  8
0
 62
0
 10
0.07185039370076045
 20
0.12499999999998754
 30
0.0
 40
0.10531496062992124
 50
-90.00000000000024
 51
-52.12078032549374
  0
ARC
  8
0
 62
0
 10
-9.673720472425446
 20
2.9143700787401503
 30
0.0
 40
0.10531496069196328
 50
-127.87921965928244
 51
-90.0
  0
ARC
  8
0
 62
0
 10
-9.641240157480341
 20
2.7499999999999885
 30
0.0
 40
0.05905511811023523
 50
-0.0
 51
90.0
  0
ARC
  8
0
 62
0
 10
-9.726297155952553
 20
0.05741171872361583
 30
0.0
 40
0.01968503937007931
 50
101.18805575131361
 51
-127.87921967451607
  0
ARC
  8
0
 62
0
 10
0.07185039370076045
 20
0.12499999999998754
 30
0.0
 40
0.10531496062991993
 50
52.12078032547598
 51
90.00000000000024
  0
ARC
  8
0
 62
0
 10
0.03937007874011662
 20
0.28937007874010773
 30
0.0
 40
0.05905511811023753
 50
-180.0
 51
-90.0000000000006
  0
ARC
  8
0
 62
0
 10
-9.673720472440964
 20
0.12499999999998754
 30
0.0
 40
0.10531496062992096
 50
90.0
 51
127.87921967453565
  0
LINE
  8
0
 62
0
 10
0.039370078740138
 20
2.809055118110211
 30
0.0
 11
0.07185039370076
 21
2.809055118110211
 31
0.0
  0
LINE
  8
0
 62
0
 10
-9.673720472440964
 20
0.019685039370048
 30
0.0
 11
0.07185039370076
 21
0.019685039370048
 31
0.0
  0
LINE
  8
0
 62
0
 10
-0.019685039370106
 20
0.289370078740107
 30
0.0
 11
-0.019685039370106
 21
2.749999999999988
 31
0.0
  0
LINE
  8
0
 62
0
 10
0.07185039370076
 20
3.019685039370049
 30
0.0
 11
-9.673720472425446
 21
3.019685039370049
 31
0.0
  0
LINE
  8
0
 62
0
 10
-9.673720472425446
 20
2.809055118048223
 30
0.0
 11
-9.641240157480341
 21
2.809055118048223
 31
0.0
  0
LINE
  8
0
 62
0
 10
-9.641240157480341
 20
0.230314960629885
 30
0.0
 11
-9.673720472440964
 21
0.230314960629885
 31
0.0
  0
LINE
  8
0
 62
0
 10
0.07185039370076
 20
0.230314960629885
 30
0.0
 11
0.039370078740117
 21
0.230314960629885
 31
0.0
  0
LINE
  8
0
 62
0
 10
-9.582185039370097
 20
2.749999999999988
 30
0.0
 11
-9.582185039370097
 21
0.289370078740108
 31
0.0
  0
ARC
  8
0
 62
0
 10
-3.513779527559098
 20
2.1505905511810557
 30
0.0
 40
0.01968503937007959
 50
0.0
 51
90.0
  0
ARC
  8
0
 62
0
 10
-5.525590551181127
 20
2.1505905511810557
 30
0.0
 40
0.01968503937007871
 50
90.0
 51
180.0
  0
ARC
  8
0
 62
0
 10
-5.013779527559088
 20
1.6387795275590398
 30
0.0
 40
0.01968503937007871
 50
-90.0
 51
0.0
  0
ARC
  8
0
 62
0
 10
-5.525590551181127
 20
1.6387795275590398
 30
0.0
 40
0.01968503937007871
 50
180.0
 51
-90.0
  0
POLYLINE
  8
0
 62
0
 70
0
 66
1
 10
0.0
 20
0.0
 30
0.0
  0
VERTEX
  8
0
 10
-0.306594488189007
 20
1.83220472440941
 30
0.0
  0
VERTEX
  8
0
 10
-0.306594488189007
 20
1.8149606299212468
 30
0.0
  0
SEQEND
  8
0
  0
POLYLINE
  8
0
 62
0
 70
0
 66
1
 10
0.0
 20
0.0
 30
0.0
  0
VERTEX
  8
0
 10
-7.302165354330734
 20
0.67027559712174
 30
0.0
  0
VERTEX
  8
0
 10
-7.3068405511811285
 20
0.6702755905511331
 30
0.0
  0
SEQEND
  8
0
  0
POLYLINE
  8
0
 62
0
 70
0
 66
1
 10
0.0
 20
0.0
 30
0.0
  0
VERTEX
  8
0
 10
-0.764025590551205
 20
0.892204724409412
 30
0.0
  0
VERTEX
  8
0
 10
-0.764025590551214
 20
0.888779527559039
 30
0.0
  0
SEQEND
  8
0
  0
POLYLINE
  8
0
 62
0
 70
0
 66
1
 10
0.0
 20
0.0
 30
0.0
  0
VERTEX
  8
0
 10
-0.306594488189019
 20
2.150590551181056
 30
0.0
  0
VERTEX
  8
0
 10
-0.30659448818900703
 20
2.1471653543306832
 30
0.0
  0
SEQEND
  8
0
  0
ENDSEC
  0
EOF
