  0
SECTION
  2
HEADER
  9
$ACADVER
  1
AC1009
  9
$INSBASE
 10
0.0
 20
0.0
 30
0.0
  9
$EXTMIN
 10
0.0
 20
0.0
 30
0.0
  9
$EXTMAX
 10
0.0
 20
0.0
 30
0.0
  0
ENDSEC
  0
SECTION
  2
TABLES
  0
TABLE
  2
VPORT
 70
0
  0
ENDTAB
  0
TABLE
  2
LTYPE
 70
1
  0
LTYPE
  2
CONTINUOUS
 70
0
  3
Solid line
 72
65
 73
0
 40
0.0
  0
ENDTAB
  0
TABLE
  2
LAYER
 70
1
  0
LAYER
  2
0
 70
64
 62
7
  6
continuous
  0
ENDTAB
  0
TABLE
  2
STYLE
 70
1
  0
STYLE
  2
STANDARD
 70
0
 40
0
 41
1.0
 50
0.0
 71
0
 42
1
 3
ARIAL.TTF
 4

  0
ENDTAB
  0
TABLE
  2
VIEW
 70
0
  0
ENDTAB
  0
ENDSEC
  0
SECTION
  2
BLOCKS
  0
ENDSEC
  0
SECTION
  2
ENTITIES
  0
ARC
  8
0
 62
0
 10
3.119094488188978
 20
-0.630905511811024
 30
0.0
 40
0.019685039370078705
 50
-180.0
 51
-90.0
  0
LINE
  8
0
 62
0
 10
3.0994094488188995
 20
-0.630905511811024
 30
0.0
 11
3.0994094488188995
 21
-0.11909448818897643
 31
0.0
  0
LINE
  8
0
 62
0
 10
3.6309055118110254
 20
-0.6505905511811026
 30
0.0
 11
3.119094488188978
 21
-0.6505905511811026
 31
0.0
  0
ARC
  8
0
 62
0
 10
3.8690944881889786
 20
-0.11909448818897643
 30
0.0
 40
0.019685039370078747
 50
90.0
 51
-180.0
  0
LINE
  8
0
 62
0
 10
3.8690944881889786
 20
-0.09940944881889768
 30
0.0
 11
4.380905511811026
 21
-0.09940944881889768
 31
0.0
  0
LINE
  8
0
 62
0
 10
4.4005905511811045
 20
-0.11909448818897643
 30
0.0
 11
4.4005905511811045
 21
-0.630905511811024
 31
0.0
  0
ARC
  8
0
 62
0
 10
2.1309055118110245
 20
-0.11909448818897643
 30
0.0
 40
0.019685039370078705
 50
-0.0
 51
90.0
  0
LINE
  8
0
 62
0
 10
0.8494094488188985
 20
-0.630905511811024
 30
0.0
 11
0.849409448818898
 21
-0.11909448818897643
 31
0.0
  0
LINE
  8
0
 62
0
 10
0.8690944881889768
 20
-0.09940944881889768
 30
0.0
 11
1.3809055118110245
 21
-0.09940944881889768
 31
0.0
  0
LINE
  8
0
 62
0
 10
1.3809055118110245
 20
-0.6505905511811026
 30
0.0
 11
0.8690944881889768
 21
-0.6505905511811026
 31
0.0
  0
ARC
  8
0
 62
0
 10
2.1309055118110245
 20
-0.630905511811024
 30
0.0
 40
0.019685039370078705
 50
-90.0
 51
-0.0
  0
ARC
  8
0
 62
0
 10
4.380905511811026
 20
-0.11909448818897643
 30
0.0
 40
0.019685039370078705
 50
-0.0
 51
90.0
  0
ARC
  8
0
 62
0
 10
4.380905511811026
 20
-0.630905511811024
 30
0.0
 40
0.019685039370078705
 50
-90.0
 51
-0.0
  0
ARC
  8
0
 62
0
 10
1.3809055118110245
 20
-0.11909448818897643
 30
0.0
 40
0.019685039370078705
 50
-0.0
 51
90.0
  0
ARC
  8
0
 62
0
 10
0.8690944881889768
 20
-0.630905511811024
 30
0.0
 40
0.019685039370078705
 50
-180.0
 51
-90.0
  0
LINE
  8
0
 62
0
 10
1.6190944881889773
 20
-0.09940944881889768
 30
0.0
 11
2.1309055118110245
 21
-0.09940944881889768
 31
0.0
  0
LINE
  8
0
 62
0
 10
4.380905511811026
 20
-0.6505905511811026
 30
0.0
 11
3.8690944881889786
 21
-0.6505905511811026
 31
0.0
  0
LINE
  8
0
 62
0
 10
2.1505905511811036
 20
-0.1190944881889764
 30
0.0
 11
2.1505905511811036
 21
-0.630905511811024
 31
0.0
  0
LINE
  8
0
 62
0
 10
2.1309055118110245
 20
-0.6505905511811026
 30
0.0
 11
1.6190944881889773
 21
-0.6505905511811026
 31
0.0
  0
ARC
  8
0
 62
0
 10
3.8690944881889786
 20
-0.630905511811024
 30
0.0
 40
0.01968503937007915
 50
-180.0
 51
-90.0
  0
LINE
  8
0
 62
0
 10
1.4005905511811032
 20
-0.11909448818897643
 30
0.0
 11
1.4005905511811032
 21
-0.630905511811024
 31
0.0
  0
ARC
  8
0
 62
0
 10
1.3809055118110245
 20
-0.630905511811024
 30
0.0
 40
0.019685039370078705
 50
-90.0
 51
-0.0
  0
ARC
  8
0
 62
0
 10
1.6190944881889773
 20
-0.11909448818897643
 30
0.0
 40
0.019685039370078747
 50
90.0
 51
-180.0
  0
ARC
  8
0
 62
0
 10
3.6309055118110254
 20
-0.630905511811024
 30
0.0
 40
0.019685039370078705
 50
-90.0
 51
-0.0
  0
ARC
  8
0
 62
0
 10
2.3690944881889773
 20
-0.11909448818897643
 30
0.0
 40
0.019685039370078747
 50
90.0
 51
-180.0
  0
ARC
  8
0
 62
0
 10
2.3690944881889773
 20
-0.630905511811024
 30
0.0
 40
0.019685039370078705
 50
-180.0
 51
-90.0
  0
LINE
  8
0
 62
0
 10
2.3494094488188986
 20
-0.630905511811024
 30
0.0
 11
2.3494094488188986
 21
-0.11909448818897643
 31
0.0
  0
ARC
  8
0
 62
0
 10
3.119094488188978
 20
-0.11909448818897643
 30
0.0
 40
0.019685039370078747
 50
90.0
 51
-180.0
  0
LINE
  8
0
 62
0
 10
3.6505905511811045
 20
-0.1190944881889764
 30
0.0
 11
3.650590551181105
 21
-0.630905511811024
 31
0.0
  0
LINE
  8
0
 62
0
 10
2.3690944881889773
 20
-0.09940944881889768
 30
0.0
 11
2.880905511811025
 21
-0.09940944881889768
 31
0.0
  0
ARC
  8
0
 62
0
 10
2.880905511811025
 20
-0.11909448818897643
 30
0.0
 40
0.019685039370078705
 50
-0.0
 51
90.0
  0
ARC
  8
0
 62
0
 10
1.6190944881889773
 20
-0.630905511811024
 30
0.0
 40
0.019685039370078705
 50
-180.0
 51
-90.0
  0
LINE
  8
0
 62
0
 10
2.900590551181104
 20
-0.11909448818897643
 30
0.0
 11
2.900590551181104
 21
-0.630905511811024
 31
0.0
  0
LINE
  8
0
 62
0
 10
1.5994094488188986
 20
-0.630905511811024
 30
0.0
 11
1.5994094488188986
 21
-0.11909448818897643
 31
0.0
  0
ARC
  8
0
 62
0
 10
2.880905511811025
 20
-0.630905511811024
 30
0.0
 40
0.019685039370078705
 50
-90.0
 51
-0.0
  0
LINE
  8
0
 62
0
 10
2.880905511811025
 20
-0.6505905511811026
 30
0.0
 11
2.3690944881889773
 21
-0.6505905511811026
 31
0.0
  0
LINE
  8
0
 62
0
 10
3.119094488188978
 20
-0.09940944881889768
 30
0.0
 11
3.6309055118110254
 21
-0.09940944881889768
 31
0.0
  0
ARC
  8
0
 62
0
 10
3.6309055118110254
 20
-0.11909448818897643
 30
0.0
 40
0.01968503937007915
 50
-0.0
 51
90.0
  0
ARC
  8
0
 62
0
 10
5.7440944881889795
 20
-1.6190944881889768
 30
0.0
 40
0.019685039370078705
 50
90.0
 51
-180.0
  0
ARC
  8
0
 62
0
 10
6.255905511811027
 20
-1.6190944881889768
 30
0.0
 40
0.019685039370078705
 50
-0.0
 51
90.0
  0
LINE
  8
0
 62
0
 10
6.255905511811027
 20
-1.5994094488188981
 30
0.0
 11
5.7440944881889795
 21
-1.5994094488188981
 31
0.0
  0
ARC
  8
0
 62
0
 10
7.755905511811028
 20
-2.1309055118110245
 30
0.0
 40
0.019685039370078705
 50
-90.0
 51
-0.0
  0
LINE
  8
0
 62
0
 10
5.724409448818901
 20
-1.6190944881889768
 30
0.0
 11
5.724409448818901
 21
-2.1309055118110245
 31
0.0
  0
LINE
  8
0
 62
0
 10
7.24409448818898
 20
-2.150590551181103
 30
0.0
 11
7.755905511811028
 21
-2.150590551181103
 31
0.0
  0
LINE
  8
0
 62
0
 10
7.775590551181106
 20
-2.1309055118110245
 30
0.0
 11
7.775590551181106
 21
-1.6190944881889768
 31
0.0
  0
LINE
  8
0
 62
0
 10
7.755905511811028
 20
-1.5994094488188981
 30
0.0
 11
7.24409448818898
 21
-1.5994094488188981
 31
0.0
  0
ARC
  8
0
 62
0
 10
0.8690944881889768
 20
-0.11909448818897643
 30
0.0
 40
0.019685039370078747
 50
90.0
 51
-180.0
  0
ARC
  8
0
 62
0
 10
7.755905511811028
 20
-1.6190944881889768
 30
0.0
 40
0.019685039370078705
 50
-0.0
 51
90.0
  0
ARC
  8
0
 62
0
 10
7.24409448818898
 20
-1.6190944881889768
 30
0.0
 40
0.019685039370078705
 50
90.0
 51
-180.0
  0
LINE
  8
0
 62
0
 10
8.713090817158882
 20
-2.880905505240434
 30
0.0
 11
8.713090817158882
 21
-2.3690944816183865
 31
0.0
  0
LINE
  8
0
 62
0
 10
7.224409448818902
 20
-1.6190944881889768
 30
0.0
 11
7.224409448818902
 21
-2.1309055118110245
 31
0.0
  0
LINE
  8
0
 62
0
 10
8.181594754166756
 20
-2.900590544610513
 30
0.0
 11
8.693405777788804
 21
-2.900590544610513
 31
0.0
  0
ARC
  8
0
 62
0
 10
8.693405777788804
 20
-2.880905505240434
 30
0.0
 40
0.019685039370078705
 50
-90.0
 51
-0.0
  0
LINE
  8
0
 62
0
 10
8.161909714796677
 20
-2.3690944816183865
 30
0.0
 11
8.161909714796677
 21
-2.880905505240434
 31
0.0
  0
ARC
  8
0
 62
0
 10
8.181594754166756
 20
-2.3690944816183865
 30
0.0
 40
0.019685039370078705
 50
90.0
 51
-180.0
  0
LINE
  8
0
 62
0
 10
8.693405777788804
 20
-2.349409442248308
 30
0.0
 11
8.181594754166756
 21
-2.349409442248308
 31
0.0
  0
ARC
  8
0
 62
0
 10
8.693405777788804
 20
-2.3690944816183865
 30
0.0
 40
0.019685039370079593
 50
-0.0
 51
90.0
  0
ARC
  8
0
 62
0
 10
7.24409448818898
 20
-2.1309055118110245
 30
0.0
 40
0.019685039370078705
 50
-180.0
 51
-90.0
  0
ARC
  8
0
 62
0
 10
8.181594754166756
 20
-2.880905505240434
 30
0.0
 40
0.019685039370079593
 50
-180.0
 51
-90.0
  0
LINE
  8
0
 62
0
 10
6.275590551181105
 20
-2.1309055118110245
 30
0.0
 11
6.275590551181105
 21
-1.6190944881889768
 31
0.0
  0
ARC
  8
0
 62
0
 10
7.05659448818898
 20
-1.3809055118110265
 30
0.0
 40
0.019685039370077817
 50
180.0
 51
-90.0
  0
ARC
  8
0
 62
0
 10
4.056594488188979
 20
-1.380905511811025
 30
0.0
 40
0.019685039370078705
 50
180.0
 51
-90.0
  0
LINE
  8
0
 62
0
 10
4.7755905511811045
 20
-2.1309055118110245
 30
0.0
 11
4.7755905511811045
 21
-1.6190944881889768
 31
0.0
  0
LINE
  8
0
 62
0
 10
6.088090551181105
 20
-1.3809055118110245
 30
0.0
 11
6.088090551181105
 21
-0.8690944881889764
 31
0.0
  0
ARC
  8
0
 62
0
 10
6.255905511811027
 20
-2.1309055118110245
 30
0.0
 40
0.019685039370078705
 50
-89.99999999999741
 51
-0.0
  0
LINE
  8
0
 62
0
 10
5.7440944881889795
 20
-2.150590551181103
 30
0.0
 11
6.255905511811027
 21
-2.150590551181103
 31
0.0
  0
LINE
  8
0
 62
0
 10
7.568405511811028
 20
-0.8494094488188976
 30
0.0
 11
7.05659448818898
 21
-0.8494094488188976
 31
0.0
  0
ARC
  8
0
 62
0
 10
6.068405511811027
 20
-0.8690944881889764
 30
0.0
 40
0.019685039370078705
 50
-0.0
 51
90.0
  0
ARC
  8
0
 62
0
 10
5.7440944881889795
 20
-2.1309055118110245
 30
0.0
 40
0.019685039370078705
 50
-180.0
 51
-90.0
  0
ARC
  8
0
 62
0
 10
4.568405511811026
 20
-1.3809055118110245
 30
0.0
 40
0.019685039370078705
 50
-90.0
 51
-0.0
  0
ARC
  8
0
 62
0
 10
7.568405511811028
 20
-0.8690944881889764
 30
0.0
 40
0.019685039370078705
 50
-0.0
 51
90.0
  0
LINE
  8
0
 62
0
 10
1.9744094488188992
 20
-1.6190944881889768
 30
0.0
 11
1.9744094488188992
 21
-2.1309055118110245
 31
0.0
  0
ARC
  8
0
 62
0
 10
7.05659448818898
 20
-0.8690944881889748
 30
0.0
 40
0.019685039370077817
 50
90.0
 51
-180.0
  0
LINE
  8
0
 62
0
 10
5.556594488188979
 20
-1.4005905511811032
 30
0.0
 11
6.068405511811027
 21
-1.4005905511811032
 31
0.0
  0
LINE
  8
0
 62
0
 10
4.5880905511811045
 20
-1.3809055118110245
 30
0.0
 11
4.5880905511811045
 21
-0.8690944881889764
 31
0.0
  0
ARC
  8
0
 62
0
 10
6.068405511811027
 20
-1.3809055118110245
 30
0.0
 40
0.019685039370078705
 50
-90.0
 51
-0.0
  0
ARC
  8
0
 62
0
 10
2.5059055118110254
 20
-1.6190944881889768
 30
0.0
 40
0.019685039370078705
 50
-0.0
 51
90.0
  0
ARC
  8
0
 62
0
 10
2.5059055118110254
 20
-2.1309055118110245
 30
0.0
 40
0.019685039370078705
 50
-90.0
 51
-0.0
  0
ARC
  8
0
 62
0
 10
1.994094488188978
 20
-2.1309055118110245
 30
0.0
 40
0.019685039370078705
 50
-180.0
 51
-90.0
  0
LINE
  8
0
 62
0
 10
7.05659448818898
 20
-1.4005905511811032
 30
0.0
 11
7.568405511811028
 21
-1.4005905511811032
 31
0.0
  0
LINE
  8
0
 62
0
 10
7.588090551181106
 20
-1.3809055118110245
 30
0.0
 11
7.588090551181106
 21
-0.8690944881889764
 31
0.0
  0
LINE
  8
0
 62
0
 10
5.5369094488189
 20
-0.8690944881889764
 30
0.0
 11
5.5369094488189
 21
-1.3809055118110245
 31
0.0
  0
LINE
  8
0
 62
0
 10
6.068405511811027
 20
-0.8494094488188976
 30
0.0
 11
5.556594488188979
 21
-0.8494094488188976
 31
0.0
  0
ARC
  8
0
 62
0
 10
5.556594488188979
 20
-0.8690944881889764
 30
0.0
 40
0.019685039370078816
 50
90.0
 51
-180.0
  0
LINE
  8
0
 62
0
 10
7.036909448818902
 20
-0.8690944881889764
 30
0.0
 11
7.036909448818902
 21
-1.3809055118110245
 31
0.0
  0
LINE
  8
0
 62
0
 10
4.244094488188979
 20
-2.150590551181103
 30
0.0
 11
4.755905511811026
 21
-2.150590551181103
 31
0.0
  0
LINE
  8
0
 62
0
 10
1.994094488188978
 20
-2.150590551181103
 30
0.0
 11
2.5059055118110254
 21
-2.150590551181103
 31
0.0
  0
ARC
  8
0
 62
0
 10
4.244094488188979
 20
-2.1309055118110245
 30
0.0
 40
0.019685039370078705
 50
-180.0
 51
-90.0
  0
LINE
  8
0
 62
0
 10
4.056594488188979
 20
-1.4005905511811032
 30
0.0
 11
4.568405511811026
 21
-1.4005905511811032
 31
0.0
  0
LINE
  8
0
 62
0
 10
4.2244094488189
 20
-1.6190944881889768
 30
0.0
 11
4.2244094488189
 21
-2.1309055118110245
 31
0.0
  0
ARC
  8
0
 62
0
 10
5.556594488188979
 20
-1.3809055118110245
 30
0.0
 40
0.019685039370078705
 50
-180.0
 51
-90.0
  0
ARC
  8
0
 62
0
 10
4.568405511811026
 20
-0.8690944881889764
 30
0.0
 40
0.019685039370078705
 50
-0.0
 51
90.0
  0
ARC
  8
0
 62
0
 10
7.568405511811028
 20
-1.3809055118110245
 30
0.0
 40
0.019685039370078705
 50
-90.0
 51
-0.0
  0
LINE
  8
0
 62
0
 10
4.568405511811026
 20
-0.8494094488188976
 30
0.0
 11
4.056594488188979
 21
-0.8494094488188976
 31
0.0
  0
ARC
  8
0
 62
0
 10
4.755905511811026
 20
-2.1309055118110236
 30
0.0
 40
0.01968503937007915
 50
-90.0
 51
-0.0
  0
ARC
  8
0
 62
0
 10
4.244094488188979
 20
-1.6190944881889768
 30
0.0
 40
0.019685039370078705
 50
90.0
 51
-180.0
  0
LINE
  8
0
 62
0
 10
4.755905511811026
 20
-1.5994094488188981
 30
0.0
 11
4.244094488188979
 21
-1.5994094488188981
 31
0.0
  0
LINE
  8
0
 62
0
 10
4.0369094488189
 20
-0.8690944881889764
 30
0.0
 11
4.0369094488189
 21
-1.3809055118110245
 31
0.0
  0
ARC
  8
0
 62
0
 10
4.056594488188979
 20
-0.8690944881889757
 30
0.0
 40
0.01968503937007826
 50
90.0
 51
-180.0
  0
ARC
  8
0
 62
0
 10
1.994094488188978
 20
-1.6190944881889768
 30
0.0
 40
0.019685039370078705
 50
90.0
 51
-180.0
  0
ARC
  8
0
 62
0
 10
4.755905511811026
 20
-1.6190944881889775
 30
0.0
 40
0.019685039370079593
 50
-0.0
 51
90.0
  0
LINE
  8
0
 62
0
 10
2.525590551181104
 20
-2.1309055118110245
 30
0.0
 11
2.525590551181104
 21
-1.6190944881889768
 31
0.0
  0
LINE
  8
0
 62
0
 10
2.5059055118110254
 20
-1.5994094488188981
 30
0.0
 11
1.994094488188978
 21
-1.5994094488188981
 31
0.0
  0
LINE
  8
0
 62
0
 10
3.8494094488189
 20
-0.630905511811024
 30
0.0
 11
3.8494094488189
 21
-0.11909448818897643
 31
0.0
  0
ARC
  8
0
 62
0
 10
2.556594488188978
 20
-0.8690944881889764
 30
0.0
 40
0.019685039370078816
 50
90.0
 51
-180.0
  0
ARC
  8
0
 62
0
 10
6.8690944881889795
 20
-0.630905511811024
 30
0.0
 40
0.019685039370078705
 50
-180.0
 51
-90.0
  0
ARC
  8
0
 62
0
 10
5.3690944881889795
 20
-0.630905511811024
 30
0.0
 40
0.019685039370078705
 50
-180.0
 51
-90.0
  0
ARC
  8
0
 62
0
 10
4.619094488188979
 20
-0.11909448818897643
 30
0.0
 40
0.019685039370078747
 50
90.0
 51
-180.0
  0
ARC
  8
0
 62
0
 10
3.0684055118110254
 20
-1.3809055118110245
 30
0.0
 40
0.019685039370078705
 50
-90.0
 51
-0.0
  0
LINE
  8
0
 62
0
 10
1.5880905511811036
 20
-1.3809055118110245
 30
0.0
 11
1.5880905511811036
 21
-0.8690944881889764
 31
0.0
  0
ARC
  8
0
 62
0
 10
5.130905511811026
 20
-0.11909448818897643
 30
0.0
 40
0.019685039370078705
 50
-0.0
 51
90.0
  0
LINE
  8
0
 62
0
 10
5.130905511811026
 20
-0.6505905511811026
 30
0.0
 11
4.619094488188979
 21
-0.6505905511811026
 31
0.0
  0
ARC
  8
0
 62
0
 10
4.619094488188979
 20
-0.630905511811024
 30
0.0
 40
0.019685039370078705
 50
-180.0
 51
-90.0
  0
ARC
  8
0
 62
0
 10
6.630905511811028
 20
-0.11909448818897643
 30
0.0
 40
0.019685039370078705
 50
-0.0
 51
90.0
  0
LINE
  8
0
 62
0
 10
6.650590551181106
 20
-0.11909448818897643
 30
0.0
 11
6.650590551181106
 21
-0.630905511811024
 31
0.0
  0
ARC
  8
0
 62
0
 10
6.11909448818898
 20
-0.630905511811024
 30
0.0
 40
0.019685039370078705
 50
-180.0
 51
-90.0
  0
LINE
  8
0
 62
0
 10
2.5369094488188995
 20
-0.8690944881889764
 30
0.0
 11
2.5369094488188995
 21
-1.3809055118110245
 31
0.0
  0
LINE
  8
0
 62
0
 10
5.349409448818901
 20
-0.630905511811024
 30
0.0
 11
5.349409448818901
 21
-0.11909448818897643
 31
0.0
  0
ARC
  8
0
 62
0
 10
6.630905511811028
 20
-0.630905511811024
 30
0.0
 40
0.019685039370078705
 50
-90.0
 51
-0.0
  0
LINE
  8
0
 62
0
 10
3.0684055118110254
 20
-0.8494094488188976
 30
0.0
 11
2.556594488188978
 21
-0.8494094488188976
 31
0.0
  0
LINE
  8
0
 62
0
 10
5.900590551181105
 20
-0.11909448818897643
 30
0.0
 11
5.900590551181105
 21
-0.630905511811024
 31
0.0
  0
ARC
  8
0
 62
0
 10
5.3690944881889795
 20
-0.11909448818897643
 30
0.0
 40
0.019685039370078747
 50
90.0
 51
-180.0
  0
ARC
  8
0
 62
0
 10
2.556594488188978
 20
-1.3809055118110245
 30
0.0
 40
0.019685039370078705
 50
-180.0
 51
-90.0
  0
ARC
  8
0
 62
0
 10
3.0684055118110254
 20
-0.8690944881889764
 30
0.0
 40
0.019685039370078705
 50
-0.0
 51
90.0
  0
ARC
  8
0
 62
0
 10
5.130905511811026
 20
-0.630905511811024
 30
0.0
 40
0.019685039370078705
 50
-90.0
 51
-0.0
  0
ARC
  8
0
 62
0
 10
1.568405511811025
 20
-1.3809055118110245
 30
0.0
 40
0.019685039370078705
 50
-90.0
 51
-0.0
  0
LINE
  8
0
 62
0
 10
1.0565944881889773
 20
-1.4005905511811032
 30
0.0
 11
1.568405511811025
 21
-1.4005905511811032
 31
0.0
  0
ARC
  8
0
 62
0
 10
1.0565944881889773
 20
-1.3809055118110245
 30
0.0
 40
0.019685039370078705
 50
180.0
 51
-90.0
  0
LINE
  8
0
 62
0
 10
1.0369094488188986
 20
-0.8690944881889764
 30
0.0
 11
1.0369094488188986
 21
-1.3809055118110245
 31
0.0
  0
LINE
  8
0
 62
0
 10
6.11909448818898
 20
-0.09940944881889768
 30
0.0
 11
6.630905511811028
 21
-0.09940944881889768
 31
0.0
  0
ARC
  8
0
 62
0
 10
6.11909448818898
 20
-0.11909448818897643
 30
0.0
 40
0.019685039370078747
 50
90.0
 51
-180.0
  0
ARC
  8
0
 62
0
 10
5.880905511811027
 20
-0.11909448818897643
 30
0.0
 40
0.019685039370078705
 50
-0.0
 51
90.0
  0
ARC
  8
0
 62
0
 10
1.0565944881889773
 20
-0.8690944881889764
 30
0.0
 40
0.019685039370078594
 50
90.0
 51
-180.0
  0
LINE
  8
0
 62
0
 10
1.568405511811025
 20
-0.8494094488188976
 30
0.0
 11
1.0565944881889773
 21
-0.8494094488188976
 31
0.0
  0
LINE
  8
0
 62
0
 10
2.556594488188978
 20
-1.4005905511811032
 30
0.0
 11
3.0684055118110254
 21
-1.4005905511811032
 31
0.0
  0
ARC
  8
0
 62
0
 10
1.568405511811025
 20
-0.8690944881889764
 30
0.0
 40
0.019685039370078705
 50
-0.0
 51
90.0
  0
LINE
  8
0
 62
0
 10
5.3690944881889795
 20
-0.09940944881889768
 30
0.0
 11
5.880905511811027
 21
-0.09940944881889768
 31
0.0
  0
ARC
  8
0
 62
0
 10
6.8690944881889795
 20
-0.11909448818897643
 30
0.0
 40
0.019685039370078747
 50
90.0
 51
-180.0
  0
LINE
  8
0
 62
0
 10
6.8690944881889795
 20
-0.09940944881889768
 30
0.0
 11
7.380905511811028
 21
-0.09940944881889768
 31
0.0
  0
ARC
  8
0
 62
0
 10
7.380905511811028
 20
-0.11909448818897643
 30
0.0
 40
0.019685039370078705
 50
-0.0
 51
90.0
  0
LINE
  8
0
 62
0
 10
5.1505905511811045
 20
-0.11909448818897643
 30
0.0
 11
5.1505905511811045
 21
-0.630905511811024
 31
0.0
  0
LINE
  8
0
 62
0
 10
3.0880905511811045
 20
-1.3809055118110245
 30
0.0
 11
3.0880905511811045
 21
-0.8690944881889764
 31
0.0
  0
LINE
  8
0
 62
0
 10
6.630905511811028
 20
-0.6505905511811026
 30
0.0
 11
6.11909448818898
 21
-0.6505905511811026
 31
0.0
  0
LINE
  8
0
 62
0
 10
5.880905511811027
 20
-0.6505905511811026
 30
0.0
 11
5.3690944881889795
 21
-0.6505905511811026
 31
0.0
  0
LINE
  8
0
 62
0
 10
7.400590551181106
 20
-0.11909448818897643
 30
0.0
 11
7.400590551181106
 21
-0.630905511811024
 31
0.0
  0
ARC
  8
0
 62
0
 10
7.380905511811028
 20
-0.630905511811024
 30
0.0
 40
0.019685039370078705
 50
-90.0
 51
-0.0
  0
LINE
  8
0
 62
0
 10
6.099409448818901
 20
-0.630905511811024
 30
0.0
 11
6.099409448818901
 21
-0.11909448818897643
 31
0.0
  0
ARC
  8
0
 62
0
 10
5.880905511811027
 20
-0.630905511811024
 30
0.0
 40
0.019685039370078705
 50
-90.0
 51
-0.0
  0
LINE
  8
0
 62
0
 10
7.380905511811028
 20
-0.6505905511811026
 30
0.0
 11
6.8690944881889795
 21
-0.6505905511811026
 31
0.0
  0
LINE
  8
0
 62
0
 10
4.619094488188979
 20
-0.09940944881889768
 30
0.0
 11
5.130905511811026
 21
-0.09940944881889768
 31
0.0
  0
LINE
  8
0
 62
0
 10
4.5994094488189
 20
-0.630905511811024
 30
0.0
 11
4.5994094488189
 21
-0.11909448818897643
 31
0.0
  0
LINE
  8
0
 62
0
 10
8.630659448818902
 20
-0.630905511811024
 30
0.0
 11
8.630659448818902
 21
-0.11909448818897643
 31
0.0
  0
ARC
  8
0
 62
0
 10
8.130905511811028
 20
-0.630905511811024
 30
0.0
 40
0.019685039370078705
 50
-90.0
 51
-0.0
  0
ARC
  8
0
 62
0
 10
7.61909448818898
 20
-0.11909448818897643
 30
0.0
 40
0.019685039370078747
 50
90.0
 51
-180.0
  0
LINE
  8
0
 62
0
 10
0.19315944881889774
 20
-1.3809055118110245
 30
0.0
 11
0.19315944881889774
 21
-0.8690944881889768
 31
0.0
  0
ARC
  8
0
 62
0
 10
0.2128444881889765
 20
-0.8690944881889768
 30
0.0
 40
0.019685039370078705
 50
90.0
 51
-180.0
  0
ARC
  8
0
 62
0
 10
0.724655511811024
 20
-0.8690944881889768
 30
0.0
 40
0.019685039370078705
 50
-0.0
 51
90.0
  0
ARC
  8
0
 62
0
 10
0.724655511811024
 20
-1.3809055118110245
 30
0.0
 40
0.019685039370078705
 50
-90.0
 51
-0.0
  0
ARC
  8
0
 62
0
 10
9.162155511811028
 20
-0.11909448818897643
 30
0.0
 40
0.019685039370079593
 50
-0.0
 51
90.0
  0
ARC
  8
0
 62
0
 10
8.130905511811028
 20
-0.11909448818897643
 30
0.0
 40
0.019685039370079593
 50
-0.0
 51
90.0
  0
LINE
  8
0
 62
0
 10
8.130905511811028
 20
-0.6505905511811026
 30
0.0
 11
7.61909448818898
 21
-0.6505905511811026
 31
0.0
  0
ARC
  8
0
 62
0
 10
7.61909448818898
 20
-0.630905511811024
 30
0.0
 40
0.019685039370078705
 50
-180.0
 51
-90.0
  0
LINE
  8
0
 62
0
 10
8.650344488188981
 20
-0.09940944881889768
 30
0.0
 11
9.162155511811028
 21
-0.09940944881889768
 31
0.0
  0
LINE
  8
0
 62
0
 10
9.162155511811028
 20
-0.6505905511811026
 30
0.0
 11
8.650344488188981
 21
-0.6505905511811026
 31
0.0
  0
LINE
  8
0
 62
0
 10
9.181840551181107
 20
-0.11909448818897643
 30
0.0
 11
9.181840551181107
 21
-0.630905511811024
 31
0.0
  0
LINE
  8
0
 62
0
 10
0.2128444881889765
 20
-0.849409448818898
 30
0.0
 11
0.724655511811024
 21
-0.8494094488189037
 31
0.0
  0
ARC
  8
0
 62
0
 10
8.650344488188981
 20
-0.630905511811024
 30
0.0
 40
0.019685039370079593
 50
-180.0
 51
-90.0
  0
LINE
  8
0
 62
0
 10
6.849409448818901
 20
-0.630905511811024
 30
0.0
 11
6.849409448818901
 21
-0.11909448818897643
 31
0.0
  0
LINE
  8
0
 62
0
 10
0.7443405511811028
 20
-0.8690944881889768
 30
0.0
 11
0.7443405511811028
 21
-1.3809055118110245
 31
0.0
  0
ARC
  8
0
 62
0
 10
9.162155511811028
 20
-0.630905511811024
 30
0.0
 40
0.019685039370078705
 50
-90.0
 51
-0.0
  0
LINE
  8
0
 62
0
 10
8.150590551181107
 20
-0.1190944881889764
 30
0.0
 11
8.150590551181107
 21
-0.630905511811024
 31
0.0
  0
LINE
  8
0
 62
0
 10
7.61909448818898
 20
-0.09940944881889768
 30
0.0
 11
8.130905511811028
 21
-0.09940944881889706
 31
0.0
  0
LINE
  8
0
 62
0
 10
7.599409448818902
 20
-0.630905511811024
 30
0.0
 11
7.599409448818902
 21
-0.11909448818897643
 31
0.0
  0
ARC
  8
0
 62
0
 10
8.650344488188981
 20
-0.11909448818897643
 30
0.0
 40
0.019685039370078747
 50
90.0
 51
-180.0
  0
LINE
  8
0
 62
0
 10
3.235954724409451
 20
-2.32972440944882
 30
0.0
 11
3.235954724409451
 21
-2.8809055118110245
 31
0.0
  0
ARC
  8
0
 62
0
 10
0.2128444881889765
 20
-1.3809055118110245
 30
0.0
 40
0.01968503937007876
 50
-180.0
 51
-90.0
  0
LINE
  8
0
 62
0
 10
6.0256102362204755
 20
-2.310039370078741
 30
0.0
 11
5.78938976377953
 21
-2.310039370078741
 31
0.0
  0
LINE
  8
0
 62
0
 10
9.463090817158884
 20
-2.880905505240434
 30
0.0
 11
9.463090817158887
 21
-2.3690944816183883
 31
0.0
  0
ARC
  8
0
 62
0
 10
6.0256102362204755
 20
-2.8809055118110245
 30
0.0
 40
0.019685039370078705
 50
-90.0
 51
-0.0
  0
LINE
  8
0
 62
0
 10
1.244094488188977
 20
-2.150590551181103
 30
0.0
 11
1.7559055118110245
 21
-2.150590551181103
 31
0.0
  0
ARC
  8
0
 62
0
 10
3.2556397637795293
 20
-2.32972440944882
 30
0.0
 40
0.019685039370078705
 50
89.99999999999872
 51
-180.0
  0
LINE
  8
0
 62
0
 10
5.7697047244094515
 20
-2.32972440944882
 30
0.0
 11
5.7697047244094515
 21
-2.8809055118110245
 31
0.0
  0
ARC
  8
0
 62
0
 10
4.099655511811026
 20
-2.880905511811024
 30
0.0
 40
0.01968503937007915
 50
-90.0
 51
-0.0
  0
ARC
  8
0
 62
0
 10
3.587844488188978
 20
-2.8809055118110245
 30
0.0
 40
0.019685039370078705
 50
-180.0
 51
-90.0
  0
ARC
  8
0
 62
0
 10
5.78938976377953
 20
-2.32972440944882
 30
0.0
 40
0.019685039370078705
 50
90.0
 51
-180.0
  0
LINE
  8
0
 62
0
 10
1.7559055118110245
 20
-1.5994094488188981
 30
0.0
 11
1.244094488188977
 21
-1.5994094488188981
 31
0.0
  0
LINE
  8
0
 62
0
 10
0.724655511811024
 20
-1.4005905511811032
 30
0.0
 11
0.2128444881889765
 21
-1.4005905511811032
 31
0.0
  0
LINE
  8
0
 62
0
 10
3.491860236220475
 20
-2.310039370078741
 30
0.0
 11
3.2556397637795302
 21
-2.310039370078741
 31
0.0
  0
LINE
  8
0
 62
0
 10
5.78938976377953
 20
-2.9005905511811036
 30
0.0
 11
6.0256102362204755
 21
-2.9005905511811036
 31
0.0
  0
ARC
  8
0
 62
0
 10
3.491860236220475
 20
-2.8809055118110245
 30
0.0
 40
0.019685039370078705
 50
-89.99999999999872
 51
-0.0
  0
ARC
  8
0
 62
0
 10
0.7246555118110244
 20
-2.8809055118110245
 30
0.0
 40
0.019685039370078705
 50
-90.0
 51
-0.0
  0
ARC
  8
0
 62
0
 10
0.21284448818897655
 20
-2.3690944881889773
 30
0.0
 40
0.019685039370078705
 50
90.0
 51
-180.0
  0
LINE
  8
0
 62
0
 10
0.7246555118110244
 20
-2.3494094488188986
 30
0.0
 11
0.21284448818897655
 21
-2.349409442248308
 31
0.0
  0
LINE
  8
0
 62
0
 10
9.443405777788804
 20
-2.349409442248308
 30
0.0
 11
8.931594754166756
 21
-2.349409442248308
 31
0.0
  0
ARC
  8
0
 62
0
 10
3.4918602362204756
 20
-2.32972440944882
 30
0.0
 40
0.019685039370078705
 50
-0.0
 51
90.0000000000013
  0
LINE
  8
0
 62
0
 10
0.21284448818897655
 20
-2.900590544610513
 30
0.0
 11
0.7246555118110244
 21
-2.9005905511811036
 31
0.0
  0
ARC
  8
0
 62
0
 10
0.21284448818897655
 20
-2.8809055118110245
 30
0.0
 40
0.01968503937007876
 50
-180.0
 51
-90.0
  0
ARC
  8
0
 62
0
 10
5.78938976377953
 20
-2.8809055118110245
 30
0.0
 40
0.019685039370078705
 50
-180.0
 51
-90.0
  0
LINE
  8
0
 62
0
 10
0.19315944881889777
 20
-2.3690944881889773
 30
0.0
 11
0.19315944881889777
 21
-2.8809055118110245
 31
0.0
  0
LINE
  8
0
 62
0
 10
8.931594754166756
 20
-2.900590544610513
 30
0.0
 11
9.443405777788804
 21
-2.900590544610513
 31
0.0
  0
ARC
  8
0
 62
0
 10
4.099655511811026
 20
-2.369094488188978
 30
0.0
 40
0.019685039370079593
 50
-0.0
 51
90.0
  0
ARC
  8
0
 62
0
 10
0.7246555118110244
 20
-2.3690944881889773
 30
0.0
 40
0.019685039370078816
 50
-0.0
 51
90.0
  0
LINE
  8
0
 62
0
 10
0.7443405511811032
 20
-2.8809055118110245
 30
0.0
 11
0.7443405511811032
 21
-2.3690944881889773
 31
0.0
  0
ARC
  8
0
 62
0
 10
1.244094488188977
 20
-1.6190944881889768
 30
0.0
 40
0.019685039370078705
 50
90.0
 51
-180.0
  0
ARC
  8
0
 62
0
 10
1.7559055118110245
 20
-2.1309055118110245
 30
0.0
 40
0.019685039370078705
 50
-90.0
 51
-0.0
  0
ARC
  8
0
 62
0
 10
9.443405777788804
 20
-2.880905505240433
 30
0.0
 40
0.019685039370079593
 50
-90.0
 51
-0.0
  0
ARC
  8
0
 62
0
 10
8.931594754166756
 20
-2.3690944816183865
 30
0.0
 40
0.019685039370078705
 50
90.0
 51
-180.0
  0
ARC
  8
0
 62
0
 10
1.7559055118110245
 20
-1.6190944881889768
 30
0.0
 40
0.019685039370078705
 50
-0.0
 51
90.0
  0
LINE
  8
0
 62
0
 10
3.511545275590554
 20
-2.8809055118110245
 30
0.0
 11
3.511545275590554
 21
-2.32972440944882
 31
0.0
  0
LINE
  8
0
 62
0
 10
1.2244094488188983
 20
-1.6190944881889768
 30
0.0
 11
1.2244094488188983
 21
-2.1309055118110245
 31
0.0
  0
LINE
  8
0
 62
0
 10
3.2556397637795302
 20
-2.900590544610513
 30
0.0
 11
3.4918602362204756
 21
-2.900590544610513
 31
0.0
  0
ARC
  8
0
 62
0
 10
9.443405777788804
 20
-2.3690944816183883
 30
0.0
 40
0.019685039370079593
 50
-0.0
 51
90.0
  0
ARC
  8
0
 62
0
 10
6.0256102362204755
 20
-2.32972440944882
 30
0.0
 40
0.019685039370078705
 50
-0.0
 51
90.0
  0
LINE
  8
0
 62
0
 10
6.045295275590554
 20
-2.8809055118110245
 30
0.0
 11
6.045295275590554
 21
-2.32972440944882
 31
0.0
  0
ARC
  8
0
 62
0
 10
8.931594754166756
 20
-2.880905505240434
 30
0.0
 40
0.019685039370079593
 50
-180.0
 51
-90.0
  0
LINE
  8
0
 62
0
 10
8.911909714796678
 20
-2.3690944816183865
 30
0.0
 11
8.911909714796678
 21
-2.880905505240434
 31
0.0
  0
LINE
  8
0
 62
0
 10
4.1193405511811045
 20
-2.8809055118110245
 30
0.0
 11
4.1193405511811045
 21
-2.3690944881889773
 31
0.0
  0
LINE
  8
0
 62
0
 10
3.587844488188978
 20
-2.900590544610513
 30
0.0
 11
4.099655511811026
 21
-2.9005905511811036
 31
0.0
  0
LINE
  8
0
 62
0
 10
1.7755905511811034
 20
-2.1309055118110245
 30
0.0
 11
1.7755905511811034
 21
-1.6190944881889768
 31
0.0
  0
ARC
  8
0
 62
0
 10
1.244094488188977
 20
-2.1309055118110245
 30
0.0
 40
0.019685039370078705
 50
-180.0
 51
-90.0
  0
ARC
  8
0
 62
0
 10
3.2556397637795302
 20
-2.8809055118110245
 30
0.0
 40
0.019685039370078705
 50
-180.0
 51
-90.0
  0
ARC
  8
0
 62
0
 10
0.678990168078331
 20
-3.0580708661417337
 30
0.0
 40
0.07874015748031393
 50
90.0
 51
149.99999999999957
  0
ARC
  8
0
 62
0
 10
8.883509831921659
 20
0.05807086614173074
 30
0.0
 40
0.07874015748031343
 50
-90.0
 51
-29.999999999996405
  0
ARC
  8
0
 62
0
 10
0.11909448818897643
 20
-0.11909448818897643
 30
0.0
 40
0.019685039370078747
 50
90.0
 51
-180.0
  0
LINE
  8
0
 62
0
 10
0.11909448818897643
 20
-0.09940944881889768
 30
0.0
 11
0.630905511811024
 21
-0.09940944881889768
 31
0.0
  0
LINE
  8
0
 62
0
 10
9.360409385230811
 20
-3.1761811023622064
 30
0.0
 11
9.451330687465399
 21
-3.0187007874015763
 31
0.0
  0
ARC
  8
0
 62
0
 10
0.630905511811024
 20
-0.630905511811024
 30
0.0
 40
0.019685039370078705
 50
-90.0
 51
-0.0
  0
ARC
  8
0
 62
0
 10
0.678990168078331
 20
0.05807086614173074
 30
0.0
 40
0.07874015748031343
 50
-150.00000000000117
 51
-90.0
  0
LINE
  8
0
 62
0
 10
0.5198778891678074
 20
0.1761811023622048
 30
0.0
 11
0.20209061476920287
 21
0.1761811023622048
 31
0.0
  0
ARC
  8
0
 62
0
 10
0.040354330708661436
 20
-0.040354330708661436
 30
0.0
 40
0.01968503937007875
 50
90.0
 51
-180.0
  0
LINE
  8
0
 62
0
 10
3.5681594488188995
 20
-2.3690944881889773
 30
0.0
 11
3.5681594488188995
 21
-2.8809055118110245
 31
0.0
  0
ARC
  8
0
 62
0
 10
0.04297833585867601
 20
-3.0580708661417337
 30
0.0
 40
0.07874015748031497
 50
29.99999999999993
 51
89.99999999998478
  0
LINE
  8
0
 62
0
 10
0.5198778891678034
 20
-3.1761811023622064
 30
0.0
 11
0.6107991914023901
 21
-3.0187007874015763
 31
0.0
  0
LINE
  8
0
 62
0
 10
9.541830708661422
 20
-2.9596456692913407
 30
0.0
 11
9.541830708661422
 21
-0.040354330708661436
 31
0.0
  0
ARC
  8
0
 62
0
 10
0.04297833585867601
 20
0.05807086614173232
 30
0.0
 40
0.078740157480315
 50
-90.00000000000144
 51
-30.00000000000003
  0
LINE
  8
0
 62
0
 10
0.111169312534616
 20
-3.0187007874015763
 30
0.0
 11
0.20209061476920326
 21
-3.1761811023622064
 31
0.0
  0
LINE
  8
0
 62
0
 10
9.451330687465399
 20
0.01870078740157993
 30
0.0
 11
9.360409385230833
 21
0.17618110236220935
 31
0.0
  0
LINE
  8
0
 62
0
 10
8.883509831921659
 20
-0.02066929133858269
 30
0.0
 11
0.678990168078331
 21
-0.02066929133858269
 31
0.0
  0
ARC
  8
0
 62
0
 10
0.630905511811024
 20
-0.11909448818897643
 30
0.0
 40
0.019685039370078705
 50
-0.0
 51
90.0
  0
ARC
  8
0
 62
0
 10
3.587844488188978
 20
-2.3690944881889773
 30
0.0
 40
0.019685039370078705
 50
89.99999999999872
 51
-180.0
  0
ARC
  8
0
 62
0
 10
0.040354330708661436
 20
-2.9596456692913407
 30
0.0
 40
0.019685039370079184
 50
-180.0
 51
-89.99999999998063
  0
LINE
  8
0
 62
0
 10
0.04035433070866813
 20
-2.9793307086614194
 30
0.0
 11
0.04297833585869695
 21
-2.9793307086614194
 31
0.0
  0
ARC
  8
0
 62
0
 10
9.519521664141344
 20
-3.0580708661417337
 30
0.0
 40
0.07874015748031482
 50
90.00000000002844
 51
150.00000000000196
  0
LINE
  8
0
 62
0
 10
9.042622110832209
 20
-3.1761811023622064
 30
0.0
 11
9.360409385230811
 21
-3.1761811023622064
 31
0.0
  0
LINE
  8
0
 62
0
 10
0.610799191402392
 20
0.01870078740157686
 30
0.0
 11
0.5198778891678058
 21
0.1761811023622048
 31
0.0
  0
LINE
  8
0
 62
0
 10
9.042622110832209
 20
0.1761811023622048
 30
0.0
 11
8.951700808597623
 21
0.018700787401568397
 31
0.0
  0
LINE
  8
0
 62
0
 10
0.6505905511811026
 20
-0.11909448818897643
 30
0.0
 11
0.6505905511811026
 21
-0.630905511811024
 31
0.0
  0
LINE
  8
0
 62
0
 10
0.630905511811024
 20
-0.6505905511811026
 30
0.0
 11
0.11909448818897643
 21
-0.6505905511811026
 31
0.0
  0
LINE
  8
0
 62
0
 10
0.20209061476920287
 20
-3.1761811023622064
 30
0.0
 11
0.5198778891678034
 21
-3.1761811023622064
 31
0.0
  0
LINE
  8
0
 62
0
 10
8.951700808597623
 20
-3.0187007874015763
 30
0.0
 11
9.04262211083223
 21
-3.1761811023622064
 31
0.0
  0
ARC
  8
0
 62
0
 10
8.883509831921659
 20
-3.0580708661417337
 30
0.0
 40
0.07874015748031325
 50
29.999999999998426
 51
90.0
  0
LINE
  8
0
 62
0
 10
4.099655511811026
 20
-2.3494094488188986
 30
0.0
 11
3.5878444881889786
 21
-2.349409442248308
 31
0.0
  0
ARC
  8
0
 62
0
 10
8.505905511811028
 20
-2.1309055118110245
 30
0.0
 40
0.019685039370078705
 50
-90.0
 51
-0.0
  0
LINE
  8
0
 62
0
 10
8.505905511811028
 20
-2.150590551181096
 30
0.0
 11
7.994094488188981
 21
-2.150590551181103
 31
0.0
  0
ARC
  8
0
 62
0
 10
7.994094488188981
 20
-2.1309055118110245
 30
0.0
 40
0.019685039370078705
 50
-180.0
 51
-90.0
  0
LINE
  8
0
 62
0
 10
0.20209061476920326
 20
0.1761811023622048
 30
0.0
 11
0.1111693125346166
 21
0.018700787401574378
 31
0.0
  0
LINE
  8
0
 62
0
 10
0.02066929133858269
 20
-0.040354330708661436
 30
0.0
 11
0.02066929133858269
 21
-2.9596456692913407
 31
0.0
  0
LINE
  8
0
 62
0
 10
0.04297833585867411
 20
-0.02066929133858269
 30
0.0
 11
0.040354330708661436
 21
-0.02066929133858269
 31
0.0
  0
LINE
  8
0
 62
0
 10
0.678990168078331
 20
-2.9793307086614194
 30
0.0
 11
8.883509831921659
 21
-2.9793307086614194
 31
0.0
  0
ARC
  8
0
 62
0
 10
0.11909448818897643
 20
-0.630905511811024
 30
0.0
 40
0.019685039370078747
 50
-180.0
 51
-90.0
  0
LINE
  8
0
 62
0
 10
0.09940944881889768
 20
-0.630905511811024
 30
0.0
 11
0.09940944881889768
 21
-0.11909448818897643
 31
0.0
  0
LINE
  8
0
 62
0
 10
7.974409448818903
 20
-1.6190944881889768
 30
0.0
 11
7.974409448818903
 21
-2.1309055118110245
 31
0.0
  0
ARC
  8
0
 62
0
 10
9.519521664141344
 20
0.05807086614173232
 30
0.0
 40
0.07874015748031551
 50
-150.0000000000039
 51
-90.00000000001423
  0
LINE
  8
0
 62
0
 10
9.360409385230811
 20
0.1761811023622048
 30
0.0
 11
9.042622110832209
 21
0.1761811023622048
 31
0.0
  0
LINE
  8
0
 62
0
 10
9.519521664141305
 20
-2.9793307086614194
 30
0.0
 11
9.522145669291344
 21
-2.9793307086614194
 31
0.0
  0
ARC
  8
0
 62
0
 10
9.522145669291344
 20
-2.9596456692913407
 30
0.0
 40
0.019685039370079593
 50
-90.0
 51
-0.0
  0
ARC
  8
0
 62
0
 10
9.522145669291344
 20
-0.040354330708661436
 30
0.0
 40
0.019685039370077817
 50
-0.0
 51
90.0
  0
LINE
  8
0
 62
0
 10
9.522145669291344
 20
-0.02066929133858347
 30
0.0
 11
9.519521664141323
 21
-0.02066929133858269
 31
0.0
  0
LINE
  8
0
 62
0
 10
0.30659448818897667
 20
-2.150590551181103
 30
0.0
 11
0.8184055118110241
 21
-2.1505905511811116
 31
0.0
  0
ARC
  8
0
 62
0
 10
5.693405511811027
 20
-2.3690944881889773
 30
0.0
 40
0.019685039370078705
 50
-0.0
 51
90.0
  0
ARC
  8
0
 62
0
 10
1.7559055118110245
 20
-2.8809055118110245
 30
0.0
 40
0.019685039370078705
 50
-90.0
 51
-0.0
  0
LINE
  8
0
 62
0
 10
5.1815944881889795
 20
-2.900590544610513
 30
0.0
 11
5.693405511811027
 21
-2.9005905511811036
 31
0.0
  0
LINE
  8
0
 62
0
 10
7.994094488188981
 20
-1.5994094488188981
 30
0.0
 11
8.505905511811028
 21
-1.5994094488188961
 31
0.0
  0
LINE
  8
0
 62
0
 10
5.161909448818901
 20
-2.3690944881889773
 30
0.0
 11
5.161909448818901
 21
-2.8809055118110245
 31
0.0
  0
LINE
  8
0
 62
0
 10
5.713090551181105
 20
-2.8809055118110245
 30
0.0
 11
5.713090551181105
 21
-2.3690944881889773
 31
0.0
  0
LINE
  8
0
 62
0
 10
8.525590551181107
 20
-2.1309055118110245
 30
0.0
 11
8.525590551181107
 21
-1.6190944881889768
 31
0.0
  0
ARC
  8
0
 62
0
 10
4.84938976377953
 20
-2.32972440944882
 30
0.0
 40
0.019685039370078705
 50
89.99999999999741
 51
-180.0
  0
LINE
  8
0
 62
0
 10
4.195639763779529
 20
-2.9005905511811036
 30
0.0
 11
5.085610236220475
 21
-2.900590544610513
 31
0.0
  0
ARC
  8
0
 62
0
 10
4.810019685039372
 20
-2.32972440944882
 30
0.0
 40
0.019685039370078705
 50
-90.0
 51
-0.0
  0
LINE
  8
0
 62
0
 10
5.085610236220475
 20
-2.310039370078741
 30
0.0
 11
4.84938976377953
 21
-2.310039370078741
 31
0.0
  0
ARC
  8
0
 62
0
 10
6.780019685039374
 20
-2.32972440944882
 30
0.0
 40
0.019685039370078705
 50
-90.0
 51
-0.0
  0
LINE
  8
0
 62
0
 10
4.175954724409451
 20
-2.32972440944882
 30
0.0
 11
4.175954724409451
 21
-2.8809055118110245
 31
0.0
  0
ARC
  8
0
 62
0
 10
1.7559055118110245
 20
-2.3690944881889773
 30
0.0
 40
0.019685039370078705
 50
-0.0
 51
90.0
  0
ARC
  8
0
 62
0
 10
2.5949803149606314
 20
-2.32972440944882
 30
0.0
 40
0.019685039370078705
 50
-180.0
 51
-90.0
  0
ARC
  8
0
 62
0
 10
5.085610236220475
 20
-2.32972440944882
 30
0.0
 40
0.019685039370078705
 50
-0.0
 51
90.0
  0
ARC
  8
0
 62
0
 10
5.1815944881889795
 20
-2.8809055118110245
 30
0.0
 40
0.019685039370078705
 50
-180.0
 51
-90.0
  0
ARC
  8
0
 62
0
 10
5.1815944881889795
 20
-2.3690944881889773
 30
0.0
 40
0.019685039370078705
 50
90.0
 51
-180.0
  0
LINE
  8
0
 62
0
 10
4.810019685039372
 20
-2.3494094488188986
 30
0.0
 11
4.471230314960632
 21
-2.3494094488188986
 31
0.0
  0
ARC
  8
0
 62
0
 10
4.195639763779529
 20
-2.8809055118110254
 30
0.0
 40
0.019685039370077817
 50
180.0
 51
-90.0
  0
ARC
  8
0
 62
0
 10
0.30659448818897667
 20
-1.6190944881889768
 30
0.0
 40
0.019685039370078705
 50
90.0
 51
-180.0
  0
LINE
  8
0
 62
0
 10
0.8380905511811029
 20
-2.1309055118110245
 30
0.0
 11
0.8380905511811029
 21
-1.6190944881889768
 31
0.0
  0
LINE
  8
0
 62
0
 10
0.28690944881889785
 20
-1.6190944881889768
 30
0.0
 11
0.28690944881889785
 21
-2.1309055118110245
 31
0.0
  0
LINE
  8
0
 62
0
 10
1.7559055118110245
 20
-2.3494094488188986
 30
0.0
 11
1.244094488188977
 21
-2.349409442248308
 31
0.0
  0
LINE
  8
0
 62
0
 10
5.693405511811027
 20
-2.3494094488188986
 30
0.0
 11
5.1815944881889795
 21
-2.349409442248308
 31
0.0
  0
ARC
  8
0
 62
0
 10
2.5556102362204745
 20
-2.32972440944882
 30
0.0
 40
0.019685039370078705
 50
-0.0
 51
90.0000000000013
  0
ARC
  8
0
 62
0
 10
2.787155511811026
 20
-2.3690944881889773
 30
0.0
 40
0.019685039370078705
 50
-0.0
 51
90.0
  0
ARC
  8
0
 62
0
 10
8.505905511811028
 20
-1.6190944881889768
 30
0.0
 40
0.019685039370079593
 50
-0.0
 51
90.0
  0
ARC
  8
0
 62
0
 10
7.994094488188981
 20
-1.6190944881889768
 30
0.0
 40
0.019685039370078705
 50
90.0
 51
-180.0
  0
ARC
  8
0
 62
0
 10
0.8184055118110241
 20
-1.6190944881889768
 30
0.0
 40
0.019685039370078816
 50
-0.0
 51
90.0
  0
LINE
  8
0
 62
0
 10
1.7755905511811034
 20
-2.8809055118110245
 30
0.0
 11
1.7755905511811034
 21
-2.3690944881889773
 31
0.0
  0
LINE
  8
0
 62
0
 10
2.255659448818899
 20
-2.3690944881889773
 30
0.0
 11
2.255659448818899
 21
-2.8809055118110245
 31
0.0
  0
ARC
  8
0
 62
0
 10
5.085610236220475
 20
-2.8809055118110245
 30
0.0
 40
0.019685039370078705
 50
-89.99999999999741
 51
-0.0
  0
LINE
  8
0
 62
0
 10
2.787155511811026
 20
-2.3494094488188986
 30
0.0
 11
2.5949803149606314
 21
-2.3494094488188986
 31
0.0
  0
ARC
  8
0
 62
0
 10
2.2753444881889777
 20
-2.880905511811025
 30
0.0
 40
0.019685039370078705
 50
180.0
 51
-90.0
  0
ARC
  8
0
 62
0
 10
4.471230314960632
 20
-2.32972440944882
 30
0.0
 40
0.019685039370078705
 50
-180.0
 51
-90.0
  0
ARC
  8
0
 62
0
 10
1.244094488188977
 20
-2.8809055118110245
 30
0.0
 40
0.019685039370078705
 50
-180.0
 51
-90.0
  0
ARC
  8
0
 62
0
 10
2.2800196850393717
 20
-2.329724402878229
 30
0.0
 40
0.019685039370078705
 50
-90.0
 51
-1.9129102916627893e-05
  0
ARC
  8
0
 62
0
 10
2.319389763779528
 20
-2.3297244094488194
 30
0.0
 40
0.01968503937007826
 50
89.99999999999741
 51
-180.0
  0
LINE
  8
0
 62
0
 10
5.105295275590554
 20
-2.8809055118110245
 30
0.0
 11
5.105295275590554
 21
-2.32972440944882
 31
0.0
  0
ARC
  8
0
 62
0
 10
1.244094488188977
 20
-2.3690944881889773
 30
0.0
 40
0.019685039370078705
 50
90.0
 51
-180.0
  0
LINE
  8
0
 62
0
 10
6.780019685039374
 20
-2.3494094488188986
 30
0.0
 11
6.4940944881889795
 21
-2.349409442248308
 31
0.0
  0
ARC
  8
0
 62
0
 10
4.431860236220475
 20
-2.3297244094488208
 30
0.0
 40
0.019685039370078705
 50
-0.0
 51
90.00000000000259
  0
ARC
  8
0
 62
0
 10
5.693405511811027
 20
-2.8809055118110245
 30
0.0
 40
0.019685039370078705
 50
-90.0
 51
-0.0
  0
ARC
  8
0
 62
0
 10
4.195639763779529
 20
-2.329724409448819
 30
0.0
 40
0.01968503937007826
 50
89.99999999999741
 51
-180.0
  0
ARC
  8
0
 62
0
 10
0.8184055118110241
 20
-2.1309055118110245
 30
0.0
 40
0.019685039370078705
 50
-90.0
 51
-0.0
  0
LINE
  8
0
 62
0
 10
4.431860236220475
 20
-2.310039370078741
 30
0.0
 11
4.195639763779529
 21
-2.310039370078741
 31
0.0
  0
ARC
  8
0
 62
0
 10
0.30659448818897667
 20
-2.1309055118110245
 30
0.0
 40
0.01968503937007876
 50
-180.0
 51
-90.0
  0
LINE
  8
0
 62
0
 10
0.8184055118110241
 20
-1.5994094488189012
 30
0.0
 11
0.30659448818897667
 21
-1.5994094488188981
 31
0.0
  0
LINE
  8
0
 62
0
 10
2.8068405511811045
 20
-2.8809055118110245
 30
0.0
 11
2.8068405511811045
 21
-2.3690944881889773
 31
0.0
  0
LINE
  8
0
 62
0
 10
1.2244094488188983
 20
-2.3690944881889773
 30
0.0
 11
1.2244094488188983
 21
-2.8809055118110245
 31
0.0
  0
LINE
  8
0
 62
0
 10
2.2753444881889777
 20
-2.900590544610513
 30
0.0
 11
2.787155511811026
 21
-2.9005905511811036
 31
0.0
  0
LINE
  8
0
 62
0
 10
2.2800196850393717
 20
-2.349409442248308
 30
0.0
 11
2.2753444881889777
 21
-2.349409442248308
 31
0.0
  0
LINE
  8
0
 62
0
 10
2.555610236220474
 20
-2.310039370078741
 30
0.0
 11
2.3193897637795295
 21
-2.310039370078741
 31
0.0
  0
ARC
  8
0
 62
0
 10
6.819389763779531
 20
-2.32972440944882
 30
0.0
 40
0.019685039370078705
 50
90.0
 51
-180.0
  0
ARC
  8
0
 62
0
 10
2.787155511811026
 20
-2.8809055118110245
 30
0.0
 40
0.019685039370078705
 50
-90.0
 51
-0.0
  0
ARC
  8
0
 62
0
 10
2.2753444881889777
 20
-2.369094488188977
 30
0.0
 40
0.019685039370078705
 50
90.0
 51
-180.0
  0
LINE
  8
0
 62
0
 10
1.244094488188977
 20
-2.900590544610513
 30
0.0
 11
1.7559055118110245
 21
-2.9005905511811036
 31
0.0
  0
ARC
  8
0
 62
0
 10
7.055610236220477
 20
-2.32972440944882
 30
0.0
 40
0.019685039370078705
 50
-0.0
 51
90.0
  0
LINE
  8
0
 62
0
 10
7.075295275590555
 20
-2.8809055118110245
 30
0.0
 11
7.075295275590555
 21
-2.32972440944882
 31
0.0
  0
ARC
  8
0
 62
0
 10
7.055610236220477
 20
-2.8809055118110245
 30
0.0
 40
0.019685039370078705
 50
-90.0
 51
-0.0
  0
LINE
  8
0
 62
0
 10
7.055610236220477
 20
-2.310039370078741
 30
0.0
 11
6.819389763779531
 21
-2.310039370078741
 31
0.0
  0
LINE
  8
0
 62
0
 10
6.4940944881889795
 20
-2.900590544610513
 30
0.0
 11
7.055610236220477
 21
-2.9005905511811036
 31
0.0
  0
ARC
  8
0
 62
0
 10
8.798474409448824
 20
-2.1274803149606307
 30
0.0
 40
0.019685039370079593
 50
-0.0
 51
89.99999999999484
  0
ARC
  8
0
 62
0
 10
9.295275590551185
 20
-0.8725196850393705
 30
0.0
 40
0.019685039370079593
 50
-180.0
 51
-90.0
  0
LINE
  8
0
 62
0
 10
9.349655511811028
 20
-1.224409448818898
 30
0.0
 11
9.295275590551185
 21
-1.224409448818898
 31
0.0
  0
LINE
  8
0
 62
0
 10
8.724409448818902
 20
-1.3809055118110245
 30
0.0
 11
8.724409448818902
 21
-0.8690944881889768
 31
0.0
  0
ARC
  8
0
 62
0
 10
9.349655511811028
 20
-0.9118897637795276
 30
0.0
 40
0.019685039370079593
 50
-0.0
 51
90.0
  0
LINE
  8
0
 62
0
 10
9.349655511811028
 20
-0.8922047244094492
 30
0.0
 11
9.295275590551185
 21
-0.8922047244094492
 31
0.0
  0
LINE
  8
0
 62
0
 10
9.295275590551185
 20
-1.1677952755905519
 30
0.0
 11
9.349655511811028
 21
-1.1677952755905519
 31
0.0
  0
LINE
  8
0
 62
0
 10
9.275590551181107
 20
-1.1874803149606306
 30
0.0
 11
9.275590551181107
 21
-1.2047244094488192
 31
0.0
  0
ARC
  8
0
 62
0
 10
9.295275590551185
 20
-1.2047244094488192
 30
0.0
 40
0.019685039370079593
 50
-180.0
 51
-90.0
  0
LINE
  8
0
 62
0
 10
8.798474409448824
 20
-1.4005905511811032
 30
0.0
 11
8.744094488188981
 21
-1.4005905511811032
 31
0.0
  0
ARC
  8
0
 62
0
 10
9.349655511811028
 20
-2.1309055118110245
 30
0.0
 40
0.019685039370078705
 50
-90.0
 51
-0.0
  0
LINE
  8
0
 62
0
 10
8.778789370078744
 20
-1.8518897637795282
 30
0.0
 11
8.778789370078744
 21
-2.0881102362204733
 31
0.0
  0
LINE
  8
0
 62
0
 10
6.474409448818901
 20
-2.3690944881889773
 30
0.0
 11
6.474409448818901
 21
-2.8809055118110245
 31
0.0
  0
ARC
  8
0
 62
0
 10
8.798474409448824
 20
-2.088110236220475
 30
0.0
 40
0.019685039370077817
 50
180.0
 51
-90.0
  0
ARC
  8
0
 62
0
 10
9.349655511811028
 20
-1.244094488188977
 30
0.0
 40
0.019685039370079593
 50
-0.0
 51
90.0
  0
LINE
  8
0
 62
0
 10
9.369340551181107
 20
-2.1309055118110245
 30
0.0
 11
9.369340551181107
 21
-1.244094488188977
 31
0.0
  0
ARC
  8
0
 62
0
 10
8.798474409448824
 20
-1.8125196850393706
 30
0.0
 40
0.019685039370078705
 50
-89.99999999999484
 51
-0.0
  0
ARC
  8
0
 62
0
 10
6.4940944881889795
 20
-2.369094488188975
 30
0.0
 40
0.019685039370077817
 50
90.0
 51
-180.0
  0
ARC
  8
0
 62
0
 10
9.295275590551185
 20
-1.1874803149606306
 30
0.0
 40
0.019685039370078705
 50
90.0
 51
-180.0
  0
ARC
  8
0
 62
0
 10
8.798474409448824
 20
-1.420275590551182
 30
0.0
 40
0.019685039370079593
 50
-0.0
 51
90.0
  0
ARC
  8
0
 62
0
 10
8.837844488188981
 20
-2.1309055118110245
 30
0.0
 40
0.019685039370079593
 50
-180.0
 51
-90.0
  0
ARC
  8
0
 62
0
 10
8.744094488188981
 20
-0.8690944881889768
 30
0.0
 40
0.019685039370078705
 50
90.0
 51
-180.0
  0
LINE
  8
0
 62
0
 10
8.744094488188981
 20
-0.849409448818898
 30
0.0
 11
9.255905511811028
 21
-0.8494094488188974
 31
0.0
  0
ARC
  8
0
 62
0
 10
9.255905511811028
 20
-0.8690944881889768
 30
0.0
 40
0.019685039370079593
 50
-0.0
 51
90.0
  0
LINE
  8
0
 62
0
 10
9.275590551181107
 20
-0.8690944881889768
 30
0.0
 11
9.275590551181107
 21
-0.8725196850393705
 31
0.0
  0
LINE
  8
0
 62
0
 10
8.818159448818902
 20
-2.1274803149606307
 30
0.0
 11
8.818159448818902
 21
-2.1309055118110245
 31
0.0
  0
ARC
  8
0
 62
0
 10
8.798474409448824
 20
-1.8518897637795262
 30
0.0
 40
0.019685039370077817
 50
90.0
 51
-180.0
  0
LINE
  8
0
 62
0
 10
8.818159448818902
 20
-1.420275590551182
 30
0.0
 11
8.818159448818902
 21
-1.8125196850393706
 31
0.0
  0
LINE
  8
0
 62
0
 10
9.349655511811028
 20
-2.150590551181103
 30
0.0
 11
8.837844488188981
 21
-2.150590551181095
 31
0.0
  0
ARC
  8
0
 62
0
 10
8.744094488188981
 20
-1.3809055118110245
 30
0.0
 40
0.019685039370079593
 50
-180.0
 51
-90.0
  0
ARC
  8
0
 62
0
 10
6.4940944881889795
 20
-2.8809055118110263
 30
0.0
 40
0.019685039370077817
 50
180.0
 51
-90.0
  0
LINE
  8
0
 62
0
 10
3.3065944881889786
 20
-1.4005905511811032
 30
0.0
 11
3.818405511811026
 21
-1.4005905511811032
 31
0.0
  0
LINE
  8
0
 62
0
 10
5.505905511811026
 20
-1.5994094488188981
 30
0.0
 11
4.994094488188979
 21
-1.5994094488188981
 31
0.0
  0
ARC
  8
0
 62
0
 10
4.005905511811026
 20
-1.6190944881889768
 30
0.0
 40
0.019685039370078705
 50
-0.0
 51
90.0
  0
LINE
  8
0
 62
0
 10
3.838090551181105
 20
-1.3809055118110245
 30
0.0
 11
3.838090551181105
 21
-0.8690944881889764
 31
0.0
  0
LINE
  8
0
 62
0
 10
4.994094488188979
 20
-2.150590551181103
 30
0.0
 11
5.505905511811026
 21
-2.150590551181103
 31
0.0
  0
ARC
  8
0
 62
0
 10
7.431594754166755
 20
-2.3690944816183865
 30
0.0
 40
0.019685039370078705
 50
90.0
 51
-180.0
  0
ARC
  8
0
 62
0
 10
3.3065944881889786
 20
-0.8690944881889764
 30
0.0
 40
0.019685039370078816
 50
90.0
 51
-180.0
  0
LINE
  8
0
 62
0
 10
6.474409448818901
 20
-1.6190944881889768
 30
0.0
 11
6.474409448818901
 21
-2.1309055118110245
 31
0.0
  0
ARC
  8
0
 62
0
 10
1.8065944881889777
 20
-0.8690944881889764
 30
0.0
 40
0.019685039370078816
 50
90.0
 51
-180.0
  0
LINE
  8
0
 62
0
 10
6.4940944881889795
 20
-2.150590551181103
 30
0.0
 11
7.005905511811027
 21
-2.150590551181103
 31
0.0
  0
ARC
  8
0
 62
0
 10
4.994094488188979
 20
-2.1309055118110245
 30
0.0
 40
0.019685039370078705
 50
-180.0
 51
-90.0
  0
LINE
  8
0
 62
0
 10
1.786909448818899
 20
-0.8690944881889764
 30
0.0
 11
1.786909448818899
 21
-1.3809055118110245
 31
0.0
  0
LINE
  8
0
 62
0
 10
1.8065944881889777
 20
-1.4005905511811032
 30
0.0
 11
2.3184055118110254
 21
-1.4005905511811032
 31
0.0
  0
ARC
  8
0
 62
0
 10
2.3184055118110254
 20
-0.8690944881889764
 30
0.0
 40
0.019685039370078705
 50
-0.0
 51
90.0
  0
ARC
  8
0
 62
0
 10
3.3065944881889786
 20
-1.3809055118110245
 30
0.0
 40
0.019685039370078705
 50
-180.0
 51
-90.0
  0
ARC
  8
0
 62
0
 10
3.818405511811026
 20
-0.8690944881889776
 30
0.0
 40
0.01968503937007915
 50
-0.0
 51
90.0
  0
LINE
  8
0
 62
0
 10
7.9434057777888025
 20
-2.349409442248308
 30
0.0
 11
7.431594754166755
 21
-2.349409442248308
 31
0.0
  0
LINE
  8
0
 62
0
 10
9.369340551181107
 20
-1.1481102362204725
 30
0.0
 11
9.369340551181107
 21
-0.9118897637795276
 31
0.0
  0
LINE
  8
0
 62
0
 10
7.963090817158881
 20
-2.880905505240434
 30
0.0
 11
7.963090817158881
 21
-2.3690944816183865
 31
0.0
  0
LINE
  8
0
 62
0
 10
7.431594754166755
 20
-2.900590544610513
 30
0.0
 11
7.9434057777888025
 21
-2.900590544610513
 31
0.0
  0
ARC
  8
0
 62
0
 10
6.4940944881889795
 20
-2.1309055118110263
 30
0.0
 40
0.019685039370077817
 50
180.0
 51
-90.0
  0
LINE
  8
0
 62
0
 10
7.025590551181105
 20
-2.1309055118110245
 30
0.0
 11
7.025590551181105
 21
-1.6190944881889768
 31
0.0
  0
ARC
  8
0
 62
0
 10
9.349655511811028
 20
-1.1481102362204725
 30
0.0
 40
0.019685039370078705
 50
-90.0
 51
-0.0
  0
ARC
  8
0
 62
0
 10
5.505905511811026
 20
-2.1309055118110245
 30
0.0
 40
0.019685039370078705
 50
-90.00000000000259
 51
-0.0
  0
LINE
  8
0
 62
0
 10
7.005905511811027
 20
-1.5994094488188981
 30
0.0
 11
6.4940944881889795
 21
-1.5994094488188981
 31
0.0
  0
LINE
  8
0
 62
0
 10
4.9744094488189
 20
-1.6190944881889768
 30
0.0
 11
4.9744094488189
 21
-2.1309055118110245
 31
0.0
  0
ARC
  8
0
 62
0
 10
4.005905511811026
 20
-2.1309055118110245
 30
0.0
 40
0.019685039370078705
 50
-90.0
 51
-0.0
  0
ARC
  8
0
 62
0
 10
3.4940944881889786
 20
-2.1309055118110245
 30
0.0
 40
0.019685039370078705
 50
-180.0
 51
-90.0
  0
LINE
  8
0
 62
0
 10
3.4744094488189
 20
-1.6190944881889768
 30
0.0
 11
3.4744094488189
 21
-2.1309055118110245
 31
0.0
  0
ARC
  8
0
 62
0
 10
2.3184055118110254
 20
-1.3809055118110245
 30
0.0
 40
0.019685039370078705
 50
-90.0
 51
-0.0
  0
LINE
  8
0
 62
0
 10
3.818405511811026
 20
-0.8494094488188976
 30
0.0
 11
3.3065944881889786
 21
-0.8494094488188976
 31
0.0
  0
LINE
  8
0
 62
0
 10
7.411909714796677
 20
-2.3690944816183865
 30
0.0
 11
7.411909714796677
 21
-2.880905505240434
 31
0.0
  0
ARC
  8
0
 62
0
 10
7.005905511811027
 20
-2.1309055118110245
 30
0.0
 40
0.019685039370078705
 50
-90.0
 51
-0.0
  0
ARC
  8
0
 62
0
 10
5.505905511811026
 20
-1.6190944881889768
 30
0.0
 40
0.019685039370078705
 50
-0.0
 51
90.0
  0
ARC
  8
0
 62
0
 10
4.994094488188979
 20
-1.6190944881889768
 30
0.0
 40
0.019685039370078705
 50
90.0
 51
-180.0
  0
LINE
  8
0
 62
0
 10
2.3184055118110254
 20
-0.8494094488188976
 30
0.0
 11
1.8065944881889777
 21
-0.8494094488188976
 31
0.0
  0
ARC
  8
0
 62
0
 10
6.4940944881889795
 20
-1.619094488188975
 30
0.0
 40
0.019685039370077817
 50
90.0
 51
-180.0
  0
LINE
  8
0
 62
0
 10
3.2869094488189
 20
-0.8690944881889764
 30
0.0
 11
3.2869094488189
 21
-1.3809055118110245
 31
0.0
  0
LINE
  8
0
 62
0
 10
3.4940944881889786
 20
-2.150590551181103
 30
0.0
 11
4.005905511811026
 21
-2.150590551181103
 31
0.0
  0
ARC
  8
0
 62
0
 10
3.4940944881889786
 20
-1.6190944881889768
 30
0.0
 40
0.019685039370078705
 50
90.0
 51
-180.0
  0
ARC
  8
0
 62
0
 10
7.9434057777888025
 20
-2.880905505240434
 30
0.0
 40
0.019685039370078705
 50
-90.0
 51
-0.0
  0
LINE
  8
0
 62
0
 10
5.525590551181105
 20
-2.1309055118110245
 30
0.0
 11
5.525590551181105
 21
-1.6190944881889768
 31
0.0
  0
LINE
  8
0
 62
0
 10
4.005905511811026
 20
-1.5994094488188981
 30
0.0
 11
3.4940944881889786
 21
-1.5994094488188981
 31
0.0
  0
ARC
  8
0
 62
0
 10
7.005905511811027
 20
-1.6190944881889768
 30
0.0
 40
0.019685039370078705
 50
-0.0
 51
90.0
  0
ARC
  8
0
 62
0
 10
1.8065944881889777
 20
-1.3809055118110245
 30
0.0
 40
0.019685039370078705
 50
-180.0
 51
-90.0
  0
LINE
  8
0
 62
0
 10
2.338090551181104
 20
-1.3809055118110245
 30
0.0
 11
2.338090551181104
 21
-0.8690944881889764
 31
0.0
  0
ARC
  8
0
 62
0
 10
3.818405511811026
 20
-1.380905511811023
 30
0.0
 40
0.01968503937007915
 50
-90.0
 51
-0.0
  0
ARC
  8
0
 62
0
 10
7.9434057777888025
 20
-2.3690944816183865
 30
0.0
 40
0.019685039370078705
 50
-0.0
 51
90.0
  0
ARC
  8
0
 62
0
 10
7.431594754166755
 20
-2.880905505240434
 30
0.0
 40
0.019685039370078705
 50
-180.0
 51
-90.0
  0
LINE
  8
0
 62
0
 10
4.0255905511811045
 20
-2.1309055118110245
 30
0.0
 11
4.0255905511811045
 21
-1.6190944881889768
 31
0.0
  0
ARC
  8
0
 62
0
 10
5.318405511811027
 20
-1.3809055118110245
 30
0.0
 40
0.019685039370078705
 50
-90.0
 51
-0.0
  0
LINE
  8
0
 62
0
 10
4.8065944881889795
 20
-1.4005905511811032
 30
0.0
 11
5.318405511811027
 21
-1.4005905511811032
 31
0.0
  0
ARC
  8
0
 62
0
 10
4.8065944881889795
 20
-1.3809055118110245
 30
0.0
 40
0.019685039370078705
 50
-180.0
 51
-90.0
  0
LINE
  8
0
 62
0
 10
4.7869094488189
 20
-0.8690944881889764
 30
0.0
 11
4.7869094488189
 21
-1.3809055118110245
 31
0.0
  0
ARC
  8
0
 62
0
 10
4.8065944881889795
 20
-0.8690944881889764
 30
0.0
 40
0.019685039370078816
 50
90.0
 51
-180.0
  0
LINE
  8
0
 62
0
 10
5.318405511811027
 20
-0.8494094488188976
 30
0.0
 11
4.8065944881889795
 21
-0.8494094488188976
 31
0.0
  0
LINE
  8
0
 62
0
 10
5.338090551181105
 20
-1.3809055118110245
 30
0.0
 11
5.338090551181105
 21
-0.8690944881889764
 31
0.0
  0
ARC
  8
0
 62
0
 10
6.818405511811027
 20
-1.3809055118110225
 30
0.0
 40
0.019685039370079815
 50
-90.0
 51
-0.0
  0
LINE
  8
0
 62
0
 10
6.3065944881889795
 20
-1.4005905511811032
 30
0.0
 11
6.818405511811027
 21
-1.4005905511811032
 31
0.0
  0
ARC
  8
0
 62
0
 10
6.3065944881889795
 20
-1.3809055118110245
 30
0.0
 40
0.019685039370078705
 50
-180.0
 51
-90.0
  0
LINE
  8
0
 62
0
 10
6.286909448818901
 20
-0.8690944881889764
 30
0.0
 11
6.286909448818901
 21
-1.3809055118110245
 31
0.0
  0
LINE
  8
0
 62
0
 10
6.818405511811027
 20
-0.8494094488188976
 30
0.0
 11
6.3065944881889795
 21
-0.8494094488188976
 31
0.0
  0
ARC
  8
0
 62
0
 10
5.318405511811027
 20
-0.8690944881889764
 30
0.0
 40
0.019685039370078705
 50
-0.0
 51
90.0
  0
ARC
  8
0
 62
0
 10
6.3065944881889795
 20
-0.8690944881889764
 30
0.0
 40
0.019685039370078816
 50
90.0
 51
-180.0
  0
LINE
  8
0
 62
0
 10
6.838090551181106
 20
-1.3809055118110245
 30
0.0
 11
6.838090551181106
 21
-0.8690944881889764
 31
0.0
  0
ARC
  8
0
 62
0
 10
8.318405511811028
 20
-0.8690944881889764
 30
0.0
 40
0.019685039370079593
 50
-0.0
 51
90.0
  0
LINE
  8
0
 62
0
 10
7.786909448818902
 20
-0.8690944881889764
 30
0.0
 11
7.786909448818902
 21
-1.3809055118110245
 31
0.0
  0
ARC
  8
0
 62
0
 10
7.80659448818898
 20
-0.8690944881889748
 30
0.0
 40
0.019685039370077817
 50
90.0
 51
-180.0
  0
LINE
  8
0
 62
0
 10
2.7244094488189
 20
-1.6190944881889768
 30
0.0
 11
2.7244094488189
 21
-2.1309055118110245
 31
0.0
  0
ARC
  8
0
 62
0
 10
2.7440944881889786
 20
-1.6190944881889768
 30
0.0
 40
0.019685039370078705
 50
90.0
 51
-180.0
  0
ARC
  8
0
 62
0
 10
8.318405511811028
 20
-1.3809055118110245
 30
0.0
 40
0.019685039370078705
 50
-90.0
 51
-0.0
  0
ARC
  8
0
 62
0
 10
3.2559055118110254
 20
-2.1309055118110245
 30
0.0
 40
0.019685039370078705
 50
-90.0
 51
-0.0
  0
LINE
  8
0
 62
0
 10
8.338090551181107
 20
-1.3809055118110245
 30
0.0
 11
8.338090551181107
 21
-0.8690944881889764
 31
0.0
  0
LINE
  8
0
 62
0
 10
3.2755905511811045
 20
-2.1309055118110245
 30
0.0
 11
3.2755905511811045
 21
-1.6190944881889768
 31
0.0
  0
LINE
  8
0
 62
0
 10
8.318405511811028
 20
-0.8494094488188976
 30
0.0
 11
7.80659448818898
 21
-0.8494094488188976
 31
0.0
  0
ARC
  8
0
 62
0
 10
2.7440944881889786
 20
-2.1309055118110245
 30
0.0
 40
0.019685039370078705
 50
-180.0
 51
-90.0
  0
ARC
  8
0
 62
0
 10
3.2559055118110254
 20
-1.6190944881889768
 30
0.0
 40
0.019685039370078705
 50
-0.0
 51
90.0
  0
LINE
  8
0
 62
0
 10
7.80659448818898
 20
-1.4005905511811032
 30
0.0
 11
8.318405511811028
 21
-1.4005905511811032
 31
0.0
  0
ARC
  8
0
 62
0
 10
6.818405511811027
 20
-0.8690944881889784
 30
0.0
 40
0.019685039370079593
 50
-0.0
 51
90.0
  0
ARC
  8
0
 62
0
 10
7.80659448818898
 20
-1.3809055118110265
 30
0.0
 40
0.019685039370077817
 50
180.0
 51
-90.0
  0
LINE
  8
0
 62
0
 10
2.7440944881889786
 20
-2.150590551181103
 30
0.0
 11
3.2559055118110254
 21
-2.150590551181103
 31
0.0
  0
LINE
  8
0
 62
0
 10
3.2559055118110254
 20
-1.5994094488188981
 30
0.0
 11
2.7440944881889786
 21
-1.5994094488188981
 31
0.0
  0
ENDSEC
  0
EOF
