0
SECTION
2
HEADER
9
$INSUNITS
70
4
9
$ACADVER
1
AC1014
9
$HANDSEED
5
FFFF
0
ENDSEC
0
SECTION
2
TABLES
0
TABLE
2
VPORT
5
8
100
AcDbSymbolTable
0
ENDTAB
0
TABLE
2
LTYPE
5
5
100
AcDbSymbolTable
0
LTYPE
5
14
100
AcDbSymbolTableRecord
100
AcDbLinetypeTableRecord
2
BYBLOCK
70
0
0
LTYPE
5
15
100
AcDbSymbolTableRecord
100
AcDbLinetypeTableRecord
2
BYLAYER
70
0
0
ENDTAB
0
TABLE
2
LAYER
5
2
100
AcDbSymbolTable
70
2
0
LAYER
5
50
100
AcDbSymbolTableRecord
100
AcDbLayerTableRecord
2
0
70
0
6
CONTINUOUS
0
ENDTAB
0
TABLE
2
STYLE
5
3
100
AcDbSymbolTable
70
1
0
STYLE
5
11
100
AcDbSymbolTableRecord
100
AcDbTextStyleTableRecord
2
STANDARD
70
0
0
ENDTAB
0
TABLE
2
VIEW
5
6
100
AcDbSymbolTable
70
0
0
ENDTAB
0
TABLE
2
UCS
5
7
100
AcDbSymbolTable
70
0
0
ENDTAB
0
TABLE
2
APPID
5
9
100
AcDbSymbolTable
70
2
0
APPID
5
12
100
AcDbSymbolTableRecord
100
AcDbRegAppTableRecord
2
ACAD
70
0
0
ENDTAB
0
TABLE
2
DIMSTYLE
5
A
100
AcDbSymbolTable
70
1
0
ENDTAB
0
TABLE
2
BLOCK_RECORD
5
1
100
AcDbSymbolTable
70
1
0
BLOCK_RECORD
5
1F
100
AcDbSymbolTableRecord
100
AcDbBlockTableRecord
2
*MODEL_SPACE
0
BLOCK_RECORD
5
1B
100
AcDbSymbolTableRecord
100
AcDbBlockTableRecord
2
*PAPER_SPACE
0
ENDTAB
0
ENDSEC
0
SECTION
2
BLOCKS
0
BLOCK
5
20
100
AcDbEntity
100
AcDbBlockBegin
2
*MODEL_SPACE
0
ENDBLK
5
21
100
AcDbEntity
100
AcDbBlockEnd
0
BLOCK
5
1C
100
AcDbEntity
100
AcDbBlockBegin
2
*PAPER_SPACE
0
ENDBLK
5
1D
100
AcDbEntity
100
AcDbBlockEnd
0
ENDSEC
0
SECTION
2
ENTITIES
0
LWPOLYLINE
5
100
100
AcDbEntity
8
0
100
AcDbPolyline
90
32
70
1
43
0.0
10
-60.752896457076552
20
-39.794705214620897
42
-0.37519615796984152
10
-57.7400395275655
20
-36.31266496363898
10
-9.9770730781808581
20
-29.600015295618604
10
10.022926921819098
20
-29.600015295618604
10
57.785931994651392
20
-36.312666681628045
42
-0.3751962755978534
10
60.798789182763528
20
-39.794708146668597
42
0.8733336964772741
10
66.686316589995613
20
-40.622146013068807
42
-0.37519627559785956
10
70.542241376987718
20
-38.105448725495059
10
80.998643913436993
20
-39.575000000000102
10
112.20325000000001
20
-39.575000000000003
42
0.41421356237309503
10
114.20325
20
-37.575000000000003
10
114.20325
20
37.575000000000003
42
0.41421356237309503
10
112.20325000000001
20
39.575000000000003
10
86.533355789890095
20
39.575000000000102
10
78.832728331848813
20
40.657252414824953
42
-0.33088350109757997
10
75.860716616611029
20
43.589799399668401
42
0.74312749171957793
10
70.171677644668506
20
44.389341540742606
42
-0.3308835010975768
10
66.506477225973413
20
42.389593720485756
10
10.022938235222103
20
50.327836000569008
10
-9.9770617647778881
20
50.327836000568908
10
-66.460600293024896
20
42.389593785486561
42
-0.33088357018899411
10
-70.125801076938984
20
44.389342397387409
42
0.74312768504615279
10
-75.81484047581003
20
43.589800196312289
42
-0.33088357018899156
10
-78.786852323912214
20
40.65725234982385
10
-86.487479319447601
20
39.575000000000003
10
-108.63124999999999
20
39.575000000000003
42
0.41421356237309503
10
-110.63124999999999
20
37.575000000000003
10
-110.63124999999999
20
-37.575000000000003
42
0.41421356237309503
10
-108.63124999999999
20
-39.575000000000003
10
-80.952750840461704
20
-39.575000000000003
10
-70.49634805857211
20
-38.105447878757289
42
-0.3751961579698459
10
-66.640423471387237
20
-40.622143483137087
42
0.87333333296170468
0
LINE
5
101
100
AcDbEntity
8
0
100
AcDbLine
10
27.539315054560149
20
4.8474159923322029
30
0
11
25.730064054560163
21
-8.026069007667811
31
0
0
ARC
5
102
100
AcDbEntity
8
0
100
AcDbCircle
10
25.234930000000002
20
-7.9564830000000111
30
0
40
0.499999999999999
210
0
220
0
230
1
100
AcDbArc
50
262.00006191834683
51
352.00006191834575
0
LINE
5
103
100
AcDbEntity
8
0
100
AcDbLine
10
25.165343984600973
20
-8.4516171095712309
30
0
11
12.291858992332203
21
-6.6423660545601662
31
0
0
ARC
5
104
100
AcDbEntity
8
0
100
AcDbCircle
10
12.361445
20
-6.1472320000000007
30
0
40
0.50000000000000067
210
0
220
0
230
1
100
AcDbArc
50
172.00006191834728
51
262.00006191834615
0
LINE
5
105
100
AcDbEntity
8
0
100
AcDbLine
10
11.866310890428778
20
-6.0776459846009754
30
0
11
13.67556194543984
21
6.7958390076677873
31
0
0
ARC
5
106
100
AcDbEntity
8
0
100
AcDbCircle
10
14.170696
20
6.7262529999999998
30
0
40
0.49999999999999828
210
0
220
-0
230
1
100
AcDbArc
50
82.000061918345622
51
172.00006191834703
0
LINE
5
107
100
AcDbEntity
8
0
100
AcDbLine
10
14.240282015399039
20
7.2213871095712179
30
0
11
27.113767542812056
21
5.4121359798104862
31
0
0
ARC
5
108
100
AcDbEntity
8
0
100
AcDbCircle
10
27.044180999999998
20
4.9170019999999903
30
0
40
0.49999994444831308
210
0
220
0
230
1
100
AcDbArc
50
-7.9999380816531032
51
82.000000000002998
0
LINE
5
109
100
AcDbEntity
8
0
100
AcDbLine
10
32.825914992332208
20
28.946190945439852
30
0
11
19.952429992332206
21
30.75544094543984
31
0
0
ARC
5
110
100
AcDbEntity
8
0
100
AcDbCircle
10
20.022016000000001
20
31.250575000000005
30
0
40
0.50000000000000167
210
0
220
0
230
1
100
AcDbArc
50
172.0000000000046
51
262.00006191834632
0
LINE
5
111
100
AcDbEntity
8
0
100
AcDbLine
10
19.526881965629212
20
31.320161550479998
30
0
11
21.336132951679971
21
44.193646552440441
31
0
0
ARC
5
112
100
AcDbEntity
8
0
100
AcDbCircle
10
21.831267000000004
20
44.12406
30
0
40
0.49999999999999922
210
0
220
-0
230
1
100
AcDbArc
50
81.999999999993875
51
172.0000000000035
0
LINE
5
113
100
AcDbEntity
8
0
100
AcDbLine
10
21.90085355048009
20
44.619194034370778
30
0
11
34.774337998039528
21
42.809943986050676
31
0
0
ARC
5
114
100
AcDbEntity
8
0
100
AcDbCircle
10
34.704751000000002
20
42.314810000000008
30
0
40
0.5
210
0
220
0
230
1
100
AcDbArc
50
-7.9999999999965512
51
81.999948441966239
0
LINE
5
115
100
AcDbEntity
8
0
100
AcDbLine
10
35.199885034370794
20
42.245223449520005
30
0
11
33.390635048320036
21
29.371738447559558
31
0
0
ARC
5
116
100
AcDbEntity
8
0
100
AcDbCircle
10
32.895501000000003
20
29.441325000000003
30
0
40
0.49999994444831475
210
0
220
0
230
1
100
AcDbArc
50
262.00006191834609
51
352.00000000000307
0
LINE
5
117
100
AcDbEntity
8
0
100
AcDbLine
10
58.487472054560151
20
19.735150992332201
30
0
11
56.678222054560166
21
6.8616659923321883
31
0
0
ARC
5
118
100
AcDbEntity
8
0
100
AcDbCircle
10
56.183088000000005
20
6.9312519999999997
30
0
40
0.50000000000000189
210
0
220
0
230
1
100
AcDbArc
50
261.99994844196681
51
352.00006191834439
0
LINE
5
119
100
AcDbEntity
8
0
100
AcDbLine
10
56.113501003969958
20
6.4361180282473889
30
0
11
43.240016447559569
21
8.2453689516799695
31
0
0
ARC
5
120
100
AcDbEntity
8
0
100
AcDbCircle
10
43.309603000000003
20
8.7405030000000004
30
0
40
0.49999999999999745
210
0
220
0
230
1
100
AcDbArc
50
172.00006191834629
51
262.00000000000426
0
LINE
5
121
100
AcDbEntity
8
0
100
AcDbLine
10
42.814468890428785
20
8.8100890153990346
30
0
11
44.62371894543984
21
21.683574007667801
31
0
0
ARC
5
122
100
AcDbEntity
8
0
100
AcDbCircle
10
45.118853000000001
20
21.613988000000003
30
0
40
0.49999999999999989
210
0
220
-0
230
1
100
AcDbArc
50
81.999948441965131
51
172.00006191834592
0
LINE
5
123
100
AcDbEntity
8
0
100
AcDbLine
10
45.188439996030063
20
22.109121971752611
30
0
11
58.061924552440544
21
20.299871048320014
31
0
0
ARC
5
124
100
AcDbEntity
8
0
100
AcDbCircle
10
57.992337999999997
20
19.804737000000003
30
0
40
0.49999994444831941
210
0
220
0
230
1
100
AcDbArc
50
-7.9999380816546299
51
81.999999999991033
0
ARC
5
125
100
AcDbEntity
8
0
100
AcDbCircle
10
64.773392999999999
20
-0.38549300000000608
30
0
40
0.50000000000000033
210
0
220
0
230
1
100
AcDbArc
50
-7.9999999999998588
51
81.999999999991033
0
LINE
5
126
100
AcDbEntity
8
0
100
AcDbLine
10
65.268527034370791
20
-0.45507955048003879
30
0
11
63.459276979810532
21
-13.328564542812051
31
0
0
ARC
5
127
100
AcDbEntity
8
0
100
AcDbCircle
10
62.964143000000007
20
-13.258978000000001
30
0
40
0.50000000000000222
210
0
220
0
230
1
100
AcDbArc
50
262.00000000000335
51
352.00000000000421
0
LINE
5
128
100
AcDbEntity
8
0
100
AcDbLine
10
62.894556449520003
20
-13.754112034370793
30
0
11
50.021071457187965
21
-11.944860979810489
31
0
0
ARC
5
129
100
AcDbEntity
8
0
100
AcDbCircle
10
50.090658000000005
20
-11.449727000000001
30
0
40
0.50000000000000444
210
0
220
0
230
1
100
AcDbArc
50
172.00000000000412
51
262.00000000000489
0
LINE
5
130
100
AcDbEntity
8
0
100
AcDbLine
10
49.595523965629205
20
-11.380140449520002
30
0
11
51.404774020189492
21
1.4933445428120828
31
0
0
ARC
5
131
100
AcDbEntity
8
0
100
AcDbCircle
10
51.899908000000003
20
1.4237580000000003
30
0
40
0.50000000000000122
210
0
220
-0
230
1
100
AcDbArc
50
82.00000000000334
51
172.00000000000043
0
LINE
5
132
100
AcDbEntity
8
0
100
AcDbLine
10
51.969494550480007
20
1.9188920343707903
30
0
11
64.842979550480109
21
0.10964103437077002
31
0
0
ARC
5
133
100
AcDbEntity
8
0
100
AcDbCircle
10
53.964812000000002
20
-18.103660000000001
30
0
40
0.5
210
0
220
-0
230
1
100
AcDbArc
50
82.000000000004135
51
172.00000000000384
0
LINE
5
134
100
AcDbEntity
8
0
100
AcDbLine
10
54.034398550479999
20
-17.608525965629212
30
0
11
66.907883552440538
21
-19.417776951679983
31
0
0
ARC
5
135
100
AcDbEntity
8
0
100
AcDbCircle
10
66.838297000000011
20
-19.912911000000001
30
0
40
0.49999999999999656
210
0
220
0
230
1
100
AcDbArc
50
-7.9999999999972635
51
81.999999999993577
0
LINE
5
136
100
AcDbEntity
8
0
100
AcDbLine
10
67.33343103437079
20
-19.982497550480009
30
0
11
65.524180986050681
21
-32.855981998039532
31
0
0
ARC
5
137
100
AcDbEntity
8
0
100
AcDbCircle
10
65.029047000000006
20
-32.786394999999999
30
0
40
0.49999999999999867
210
0
220
0
230
1
100
AcDbArc
50
261.99994844196749
51
351.99994844196556
0
LINE
5
138
100
AcDbEntity
8
0
100
AcDbLine
10
64.959460003969966
20
-33.281528971752607
30
0
11
52.085975001960463
21
-31.472278986050672
31
0
0
ARC
5
139
100
AcDbEntity
8
0
100
AcDbCircle
10
52.15556200000001
20
-30.977145000000004
30
0
40
0.49999999999999623
210
0
220
0
230
1
100
AcDbArc
50
172.00000000000333
51
261.9999484419638
0
LINE
5
140
100
AcDbEntity
8
0
100
AcDbLine
10
51.660427965629225
20
-30.90755844952
30
0
11
53.469677965629209
21
-18.034073449520001
31
0
0
ARC
5
141
100
AcDbEntity
8
0
100
AcDbCircle
10
-47.206949000000009
20
27.423535000000001
30
0
40
0.50000000000000122
210
0
220
0
230
1
100
AcDbArc
50
-82.00000000000253
51
7.9999999999959135
0
LINE
5
142
100
AcDbEntity
8
0
100
AcDbLine
10
-47.137362449519998
20
26.928400965629212
30
0
11
-60.010847001960464
21
25.119151013949331
31
0
0
ARC
5
143
100
AcDbEntity
8
0
100
AcDbCircle
10
-60.080433999999997
20
25.614284999999999
30
0
40
0.50000000000000377
210
0
220
0
230
1
100
AcDbArc
50
187.99999999999531
51
278.00005155803456
0
LINE
5
144
100
AcDbEntity
8
0
100
AcDbLine
10
-60.575568034370797
20
25.544698449520006
30
0
11
-62.384818048320021
21
38.418183447559564
31
0
0
ARC
5
145
100
AcDbEntity
8
0
100
AcDbCircle
10
-61.889684000000003
20
38.487769999999998
30
0
40
0.49999999999999811
210
0
220
0
230
1
100
AcDbArc
50
97.999999999998238
51
187.99999999999594
0
LINE
5
146
100
AcDbEntity
8
0
100
AcDbLine
10
-61.959270550480021
20
38.98290403437079
30
0
11
-49.085785998039533
21
40.792153986050678
31
0
0
ARC
5
147
100
AcDbEntity
8
0
100
AcDbCircle
10
-49.016199
20
40.297020000000003
30
0
40
0.49999999999999856
210
0
220
-0
230
1
100
AcDbArc
50
7.9999380816543679
51
98.000051558034457
0
LINE
5
148
100
AcDbEntity
8
0
100
AcDbLine
10
-48.521064890428782
20
40.366606015399043
30
0
11
-46.711814965629223
21
27.493121550479998
31
0
0
LINE
5
149
100
AcDbEntity
8
0
100
AcDbLine
10
27.23024799233221
20
-27.979034054560167
30
0
11
14.356762992332197
21
-26.169784054560164
31
0
0
ARC
5
150
100
AcDbEntity
8
0
100
AcDbCircle
10
14.426349
20
-25.674650000000003
30
0
40
0.5
210
0
220
0
230
1
100
AcDbArc
50
172.00000000000381
51
262.00006191834524
0
LINE
5
151
100
AcDbEntity
8
0
100
AcDbLine
10
13.931214965629211
20
-25.605063449520003
30
0
11
15.740465945439841
21
-12.731578992332205
31
0
0
ARC
5
152
100
AcDbEntity
8
0
100
AcDbCircle
10
16.235600000000005
20
-12.801165000000001
30
0
40
0.49999999999999767
210
0
220
-0
230
1
100
AcDbArc
50
82.000061918346418
51
172.00006191834615
0
LINE
5
153
100
AcDbEntity
8
0
100
AcDbLine
10
16.305186015399038
20
-12.306030890428783
30
0
11
29.178670552440433
21
-14.115280951679969
31
0
0
ARC
5
154
100
AcDbEntity
8
0
100
AcDbCircle
10
29.109084000000003
20
-14.610415000000001
30
0
40
0.50000000000000033
210
0
220
0
230
1
100
AcDbArc
50
-7.9999999999962457
51
82.000000000004675
0
LINE
5
155
100
AcDbEntity
8
0
100
AcDbLine
10
29.604218034370792
20
-14.680001550480002
30
0
11
27.794967986050679
21
-27.553486998039531
31
0
0
ARC
5
156
100
AcDbEntity
8
0
100
AcDbCircle
10
27.299834000000001
20
-27.483900000000002
30
0
40
0.49999994444832668
210
0
220
0
230
1
100
AcDbArc
50
262.00006191834672
51
351.99994844196607
0
LINE
5
157
100
AcDbEntity
8
0
100
AcDbLine
10
70.525035013949335
20
-33.558806001960463
30
0
11
72.334286013949338
21
-20.685321001960478
31
0
0
ARC
5
158
100
AcDbEntity
8
0
100
AcDbCircle
10
72.829419999999999
20
-20.754908000000004
30
0
40
0.50000000000000056
210
0
220
-0
230
1
100
AcDbArc
50
82.000061918347299
51
171.99994844196613
0
LINE
5
159
100
AcDbEntity
8
0
100
AcDbLine
10
72.899006015399024
20
-20.259773890428782
30
0
11
85.772490552440445
21
-22.06902395167997
31
0
0
ARC
5
160
100
AcDbEntity
8
0
100
AcDbCircle
10
85.702904000000018
20
-22.564157999999999
30
0
40
0.50000000000000056
210
0
220
0
230
1
100
AcDbArc
50
-8.000051558035274
51
82.000000000005016
0
LINE
5
161
100
AcDbEntity
8
0
100
AcDbLine
10
86.198037971752626
20
-22.633744996030064
30
0
11
84.388787986050673
21
-35.507229998039534
31
0
0
ARC
5
162
100
AcDbEntity
8
0
100
AcDbCircle
10
83.893654000000012
20
-35.437643000000001
30
0
40
0.50000000000000233
210
0
220
0
230
1
100
AcDbArc
50
262.00006191834234
51
351.99994844196539
0
LINE
5
163
100
AcDbEntity
8
0
100
AcDbLine
10
83.824067984600944
20
-35.932777109571219
30
0
11
70.950582992332187
21
-34.123527054560164
31
0
0
ARC
5
164
100
AcDbEntity
8
0
100
AcDbCircle
10
71.020168999999996
20
-33.628393000000003
30
0
40
0.500000014438574
210
0
220
0
230
1
100
AcDbArc
50
171.99994844196453
51
262.00006191834467
0
ARC
5
165
100
AcDbEntity
8
0
100
AcDbCircle
10
46.164440999999997
20
-30.135148000000001
30
0
40
0.50000000000000311
210
0
220
0
230
1
100
AcDbArc
50
262.00000000000506
51
352.000000000005
0
LINE
5
166
100
AcDbEntity
8
0
100
AcDbLine
10
46.094854449520007
20
-30.630282034370797
30
0
11
33.221370447559565
21
-28.821032048320031
31
0
0
ARC
5
167
100
AcDbEntity
8
0
100
AcDbCircle
10
33.290956999999999
20
-28.325898000000002
30
0
40
0.50000000000000056
210
0
220
0
230
1
100
AcDbArc
50
172.00000000000344
51
262.00000000000421
0
LINE
5
168
100
AcDbEntity
8
0
100
AcDbLine
10
32.795822965629206
20
-28.256311449519998
30
0
11
34.605073013949323
21
-15.382826001960479
31
0
0
ARC
5
169
100
AcDbEntity
8
0
100
AcDbCircle
10
35.100206999999997
20
-15.452413
30
0
40
0.50000000000000178
210
0
220
-0
230
1
100
AcDbArc
50
82.000061918345679
51
171.99994844196695
0
LINE
5
170
100
AcDbEntity
8
0
100
AcDbLine
10
35.169793015399037
20
-14.957278890428778
30
0
11
48.043278007667787
21
-16.766528945439838
31
0
0
ARC
5
171
100
AcDbEntity
8
0
100
AcDbCircle
10
47.973692
20
-17.261662999999999
30
0
40
0.500000000000005
210
0
220
0
230
1
100
AcDbArc
50
-7.9999999999964997
51
82.000061918347072
0
LINE
5
172
100
AcDbEntity
8
0
100
AcDbLine
10
48.4688260343708
20
-17.331249550480003
30
0
11
46.659575034370789
21
-30.204734550479991
31
0
0
ARC
5
173
100
AcDbEntity
8
0
100
AcDbCircle
10
83.638001000000003
20
-3.0367400000000107
30
0
40
0.49999999999999967
210
0
220
0
230
1
100
AcDbArc
50
-7.9999999999992992
51
82.000000000004192
0
LINE
5
174
100
AcDbEntity
8
0
100
AcDbLine
10
84.133135034370795
20
-3.1063265504800386
30
0
11
82.323884048320025
21
-15.979811552440442
31
0
0
ARC
5
175
100
AcDbEntity
8
0
100
AcDbCircle
10
81.828750000000014
20
-15.910225000000002
30
0
40
0.50000000000000233
210
0
220
0
230
1
100
AcDbArc
50
262.00006191834245
51
352.00000000000335
0
LINE
5
176
100
AcDbEntity
8
0
100
AcDbLine
10
81.759163984600946
20
-16.405359109571222
30
0
11
68.885678992332188
21
-14.596109054560158
31
0
0
ARC
5
177
100
AcDbEntity
8
0
100
AcDbCircle
10
68.955264999999997
20
-14.100975
30
0
40
0.49999999999999956
210
0
220
0
230
1
100
AcDbArc
50
171.99994844196581
51
262.00006191834461
0
LINE
5
178
100
AcDbEntity
8
0
100
AcDbLine
10
68.460131028247389
20
-14.031388003969944
30
0
11
70.26938201394934
21
-1.1579030019604741
31
0
0
ARC
5
179
100
AcDbEntity
8
0
100
AcDbCircle
10
70.764516
20
-1.22749000000001
30
0
40
0.50000000000000122
210
0
220
-0
230
1
100
AcDbArc
50
82.000061918347313
51
171.99994844196502
0
LINE
5
180
100
AcDbEntity
8
0
100
AcDbLine
10
70.834102015399026
20
-0.73235589042878679
30
0
11
83.70758755048
21
-2.5416059656292185
31
0
0
LINE
5
181
100
AcDbEntity
8
0
100
AcDbLine
10
30.730917013949327
20
-8.7288930019604845
30
0
11
32.540167013949329
21
4.1445919980395276
31
0
0
ARC
5
182
100
AcDbEntity
8
0
100
AcDbCircle
10
33.035300999999997
20
4.0750049999999902
30
0
40
0.49999999999999911
210
0
220
-0
230
1
100
AcDbArc
50
82.000000000002487
51
171.99994844196496
0
LINE
5
183
100
AcDbEntity
8
0
100
AcDbLine
10
33.104887550480008
20
4.5701390343707775
30
0
11
45.978372552440526
21
2.7608890483199926
31
0
0
ARC
5
184
100
AcDbEntity
8
0
100
AcDbCircle
10
45.908785999999999
20
2.2657549999999906
30
0
40
0.499999999999999
210
0
220
0
230
1
100
AcDbArc
50
-8.0000515580338494
51
81.999999999993292
0
LINE
5
185
100
AcDbEntity
8
0
100
AcDbLine
10
46.403919971752607
20
2.1961680039699387
30
0
11
44.594669986050668
21
-10.677316998039529
31
0
0
ARC
5
186
100
AcDbEntity
8
0
100
AcDbCircle
10
44.099536000000008
20
-10.60773
30
0
40
0.50000000000000211
210
0
220
0
230
1
100
AcDbArc
50
261.99994844196522
51
351.99994844196573
0
LINE
5
187
100
AcDbEntity
8
0
100
AcDbLine
10
44.029949003969946
20
-11.10286397175261
30
0
11
31.156464447559564
21
-9.2936140483200269
31
0
0
ARC
5
188
100
AcDbEntity
8
0
100
AcDbCircle
10
31.226050999999998
20
-8.7984800000000103
30
0
40
0.50000001443858122
210
0
220
0
230
1
100
AcDbArc
50
171.99994844196632
51
262.00000000000398
0
LWPOLYLINE
5
189
100
AcDbEntity
8
0
100
AcDbPolyline
90
8
70
1
43
0.0
10
-91.393249999999995
20
22.074999999999999
10
-91.393249999999995
20
35.075000000000003
42
0.41421356237309503
10
-91.893249999999995
20
35.575000000000003
10
-104.89325000000001
20
35.575000000000003
42
0.41421356237309503
10
-105.39324999999999
20
35.075000000000003
10
-105.39325000000002
20
22.074999999999999
42
0.41421356237309503
10
-104.89325000000001
20
21.575000000000003
10
-91.893249999999995
20
21.575000000000003
42
0.41421356237309503
0
LWPOLYLINE
5
190
100
AcDbEntity
8
0
100
AcDbPolyline
90
8
70
1
43
0.0
10
-91.131249999999994
20
-2.5249999999999999
10
-104.13125000000001
20
-2.5249999999999999
42
0.41421356237309537
10
-104.63124999999999
20
-3.025000000000011
10
-104.63125000000002
20
-16.024999999999999
42
0.41421356237309503
10
-104.13125000000001
20
-16.524999999999999
10
-91.131249999999994
20
-16.524999999999999
42
0.41421356237309503
10
-90.631249999999994
20
-16.024999999999999
10
-90.631250000000023
20
-3.0250000000000106
42
0.41421356237309503
0
LWPOLYLINE
5
191
100
AcDbEntity
8
0
100
AcDbPolyline
90
8
70
1
43
0.0
10
-88.535749999999993
20
3.024999999999991
10
-88.535749999999993
20
16.024999999999999
42
0.41421356237309503
10
-89.035750000000007
20
16.524999999999999
10
-102.03575000000001
20
16.524999999999999
42
0.41421356237309503
10
-102.53574999999999
20
16.024999999999999
10
-102.53575000000001
20
3.0249999999999906
42
0.41421356237309503
10
-102.03575000000001
20
2.5249999999999901
10
-89.035750000000007
20
2.5249999999999835
42
0.41421356237309537
0
LWPOLYLINE
5
192
100
AcDbEntity
8
0
100
AcDbPolyline
90
8
70
1
43
0.0
10
105.179
20
-2.5250000000000035
42
-0.41421356237309503
10
105.67900000000002
20
-3.025000000000011
10
105.67900000000002
20
-16.024999999999999
42
-0.41421356237309503
10
105.179
20
-16.524999999999999
10
92.179000000000002
20
-16.525000000000006
42
-0.41421356237309503
10
91.679000000000002
20
-16.024999999999999
10
91.679000000000002
20
-3.025000000000011
42
-0.41421356237309537
10
92.179000000000002
20
-2.5250000000000075
0
LWPOLYLINE
5
193
100
AcDbEntity
8
0
100
AcDbPolyline
90
8
70
1
43
0.0
10
105.39324999999999
20
-35.075000000000003
10
105.39324999999999
20
-22.074999999999999
42
0.41421356237309503
10
104.89325000000001
20
-21.575000000000003
10
91.893249999999995
20
-21.575000000000003
42
0.41421356237309503
10
91.393249999999995
20
-22.074999999999999
10
91.393249999999995
20
-35.075000000000003
42
0.41421356237309503
10
91.893249999999995
20
-35.575000000000003
10
104.89325000000001
20
-35.575000000000003
42
0.41421356237309503
0
LWPOLYLINE
5
194
100
AcDbEntity
8
0
100
AcDbPolyline
90
8
70
1
43
0.0
10
95.703249999999997
20
21.575000000000003
10
108.70325000000001
20
21.575000000000003
42
0.41421356237309503
10
109.20325
20
22.074999999999999
10
109.20325000000003
20
35.075000000000003
42
0.41421356237309503
10
108.70325000000001
20
35.575000000000003
10
95.703249999999997
20
35.575000000000003
42
0.41421356237309503
10
95.203249999999997
20
35.075000000000003
10
95.203250000000011
20
22.074999999999999
42
0.41421356237309503
0
LWPOLYLINE
5
195
100
AcDbEntity
8
0
100
AcDbPolyline
90
8
70
1
43
0.0
10
-99.583000000000013
20
-22.074999999999999
42
-0.41421356237309503
10
-99.082999999999998
20
-21.575000000000003
10
-86.082999999999998
20
-21.574999999999992
42
-0.41421356237309503
10
-85.582999999999998
20
-22.074999999999999
10
-85.582999999999998
20
-35.075000000000003
42
-0.41421356237309503
10
-86.082999999999998
20
-35.575000000000003
10
-99.082999999999998
20
-35.57500000000001
42
-0.41421356237309503
10
-99.583000000000013
20
-35.075000000000003
0
LWPOLYLINE
5
196
100
AcDbEntity
8
0
100
AcDbPolyline
90
8
70
1
43
0.0
10
89.774000000000015
20
16.024999999999999
10
89.774000000000015
20
3.0249999999999906
42
0.41421356237309503
10
90.274000000000001
20
2.5249999999999901
10
103.274
20
2.5249999999999835
42
0.41421356237309537
10
103.77400000000002
20
3.024999999999991
10
103.77400000000002
20
16.024999999999999
42
0.41421356237309503
10
103.274
20
16.524999999999999
10
90.274000000000001
20
16.524999999999999
42
0.41421356237309503
0
ARC
5
197
100
AcDbEntity
8
0
100
AcDbCircle
10
24.444996000000003
20
11.39175
30
0
40
0.50000000000000033
210
0
220
0
230
1
100
AcDbArc
50
172.00000000000361
51
262.00000000000296
0
LINE
5
198
100
AcDbEntity
8
0
100
AcDbLine
10
23.949861965629214
20
11.461336550480002
30
0
11
25.759112013949327
21
24.334821998039526
31
0
0
ARC
5
199
100
AcDbEntity
8
0
100
AcDbCircle
10
26.254246000000002
20
24.265235000000001
30
0
40
0.49999999999999989
210
0
220
-0
230
1
100
AcDbArc
50
81.999948441965529
51
171.99994844196638
0
LINE
5
200
100
AcDbEntity
8
0
100
AcDbLine
10
26.32383299603006
20
24.760368971752609
30
0
11
39.197317542812151
21
22.951118979810495
31
0
0
ARC
5
201
100
AcDbEntity
8
0
100
AcDbCircle
10
39.127730999999997
20
22.455984999999998
30
0
40
0.50000000000000311
210
0
220
0
230
1
100
AcDbArc
50
-7.9999999999949729
51
81.999999999992127
0
LINE
5
202
100
AcDbEntity
8
0
100
AcDbLine
10
39.62286503437079
20
22.386398449520009
30
0
11
37.813614986050673
21
9.5129130019604666
31
0
0
ARC
5
203
100
AcDbEntity
8
0
100
AcDbCircle
10
37.318480999999998
20
9.5824999999999996
30
0
40
0.50000000000000133
210
0
220
0
230
1
100
AcDbArc
50
261.9999484419676
51
351.99994844196556
0
LINE
5
204
100
AcDbEntity
8
0
100
AcDbLine
10
37.248894003969959
20
9.0873660282473896
30
0
11
24.375409449519996
21
10.896615965629211
31
0
0
ARC
5
205
100
AcDbEntity
8
0
100
AcDbCircle
10
-25.104751000000004
20
-27.181847999999999
30
0
40
0.49999999999999939
210
0
220
0
230
1
100
AcDbArc
50
-82.000000000004576
51
7.9999999999958664
0
LINE
5
206
100
AcDbEntity
8
0
100
AcDbLine
10
-25.035164449520011
20
-27.676982034370788
30
0
11
-37.908648992268802
21
-29.486232055011069
31
0
0
ARC
5
207
100
AcDbEntity
8
0
100
AcDbCircle
10
-37.978234999999998
20
-28.991098000000001
30
0
40
0.50000000000000056
210
0
220
0
230
1
100
AcDbArc
50
187.99999999999653
51
277.99993808165732
0
LINE
5
208
100
AcDbEntity
8
0
100
AcDbLine
10
-38.473369034370791
20
-29.060684550480005
30
0
11
-40.282619986050676
21
-16.187199998039528
31
0
0
ARC
5
209
100
AcDbEntity
8
0
100
AcDbCircle
10
-39.787486000000001
20
-16.117612999999999
30
0
40
0.50000000000000078
210
0
220
0
230
1
100
AcDbArc
50
97.999938081654363
51
188.00005155803402
0
LINE
5
210
100
AcDbEntity
8
0
100
AcDbLine
10
-39.857072015399041
20
-15.622478890428779
30
0
11
-26.983587007731217
21
-13.813228944988936
31
0
0
ARC
5
211
100
AcDbEntity
8
0
100
AcDbCircle
10
-26.914000999999999
20
-14.308363000000002
30
0
40
0.49999999999999967
210
0
220
-0
230
1
100
AcDbArc
50
7.9999999999958664
51
97.999938081659749
0
LINE
5
212
100
AcDbEntity
8
0
100
AcDbLine
10
-26.41886696562921
20
-14.238776449520005
30
0
11
-24.609616965629215
21
-27.112261449520002
31
0
0
LINE
5
213
100
AcDbEntity
8
0
100
AcDbLine
10
-62.764378992332219
20
-32.979477054560164
30
0
11
-75.637863001960483
21
-34.788726986050676
31
0
0
ARC
5
214
100
AcDbEntity
8
0
100
AcDbCircle
10
-75.707449999999994
20
-34.293593000000001
30
0
40
0.50000000000000377
210
0
220
0
230
1
100
AcDbArc
50
187.99999999999579
51
278.00005155803206
0
LINE
5
215
100
AcDbEntity
8
0
100
AcDbLine
10
-76.202584034370787
20
-34.363179550479998
30
0
11
-78.011833986050661
21
-21.489694998039525
31
0
0
ARC
5
216
100
AcDbEntity
8
0
100
AcDbCircle
10
-77.516700000000014
20
-21.420107999999999
30
0
40
0.49999999999999739
210
0
220
0
230
1
100
AcDbArc
50
98.000051558032439
51
188.00005155803404
0
LINE
5
217
100
AcDbEntity
8
0
100
AcDbLine
10
-77.586286996030054
20
-20.924974028247391
30
0
11
-64.712801998039509
21
-19.115724013949329
31
0
0
ARC
5
218
100
AcDbEntity
8
0
100
AcDbCircle
10
-64.643214999999998
20
-19.610858
30
0
40
0.49999999999999922
210
0
220
-0
230
1
100
AcDbArc
50
7.9999380816548697
51
98.000051558032098
0
LINE
5
219
100
AcDbEntity
8
0
100
AcDbLine
10
-64.148080890428787
20
-19.541271984600957
30
0
11
-62.338830951679995
21
-32.414756447559569
31
0
0
ARC
5
220
100
AcDbEntity
8
0
100
AcDbCircle
10
-62.833965000000006
20
-32.484343000000003
30
0
40
0.49999994444832169
210
0
220
0
230
1
100
AcDbArc
50
-82.000061918347058
51
7.9999999999960503
0
LINE
5
221
100
AcDbEntity
8
0
100
AcDbLine
10
-71.51547994543985
20
-1.3394789923322068
30
0
11
-69.706230013949337
21
-14.212963001960475
31
0
0
ARC
5
222
100
AcDbEntity
8
0
100
AcDbCircle
10
-70.201363999999998
20
-14.282550000000001
30
0
40
0.49999999999999961
210
0
220
0
230
1
100
AcDbArc
50
-81.999948441967575
51
8.0000515580338725
0
LINE
5
223
100
AcDbEntity
8
0
100
AcDbLine
10
-70.131777003969958
20
-14.777683971752611
30
0
11
-83.00526200196046
21
-16.586933986050674
31
0
0
ARC
5
224
100
AcDbEntity
8
0
100
AcDbCircle
10
-83.074849
20
-16.091799999999999
30
0
40
0.49999999999999889
210
0
220
0
230
1
100
AcDbArc
50
188.00005155803402
51
278.00005155803524
0
LINE
5
225
100
AcDbEntity
8
0
100
AcDbLine
10
-83.569982971752609
20
-16.161386996030053
30
0
11
-85.379232986050667
21
-3.2879019980395263
31
0
0
ARC
5
226
100
AcDbEntity
8
0
100
AcDbCircle
10
-84.884099000000006
20
-3.2183150000000005
30
0
40
0.499999999999999
210
0
220
0
230
1
100
AcDbArc
50
97.999999999997499
51
188.00005155803385
0
LINE
5
227
100
AcDbEntity
8
0
100
AcDbLine
10
-84.953685550480017
20
-2.7231809656292127
30
0
11
-72.080200998039544
21
-0.91393101394933562
31
0
0
ARC
5
228
100
AcDbEntity
8
0
100
AcDbCircle
10
-72.010614000000004
20
-1.4090650000000102
30
0
40
0.49999994444831974
210
0
220
-0
230
1
100
AcDbArc
50
7.9999380816548245
51
98.000051558035267
0
ARC
5
229
100
AcDbEntity
8
0
100
AcDbCircle
10
-31.783524
20
29.591156999999999
30
0
40
0.49999999999999939
210
0
220
0
230
1
100
AcDbArc
50
187.99999999999542
51
277.99999999999585
0
LINE
5
230
100
AcDbEntity
8
0
100
AcDbLine
10
-32.278658034370793
20
29.521570449520006
30
0
11
-34.087908048320017
21
42.395055447559564
31
0
0
ARC
5
231
100
AcDbEntity
8
0
100
AcDbCircle
10
-33.592773999999999
20
42.464641999999998
30
0
40
0.50000000000000111
210
0
220
0
230
1
100
AcDbArc
50
98.000051558035679
51
187.99999999999594
0
LINE
5
232
100
AcDbEntity
8
0
100
AcDbLine
10
-33.662360996030067
20
42.959775971752606
30
0
11
-20.788875998039522
21
44.769025986050657
31
0
0
ARC
5
233
100
AcDbEntity
8
0
100
AcDbCircle
10
-20.719289
20
44.273891999999996
30
0
40
0.49999999999999811
210
0
220
-0
230
1
100
AcDbArc
50
7.9999999999983356
51
98.000051558033476
0
LINE
5
234
100
AcDbEntity
8
0
100
AcDbLine
10
-20.224154965629214
20
44.343478550480015
30
0
11
-18.414904951679986
21
31.469993552440435
31
0
0
ARC
5
235
100
AcDbEntity
8
0
100
AcDbCircle
10
-18.910039000000005
20
31.400407000000001
30
0
40
0.5
210
0
220
0
230
1
100
AcDbArc
50
-82.000000000003752
51
7.9999999999959135
0
LINE
5
236
100
AcDbEntity
8
0
100
AcDbLine
10
-18.840452449520004
20
30.905272965629212
30
0
11
-31.713937449520003
21
29.09602296562921
31
0
0
LINE
5
237
100
AcDbEntity
8
0
100
AcDbLine
10
-13.537957001960475
20
-6.8239389860506794
30
0
11
-26.411442001960484
21
-8.6331899860506827
31
0
0
ARC
5
238
100
AcDbEntity
8
0
100
AcDbCircle
10
-26.481028999999999
20
-8.1380560000000095
30
0
40
0.50000000000000477
210
0
220
0
230
1
100
AcDbArc
50
188
51
278.00005155803245
0
LINE
5
239
100
AcDbEntity
8
0
100
AcDbLine
10
-26.976163034370792
20
-8.2076425504800437
30
0
11
-28.785413055011055
21
4.6658429922687539
31
0
0
ARC
5
240
100
AcDbEntity
8
0
100
AcDbCircle
10
-28.290279000000002
20
4.7354289999999901
30
0
40
0.49999999999999883
210
0
220
0
230
1
100
AcDbArc
50
97.999999999995453
51
187.99993808166198
0
LINE
5
241
100
AcDbEntity
8
0
100
AcDbLine
10
-28.359865550479995
20
5.2305630343707801
30
0
11
-15.486380552440437
21
7.0398130483200116
31
0
0
ARC
5
242
100
AcDbEntity
8
0
100
AcDbCircle
10
-15.416793999999999
20
6.5446789999999897
30
0
40
0.50000000000000056
210
0
220
-0
230
1
100
AcDbArc
50
8.0000515580349223
51
97.999999999996305
0
LINE
5
243
100
AcDbEntity
8
0
100
AcDbLine
10
-14.921660028247391
20
6.6142659960300518
30
0
11
-13.112409945439845
21
-6.2592189923321992
31
0
0
ARC
5
244
100
AcDbEntity
8
0
100
AcDbCircle
10
-13.607544000000003
20
-6.3288050000000107
30
0
40
0.50000001443857689
210
0
220
0
230
1
100
AcDbArc
50
-81.99994844196604
51
7.9999380816556922
0
ARC
5
245
100
AcDbEntity
8
0
100
AcDbCircle
10
-19.699971999999999
20
12.052174000000003
30
0
40
0.49999999999999967
210
0
220
0
230
1
100
AcDbArc
50
187.99999999999585
51
277.99999999999545
0
LINE
5
246
100
AcDbEntity
8
0
100
AcDbLine
10
-20.195106034370788
20
11.982587449520006
30
0
11
-22.004356055011062
21
24.856072992268793
31
0
0
ARC
5
247
100
AcDbEntity
8
0
100
AcDbCircle
10
-21.509222000000001
20
24.925659000000003
30
0
40
0.5
210
0
220
0
230
1
100
AcDbArc
50
97.999999999995865
51
187.99993808165905
0
LINE
5
248
100
AcDbEntity
8
0
100
AcDbLine
10
-21.578808550479998
20
25.420793034370792
30
0
11
-8.705323552440456
21
27.230044048320035
31
0
0
ARC
5
249
100
AcDbEntity
8
0
100
AcDbCircle
10
-8.6357370000000007
20
26.734910000000003
30
0
40
0.50000000000000167
210
0
220
-0
230
1
100
AcDbArc
50
7.9999999999965983
51
97.999999999998153
0
LINE
5
250
100
AcDbEntity
8
0
100
AcDbLine
10
-8.1406029656292098
20
26.804496550480007
30
0
11
-6.3313529449889359
21
13.931011007731211
31
0
0
ARC
5
251
100
AcDbEntity
8
0
100
AcDbCircle
10
-6.82648700000001
20
13.861425000000001
30
0
40
0.49999999999999922
210
0
220
0
230
1
100
AcDbArc
50
-81.999948441964207
51
7.9999380816587555
0
LINE
5
252
100
AcDbEntity
8
0
100
AcDbLine
10
-6.7569000039699407
20
13.366291028247394
30
0
11
-19.630385449520006
21
11.55703996562921
31
0
0
ARC
5
253
100
AcDbEntity
8
0
100
AcDbCircle
10
-6.2401449999999903
20
-24.530600000000003
30
0
40
0.49999999999999778
210
0
220
0
230
1
100
AcDbArc
50
-82.000000000002188
51
7.9999380816580237
0
LINE
5
254
100
AcDbEntity
8
0
100
AcDbLine
10
-6.1705584495199766
20
-25.025734034370789
30
0
11
-19.044043447559559
21
-26.834985048320039
31
0
0
ARC
5
255
100
AcDbEntity
8
0
100
AcDbCircle
10
-19.113630000000001
20
-26.339851000000003
30
0
40
0.50000000000000056
210
0
220
0
230
1
100
AcDbArc
50
187.99999999999653
51
277.99999999999648
0
LINE
5
256
100
AcDbEntity
8
0
100
AcDbLine
10
-19.608764034370793
20
-26.409437550480007
30
0
11
-21.41801405456016
21
-13.535952007667802
31
0
0
ARC
5
257
100
AcDbEntity
8
0
100
AcDbCircle
10
-20.922879999999999
20
-13.466366000000001
30
0
40
0.49999999999999928
210
0
220
0
230
1
100
AcDbArc
50
98.000051558034073
51
187.99993808165456
0
LINE
5
258
100
AcDbEntity
8
0
100
AcDbLine
10
-20.992466996030053
20
-12.971232028247393
30
0
11
-8.1189815524404363
21
-11.161980951679967
31
0
0
ARC
5
259
100
AcDbEntity
8
0
100
AcDbCircle
10
-8.0493949999999792
20
-11.657115000000001
30
0
40
0.50000000000000111
210
0
220
-0
230
1
100
AcDbArc
50
7.9999999999962332
51
97.999999999998323
0
LINE
5
260
100
AcDbEntity
8
0
100
AcDbLine
10
-7.5542609656291884
20
-11.587528449520001
30
0
11
-5.7450108904287767
21
-24.461013984600932
31
0
0
LINE
5
261
100
AcDbEntity
8
0
100
AcDbLine
10
-64.705376054560148
20
-13.510139007667801
30
0
11
-66.514626054560154
21
-0.63665400766780733
31
0
0
ARC
5
262
100
AcDbEntity
8
0
100
AcDbCircle
10
-66.019492
20
-0.56706800000000601
30
0
40
0.49999999999999883
210
0
220
0
230
1
100
AcDbArc
50
97.999999999997499
51
187.99993808165459
0
LINE
5
263
100
AcDbEntity
8
0
100
AcDbLine
10
-66.089078550480011
20
-0.071933965629218458
30
0
11
-53.215593552440417
21
1.7373160483200145
31
0
0
ARC
5
264
100
AcDbEntity
8
0
100
AcDbCircle
10
-53.146006999999997
20
1.2421820000000001
30
0
40
0.50000000000000022
210
0
220
-0
230
1
100
AcDbArc
50
7.9999999999997984
51
97.999999999994415
0
LINE
5
265
100
AcDbEntity
8
0
100
AcDbLine
10
-52.650872965629212
20
1.3117685504800314
30
0
11
-50.841622945439838
21
-11.561715992332198
31
0
0
ARC
5
266
100
AcDbEntity
8
0
100
AcDbCircle
10
-51.336757000000006
20
-11.631302000000002
30
0
40
0.49999999999999989
210
0
220
0
230
1
100
AcDbArc
50
-81.999948441965131
51
7.9999380816545953
0
LINE
5
267
100
AcDbEntity
8
0
100
AcDbLine
10
-51.267170003969945
20
-12.12643597175261
30
0
11
-64.140655447559553
21
-13.935687048320034
31
0
0
ARC
5
268
100
AcDbEntity
8
0
100
AcDbCircle
10
-64.210241999999994
20
-13.440553
30
0
40
0.49999994444831941
210
0
220
0
230
1
100
AcDbArc
50
187.99993808165462
51
277.99999999999648
0
ARC
5
269
100
AcDbEntity
8
0
100
AcDbCircle
10
62.174208
20
6.0892549999999996
30
0
40
0.50000000000000033
210
0
220
0
230
1
100
AcDbArc
50
171.99999999999991
51
262.00000000000495
0
LINE
5
270
100
AcDbEntity
8
0
100
AcDbLine
10
61.679073965629215
20
6.1588415504800329
30
0
11
63.488325013949336
21
19.03232699803953
31
0
0
ARC
5
271
100
AcDbEntity
8
0
100
AcDbCircle
10
63.983459000000011
20
18.96274
30
0
40
0.50000000000000311
210
0
220
-0
230
1
100
AcDbArc
50
82.000000000005869
51
171.99994844196601
0
LINE
5
272
100
AcDbEntity
8
0
100
AcDbLine
10
64.053045550479993
20
19.457874034370796
30
0
11
76.926530542812131
21
17.648623979810502
31
0
0
ARC
5
273
100
AcDbEntity
8
0
100
AcDbCircle
10
76.856943999999999
20
17.153490000000001
30
0
40
0.49999999999999867
210
0
220
0
230
1
100
AcDbArc
50
-8.0000515580332898
51
81.9999999999946
0
LINE
5
274
100
AcDbEntity
8
0
100
AcDbLine
10
77.352077971752607
20
17.083903003969954
30
0
11
75.54282698605067
21
4.2104180019604653
31
0
0
ARC
5
275
100
AcDbEntity
8
0
100
AcDbCircle
10
75.047692999999995
20
4.2800050000000001
30
0
40
0.50000000000000089
210
0
220
0
230
1
100
AcDbArc
50
262.0000000000058
51
351.99994844196539
0
LINE
5
276
100
AcDbEntity
8
0
100
AcDbLine
10
74.978106449520013
20
3.7848709656292066
30
0
11
62.10462144952001
21
5.5941209656292079
31
0
0
ARC
5
277
100
AcDbEntity
8
0
100
AcDbCircle
10
-34.281399999999998
20
3.8934319999999998
30
0
40
0.49999999999999989
210
0
220
-0
230
1
100
AcDbArc
50
7.9999999999996154
51
97.99993808166009
0
LINE
5
278
100
AcDbEntity
8
0
100
AcDbLine
10
-33.786265965629212
20
3.963018550480029
30
0
11
-31.977014951679976
21
-8.9104664475595303
31
0
0
ARC
5
279
100
AcDbEntity
8
0
100
AcDbCircle
10
-32.472149000000002
20
-8.9800530000000105
30
0
40
0.49999999999999956
210
0
220
0
230
1
100
AcDbArc
50
-82.00000000000334
51
8.0000000000010782
0
LINE
5
280
100
AcDbEntity
8
0
100
AcDbLine
10
-32.402562449519998
20
-9.4751870343707996
30
0
11
-45.276047992268815
21
-11.28443705501107
31
0
0
ARC
5
281
100
AcDbEntity
8
0
100
AcDbCircle
10
-45.345633999999997
20
-10.789303
30
0
40
0.50000000000000444
210
0
220
0
230
1
100
AcDbArc
50
187.99999999999619
51
277.99993808165567
0
LINE
5
282
100
AcDbEntity
8
0
100
AcDbLine
10
-45.84076803437079
20
-10.858889550480001
30
0
11
-47.650018986050675
21
2.0145950019604664
31
0
0
ARC
5
283
100
AcDbEntity
8
0
100
AcDbCircle
10
-47.154885
20
2.0841820000000002
30
0
40
0.49999999999999922
210
0
220
0
230
1
100
AcDbArc
50
97.999999999996689
51
188.0000515580345
0
LINE
5
284
100
AcDbEntity
8
0
100
AcDbLine
10
-47.224471550480004
20
2.5793160343707893
30
0
11
-34.350986015399087
21
4.3885661095712143
31
0
0
LINE
5
285
100
AcDbEntity
8
0
100
AcDbLine
10
-58.721679998039519
20
-18.273727013949326
30
0
11
-45.848194998039503
21
-16.464477013949327
31
0
0
ARC
5
286
100
AcDbEntity
8
0
100
AcDbCircle
10
-45.778607999999998
20
-16.959610999999999
30
0
40
0.50000000000000377
210
0
220
-0
230
1
100
AcDbArc
50
7.9999999999954108
51
98.000051558031288
0
LINE
5
287
100
AcDbEntity
8
0
100
AcDbLine
10
-45.283473965629206
20
-16.890024449520006
30
0
11
-43.47422394498895
21
-29.763508992268783
31
0
0
ARC
5
288
100
AcDbEntity
8
0
100
AcDbCircle
10
-43.969358000000007
20
-29.833095000000004
30
0
40
0.49999999999999878
210
0
220
0
230
1
100
AcDbArc
50
-82.000000000004974
51
7.9999380816602628
0
LINE
5
289
100
AcDbEntity
8
0
100
AcDbLine
10
-43.899771449520017
20
-30.328229034370793
30
0
11
-56.773256447559561
21
-32.137480048320036
31
0
0
ARC
5
290
100
AcDbEntity
8
0
100
AcDbCircle
10
-56.842843000000009
20
-31.642346000000003
30
0
40
0.499999999999995
210
0
220
0
230
1
100
AcDbArc
50
187.99999999999554
51
277.99999999999733
0
LINE
5
291
100
AcDbEntity
8
0
100
AcDbLine
10
-57.337977034370795
20
-31.711932550479997
30
0
11
-59.147227055011065
21
-18.838447007731205
31
0
0
ARC
5
292
100
AcDbEntity
8
0
100
AcDbCircle
10
-58.652093000000001
20
-18.768861000000001
30
0
40
0.50000001443857978
210
0
220
0
230
1
100
AcDbArc
50
98.000051558032837
51
187.99993808165812
0
ARC
5
293
100
AcDbEntity
8
0
100
AcDbCircle
10
-63.42030900000001
20
5.9076819999999897
30
0
40
0.49999999999999933
210
0
220
0
230
1
100
AcDbArc
50
-82.000000000000867
51
8.0000000000005294
0
LINE
5
294
100
AcDbEntity
8
0
100
AcDbLine
10
-63.350722449519985
20
5.4125479656292041
30
0
11
-76.22420700196048
21
3.6032980139493236
31
0
0
ARC
5
295
100
AcDbEntity
8
0
100
AcDbCircle
10
-76.29379400000002
20
4.0984319999999901
30
0
40
0.50000000000000866
210
0
220
0
230
1
100
AcDbArc
50
187.99999999999955
51
278.00005155803535
0
LINE
5
296
100
AcDbEntity
8
0
100
AcDbLine
10
-76.788928034370812
20
4.0288454495199604
30
0
11
-78.598178048320023
21
16.902330447559571
31
0
0
ARC
5
297
100
AcDbEntity
8
0
100
AcDbCircle
10
-78.103043999999997
20
16.971917000000005
30
0
40
0.499999999999999
210
0
220
0
230
1
100
AcDbArc
50
97.999999999997556
51
187.99999999999582
0
LINE
5
298
100
AcDbEntity
8
0
100
AcDbLine
10
-78.172630550480008
20
17.46705103437079
30
0
11
-65.299145998039535
21
19.276300986050671
31
0
0
ARC
5
299
100
AcDbEntity
8
0
100
AcDbCircle
10
-65.229558999999995
20
18.781167
30
0
40
0.50000000000000444
210
0
220
-0
230
1
100
AcDbArc
50
7.9999999999961871
51
98.000051558035324
0
LINE
5
300
100
AcDbEntity
8
0
100
AcDbLine
10
-64.734424965629202
20
18.85075355048
30
0
11
-62.925174965629225
21
5.9772685504800274
31
0
0
LINE
5
301
100
AcDbEntity
8
0
100
AcDbLine
10
63.480900001960478
20
24.63791301394933
30
0
11
50.607415001960483
21
26.447164013949326
31
0
0
ARC
5
302
100
AcDbEntity
8
0
100
AcDbCircle
10
50.677002000000009
20
26.942298000000005
30
0
40
0.500000000000005
210
0
220
0
230
1
100
AcDbArc
50
172.00000000000344
51
261.99994844196641
0
LINE
5
303
100
AcDbEntity
8
0
100
AcDbLine
10
50.181867965629216
20
27.011884550480008
30
0
11
51.991118020189482
21
39.885369542812057
31
0
0
ARC
5
304
100
AcDbEntity
8
0
100
AcDbCircle
10
52.486252
20
39.81578300000001
30
0
40
0.50000000000000311
210
0
220
-0
230
1
100
AcDbArc
50
82.000000000005002
51
172.0000000000046
0
LINE
5
305
100
AcDbEntity
8
0
100
AcDbLine
10
52.55583855047999
20
40.310917034370803
30
0
11
65.429323998039536
21
38.501665986050675
31
0
0
ARC
5
306
100
AcDbEntity
8
0
100
AcDbCircle
10
65.359736999999996
20
38.006532
30
0
40
0.49999999999999856
210
0
220
0
230
1
100
AcDbArc
50
-7.9999380816544772
51
81.999948441964762
0
LINE
5
307
100
AcDbEntity
8
0
100
AcDbLine
10
65.854871109571206
20
37.93694598460096
30
0
11
64.045621054560158
21
25.063460992332196
31
0
0
ARC
5
308
100
AcDbEntity
8
0
100
AcDbCircle
10
63.550487000000004
20
25.133047000000005
30
0
40
0.500000014438581
210
0
220
0
230
1
100
AcDbArc
50
261.99994844196635
51
352.00006191834461
0
LINE
5
309
100
AcDbEntity
8
0
100
AcDbLine
10
7.4592250076678068
20
27.411617054560168
30
0
11
20.332710007667792
21
25.602366054560161
31
0
0
ARC
5
310
100
AcDbEntity
8
0
100
AcDbCircle
10
20.263124000000001
20
25.107232000000003
30
0
40
0.5
210
0
220
0
230
1
100
AcDbArc
50
-7.9999999999962457
51
82.000061918346631
0
LINE
5
311
100
AcDbEntity
8
0
100
AcDbLine
10
20.75825803437079
20
25.037645449520003
30
0
11
18.949006986050676
21
12.164161001960474
31
0
0
ARC
5
312
100
AcDbEntity
8
0
100
AcDbCircle
10
18.453873000000002
20
12.233748000000002
30
0
40
0.50000000000000078
210
0
220
0
230
1
100
AcDbArc
50
262.00006191834564
51
351.99994844196618
0
LINE
5
313
100
AcDbEntity
8
0
100
AcDbLine
10
18.384286984600962
20
11.738613890428782
30
0
11
5.5108019923322082
21
13.54786394543984
31
0
0
ARC
5
314
100
AcDbEntity
8
0
100
AcDbCircle
10
5.580388000000001
20
14.042998000000003
30
0
40
0.50000000000000056
210
0
220
0
230
1
100
AcDbArc
50
172.0000000000046
51
262.00006191834649
0
LINE
5
315
100
AcDbEntity
8
0
100
AcDbLine
10
5.0852539656292093
20
14.112584550479996
30
0
11
6.8945050201895128
21
26.986069542812032
31
0
0
ARC
5
316
100
AcDbEntity
8
0
100
AcDbCircle
10
7.3896389999999998
20
26.916483000000003
30
0
40
0.49999994444832896
210
0
220
-0
230
1
100
AcDbArc
50
82.000061918344912
51
172.00000000000614
0
LINE
5
317
100
AcDbEntity
8
0
100
AcDbLine
10
-59.308023007667792
20
20.118298054560157
30
0
11
-46.43453800766779
21
21.927548054560162
31
0
0
ARC
5
318
100
AcDbEntity
8
0
100
AcDbCircle
10
-46.364952000000002
20
21.432414000000005
30
0
40
0.50000000000000255
210
0
220
-0
230
1
100
AcDbArc
50
7.9999999999945866
51
97.999938081652985
0
LINE
5
319
100
AcDbEntity
8
0
100
AcDbLine
10
-45.86981796562921
20
21.502000550479991
30
0
11
-44.060567944988939
21
8.6285160077312142
31
0
0
ARC
5
320
100
AcDbEntity
8
0
100
AcDbCircle
10
-44.555701999999997
20
8.5589300000000001
30
0
40
0.49999999999999878
210
0
220
0
230
1
100
AcDbArc
50
-82.000000000004974
51
7.9999380816594403
0
LINE
5
321
100
AcDbEntity
8
0
100
AcDbLine
10
-44.486115449520007
20
8.0637959656292111
30
0
11
-57.359599992268812
21
6.2545449449889334
31
0
0
ARC
5
322
100
AcDbEntity
8
0
100
AcDbCircle
10
-57.429186000000001
20
6.7496790000000004
30
0
40
0.49999999999999994
210
0
220
0
230
1
100
AcDbArc
50
187.9999999999996
51
277.99993808165652
0
LINE
5
323
100
AcDbEntity
8
0
100
AcDbLine
10
-57.924320034370787
20
6.6800924495199707
30
0
11
-59.733571055011055
21
19.55357799226881
31
0
0
ARC
5
324
100
AcDbEntity
8
0
100
AcDbCircle
10
-59.238436999999998
20
19.623163999999999
30
0
40
0.49999994444832063
210
0
220
0
230
1
100
AcDbArc
50
97.999938081653795
51
187.99993808165667
0
ARC
5
325
100
AcDbEntity
8
0
100
AcDbCircle
10
-25.691094000000003
20
11.210177000000002
30
0
40
0.49999999999999845
210
0
220
0
230
1
100
AcDbArc
50
-82.00000000000334
51
7.9999999999962332
0
LINE
5
326
100
AcDbEntity
8
0
100
AcDbLine
10
-25.621507449519999
20
10.715042965629213
30
0
11
-38.494992992268791
21
8.9057929449889297
31
0
0
ARC
5
327
100
AcDbEntity
8
0
100
AcDbCircle
10
-38.564579000000009
20
9.4009269999999905
30
0
40
0.50000000000000178
210
0
220
0
230
1
100
AcDbArc
50
188.00005155803245
51
277.99993808165982
0
LINE
5
328
100
AcDbEntity
8
0
100
AcDbLine
10
-39.059712971752617
20
9.3313400039699506
30
0
11
-40.868962986050661
21
22.204825001960469
31
0
0
ARC
5
329
100
AcDbEntity
8
0
100
AcDbCircle
10
-40.373829000000001
20
22.274412000000005
30
0
40
0.50000000000000178
210
0
220
0
230
1
100
AcDbArc
50
98.000051558032411
51
188.00005155803504
0
LINE
5
330
100
AcDbEntity
8
0
100
AcDbLine
10
-40.443415996030041
20
22.769545971752617
30
0
11
-27.569931007731206
21
24.578796055011068
31
0
0
ARC
5
331
100
AcDbEntity
8
0
100
AcDbCircle
10
-27.500344999999999
20
24.083662
30
0
40
0.50000000000000056
210
0
220
-0
230
1
100
AcDbArc
50
7.9999999999966915
51
97.999938081658513
0
LINE
5
332
100
AcDbEntity
8
0
100
AcDbLine
10
-27.00521096562921
20
24.153248550480004
30
0
11
-25.195959965629214
21
11.279763550480002
31
0
0
CIRCLE
5
333
100
AcDbEntity
8
0
100
AcDbCircle
10
-63.798757429928507
20
-39.808510900065002
30
0
40
1.5000000000000002
210
0
220
0
230
-1
0
CIRCLE
5
334
100
AcDbEntity
8
0
100
AcDbCircle
10
63.75286470888291
20
-39.808506959200002
30
0
40
1.5000000000000002
210
0
220
0
230
-1
0
CIRCLE
5
335
100
AcDbEntity
8
0
100
AcDbCircle
10
-72.895758774766804
20
43.132606884324403
30
0
40
1.49999999999999
210
0
220
0
230
-1
0
CIRCLE
5
336
100
AcDbEntity
8
0
100
AcDbCircle
10
72.849882520082105
20
43.132608419521205
30
0
40
1.5000000000000002
210
0
220
0
230
-1
0
ENDSEC
0
SECTION
2
OBJECTS
0
DICTIONARY
5
C
100
AcDbDictionary
3
ACAD_GROUP
350
D
3
ACAD_MLINESTYLE
350
17
0
DICTIONARY
5
D
100
AcDbDictionary
0
DICTIONARY
5
1A
330
C
100
AcDbDictionary
0
DICTIONARY
5
17
100
AcDbDictionary
0
ENDSEC
0
EOF
