0
SECTION
2
HEADER
9
$INSUNITS
70
4
0
ENDSEC
0
SECTION
2
TABLES
0
TABLE
2
LTYPE
0
LTYPE
72
65
70
64
2
CONTINUOUS
3
______
73
0
40
0
0
ENDTAB
0
TABLE
2
LAYER
0
ENDTAB
0
ENDSEC
0
SECTION
2
ENTITIES
0
ARC
8
0
10
12.3
20
-16.275
40
0.25
50
180
51
270
0
ARC
8
0
10
25.8
20
-16.275
40
0.25
50
270
51
0
0
ARC
8
0
10
25.8
20
-2.775
40
0.25
50
0
51
90
0
ARC
8
0
10
12.3
20
-2.775
40
0.25
50
90
51
180
0
LINE
8
0
10
12.3
20
-16.525
11
25.8
21
-16.525
0
LINE
8
0
10
25.8
20
-2.525
11
12.3
21
-2.525
0
LINE
8
0
10
26.05
20
-16.275
11
26.05
21
-15.525
0
LINE
8
0
10
26.05
20
-12.425
11
26.05
21
-6.625
0
LINE
8
0
10
26.05
20
-3.525
11
26.05
21
-2.775
0
LINE
8
0
10
12.05
20
-2.775
11
12.05
21
-3.525
0
LINE
8
0
10
12.05
20
-6.625
11
12.05
21
-12.425
0
LINE
8
0
10
12.05
20
-15.525
11
12.05
21
-16.275
0
ARC
8
0
10
11.5
20
-6.375
40
0.25
50
180
51
270
0
ARC
8
0
10
26.6
20
-6.375
40
0.25
50
270
51
0
0
ARC
8
0
10
26.6
20
-3.775
40
0.25
50
0
51
90
0
ARC
8
0
10
11.5
20
-3.775
40
0.25
50
90
51
180
0
LINE
8
0
10
11.5
20
-6.625
11
12.05
21
-6.625
0
LINE
8
0
10
26.05
20
-6.625
11
26.6
21
-6.625
0
LINE
8
0
10
26.6
20
-3.525
11
26.05
21
-3.525
0
LINE
8
0
10
12.05
20
-3.525
11
11.5
21
-3.525
0
LINE
8
0
10
26.85
20
-6.375
11
26.85
21
-3.775
0
LINE
8
0
10
11.25
20
-3.775
11
11.25
21
-6.375
0
ARC
8
0
10
11.5
20
-15.275
40
0.25
50
180
51
270
0
ARC
8
0
10
26.6
20
-15.275
40
0.25
50
270
51
0
0
ARC
8
0
10
26.6
20
-12.675
40
0.25
50
0
51
90
0
ARC
8
0
10
11.5
20
-12.675
40
0.25
50
90
51
180
0
LINE
8
0
10
11.5
20
-15.525
11
12.05
21
-15.525
0
LINE
8
0
10
26.05
20
-15.525
11
26.6
21
-15.525
0
LINE
8
0
10
26.6
20
-12.425
11
26.05
21
-12.425
0
LINE
8
0
10
12.05
20
-12.425
11
11.5
21
-12.425
0
LINE
8
0
10
26.85
20
-15.275
11
26.85
21
-12.675
0
LINE
8
0
10
11.25
20
-12.675
11
11.25
21
-15.275
0
ARC
8
0
10
31.35
20
-16.275
40
0.25
50
180
51
270
0
ARC
8
0
10
44.85
20
-16.275
40
0.25
50
270
51
0
0
ARC
8
0
10
44.85
20
-2.775
40
0.25
50
0
51
90
0
ARC
8
0
10
31.35
20
-2.775
40
0.25
50
90
51
180
0
LINE
8
0
10
31.35
20
-16.525
11
44.85
21
-16.525
0
LINE
8
0
10
44.85
20
-2.525
11
31.35
21
-2.525
0
LINE
8
0
10
45.1
20
-16.275
11
45.1
21
-15.525
0
LINE
8
0
10
45.1
20
-12.425
11
45.1
21
-6.625
0
LINE
8
0
10
45.1
20
-3.525
11
45.1
21
-2.775
0
LINE
8
0
10
31.1
20
-2.775
11
31.1
21
-3.525
0
LINE
8
0
10
31.1
20
-6.625
11
31.1
21
-12.425
0
LINE
8
0
10
31.1
20
-15.525
11
31.1
21
-16.275
0
ARC
8
0
10
30.55
20
-6.375
40
0.25
50
180
51
270
0
ARC
8
0
10
45.65
20
-6.375
40
0.25
50
270
51
0
0
ARC
8
0
10
45.65
20
-3.775
40
0.25
50
0
51
90
0
ARC
8
0
10
30.55
20
-3.775
40
0.25
50
90
51
180
0
LINE
8
0
10
30.55
20
-6.625
11
31.1
21
-6.625
0
LINE
8
0
10
45.1
20
-6.625
11
45.65
21
-6.625
0
LINE
8
0
10
45.65
20
-3.525
11
45.1
21
-3.525
0
LINE
8
0
10
31.1
20
-3.525
11
30.55
21
-3.525
0
LINE
8
0
10
45.9
20
-6.375
11
45.9
21
-3.775
0
LINE
8
0
10
30.3
20
-3.775
11
30.3
21
-6.375
0
ARC
8
0
10
30.55
20
-15.275
40
0.25
50
180
51
270
0
ARC
8
0
10
45.65
20
-15.275
40
0.25
50
270
51
0
0
ARC
8
0
10
45.65
20
-12.675
40
0.25
50
0
51
90
0
ARC
8
0
10
30.55
20
-12.675
40
0.25
50
90
51
180
0
LINE
8
0
10
30.55
20
-15.525
11
31.1
21
-15.525
0
LINE
8
0
10
45.1
20
-15.525
11
45.65
21
-15.525
0
LINE
8
0
10
45.65
20
-12.425
11
45.1
21
-12.425
0
LINE
8
0
10
31.1
20
-12.425
11
30.55
21
-12.425
0
LINE
8
0
10
45.9
20
-15.275
11
45.9
21
-12.675
0
LINE
8
0
10
30.3
20
-12.675
11
30.3
21
-15.275
0
ARC
8
0
10
50.4
20
-16.275
40
0.25
50
180
51
270
0
ARC
8
0
10
63.9
20
-16.275
40
0.25
50
270
51
0
0
ARC
8
0
10
63.9
20
-2.775
40
0.25
50
0
51
90
0
ARC
8
0
10
50.4
20
-2.775
40
0.25
50
90
51
180
0
LINE
8
0
10
50.4
20
-16.525
11
63.9
21
-16.525
0
LINE
8
0
10
63.9
20
-2.525
11
50.4
21
-2.525
0
LINE
8
0
10
64.15
20
-16.275
11
64.15
21
-15.525
0
LINE
8
0
10
64.15
20
-12.425
11
64.15
21
-6.625
0
LINE
8
0
10
64.15
20
-3.525
11
64.15
21
-2.775
0
LINE
8
0
10
50.15
20
-2.775
11
50.15
21
-3.525
0
LINE
8
0
10
50.15
20
-6.625
11
50.15
21
-12.425
0
LINE
8
0
10
50.15
20
-15.525
11
50.15
21
-16.275
0
ARC
8
0
10
49.6
20
-6.375
40
0.25
50
180
51
270
0
ARC
8
0
10
64.7
20
-6.375
40
0.25
50
270
51
0
0
ARC
8
0
10
64.7
20
-3.775
40
0.25
50
0
51
90
0
ARC
8
0
10
49.6
20
-3.775
40
0.25
50
90
51
180
0
LINE
8
0
10
49.6
20
-6.625
11
50.15
21
-6.625
0
LINE
8
0
10
64.15
20
-6.625
11
64.7
21
-6.625
0
LINE
8
0
10
64.7
20
-3.525
11
64.15
21
-3.525
0
LINE
8
0
10
50.15
20
-3.525
11
49.6
21
-3.525
0
LINE
8
0
10
64.95
20
-6.375
11
64.95
21
-3.775
0
LINE
8
0
10
49.35
20
-3.775
11
49.35
21
-6.375
0
ARC
8
0
10
49.6
20
-15.275
40
0.25
50
180
51
270
0
ARC
8
0
10
64.7
20
-15.275
40
0.25
50
270
51
0
0
ARC
8
0
10
64.7
20
-12.675
40
0.25
50
0
51
90
0
ARC
8
0
10
49.6
20
-12.675
40
0.25
50
90
51
180
0
LINE
8
0
10
49.6
20
-15.525
11
50.15
21
-15.525
0
LINE
8
0
10
64.15
20
-15.525
11
64.7
21
-15.525
0
LINE
8
0
10
64.7
20
-12.425
11
64.15
21
-12.425
0
LINE
8
0
10
50.15
20
-12.425
11
49.6
21
-12.425
0
LINE
8
0
10
64.95
20
-15.275
11
64.95
21
-12.675
0
LINE
8
0
10
49.35
20
-12.675
11
49.35
21
-15.275
0
ARC
8
0
10
69.45
20
-16.275
40
0.25
50
180
51
270
0
ARC
8
0
10
82.95
20
-16.275
40
0.25
50
270
51
0
0
ARC
8
0
10
82.95
20
-2.775
40
0.25
50
0
51
90
0
ARC
8
0
10
69.45
20
-2.775
40
0.25
50
90
51
180
0
LINE
8
0
10
69.45
20
-16.525
11
82.95
21
-16.525
0
LINE
8
0
10
82.95
20
-2.525
11
69.45
21
-2.525
0
LINE
8
0
10
83.2
20
-16.275
11
83.2
21
-15.525
0
LINE
8
0
10
83.2
20
-12.425
11
83.2
21
-6.625
0
LINE
8
0
10
83.2
20
-3.525
11
83.2
21
-2.775
0
LINE
8
0
10
69.2
20
-2.775
11
69.2
21
-3.525
0
LINE
8
0
10
69.2
20
-6.625
11
69.2
21
-12.425
0
LINE
8
0
10
69.2
20
-15.525
11
69.2
21
-16.275
0
ARC
8
0
10
68.65
20
-6.375
40
0.25
50
180
51
270
0
ARC
8
0
10
83.75
20
-6.375
40
0.25
50
270
51
0
0
ARC
8
0
10
83.75
20
-3.775
40
0.25
50
0
51
90
0
ARC
8
0
10
68.65
20
-3.775
40
0.25
50
90
51
180
0
LINE
8
0
10
68.65
20
-6.625
11
69.2
21
-6.625
0
LINE
8
0
10
83.2
20
-6.625
11
83.75
21
-6.625
0
LINE
8
0
10
83.75
20
-3.525
11
83.2
21
-3.525
0
LINE
8
0
10
69.2
20
-3.525
11
68.65
21
-3.525
0
LINE
8
0
10
84
20
-6.375
11
84
21
-3.775
0
LINE
8
0
10
68.4
20
-3.775
11
68.4
21
-6.375
0
ARC
8
0
10
68.65
20
-15.275
40
0.25
50
180
51
270
0
ARC
8
0
10
83.75
20
-15.275
40
0.25
50
270
51
0
0
ARC
8
0
10
83.75
20
-12.675
40
0.25
50
0
51
90
0
ARC
8
0
10
68.65
20
-12.675
40
0.25
50
90
51
180
0
LINE
8
0
10
68.65
20
-15.525
11
69.2
21
-15.525
0
LINE
8
0
10
83.2
20
-15.525
11
83.75
21
-15.525
0
LINE
8
0
10
83.75
20
-12.425
11
83.2
21
-12.425
0
LINE
8
0
10
69.2
20
-12.425
11
68.65
21
-12.425
0
LINE
8
0
10
84
20
-15.275
11
84
21
-12.675
0
LINE
8
0
10
68.4
20
-12.675
11
68.4
21
-15.275
0
ARC
8
0
10
88.5
20
-16.275
40
0.25
50
180
51
270
0
ARC
8
0
10
102
20
-16.275
40
0.25
50
270
51
0
0
ARC
8
0
10
102
20
-2.775
40
0.25
50
0
51
90
0
ARC
8
0
10
88.5
20
-2.775
40
0.25
50
90
51
180
0
LINE
8
0
10
88.5
20
-16.525
11
102
21
-16.525
0
LINE
8
0
10
102
20
-2.525
11
88.5
21
-2.525
0
LINE
8
0
10
102.25
20
-16.275
11
102.25
21
-15.525
0
LINE
8
0
10
102.25
20
-12.425
11
102.25
21
-6.625
0
LINE
8
0
10
102.25
20
-3.525
11
102.25
21
-2.775
0
LINE
8
0
10
88.25
20
-2.775
11
88.25
21
-3.525
0
LINE
8
0
10
88.25
20
-6.625
11
88.25
21
-12.425
0
LINE
8
0
10
88.25
20
-15.525
11
88.25
21
-16.275
0
ARC
8
0
10
87.7
20
-6.375
40
0.25
50
180
51
270
0
ARC
8
0
10
102.8
20
-6.375
40
0.25
50
270
51
0
0
ARC
8
0
10
102.8
20
-3.775
40
0.25
50
0
51
90
0
ARC
8
0
10
87.7
20
-3.775
40
0.25
50
90
51
180
0
LINE
8
0
10
87.7
20
-6.625
11
88.25
21
-6.625
0
LINE
8
0
10
102.25
20
-6.625
11
102.8
21
-6.625
0
LINE
8
0
10
102.8
20
-3.525
11
102.25
21
-3.525
0
LINE
8
0
10
88.25
20
-3.525
11
87.7
21
-3.525
0
LINE
8
0
10
103.05
20
-6.375
11
103.05
21
-3.775
0
LINE
8
0
10
87.45
20
-3.775
11
87.45
21
-6.375
0
ARC
8
0
10
87.7
20
-15.275
40
0.25
50
180
51
270
0
ARC
8
0
10
102.8
20
-15.275
40
0.25
50
270
51
0
0
ARC
8
0
10
102.8
20
-12.675
40
0.25
50
0
51
90
0
ARC
8
0
10
87.7
20
-12.675
40
0.25
50
90
51
180
0
LINE
8
0
10
87.7
20
-15.525
11
88.25
21
-15.525
0
LINE
8
0
10
102.25
20
-15.525
11
102.8
21
-15.525
0
LINE
8
0
10
102.8
20
-12.425
11
102.25
21
-12.425
0
LINE
8
0
10
88.25
20
-12.425
11
87.7
21
-12.425
0
LINE
8
0
10
103.05
20
-15.275
11
103.05
21
-12.675
0
LINE
8
0
10
87.45
20
-12.675
11
87.45
21
-15.275
0
ARC
8
0
10
107.55
20
-16.275
40
0.25
50
180
51
270
0
ARC
8
0
10
121.05
20
-16.275
40
0.25
50
270
51
0
0
ARC
8
0
10
121.05
20
-2.775
40
0.25
50
0
51
90
0
ARC
8
0
10
107.55
20
-2.775
40
0.25
50
90
51
180
0
LINE
8
0
10
107.55
20
-16.525
11
121.05
21
-16.525
0
LINE
8
0
10
121.05
20
-2.525
11
107.55
21
-2.525
0
LINE
8
0
10
121.3
20
-16.275
11
121.3
21
-15.525
0
LINE
8
0
10
121.3
20
-12.425
11
121.3
21
-6.625
0
LINE
8
0
10
121.3
20
-3.525
11
121.3
21
-2.775
0
LINE
8
0
10
107.3
20
-2.775
11
107.3
21
-3.525
0
LINE
8
0
10
107.3
20
-6.625
11
107.3
21
-12.425
0
LINE
8
0
10
107.3
20
-15.525
11
107.3
21
-16.275
0
ARC
8
0
10
106.75
20
-6.375
40
0.25
50
180
51
270
0
ARC
8
0
10
121.85
20
-6.375
40
0.25
50
270
51
0
0
ARC
8
0
10
121.85
20
-3.775
40
0.25
50
0
51
90
0
ARC
8
0
10
106.75
20
-3.775
40
0.25
50
90
51
180
0
LINE
8
0
10
106.75
20
-6.625
11
107.3
21
-6.625
0
LINE
8
0
10
121.3
20
-6.625
11
121.85
21
-6.625
0
LINE
8
0
10
121.85
20
-3.525
11
121.3
21
-3.525
0
LINE
8
0
10
107.3
20
-3.525
11
106.75
21
-3.525
0
LINE
8
0
10
122.1
20
-6.375
11
122.1
21
-3.775
0
LINE
8
0
10
106.5
20
-3.775
11
106.5
21
-6.375
0
ARC
8
0
10
106.75
20
-15.275
40
0.25
50
180
51
270
0
ARC
8
0
10
121.85
20
-15.275
40
0.25
50
270
51
0
0
ARC
8
0
10
121.85
20
-12.675
40
0.25
50
0
51
90
0
ARC
8
0
10
106.75
20
-12.675
40
0.25
50
90
51
180
0
LINE
8
0
10
106.75
20
-15.525
11
107.3
21
-15.525
0
LINE
8
0
10
121.3
20
-15.525
11
121.85
21
-15.525
0
LINE
8
0
10
121.85
20
-12.425
11
121.3
21
-12.425
0
LINE
8
0
10
107.3
20
-12.425
11
106.75
21
-12.425
0
LINE
8
0
10
122.1
20
-15.275
11
122.1
21
-12.675
0
LINE
8
0
10
106.5
20
-12.675
11
106.5
21
-15.275
0
ARC
8
0
10
126.6
20
-16.275
40
0.25
50
180
51
270
0
ARC
8
0
10
140.1
20
-16.275
40
0.25
50
270
51
0
0
ARC
8
0
10
140.1
20
-2.775
40
0.25
50
0
51
90
0
ARC
8
0
10
126.6
20
-2.775
40
0.25
50
90
51
180
0
LINE
8
0
10
126.6
20
-16.525
11
140.1
21
-16.525
0
LINE
8
0
10
140.1
20
-2.525
11
126.6
21
-2.525
0
LINE
8
0
10
140.35
20
-16.275
11
140.35
21
-15.525
0
LINE
8
0
10
140.35
20
-12.425
11
140.35
21
-6.625
0
LINE
8
0
10
140.35
20
-3.525
11
140.35
21
-2.775
0
LINE
8
0
10
126.35
20
-2.775
11
126.35
21
-3.525
0
LINE
8
0
10
126.35
20
-6.625
11
126.35
21
-12.425
0
LINE
8
0
10
126.35
20
-15.525
11
126.35
21
-16.275
0
ARC
8
0
10
125.8
20
-6.375
40
0.25
50
180
51
270
0
ARC
8
0
10
140.9
20
-6.375
40
0.25
50
270
51
0
0
ARC
8
0
10
140.9
20
-3.775
40
0.25
50
0
51
90
0
ARC
8
0
10
125.8
20
-3.775
40
0.25
50
90
51
180
0
LINE
8
0
10
125.8
20
-6.625
11
126.35
21
-6.625
0
LINE
8
0
10
140.35
20
-6.625
11
140.9
21
-6.625
0
LINE
8
0
10
140.9
20
-3.525
11
140.35
21
-3.525
0
LINE
8
0
10
126.35
20
-3.525
11
125.8
21
-3.525
0
LINE
8
0
10
141.15
20
-6.375
11
141.15
21
-3.775
0
LINE
8
0
10
125.55
20
-3.775
11
125.55
21
-6.375
0
ARC
8
0
10
125.8
20
-15.275
40
0.25
50
180
51
270
0
ARC
8
0
10
140.9
20
-15.275
40
0.25
50
270
51
0
0
ARC
8
0
10
140.9
20
-12.675
40
0.25
50
0
51
90
0
ARC
8
0
10
125.8
20
-12.675
40
0.25
50
90
51
180
0
LINE
8
0
10
125.8
20
-15.525
11
126.35
21
-15.525
0
LINE
8
0
10
140.35
20
-15.525
11
140.9
21
-15.525
0
LINE
8
0
10
140.9
20
-12.425
11
140.35
21
-12.425
0
LINE
8
0
10
126.35
20
-12.425
11
125.8
21
-12.425
0
LINE
8
0
10
141.15
20
-15.275
11
141.15
21
-12.675
0
LINE
8
0
10
125.55
20
-12.675
11
125.55
21
-15.275
0
ARC
8
0
10
145.65
20
-16.275
40
0.25
50
180
51
270
0
ARC
8
0
10
159.15
20
-16.275
40
0.25
50
270
51
0
0
ARC
8
0
10
159.15
20
-2.775
40
0.25
50
0
51
90
0
ARC
8
0
10
145.65
20
-2.775
40
0.25
50
90
51
180
0
LINE
8
0
10
145.65
20
-16.525
11
159.15
21
-16.525
0
LINE
8
0
10
159.15
20
-2.525
11
145.65
21
-2.525
0
LINE
8
0
10
159.4
20
-16.275
11
159.4
21
-15.525
0
LINE
8
0
10
159.4
20
-12.425
11
159.4
21
-6.625
0
LINE
8
0
10
159.4
20
-3.525
11
159.4
21
-2.775
0
LINE
8
0
10
145.4
20
-2.775
11
145.4
21
-3.525
0
LINE
8
0
10
145.4
20
-6.625
11
145.4
21
-12.425
0
LINE
8
0
10
145.4
20
-15.525
11
145.4
21
-16.275
0
ARC
8
0
10
144.85
20
-6.375
40
0.25
50
180
51
270
0
ARC
8
0
10
159.95
20
-6.375
40
0.25
50
270
51
0
0
ARC
8
0
10
159.95
20
-3.775
40
0.25
50
0
51
90
0
ARC
8
0
10
144.85
20
-3.775
40
0.25
50
90
51
180
0
LINE
8
0
10
144.85
20
-6.625
11
145.4
21
-6.625
0
LINE
8
0
10
159.4
20
-6.625
11
159.95
21
-6.625
0
LINE
8
0
10
159.95
20
-3.525
11
159.4
21
-3.525
0
LINE
8
0
10
145.4
20
-3.525
11
144.85
21
-3.525
0
LINE
8
0
10
160.2
20
-6.375
11
160.2
21
-3.775
0
LINE
8
0
10
144.6
20
-3.775
11
144.6
21
-6.375
0
ARC
8
0
10
144.85
20
-15.275
40
0.25
50
180
51
270
0
ARC
8
0
10
159.95
20
-15.275
40
0.25
50
270
51
0
0
ARC
8
0
10
159.95
20
-12.675
40
0.25
50
0
51
90
0
ARC
8
0
10
144.85
20
-12.675
40
0.25
50
90
51
180
0
LINE
8
0
10
144.85
20
-15.525
11
145.4
21
-15.525
0
LINE
8
0
10
159.4
20
-15.525
11
159.95
21
-15.525
0
LINE
8
0
10
159.95
20
-12.425
11
159.4
21
-12.425
0
LINE
8
0
10
145.4
20
-12.425
11
144.85
21
-12.425
0
LINE
8
0
10
160.2
20
-15.275
11
160.2
21
-12.675
0
LINE
8
0
10
144.6
20
-12.675
11
144.6
21
-15.275
0
ARC
8
0
10
164.7
20
-16.275
40
0.25
50
180
51
270
0
ARC
8
0
10
178.2
20
-16.275
40
0.25
50
270
51
0
0
ARC
8
0
10
178.2
20
-2.775
40
0.25
50
0
51
90
0
ARC
8
0
10
164.7
20
-2.775
40
0.25
50
90
51
180
0
LINE
8
0
10
164.7
20
-16.525
11
178.2
21
-16.525
0
LINE
8
0
10
178.2
20
-2.525
11
164.7
21
-2.525
0
LINE
8
0
10
178.45
20
-16.275
11
178.45
21
-15.525
0
LINE
8
0
10
178.45
20
-12.425
11
178.45
21
-6.625
0
LINE
8
0
10
178.45
20
-3.525
11
178.45
21
-2.775
0
LINE
8
0
10
164.45
20
-2.775
11
164.45
21
-3.525
0
LINE
8
0
10
164.45
20
-6.625
11
164.45
21
-12.425
0
LINE
8
0
10
164.45
20
-15.525
11
164.45
21
-16.275
0
ARC
8
0
10
163.9
20
-6.375
40
0.25
50
180
51
270
0
ARC
8
0
10
179
20
-6.375
40
0.25
50
270
51
0
0
ARC
8
0
10
179
20
-3.775
40
0.25
50
0
51
90
0
ARC
8
0
10
163.9
20
-3.775
40
0.25
50
90
51
180
0
LINE
8
0
10
163.9
20
-6.625
11
164.45
21
-6.625
0
LINE
8
0
10
178.45
20
-6.625
11
179
21
-6.625
0
LINE
8
0
10
179
20
-3.525
11
178.45
21
-3.525
0
LINE
8
0
10
164.45
20
-3.525
11
163.9
21
-3.525
0
LINE
8
0
10
179.25
20
-6.375
11
179.25
21
-3.775
0
LINE
8
0
10
163.65
20
-3.775
11
163.65
21
-6.375
0
ARC
8
0
10
163.9
20
-15.275
40
0.25
50
180
51
270
0
ARC
8
0
10
179
20
-15.275
40
0.25
50
270
51
0
0
ARC
8
0
10
179
20
-12.675
40
0.25
50
0
51
90
0
ARC
8
0
10
163.9
20
-12.675
40
0.25
50
90
51
180
0
LINE
8
0
10
163.9
20
-15.525
11
164.45
21
-15.525
0
LINE
8
0
10
178.45
20
-15.525
11
179
21
-15.525
0
LINE
8
0
10
179
20
-12.425
11
178.45
21
-12.425
0
LINE
8
0
10
164.45
20
-12.425
11
163.9
21
-12.425
0
LINE
8
0
10
179.25
20
-15.275
11
179.25
21
-12.675
0
LINE
8
0
10
163.65
20
-12.675
11
163.65
21
-15.275
0
ARC
8
0
10
183.75
20
-16.275
40
0.25
50
180
51
270
0
ARC
8
0
10
197.25
20
-16.275
40
0.25
50
270
51
0
0
ARC
8
0
10
197.25
20
-2.775
40
0.25
50
0
51
90
0
ARC
8
0
10
183.75
20
-2.775
40
0.25
50
90
51
180
0
LINE
8
0
10
183.75
20
-16.525
11
197.25
21
-16.525
0
LINE
8
0
10
197.25
20
-2.525
11
183.75
21
-2.525
0
LINE
8
0
10
197.5
20
-16.275
11
197.5
21
-15.525
0
LINE
8
0
10
197.5
20
-12.425
11
197.5
21
-6.625
0
LINE
8
0
10
197.5
20
-3.525
11
197.5
21
-2.775
0
LINE
8
0
10
183.5
20
-2.775
11
183.5
21
-3.525
0
LINE
8
0
10
183.5
20
-6.625
11
183.5
21
-12.425
0
LINE
8
0
10
183.5
20
-15.525
11
183.5
21
-16.275
0
ARC
8
0
10
182.95
20
-6.375
40
0.25
50
180
51
270
0
ARC
8
0
10
198.05
20
-6.375
40
0.25
50
270
51
0
0
ARC
8
0
10
198.05
20
-3.775
40
0.25
50
0
51
90
0
ARC
8
0
10
182.95
20
-3.775
40
0.25
50
90
51
180
0
LINE
8
0
10
182.95
20
-6.625
11
183.5
21
-6.625
0
LINE
8
0
10
197.5
20
-6.625
11
198.05
21
-6.625
0
LINE
8
0
10
198.05
20
-3.525
11
197.5
21
-3.525
0
LINE
8
0
10
183.5
20
-3.525
11
182.95
21
-3.525
0
LINE
8
0
10
198.3
20
-6.375
11
198.3
21
-3.775
0
LINE
8
0
10
182.7
20
-3.775
11
182.7
21
-6.375
0
ARC
8
0
10
182.95
20
-15.275
40
0.25
50
180
51
270
0
ARC
8
0
10
198.05
20
-15.275
40
0.25
50
270
51
0
0
ARC
8
0
10
198.05
20
-12.675
40
0.25
50
0
51
90
0
ARC
8
0
10
182.95
20
-12.675
40
0.25
50
90
51
180
0
LINE
8
0
10
182.95
20
-15.525
11
183.5
21
-15.525
0
LINE
8
0
10
197.5
20
-15.525
11
198.05
21
-15.525
0
LINE
8
0
10
198.05
20
-12.425
11
197.5
21
-12.425
0
LINE
8
0
10
183.5
20
-12.425
11
182.95
21
-12.425
0
LINE
8
0
10
198.3
20
-15.275
11
198.3
21
-12.675
0
LINE
8
0
10
182.7
20
-12.675
11
182.7
21
-15.275
0
ARC
8
0
10
202.8
20
-16.275
40
0.25
50
180
51
270
0
ARC
8
0
10
216.3
20
-16.275
40
0.25
50
270
51
0
0
ARC
8
0
10
216.3
20
-2.775
40
0.25
50
0
51
90
0
ARC
8
0
10
202.8
20
-2.775
40
0.25
50
90
51
180
0
LINE
8
0
10
202.8
20
-16.525
11
216.3
21
-16.525
0
LINE
8
0
10
216.3
20
-2.525
11
202.8
21
-2.525
0
LINE
8
0
10
216.55
20
-16.275
11
216.55
21
-15.525
0
LINE
8
0
10
216.55
20
-12.425
11
216.55
21
-6.625
0
LINE
8
0
10
216.55
20
-3.525
11
216.55
21
-2.775
0
LINE
8
0
10
202.55
20
-2.775
11
202.55
21
-3.525
0
LINE
8
0
10
202.55
20
-6.625
11
202.55
21
-12.425
0
LINE
8
0
10
202.55
20
-15.525
11
202.55
21
-16.275
0
ARC
8
0
10
202
20
-6.375
40
0.25
50
180
51
270
0
ARC
8
0
10
217.1
20
-6.375
40
0.25
50
270
51
0
0
ARC
8
0
10
217.1
20
-3.775
40
0.25
50
0
51
90
0
ARC
8
0
10
202
20
-3.775
40
0.25
50
90
51
180
0
LINE
8
0
10
202
20
-6.625
11
202.55
21
-6.625
0
LINE
8
0
10
216.55
20
-6.625
11
217.1
21
-6.625
0
LINE
8
0
10
217.1
20
-3.525
11
216.55
21
-3.525
0
LINE
8
0
10
202.55
20
-3.525
11
202
21
-3.525
0
LINE
8
0
10
217.35
20
-6.375
11
217.35
21
-3.775
0
LINE
8
0
10
201.75
20
-3.775
11
201.75
21
-6.375
0
ARC
8
0
10
202
20
-15.275
40
0.25
50
180
51
270
0
ARC
8
0
10
217.1
20
-15.275
40
0.25
50
270
51
0
0
ARC
8
0
10
217.1
20
-12.675
40
0.25
50
0
51
90
0
ARC
8
0
10
202
20
-12.675
40
0.25
50
90
51
180
0
LINE
8
0
10
202
20
-15.525
11
202.55
21
-15.525
0
LINE
8
0
10
216.55
20
-15.525
11
217.1
21
-15.525
0
LINE
8
0
10
217.1
20
-12.425
11
216.55
21
-12.425
0
LINE
8
0
10
202.55
20
-12.425
11
202
21
-12.425
0
LINE
8
0
10
217.35
20
-15.275
11
217.35
21
-12.675
0
LINE
8
0
10
201.75
20
-12.675
11
201.75
21
-15.275
0
ARC
8
0
10
17.0625
20
-35.325
40
0.25
50
180
51
270
0
ARC
8
0
10
30.5625
20
-35.325
40
0.25
50
270
51
0
0
ARC
8
0
10
30.5625
20
-21.825
40
0.25
50
0
51
90
0
ARC
8
0
10
17.0625
20
-21.825
40
0.25
50
90
51
180
0
LINE
8
0
10
17.0625
20
-35.575
11
30.5625
21
-35.575
0
LINE
8
0
10
30.5625
20
-21.575
11
17.0625
21
-21.575
0
LINE
8
0
10
30.8125
20
-35.325
11
30.8125
21
-34.575
0
LINE
8
0
10
30.8125
20
-31.475
11
30.8125
21
-25.675
0
LINE
8
0
10
30.8125
20
-22.575
11
30.8125
21
-21.825
0
LINE
8
0
10
16.8125
20
-21.825
11
16.8125
21
-22.575
0
LINE
8
0
10
16.8125
20
-25.675
11
16.8125
21
-31.475
0
LINE
8
0
10
16.8125
20
-34.575
11
16.8125
21
-35.325
0
ARC
8
0
10
16.2625
20
-25.425
40
0.25
50
180
51
270
0
ARC
8
0
10
31.3625
20
-25.425
40
0.25
50
270
51
0
0
ARC
8
0
10
31.3625
20
-22.825
40
0.25
50
0
51
90
0
ARC
8
0
10
16.2625
20
-22.825
40
0.25
50
90
51
180
0
LINE
8
0
10
16.2625
20
-25.675
11
16.8125
21
-25.675
0
LINE
8
0
10
30.8125
20
-25.675
11
31.3625
21
-25.675
0
LINE
8
0
10
31.3625
20
-22.575
11
30.8125
21
-22.575
0
LINE
8
0
10
16.8125
20
-22.575
11
16.2625
21
-22.575
0
LINE
8
0
10
31.6125
20
-25.425
11
31.6125
21
-22.825
0
LINE
8
0
10
16.0125
20
-22.825
11
16.0125
21
-25.425
0
ARC
8
0
10
16.2625
20
-34.325
40
0.25
50
180
51
270
0
ARC
8
0
10
31.3625
20
-34.325
40
0.25
50
270
51
0
0
ARC
8
0
10
31.3625
20
-31.725
40
0.25
50
0
51
90
0
ARC
8
0
10
16.2625
20
-31.725
40
0.25
50
90
51
180
0
LINE
8
0
10
16.2625
20
-34.575
11
16.8125
21
-34.575
0
LINE
8
0
10
30.8125
20
-34.575
11
31.3625
21
-34.575
0
LINE
8
0
10
31.3625
20
-31.475
11
30.8125
21
-31.475
0
LINE
8
0
10
16.8125
20
-31.475
11
16.2625
21
-31.475
0
LINE
8
0
10
31.6125
20
-34.325
11
31.6125
21
-31.725
0
LINE
8
0
10
16.0125
20
-31.725
11
16.0125
21
-34.325
0
ARC
8
0
10
36.1125
20
-35.325
40
0.25
50
180
51
270
0
ARC
8
0
10
49.6125
20
-35.325
40
0.25
50
270
51
0
0
ARC
8
0
10
49.6125
20
-21.825
40
0.25
50
0
51
90
0
ARC
8
0
10
36.1125
20
-21.825
40
0.25
50
90
51
180
0
LINE
8
0
10
36.1125
20
-35.575
11
49.6125
21
-35.575
0
LINE
8
0
10
49.6125
20
-21.575
11
36.1125
21
-21.575
0
LINE
8
0
10
49.8625
20
-35.325
11
49.8625
21
-34.575
0
LINE
8
0
10
49.8625
20
-31.475
11
49.8625
21
-25.675
0
LINE
8
0
10
49.8625
20
-22.575
11
49.8625
21
-21.825
0
LINE
8
0
10
35.8625
20
-21.825
11
35.8625
21
-22.575
0
LINE
8
0
10
35.8625
20
-25.675
11
35.8625
21
-31.475
0
LINE
8
0
10
35.8625
20
-34.575
11
35.8625
21
-35.325
0
ARC
8
0
10
35.3125
20
-25.425
40
0.25
50
180
51
270
0
ARC
8
0
10
50.4125
20
-25.425
40
0.25
50
270
51
0
0
ARC
8
0
10
50.4125
20
-22.825
40
0.25
50
0
51
90
0
ARC
8
0
10
35.3125
20
-22.825
40
0.25
50
90
51
180
0
LINE
8
0
10
35.3125
20
-25.675
11
35.8625
21
-25.675
0
LINE
8
0
10
49.8625
20
-25.675
11
50.4125
21
-25.675
0
LINE
8
0
10
50.4125
20
-22.575
11
49.8625
21
-22.575
0
LINE
8
0
10
35.8625
20
-22.575
11
35.3125
21
-22.575
0
LINE
8
0
10
50.6625
20
-25.425
11
50.6625
21
-22.825
0
LINE
8
0
10
35.0625
20
-22.825
11
35.0625
21
-25.425
0
ARC
8
0
10
35.3125
20
-34.325
40
0.25
50
180
51
270
0
ARC
8
0
10
50.4125
20
-34.325
40
0.25
50
270
51
0
0
ARC
8
0
10
50.4125
20
-31.725
40
0.25
50
0
51
90
0
ARC
8
0
10
35.3125
20
-31.725
40
0.25
50
90
51
180
0
LINE
8
0
10
35.3125
20
-34.575
11
35.8625
21
-34.575
0
LINE
8
0
10
49.8625
20
-34.575
11
50.4125
21
-34.575
0
LINE
8
0
10
50.4125
20
-31.475
11
49.8625
21
-31.475
0
LINE
8
0
10
35.8625
20
-31.475
11
35.3125
21
-31.475
0
LINE
8
0
10
50.6625
20
-34.325
11
50.6625
21
-31.725
0
LINE
8
0
10
35.0625
20
-31.725
11
35.0625
21
-34.325
0
ARC
8
0
10
55.1625
20
-35.325
40
0.25
50
180
51
270
0
ARC
8
0
10
68.6625
20
-35.325
40
0.25
50
270
51
0
0
ARC
8
0
10
68.6625
20
-21.825
40
0.25
50
0
51
90
0
ARC
8
0
10
55.1625
20
-21.825
40
0.25
50
90
51
180
0
LINE
8
0
10
55.1625
20
-35.575
11
68.6625
21
-35.575
0
LINE
8
0
10
68.6625
20
-21.575
11
55.1625
21
-21.575
0
LINE
8
0
10
68.9125
20
-35.325
11
68.9125
21
-34.575
0
LINE
8
0
10
68.9125
20
-31.475
11
68.9125
21
-25.675
0
LINE
8
0
10
68.9125
20
-22.575
11
68.9125
21
-21.825
0
LINE
8
0
10
54.9125
20
-21.825
11
54.9125
21
-22.575
0
LINE
8
0
10
54.9125
20
-25.675
11
54.9125
21
-31.475
0
LINE
8
0
10
54.9125
20
-34.575
11
54.9125
21
-35.325
0
ARC
8
0
10
54.3625
20
-25.425
40
0.25
50
180
51
270
0
ARC
8
0
10
69.4625
20
-25.425
40
0.25
50
270
51
0
0
ARC
8
0
10
69.4625
20
-22.825
40
0.25
50
0
51
90
0
ARC
8
0
10
54.3625
20
-22.825
40
0.25
50
90
51
180
0
LINE
8
0
10
54.3625
20
-25.675
11
54.9125
21
-25.675
0
LINE
8
0
10
68.9125
20
-25.675
11
69.4625
21
-25.675
0
LINE
8
0
10
69.4625
20
-22.575
11
68.9125
21
-22.575
0
LINE
8
0
10
54.9125
20
-22.575
11
54.3625
21
-22.575
0
LINE
8
0
10
69.7125
20
-25.425
11
69.7125
21
-22.825
0
LINE
8
0
10
54.1125
20
-22.825
11
54.1125
21
-25.425
0
ARC
8
0
10
54.3625
20
-34.325
40
0.25
50
180
51
270
0
ARC
8
0
10
69.4625
20
-34.325
40
0.25
50
270
51
0
0
ARC
8
0
10
69.4625
20
-31.725
40
0.25
50
0
51
90
0
ARC
8
0
10
54.3625
20
-31.725
40
0.25
50
90
51
180
0
LINE
8
0
10
54.3625
20
-34.575
11
54.9125
21
-34.575
0
LINE
8
0
10
68.9125
20
-34.575
11
69.4625
21
-34.575
0
LINE
8
0
10
69.4625
20
-31.475
11
68.9125
21
-31.475
0
LINE
8
0
10
54.9125
20
-31.475
11
54.3625
21
-31.475
0
LINE
8
0
10
69.7125
20
-34.325
11
69.7125
21
-31.725
0
LINE
8
0
10
54.1125
20
-31.725
11
54.1125
21
-34.325
0
ARC
8
0
10
74.2125
20
-35.325
40
0.25
50
180
51
270
0
ARC
8
0
10
87.7125
20
-35.325
40
0.25
50
270
51
0
0
ARC
8
0
10
87.7125
20
-21.825
40
0.25
50
0
51
90
0
ARC
8
0
10
74.2125
20
-21.825
40
0.25
50
90
51
180
0
LINE
8
0
10
74.2125
20
-35.575
11
87.7125
21
-35.575
0
LINE
8
0
10
87.7125
20
-21.575
11
74.2125
21
-21.575
0
LINE
8
0
10
87.9625
20
-35.325
11
87.9625
21
-34.575
0
LINE
8
0
10
87.9625
20
-31.475
11
87.9625
21
-25.675
0
LINE
8
0
10
87.9625
20
-22.575
11
87.9625
21
-21.825
0
LINE
8
0
10
73.9625
20
-21.825
11
73.9625
21
-22.575
0
LINE
8
0
10
73.9625
20
-25.675
11
73.9625
21
-31.475
0
LINE
8
0
10
73.9625
20
-34.575
11
73.9625
21
-35.325
0
ARC
8
0
10
73.4125
20
-25.425
40
0.25
50
180
51
270
0
ARC
8
0
10
88.5125
20
-25.425
40
0.25
50
270
51
0
0
ARC
8
0
10
88.5125
20
-22.825
40
0.25
50
0
51
90
0
ARC
8
0
10
73.4125
20
-22.825
40
0.25
50
90
51
180
0
LINE
8
0
10
73.4125
20
-25.675
11
73.9625
21
-25.675
0
LINE
8
0
10
87.9625
20
-25.675
11
88.5125
21
-25.675
0
LINE
8
0
10
88.5125
20
-22.575
11
87.9625
21
-22.575
0
LINE
8
0
10
73.9625
20
-22.575
11
73.4125
21
-22.575
0
LINE
8
0
10
88.7625
20
-25.425
11
88.7625
21
-22.825
0
LINE
8
0
10
73.1625
20
-22.825
11
73.1625
21
-25.425
0
ARC
8
0
10
73.4125
20
-34.325
40
0.25
50
180
51
270
0
ARC
8
0
10
88.5125
20
-34.325
40
0.25
50
270
51
0
0
ARC
8
0
10
88.5125
20
-31.725
40
0.25
50
0
51
90
0
ARC
8
0
10
73.4125
20
-31.725
40
0.25
50
90
51
180
0
LINE
8
0
10
73.4125
20
-34.575
11
73.9625
21
-34.575
0
LINE
8
0
10
87.9625
20
-34.575
11
88.5125
21
-34.575
0
LINE
8
0
10
88.5125
20
-31.475
11
87.9625
21
-31.475
0
LINE
8
0
10
73.9625
20
-31.475
11
73.4125
21
-31.475
0
LINE
8
0
10
88.7625
20
-34.325
11
88.7625
21
-31.725
0
LINE
8
0
10
73.1625
20
-31.725
11
73.1625
21
-34.325
0
ARC
8
0
10
93.2625
20
-35.325
40
0.25
50
180
51
270
0
ARC
8
0
10
106.7625
20
-35.325
40
0.25
50
270
51
0
0
ARC
8
0
10
106.7625
20
-21.825
40
0.25
50
0
51
90
0
ARC
8
0
10
93.2625
20
-21.825
40
0.25
50
90
51
180
0
LINE
8
0
10
93.2625
20
-35.575
11
106.7625
21
-35.575
0
LINE
8
0
10
106.7625
20
-21.575
11
93.2625
21
-21.575
0
LINE
8
0
10
107.0125
20
-35.325
11
107.0125
21
-34.575
0
LINE
8
0
10
107.0125
20
-31.475
11
107.0125
21
-25.675
0
LINE
8
0
10
107.0125
20
-22.575
11
107.0125
21
-21.825
0
LINE
8
0
10
93.0125
20
-21.825
11
93.0125
21
-22.575
0
LINE
8
0
10
93.0125
20
-25.675
11
93.0125
21
-31.475
0
LINE
8
0
10
93.0125
20
-34.575
11
93.0125
21
-35.325
0
ARC
8
0
10
92.4625
20
-25.425
40
0.25
50
180
51
270
0
ARC
8
0
10
107.5625
20
-25.425
40
0.25
50
270
51
0
0
ARC
8
0
10
107.5625
20
-22.825
40
0.25
50
0
51
90
0
ARC
8
0
10
92.4625
20
-22.825
40
0.25
50
90
51
180
0
LINE
8
0
10
92.4625
20
-25.675
11
93.0125
21
-25.675
0
LINE
8
0
10
107.0125
20
-25.675
11
107.5625
21
-25.675
0
LINE
8
0
10
107.5625
20
-22.575
11
107.0125
21
-22.575
0
LINE
8
0
10
93.0125
20
-22.575
11
92.4625
21
-22.575
0
LINE
8
0
10
107.8125
20
-25.425
11
107.8125
21
-22.825
0
LINE
8
0
10
92.2125
20
-22.825
11
92.2125
21
-25.425
0
ARC
8
0
10
92.4625
20
-34.325
40
0.25
50
180
51
270
0
ARC
8
0
10
107.5625
20
-34.325
40
0.25
50
270
51
0
0
ARC
8
0
10
107.5625
20
-31.725
40
0.25
50
0
51
90
0
ARC
8
0
10
92.4625
20
-31.725
40
0.25
50
90
51
180
0
LINE
8
0
10
92.4625
20
-34.575
11
93.0125
21
-34.575
0
LINE
8
0
10
107.0125
20
-34.575
11
107.5625
21
-34.575
0
LINE
8
0
10
107.5625
20
-31.475
11
107.0125
21
-31.475
0
LINE
8
0
10
93.0125
20
-31.475
11
92.4625
21
-31.475
0
LINE
8
0
10
107.8125
20
-34.325
11
107.8125
21
-31.725
0
LINE
8
0
10
92.2125
20
-31.725
11
92.2125
21
-34.325
0
ARC
8
0
10
112.3125
20
-35.325
40
0.25
50
180
51
270
0
ARC
8
0
10
125.8125
20
-35.325
40
0.25
50
270
51
0
0
ARC
8
0
10
125.8125
20
-21.825
40
0.25
50
0
51
90
0
ARC
8
0
10
112.3125
20
-21.825
40
0.25
50
90
51
180
0
LINE
8
0
10
112.3125
20
-35.575
11
125.8125
21
-35.575
0
LINE
8
0
10
125.8125
20
-21.575
11
112.3125
21
-21.575
0
LINE
8
0
10
126.0625
20
-35.325
11
126.0625
21
-34.575
0
LINE
8
0
10
126.0625
20
-31.475
11
126.0625
21
-25.675
0
LINE
8
0
10
126.0625
20
-22.575
11
126.0625
21
-21.825
0
LINE
8
0
10
112.0625
20
-21.825
11
112.0625
21
-22.575
0
LINE
8
0
10
112.0625
20
-25.675
11
112.0625
21
-31.475
0
LINE
8
0
10
112.0625
20
-34.575
11
112.0625
21
-35.325
0
ARC
8
0
10
111.5125
20
-25.425
40
0.25
50
180
51
270
0
ARC
8
0
10
126.6125
20
-25.425
40
0.25
50
270
51
0
0
ARC
8
0
10
126.6125
20
-22.825
40
0.25
50
0
51
90
0
ARC
8
0
10
111.5125
20
-22.825
40
0.25
50
90
51
180
0
LINE
8
0
10
111.5125
20
-25.675
11
112.0625
21
-25.675
0
LINE
8
0
10
126.0625
20
-25.675
11
126.6125
21
-25.675
0
LINE
8
0
10
126.6125
20
-22.575
11
126.0625
21
-22.575
0
LINE
8
0
10
112.0625
20
-22.575
11
111.5125
21
-22.575
0
LINE
8
0
10
126.8625
20
-25.425
11
126.8625
21
-22.825
0
LINE
8
0
10
111.2625
20
-22.825
11
111.2625
21
-25.425
0
ARC
8
0
10
111.5125
20
-34.325
40
0.25
50
180
51
270
0
ARC
8
0
10
126.6125
20
-34.325
40
0.25
50
270
51
0
0
ARC
8
0
10
126.6125
20
-31.725
40
0.25
50
0
51
90
0
ARC
8
0
10
111.5125
20
-31.725
40
0.25
50
90
51
180
0
LINE
8
0
10
111.5125
20
-34.575
11
112.0625
21
-34.575
0
LINE
8
0
10
126.0625
20
-34.575
11
126.6125
21
-34.575
0
LINE
8
0
10
126.6125
20
-31.475
11
126.0625
21
-31.475
0
LINE
8
0
10
112.0625
20
-31.475
11
111.5125
21
-31.475
0
LINE
8
0
10
126.8625
20
-34.325
11
126.8625
21
-31.725
0
LINE
8
0
10
111.2625
20
-31.725
11
111.2625
21
-34.325
0
ARC
8
0
10
131.3625
20
-35.325
40
0.25
50
180
51
270
0
ARC
8
0
10
144.8625
20
-35.325
40
0.25
50
270
51
0
0
ARC
8
0
10
144.8625
20
-21.825
40
0.25
50
0
51
90
0
ARC
8
0
10
131.3625
20
-21.825
40
0.25
50
90
51
180
0
LINE
8
0
10
131.3625
20
-35.575
11
144.8625
21
-35.575
0
LINE
8
0
10
144.8625
20
-21.575
11
131.3625
21
-21.575
0
LINE
8
0
10
145.1125
20
-35.325
11
145.1125
21
-34.575
0
LINE
8
0
10
145.1125
20
-31.475
11
145.1125
21
-25.675
0
LINE
8
0
10
145.1125
20
-22.575
11
145.1125
21
-21.825
0
LINE
8
0
10
131.1125
20
-21.825
11
131.1125
21
-22.575
0
LINE
8
0
10
131.1125
20
-25.675
11
131.1125
21
-31.475
0
LINE
8
0
10
131.1125
20
-34.575
11
131.1125
21
-35.325
0
ARC
8
0
10
130.5625
20
-25.425
40
0.25
50
180
51
270
0
ARC
8
0
10
145.6625
20
-25.425
40
0.25
50
270
51
0
0
ARC
8
0
10
145.6625
20
-22.825
40
0.25
50
0
51
90
0
ARC
8
0
10
130.5625
20
-22.825
40
0.25
50
90
51
180
0
LINE
8
0
10
130.5625
20
-25.675
11
131.1125
21
-25.675
0
LINE
8
0
10
145.1125
20
-25.675
11
145.6625
21
-25.675
0
LINE
8
0
10
145.6625
20
-22.575
11
145.1125
21
-22.575
0
LINE
8
0
10
131.1125
20
-22.575
11
130.5625
21
-22.575
0
LINE
8
0
10
145.9125
20
-25.425
11
145.9125
21
-22.825
0
LINE
8
0
10
130.3125
20
-22.825
11
130.3125
21
-25.425
0
ARC
8
0
10
130.5625
20
-34.325
40
0.25
50
180
51
270
0
ARC
8
0
10
145.6625
20
-34.325
40
0.25
50
270
51
0
0
ARC
8
0
10
145.6625
20
-31.725
40
0.25
50
0
51
90
0
ARC
8
0
10
130.5625
20
-31.725
40
0.25
50
90
51
180
0
LINE
8
0
10
130.5625
20
-34.575
11
131.1125
21
-34.575
0
LINE
8
0
10
145.1125
20
-34.575
11
145.6625
21
-34.575
0
LINE
8
0
10
145.6625
20
-31.475
11
145.1125
21
-31.475
0
LINE
8
0
10
131.1125
20
-31.475
11
130.5625
21
-31.475
0
LINE
8
0
10
145.9125
20
-34.325
11
145.9125
21
-31.725
0
LINE
8
0
10
130.3125
20
-31.725
11
130.3125
21
-34.325
0
ARC
8
0
10
150.4125
20
-35.325
40
0.25
50
180
51
270
0
ARC
8
0
10
163.9125
20
-35.325
40
0.25
50
270
51
0
0
ARC
8
0
10
163.9125
20
-21.825
40
0.25
50
0
51
90
0
ARC
8
0
10
150.4125
20
-21.825
40
0.25
50
90
51
180
0
LINE
8
0
10
150.4125
20
-35.575
11
163.9125
21
-35.575
0
LINE
8
0
10
163.9125
20
-21.575
11
150.4125
21
-21.575
0
LINE
8
0
10
164.1625
20
-35.325
11
164.1625
21
-34.575
0
LINE
8
0
10
164.1625
20
-31.475
11
164.1625
21
-25.675
0
LINE
8
0
10
164.1625
20
-22.575
11
164.1625
21
-21.825
0
LINE
8
0
10
150.1625
20
-21.825
11
150.1625
21
-22.575
0
LINE
8
0
10
150.1625
20
-25.675
11
150.1625
21
-31.475
0
LINE
8
0
10
150.1625
20
-34.575
11
150.1625
21
-35.325
0
ARC
8
0
10
149.6125
20
-25.425
40
0.25
50
180
51
270
0
ARC
8
0
10
164.7125
20
-25.425
40
0.25
50
270
51
0
0
ARC
8
0
10
164.7125
20
-22.825
40
0.25
50
0
51
90
0
ARC
8
0
10
149.6125
20
-22.825
40
0.25
50
90
51
180
0
LINE
8
0
10
149.6125
20
-25.675
11
150.1625
21
-25.675
0
LINE
8
0
10
164.1625
20
-25.675
11
164.7125
21
-25.675
0
LINE
8
0
10
164.7125
20
-22.575
11
164.1625
21
-22.575
0
LINE
8
0
10
150.1625
20
-22.575
11
149.6125
21
-22.575
0
LINE
8
0
10
164.9625
20
-25.425
11
164.9625
21
-22.825
0
LINE
8
0
10
149.3625
20
-22.825
11
149.3625
21
-25.425
0
ARC
8
0
10
149.6125
20
-34.325
40
0.25
50
180
51
270
0
ARC
8
0
10
164.7125
20
-34.325
40
0.25
50
270
51
0
0
ARC
8
0
10
164.7125
20
-31.725
40
0.25
50
0
51
90
0
ARC
8
0
10
149.6125
20
-31.725
40
0.25
50
90
51
180
0
LINE
8
0
10
149.6125
20
-34.575
11
150.1625
21
-34.575
0
LINE
8
0
10
164.1625
20
-34.575
11
164.7125
21
-34.575
0
LINE
8
0
10
164.7125
20
-31.475
11
164.1625
21
-31.475
0
LINE
8
0
10
150.1625
20
-31.475
11
149.6125
21
-31.475
0
LINE
8
0
10
164.9625
20
-34.325
11
164.9625
21
-31.725
0
LINE
8
0
10
149.3625
20
-31.725
11
149.3625
21
-34.325
0
ARC
8
0
10
169.4625
20
-35.325
40
0.25
50
180
51
270
0
ARC
8
0
10
182.9625
20
-35.325
40
0.25
50
270
51
0
0
ARC
8
0
10
182.9625
20
-21.825
40
0.25
50
0
51
90
0
ARC
8
0
10
169.4625
20
-21.825
40
0.25
50
90
51
180
0
LINE
8
0
10
169.4625
20
-35.575
11
182.9625
21
-35.575
0
LINE
8
0
10
182.9625
20
-21.575
11
169.4625
21
-21.575
0
LINE
8
0
10
183.2125
20
-35.325
11
183.2125
21
-34.575
0
LINE
8
0
10
183.2125
20
-31.475
11
183.2125
21
-25.675
0
LINE
8
0
10
183.2125
20
-22.575
11
183.2125
21
-21.825
0
LINE
8
0
10
169.2125
20
-21.825
11
169.2125
21
-22.575
0
LINE
8
0
10
169.2125
20
-25.675
11
169.2125
21
-31.475
0
LINE
8
0
10
169.2125
20
-34.575
11
169.2125
21
-35.325
0
ARC
8
0
10
168.6625
20
-25.425
40
0.25
50
180
51
270
0
ARC
8
0
10
183.7625
20
-25.425
40
0.25
50
270
51
0
0
ARC
8
0
10
183.7625
20
-22.825
40
0.25
50
0
51
90
0
ARC
8
0
10
168.6625
20
-22.825
40
0.25
50
90
51
180
0
LINE
8
0
10
168.6625
20
-25.675
11
169.2125
21
-25.675
0
LINE
8
0
10
183.2125
20
-25.675
11
183.7625
21
-25.675
0
LINE
8
0
10
183.7625
20
-22.575
11
183.2125
21
-22.575
0
LINE
8
0
10
169.2125
20
-22.575
11
168.6625
21
-22.575
0
LINE
8
0
10
184.0125
20
-25.425
11
184.0125
21
-22.825
0
LINE
8
0
10
168.4125
20
-22.825
11
168.4125
21
-25.425
0
ARC
8
0
10
168.6625
20
-34.325
40
0.25
50
180
51
270
0
ARC
8
0
10
183.7625
20
-34.325
40
0.25
50
270
51
0
0
ARC
8
0
10
183.7625
20
-31.725
40
0.25
50
0
51
90
0
ARC
8
0
10
168.6625
20
-31.725
40
0.25
50
90
51
180
0
LINE
8
0
10
168.6625
20
-34.575
11
169.2125
21
-34.575
0
LINE
8
0
10
183.2125
20
-34.575
11
183.7625
21
-34.575
0
LINE
8
0
10
183.7625
20
-31.475
11
183.2125
21
-31.475
0
LINE
8
0
10
169.2125
20
-31.475
11
168.6625
21
-31.475
0
LINE
8
0
10
184.0125
20
-34.325
11
184.0125
21
-31.725
0
LINE
8
0
10
168.4125
20
-31.725
11
168.4125
21
-34.325
0
ARC
8
0
10
200.41875
20
-44.85
40
0.25
50
180
51
270
0
ARC
8
0
10
213.91875
20
-44.85
40
0.25
50
270
51
0
0
ARC
8
0
10
213.91875
20
-31.35
40
0.25
50
0
51
90
0
ARC
8
0
10
200.41875
20
-31.35
40
0.25
50
90
51
180
0
LINE
8
0
10
200.41875
20
-45.1
11
213.91875
21
-45.1
0
LINE
8
0
10
213.91875
20
-31.1
11
200.41875
21
-31.1
0
LINE
8
0
10
214.16875
20
-44.85
11
214.16875
21
-44.1
0
LINE
8
0
10
214.16875
20
-41
11
214.16875
21
-35.2
0
LINE
8
0
10
214.16875
20
-32.1
11
214.16875
21
-31.35
0
LINE
8
0
10
200.16875
20
-31.35
11
200.16875
21
-32.1
0
LINE
8
0
10
200.16875
20
-35.2
11
200.16875
21
-41
0
LINE
8
0
10
200.16875
20
-44.1
11
200.16875
21
-44.85
0
ARC
8
0
10
199.61875
20
-34.95
40
0.25
50
180
51
270
0
ARC
8
0
10
214.71875
20
-34.95
40
0.25
50
270
51
0
0
ARC
8
0
10
214.71875
20
-32.35
40
0.25
50
0
51
90
0
ARC
8
0
10
199.61875
20
-32.35
40
0.25
50
90
51
180
0
LINE
8
0
10
199.61875
20
-35.2
11
200.16875
21
-35.2
0
LINE
8
0
10
214.16875
20
-35.2
11
214.71875
21
-35.2
0
LINE
8
0
10
214.71875
20
-32.1
11
214.16875
21
-32.1
0
LINE
8
0
10
200.16875
20
-32.1
11
199.61875
21
-32.1
0
LINE
8
0
10
214.96875
20
-34.95
11
214.96875
21
-32.35
0
LINE
8
0
10
199.36875
20
-32.35
11
199.36875
21
-34.95
0
ARC
8
0
10
199.61875
20
-43.85
40
0.25
50
180
51
270
0
ARC
8
0
10
214.71875
20
-43.85
40
0.25
50
270
51
0
0
ARC
8
0
10
214.71875
20
-41.25
40
0.25
50
0
51
90
0
ARC
8
0
10
199.61875
20
-41.25
40
0.25
50
90
51
180
0
LINE
8
0
10
199.61875
20
-44.1
11
200.16875
21
-44.1
0
LINE
8
0
10
214.16875
20
-44.1
11
214.71875
21
-44.1
0
LINE
8
0
10
214.71875
20
-41
11
214.16875
21
-41
0
LINE
8
0
10
200.16875
20
-41
11
199.61875
21
-41
0
LINE
8
0
10
214.96875
20
-43.85
11
214.96875
21
-41.25
0
LINE
8
0
10
199.36875
20
-41.25
11
199.36875
21
-43.85
0
ARC
8
0
10
199.66875
20
-23.287
40
0.5
50
90
51
180
0
ARC
8
0
10
199.66875
20
-29.037
40
0.5
50
180
51
270
0
ARC
8
0
10
212.66875
20
-29.037
40
0.5
50
270
51
0
0
ARC
8
0
10
212.66875
20
-23.287
40
0.5
50
0
51
90
0
LINE
8
0
10
199.16875
20
-23.287
11
199.16875
21
-29.037
0
LINE
8
0
10
213.16875
20
-29.037
11
213.16875
21
-23.287
0
LINE
8
0
10
199.66875
20
-29.537
11
212.66875
21
-29.537
0
LINE
8
0
10
212.66875
20
-22.787
11
199.66875
21
-22.787
0
ARC
8
0
10
199.66875
20
-47.163
40
0.5
50
90
51
180
0
ARC
8
0
10
199.66875
20
-52.913
40
0.5
50
180
51
270
0
ARC
8
0
10
212.66875
20
-52.913
40
0.5
50
270
51
0
0
ARC
8
0
10
212.66875
20
-47.163
40
0.5
50
0
51
90
0
LINE
8
0
10
199.16875
20
-47.163
11
199.16875
21
-52.913
0
LINE
8
0
10
213.16875
20
-52.913
11
213.16875
21
-47.163
0
LINE
8
0
10
199.66875
20
-53.413
11
212.66875
21
-53.413
0
LINE
8
0
10
212.66875
20
-46.663
11
199.66875
21
-46.663
0
ARC
8
0
10
26.5875
20
-54.375
40
0.25
50
180
51
270
0
ARC
8
0
10
40.0875
20
-54.375
40
0.25
50
270
51
0
0
ARC
8
0
10
40.0875
20
-40.875
40
0.25
50
0
51
90
0
ARC
8
0
10
26.5875
20
-40.875
40
0.25
50
90
51
180
0
LINE
8
0
10
26.5875
20
-54.625
11
40.0875
21
-54.625
0
LINE
8
0
10
40.0875
20
-40.625
11
26.5875
21
-40.625
0
LINE
8
0
10
40.3375
20
-54.375
11
40.3375
21
-53.625
0
LINE
8
0
10
40.3375
20
-50.525
11
40.3375
21
-44.725
0
LINE
8
0
10
40.3375
20
-41.625
11
40.3375
21
-40.875
0
LINE
8
0
10
26.3375
20
-40.875
11
26.3375
21
-41.625
0
LINE
8
0
10
26.3375
20
-44.725
11
26.3375
21
-50.525
0
LINE
8
0
10
26.3375
20
-53.625
11
26.3375
21
-54.375
0
ARC
8
0
10
25.7875
20
-44.475
40
0.25
50
180
51
270
0
ARC
8
0
10
40.8875
20
-44.475
40
0.25
50
270
51
0
0
ARC
8
0
10
40.8875
20
-41.875
40
0.25
50
0
51
90
0
ARC
8
0
10
25.7875
20
-41.875
40
0.25
50
90
51
180
0
LINE
8
0
10
25.7875
20
-44.725
11
26.3375
21
-44.725
0
LINE
8
0
10
40.3375
20
-44.725
11
40.8875
21
-44.725
0
LINE
8
0
10
40.8875
20
-41.625
11
40.3375
21
-41.625
0
LINE
8
0
10
26.3375
20
-41.625
11
25.7875
21
-41.625
0
LINE
8
0
10
41.1375
20
-44.475
11
41.1375
21
-41.875
0
LINE
8
0
10
25.5375
20
-41.875
11
25.5375
21
-44.475
0
ARC
8
0
10
25.7875
20
-53.375
40
0.25
50
180
51
270
0
ARC
8
0
10
40.8875
20
-53.375
40
0.25
50
270
51
0
0
ARC
8
0
10
40.8875
20
-50.775
40
0.25
50
0
51
90
0
ARC
8
0
10
25.7875
20
-50.775
40
0.25
50
90
51
180
0
LINE
8
0
10
25.7875
20
-53.625
11
26.3375
21
-53.625
0
LINE
8
0
10
40.3375
20
-53.625
11
40.8875
21
-53.625
0
LINE
8
0
10
40.8875
20
-50.525
11
40.3375
21
-50.525
0
LINE
8
0
10
26.3375
20
-50.525
11
25.7875
21
-50.525
0
LINE
8
0
10
41.1375
20
-53.375
11
41.1375
21
-50.775
0
LINE
8
0
10
25.5375
20
-50.775
11
25.5375
21
-53.375
0
ARC
8
0
10
45.6375
20
-54.375
40
0.25
50
180
51
270
0
ARC
8
0
10
59.1375
20
-54.375
40
0.25
50
270
51
0
0
ARC
8
0
10
59.1375
20
-40.875
40
0.25
50
0
51
90
0
ARC
8
0
10
45.6375
20
-40.875
40
0.25
50
90
51
180
0
LINE
8
0
10
45.6375
20
-54.625
11
59.1375
21
-54.625
0
LINE
8
0
10
59.1375
20
-40.625
11
45.6375
21
-40.625
0
LINE
8
0
10
59.3875
20
-54.375
11
59.3875
21
-53.625
0
LINE
8
0
10
59.3875
20
-50.525
11
59.3875
21
-44.725
0
LINE
8
0
10
59.3875
20
-41.625
11
59.3875
21
-40.875
0
LINE
8
0
10
45.3875
20
-40.875
11
45.3875
21
-41.625
0
LINE
8
0
10
45.3875
20
-44.725
11
45.3875
21
-50.525
0
LINE
8
0
10
45.3875
20
-53.625
11
45.3875
21
-54.375
0
ARC
8
0
10
44.8375
20
-44.475
40
0.25
50
180
51
270
0
ARC
8
0
10
59.9375
20
-44.475
40
0.25
50
270
51
0
0
ARC
8
0
10
59.9375
20
-41.875
40
0.25
50
0
51
90
0
ARC
8
0
10
44.8375
20
-41.875
40
0.25
50
90
51
180
0
LINE
8
0
10
44.8375
20
-44.725
11
45.3875
21
-44.725
0
LINE
8
0
10
59.3875
20
-44.725
11
59.9375
21
-44.725
0
LINE
8
0
10
59.9375
20
-41.625
11
59.3875
21
-41.625
0
LINE
8
0
10
45.3875
20
-41.625
11
44.8375
21
-41.625
0
LINE
8
0
10
60.1875
20
-44.475
11
60.1875
21
-41.875
0
LINE
8
0
10
44.5875
20
-41.875
11
44.5875
21
-44.475
0
ARC
8
0
10
44.8375
20
-53.375
40
0.25
50
180
51
270
0
ARC
8
0
10
59.9375
20
-53.375
40
0.25
50
270
51
0
0
ARC
8
0
10
59.9375
20
-50.775
40
0.25
50
0
51
90
0
ARC
8
0
10
44.8375
20
-50.775
40
0.25
50
90
51
180
0
LINE
8
0
10
44.8375
20
-53.625
11
45.3875
21
-53.625
0
LINE
8
0
10
59.3875
20
-53.625
11
59.9375
21
-53.625
0
LINE
8
0
10
59.9375
20
-50.525
11
59.3875
21
-50.525
0
LINE
8
0
10
45.3875
20
-50.525
11
44.8375
21
-50.525
0
LINE
8
0
10
60.1875
20
-53.375
11
60.1875
21
-50.775
0
LINE
8
0
10
44.5875
20
-50.775
11
44.5875
21
-53.375
0
ARC
8
0
10
64.6875
20
-54.375
40
0.25
50
180
51
270
0
ARC
8
0
10
78.1875
20
-54.375
40
0.25
50
270
51
0
0
ARC
8
0
10
78.1875
20
-40.875
40
0.25
50
0
51
90
0
ARC
8
0
10
64.6875
20
-40.875
40
0.25
50
90
51
180
0
LINE
8
0
10
64.6875
20
-54.625
11
78.1875
21
-54.625
0
LINE
8
0
10
78.1875
20
-40.625
11
64.6875
21
-40.625
0
LINE
8
0
10
78.4375
20
-54.375
11
78.4375
21
-53.625
0
LINE
8
0
10
78.4375
20
-50.525
11
78.4375
21
-44.725
0
LINE
8
0
10
78.4375
20
-41.625
11
78.4375
21
-40.875
0
LINE
8
0
10
64.4375
20
-40.875
11
64.4375
21
-41.625
0
LINE
8
0
10
64.4375
20
-44.725
11
64.4375
21
-50.525
0
LINE
8
0
10
64.4375
20
-53.625
11
64.4375
21
-54.375
0
ARC
8
0
10
63.8875
20
-44.475
40
0.25
50
180
51
270
0
ARC
8
0
10
78.9875
20
-44.475
40
0.25
50
270
51
0
0
ARC
8
0
10
78.9875
20
-41.875
40
0.25
50
0
51
90
0
ARC
8
0
10
63.8875
20
-41.875
40
0.25
50
90
51
180
0
LINE
8
0
10
63.8875
20
-44.725
11
64.4375
21
-44.725
0
LINE
8
0
10
78.4375
20
-44.725
11
78.9875
21
-44.725
0
LINE
8
0
10
78.9875
20
-41.625
11
78.4375
21
-41.625
0
LINE
8
0
10
64.4375
20
-41.625
11
63.8875
21
-41.625
0
LINE
8
0
10
79.2375
20
-44.475
11
79.2375
21
-41.875
0
LINE
8
0
10
63.6375
20
-41.875
11
63.6375
21
-44.475
0
ARC
8
0
10
63.8875
20
-53.375
40
0.25
50
180
51
270
0
ARC
8
0
10
78.9875
20
-53.375
40
0.25
50
270
51
0
0
ARC
8
0
10
78.9875
20
-50.775
40
0.25
50
0
51
90
0
ARC
8
0
10
63.8875
20
-50.775
40
0.25
50
90
51
180
0
LINE
8
0
10
63.8875
20
-53.625
11
64.4375
21
-53.625
0
LINE
8
0
10
78.4375
20
-53.625
11
78.9875
21
-53.625
0
LINE
8
0
10
78.9875
20
-50.525
11
78.4375
21
-50.525
0
LINE
8
0
10
64.4375
20
-50.525
11
63.8875
21
-50.525
0
LINE
8
0
10
79.2375
20
-53.375
11
79.2375
21
-50.775
0
LINE
8
0
10
63.6375
20
-50.775
11
63.6375
21
-53.375
0
ARC
8
0
10
83.7375
20
-54.375
40
0.25
50
180
51
270
0
ARC
8
0
10
97.2375
20
-54.375
40
0.25
50
270
51
0
0
ARC
8
0
10
97.2375
20
-40.875
40
0.25
50
0
51
90
0
ARC
8
0
10
83.7375
20
-40.875
40
0.25
50
90
51
180
0
LINE
8
0
10
83.7375
20
-54.625
11
97.2375
21
-54.625
0
LINE
8
0
10
97.2375
20
-40.625
11
83.7375
21
-40.625
0
LINE
8
0
10
97.4875
20
-54.375
11
97.4875
21
-53.625
0
LINE
8
0
10
97.4875
20
-50.525
11
97.4875
21
-44.725
0
LINE
8
0
10
97.4875
20
-41.625
11
97.4875
21
-40.875
0
LINE
8
0
10
83.4875
20
-40.875
11
83.4875
21
-41.625
0
LINE
8
0
10
83.4875
20
-44.725
11
83.4875
21
-50.525
0
LINE
8
0
10
83.4875
20
-53.625
11
83.4875
21
-54.375
0
ARC
8
0
10
82.9375
20
-44.475
40
0.25
50
180
51
270
0
ARC
8
0
10
98.0375
20
-44.475
40
0.25
50
270
51
0
0
ARC
8
0
10
98.0375
20
-41.875
40
0.25
50
0
51
90
0
ARC
8
0
10
82.9375
20
-41.875
40
0.25
50
90
51
180
0
LINE
8
0
10
82.9375
20
-44.725
11
83.4875
21
-44.725
0
LINE
8
0
10
97.4875
20
-44.725
11
98.0375
21
-44.725
0
LINE
8
0
10
98.0375
20
-41.625
11
97.4875
21
-41.625
0
LINE
8
0
10
83.4875
20
-41.625
11
82.9375
21
-41.625
0
LINE
8
0
10
98.2875
20
-44.475
11
98.2875
21
-41.875
0
LINE
8
0
10
82.6875
20
-41.875
11
82.6875
21
-44.475
0
ARC
8
0
10
82.9375
20
-53.375
40
0.25
50
180
51
270
0
ARC
8
0
10
98.0375
20
-53.375
40
0.25
50
270
51
0
0
ARC
8
0
10
98.0375
20
-50.775
40
0.25
50
0
51
90
0
ARC
8
0
10
82.9375
20
-50.775
40
0.25
50
90
51
180
0
LINE
8
0
10
82.9375
20
-53.625
11
83.4875
21
-53.625
0
LINE
8
0
10
97.4875
20
-53.625
11
98.0375
21
-53.625
0
LINE
8
0
10
98.0375
20
-50.525
11
97.4875
21
-50.525
0
LINE
8
0
10
83.4875
20
-50.525
11
82.9375
21
-50.525
0
LINE
8
0
10
98.2875
20
-53.375
11
98.2875
21
-50.775
0
LINE
8
0
10
82.6875
20
-50.775
11
82.6875
21
-53.375
0
ARC
8
0
10
102.7875
20
-54.375
40
0.25
50
180
51
270
0
ARC
8
0
10
116.2875
20
-54.375
40
0.25
50
270
51
0
0
ARC
8
0
10
116.2875
20
-40.875
40
0.25
50
0
51
90
0
ARC
8
0
10
102.7875
20
-40.875
40
0.25
50
90
51
180
0
LINE
8
0
10
102.7875
20
-54.625
11
116.2875
21
-54.625
0
LINE
8
0
10
116.2875
20
-40.625
11
102.7875
21
-40.625
0
LINE
8
0
10
116.5375
20
-54.375
11
116.5375
21
-53.625
0
LINE
8
0
10
116.5375
20
-50.525
11
116.5375
21
-44.725
0
LINE
8
0
10
116.5375
20
-41.625
11
116.5375
21
-40.875
0
LINE
8
0
10
102.5375
20
-40.875
11
102.5375
21
-41.625
0
LINE
8
0
10
102.5375
20
-44.725
11
102.5375
21
-50.525
0
LINE
8
0
10
102.5375
20
-53.625
11
102.5375
21
-54.375
0
ARC
8
0
10
101.9875
20
-44.475
40
0.25
50
180
51
270
0
ARC
8
0
10
117.0875
20
-44.475
40
0.25
50
270
51
0
0
ARC
8
0
10
117.0875
20
-41.875
40
0.25
50
0
51
90
0
ARC
8
0
10
101.9875
20
-41.875
40
0.25
50
90
51
180
0
LINE
8
0
10
101.9875
20
-44.725
11
102.5375
21
-44.725
0
LINE
8
0
10
116.5375
20
-44.725
11
117.0875
21
-44.725
0
LINE
8
0
10
117.0875
20
-41.625
11
116.5375
21
-41.625
0
LINE
8
0
10
102.5375
20
-41.625
11
101.9875
21
-41.625
0
LINE
8
0
10
117.3375
20
-44.475
11
117.3375
21
-41.875
0
LINE
8
0
10
101.7375
20
-41.875
11
101.7375
21
-44.475
0
ARC
8
0
10
101.9875
20
-53.375
40
0.25
50
180
51
270
0
ARC
8
0
10
117.0875
20
-53.375
40
0.25
50
270
51
0
0
ARC
8
0
10
117.0875
20
-50.775
40
0.25
50
0
51
90
0
ARC
8
0
10
101.9875
20
-50.775
40
0.25
50
90
51
180
0
LINE
8
0
10
101.9875
20
-53.625
11
102.5375
21
-53.625
0
LINE
8
0
10
116.5375
20
-53.625
11
117.0875
21
-53.625
0
LINE
8
0
10
117.0875
20
-50.525
11
116.5375
21
-50.525
0
LINE
8
0
10
102.5375
20
-50.525
11
101.9875
21
-50.525
0
LINE
8
0
10
117.3375
20
-53.375
11
117.3375
21
-50.775
0
LINE
8
0
10
101.7375
20
-50.775
11
101.7375
21
-53.375
0
ARC
8
0
10
121.8375
20
-54.375
40
0.25
50
180
51
270
0
ARC
8
0
10
135.3375
20
-54.375
40
0.25
50
270
51
0
0
ARC
8
0
10
135.3375
20
-40.875
40
0.25
50
0
51
90
0
ARC
8
0
10
121.8375
20
-40.875
40
0.25
50
90
51
180
0
LINE
8
0
10
121.8375
20
-54.625
11
135.3375
21
-54.625
0
LINE
8
0
10
135.3375
20
-40.625
11
121.8375
21
-40.625
0
LINE
8
0
10
135.5875
20
-54.375
11
135.5875
21
-53.625
0
LINE
8
0
10
135.5875
20
-50.525
11
135.5875
21
-44.725
0
LINE
8
0
10
135.5875
20
-41.625
11
135.5875
21
-40.875
0
LINE
8
0
10
121.5875
20
-40.875
11
121.5875
21
-41.625
0
LINE
8
0
10
121.5875
20
-44.725
11
121.5875
21
-50.525
0
LINE
8
0
10
121.5875
20
-53.625
11
121.5875
21
-54.375
0
ARC
8
0
10
121.0375
20
-44.475
40
0.25
50
180
51
270
0
ARC
8
0
10
136.1375
20
-44.475
40
0.25
50
270
51
0
0
ARC
8
0
10
136.1375
20
-41.875
40
0.25
50
0
51
90
0
ARC
8
0
10
121.0375
20
-41.875
40
0.25
50
90
51
180
0
LINE
8
0
10
121.0375
20
-44.725
11
121.5875
21
-44.725
0
LINE
8
0
10
135.5875
20
-44.725
11
136.1375
21
-44.725
0
LINE
8
0
10
136.1375
20
-41.625
11
135.5875
21
-41.625
0
LINE
8
0
10
121.5875
20
-41.625
11
121.0375
21
-41.625
0
LINE
8
0
10
136.3875
20
-44.475
11
136.3875
21
-41.875
0
LINE
8
0
10
120.7875
20
-41.875
11
120.7875
21
-44.475
0
ARC
8
0
10
121.0375
20
-53.375
40
0.25
50
180
51
270
0
ARC
8
0
10
136.1375
20
-53.375
40
0.25
50
270
51
0
0
ARC
8
0
10
136.1375
20
-50.775
40
0.25
50
0
51
90
0
ARC
8
0
10
121.0375
20
-50.775
40
0.25
50
90
51
180
0
LINE
8
0
10
121.0375
20
-53.625
11
121.5875
21
-53.625
0
LINE
8
0
10
135.5875
20
-53.625
11
136.1375
21
-53.625
0
LINE
8
0
10
136.1375
20
-50.525
11
135.5875
21
-50.525
0
LINE
8
0
10
121.5875
20
-50.525
11
121.0375
21
-50.525
0
LINE
8
0
10
136.3875
20
-53.375
11
136.3875
21
-50.775
0
LINE
8
0
10
120.7875
20
-50.775
11
120.7875
21
-53.375
0
ARC
8
0
10
140.8875
20
-54.375
40
0.25
50
180
51
270
0
ARC
8
0
10
154.3875
20
-54.375
40
0.25
50
270
51
0
0
ARC
8
0
10
154.3875
20
-40.875
40
0.25
50
0
51
90
0
ARC
8
0
10
140.8875
20
-40.875
40
0.25
50
90
51
180
0
LINE
8
0
10
140.8875
20
-54.625
11
154.3875
21
-54.625
0
LINE
8
0
10
154.3875
20
-40.625
11
140.8875
21
-40.625
0
LINE
8
0
10
154.6375
20
-54.375
11
154.6375
21
-53.625
0
LINE
8
0
10
154.6375
20
-50.525
11
154.6375
21
-44.725
0
LINE
8
0
10
154.6375
20
-41.625
11
154.6375
21
-40.875
0
LINE
8
0
10
140.6375
20
-40.875
11
140.6375
21
-41.625
0
LINE
8
0
10
140.6375
20
-44.725
11
140.6375
21
-50.525
0
LINE
8
0
10
140.6375
20
-53.625
11
140.6375
21
-54.375
0
ARC
8
0
10
140.0875
20
-44.475
40
0.25
50
180
51
270
0
ARC
8
0
10
155.1875
20
-44.475
40
0.25
50
270
51
0
0
ARC
8
0
10
155.1875
20
-41.875
40
0.25
50
0
51
90
0
ARC
8
0
10
140.0875
20
-41.875
40
0.25
50
90
51
180
0
LINE
8
0
10
140.0875
20
-44.725
11
140.6375
21
-44.725
0
LINE
8
0
10
154.6375
20
-44.725
11
155.1875
21
-44.725
0
LINE
8
0
10
155.1875
20
-41.625
11
154.6375
21
-41.625
0
LINE
8
0
10
140.6375
20
-41.625
11
140.0875
21
-41.625
0
LINE
8
0
10
155.4375
20
-44.475
11
155.4375
21
-41.875
0
LINE
8
0
10
139.8375
20
-41.875
11
139.8375
21
-44.475
0
ARC
8
0
10
140.0875
20
-53.375
40
0.25
50
180
51
270
0
ARC
8
0
10
155.1875
20
-53.375
40
0.25
50
270
51
0
0
ARC
8
0
10
155.1875
20
-50.775
40
0.25
50
0
51
90
0
ARC
8
0
10
140.0875
20
-50.775
40
0.25
50
90
51
180
0
LINE
8
0
10
140.0875
20
-53.625
11
140.6375
21
-53.625
0
LINE
8
0
10
154.6375
20
-53.625
11
155.1875
21
-53.625
0
LINE
8
0
10
155.1875
20
-50.525
11
154.6375
21
-50.525
0
LINE
8
0
10
140.6375
20
-50.525
11
140.0875
21
-50.525
0
LINE
8
0
10
155.4375
20
-53.375
11
155.4375
21
-50.775
0
LINE
8
0
10
139.8375
20
-50.775
11
139.8375
21
-53.375
0
ARC
8
0
10
159.9375
20
-54.375
40
0.25
50
180
51
270
0
ARC
8
0
10
173.4375
20
-54.375
40
0.25
50
270
51
0
0
ARC
8
0
10
173.4375
20
-40.875
40
0.25
50
0
51
90
0
ARC
8
0
10
159.9375
20
-40.875
40
0.25
50
90
51
180
0
LINE
8
0
10
159.9375
20
-54.625
11
173.4375
21
-54.625
0
LINE
8
0
10
173.4375
20
-40.625
11
159.9375
21
-40.625
0
LINE
8
0
10
173.6875
20
-54.375
11
173.6875
21
-53.625
0
LINE
8
0
10
173.6875
20
-50.525
11
173.6875
21
-44.725
0
LINE
8
0
10
173.6875
20
-41.625
11
173.6875
21
-40.875
0
LINE
8
0
10
159.6875
20
-40.875
11
159.6875
21
-41.625
0
LINE
8
0
10
159.6875
20
-44.725
11
159.6875
21
-50.525
0
LINE
8
0
10
159.6875
20
-53.625
11
159.6875
21
-54.375
0
ARC
8
0
10
159.1375
20
-44.475
40
0.25
50
180
51
270
0
ARC
8
0
10
174.2375
20
-44.475
40
0.25
50
270
51
0
0
ARC
8
0
10
174.2375
20
-41.875
40
0.25
50
0
51
90
0
ARC
8
0
10
159.1375
20
-41.875
40
0.25
50
90
51
180
0
LINE
8
0
10
159.1375
20
-44.725
11
159.6875
21
-44.725
0
LINE
8
0
10
173.6875
20
-44.725
11
174.2375
21
-44.725
0
LINE
8
0
10
174.2375
20
-41.625
11
173.6875
21
-41.625
0
LINE
8
0
10
159.6875
20
-41.625
11
159.1375
21
-41.625
0
LINE
8
0
10
174.4875
20
-44.475
11
174.4875
21
-41.875
0
LINE
8
0
10
158.8875
20
-41.875
11
158.8875
21
-44.475
0
ARC
8
0
10
159.1375
20
-53.375
40
0.25
50
180
51
270
0
ARC
8
0
10
174.2375
20
-53.375
40
0.25
50
270
51
0
0
ARC
8
0
10
174.2375
20
-50.775
40
0.25
50
0
51
90
0
ARC
8
0
10
159.1375
20
-50.775
40
0.25
50
90
51
180
0
LINE
8
0
10
159.1375
20
-53.625
11
159.6875
21
-53.625
0
LINE
8
0
10
173.6875
20
-53.625
11
174.2375
21
-53.625
0
LINE
8
0
10
174.2375
20
-50.525
11
173.6875
21
-50.525
0
LINE
8
0
10
159.6875
20
-50.525
11
159.1375
21
-50.525
0
LINE
8
0
10
174.4875
20
-53.375
11
174.4875
21
-50.775
0
LINE
8
0
10
158.8875
20
-50.775
11
158.8875
21
-53.375
0
ARC
8
0
10
178.9875
20
-54.375
40
0.25
50
180
51
270
0
ARC
8
0
10
192.4875
20
-54.375
40
0.25
50
270
51
0
0
ARC
8
0
10
192.4875
20
-40.875
40
0.25
50
0
51
90
0
ARC
8
0
10
178.9875
20
-40.875
40
0.25
50
90
51
180
0
LINE
8
0
10
178.9875
20
-54.625
11
192.4875
21
-54.625
0
LINE
8
0
10
192.4875
20
-40.625
11
178.9875
21
-40.625
0
LINE
8
0
10
192.7375
20
-54.375
11
192.7375
21
-53.625
0
LINE
8
0
10
192.7375
20
-50.525
11
192.7375
21
-44.725
0
LINE
8
0
10
192.7375
20
-41.625
11
192.7375
21
-40.875
0
LINE
8
0
10
178.7375
20
-40.875
11
178.7375
21
-41.625
0
LINE
8
0
10
178.7375
20
-44.725
11
178.7375
21
-50.525
0
LINE
8
0
10
178.7375
20
-53.625
11
178.7375
21
-54.375
0
ARC
8
0
10
178.1875
20
-44.475
40
0.25
50
180
51
270
0
ARC
8
0
10
193.2875
20
-44.475
40
0.25
50
270
51
0
0
ARC
8
0
10
193.2875
20
-41.875
40
0.25
50
0
51
90
0
ARC
8
0
10
178.1875
20
-41.875
40
0.25
50
90
51
180
0
LINE
8
0
10
178.1875
20
-44.725
11
178.7375
21
-44.725
0
LINE
8
0
10
192.7375
20
-44.725
11
193.2875
21
-44.725
0
LINE
8
0
10
193.2875
20
-41.625
11
192.7375
21
-41.625
0
LINE
8
0
10
178.7375
20
-41.625
11
178.1875
21
-41.625
0
LINE
8
0
10
193.5375
20
-44.475
11
193.5375
21
-41.875
0
LINE
8
0
10
177.9375
20
-41.875
11
177.9375
21
-44.475
0
ARC
8
0
10
178.1875
20
-53.375
40
0.25
50
180
51
270
0
ARC
8
0
10
193.2875
20
-53.375
40
0.25
50
270
51
0
0
ARC
8
0
10
193.2875
20
-50.775
40
0.25
50
0
51
90
0
ARC
8
0
10
178.1875
20
-50.775
40
0.25
50
90
51
180
0
LINE
8
0
10
178.1875
20
-53.625
11
178.7375
21
-53.625
0
LINE
8
0
10
192.7375
20
-53.625
11
193.2875
21
-53.625
0
LINE
8
0
10
193.2875
20
-50.525
11
192.7375
21
-50.525
0
LINE
8
0
10
178.7375
20
-50.525
11
178.1875
21
-50.525
0
LINE
8
0
10
193.5375
20
-53.375
11
193.5375
21
-50.775
0
LINE
8
0
10
177.9375
20
-50.775
11
177.9375
21
-53.375
0
ARC
8
0
10
2.775
20
-73.425
40
0.25
50
180
51
270
0
ARC
8
0
10
16.275
20
-73.425
40
0.25
50
270
51
0
0
ARC
8
0
10
16.275
20
-59.925
40
0.25
50
0
51
90
0
ARC
8
0
10
2.775
20
-59.925
40
0.25
50
90
51
180
0
LINE
8
0
10
2.775
20
-73.675
11
16.275
21
-73.675
0
LINE
8
0
10
16.275
20
-59.675
11
2.775
21
-59.675
0
LINE
8
0
10
16.525
20
-73.425
11
16.525
21
-72.675
0
LINE
8
0
10
16.525
20
-69.575
11
16.525
21
-63.775
0
LINE
8
0
10
16.525
20
-60.675
11
16.525
21
-59.925
0
LINE
8
0
10
2.525
20
-59.925
11
2.525
21
-60.675
0
LINE
8
0
10
2.525
20
-63.775
11
2.525
21
-69.575
0
LINE
8
0
10
2.525
20
-72.675
11
2.525
21
-73.425
0
ARC
8
0
10
1.975
20
-63.525
40
0.25
50
180
51
270
0
ARC
8
0
10
17.075
20
-63.525
40
0.25
50
270
51
0
0
ARC
8
0
10
17.075
20
-60.925
40
0.25
50
0
51
90
0
ARC
8
0
10
1.975
20
-60.925
40
0.25
50
90
51
180
0
LINE
8
0
10
1.975
20
-63.775
11
2.525
21
-63.775
0
LINE
8
0
10
16.525
20
-63.775
11
17.075
21
-63.775
0
LINE
8
0
10
17.075
20
-60.675
11
16.525
21
-60.675
0
LINE
8
0
10
2.525
20
-60.675
11
1.975
21
-60.675
0
LINE
8
0
10
17.325
20
-63.525
11
17.325
21
-60.925
0
LINE
8
0
10
1.725
20
-60.925
11
1.725
21
-63.525
0
ARC
8
0
10
1.975
20
-72.425
40
0.25
50
180
51
270
0
ARC
8
0
10
17.075
20
-72.425
40
0.25
50
270
51
0
0
ARC
8
0
10
17.075
20
-69.825
40
0.25
50
0
51
90
0
ARC
8
0
10
1.975
20
-69.825
40
0.25
50
90
51
180
0
LINE
8
0
10
1.975
20
-72.675
11
2.525
21
-72.675
0
LINE
8
0
10
16.525
20
-72.675
11
17.075
21
-72.675
0
LINE
8
0
10
17.075
20
-69.575
11
16.525
21
-69.575
0
LINE
8
0
10
2.525
20
-69.575
11
1.975
21
-69.575
0
LINE
8
0
10
17.325
20
-72.425
11
17.325
21
-69.825
0
LINE
8
0
10
1.725
20
-69.825
11
1.725
21
-72.425
0
ARC
8
0
10
33.73125
20
-73.425
40
0.25
50
180
51
270
0
ARC
8
0
10
47.23125
20
-73.425
40
0.25
50
270
51
0
0
ARC
8
0
10
47.23125
20
-59.925
40
0.25
50
0
51
90
0
ARC
8
0
10
33.73125
20
-59.925
40
0.25
50
90
51
180
0
LINE
8
0
10
33.73125
20
-73.675
11
47.23125
21
-73.675
0
LINE
8
0
10
47.23125
20
-59.675
11
33.73125
21
-59.675
0
LINE
8
0
10
47.48125
20
-73.425
11
47.48125
21
-72.675
0
LINE
8
0
10
47.48125
20
-69.575
11
47.48125
21
-63.775
0
LINE
8
0
10
47.48125
20
-60.675
11
47.48125
21
-59.925
0
LINE
8
0
10
33.48125
20
-59.925
11
33.48125
21
-60.675
0
LINE
8
0
10
33.48125
20
-63.775
11
33.48125
21
-69.575
0
LINE
8
0
10
33.48125
20
-72.675
11
33.48125
21
-73.425
0
ARC
8
0
10
32.93125
20
-63.525
40
0.25
50
180
51
270
0
ARC
8
0
10
48.03125
20
-63.525
40
0.25
50
270
51
0
0
ARC
8
0
10
48.03125
20
-60.925
40
0.25
50
0
51
90
0
ARC
8
0
10
32.93125
20
-60.925
40
0.25
50
90
51
180
0
LINE
8
0
10
32.93125
20
-63.775
11
33.48125
21
-63.775
0
LINE
8
0
10
47.48125
20
-63.775
11
48.03125
21
-63.775
0
LINE
8
0
10
48.03125
20
-60.675
11
47.48125
21
-60.675
0
LINE
8
0
10
33.48125
20
-60.675
11
32.93125
21
-60.675
0
LINE
8
0
10
48.28125
20
-63.525
11
48.28125
21
-60.925
0
LINE
8
0
10
32.68125
20
-60.925
11
32.68125
21
-63.525
0
ARC
8
0
10
32.93125
20
-72.425
40
0.25
50
180
51
270
0
ARC
8
0
10
48.03125
20
-72.425
40
0.25
50
270
51
0
0
ARC
8
0
10
48.03125
20
-69.825
40
0.25
50
0
51
90
0
ARC
8
0
10
32.93125
20
-69.825
40
0.25
50
90
51
180
0
LINE
8
0
10
32.93125
20
-72.675
11
33.48125
21
-72.675
0
LINE
8
0
10
47.48125
20
-72.675
11
48.03125
21
-72.675
0
LINE
8
0
10
48.03125
20
-69.575
11
47.48125
21
-69.575
0
LINE
8
0
10
33.48125
20
-69.575
11
32.93125
21
-69.575
0
LINE
8
0
10
48.28125
20
-72.425
11
48.28125
21
-69.825
0
LINE
8
0
10
32.68125
20
-69.825
11
32.68125
21
-72.425
0
ARC
8
0
10
105.16875
20
-73.425
40
0.25
50
180
51
270
0
ARC
8
0
10
118.66875
20
-73.425
40
0.25
50
270
51
0
0
ARC
8
0
10
118.66875
20
-59.925
40
0.25
50
0
51
90
0
ARC
8
0
10
105.16875
20
-59.925
40
0.25
50
90
51
180
0
LINE
8
0
10
105.16875
20
-73.675
11
118.66875
21
-73.675
0
LINE
8
0
10
118.66875
20
-59.675
11
105.16875
21
-59.675
0
LINE
8
0
10
118.91875
20
-73.425
11
118.91875
21
-72.675
0
LINE
8
0
10
118.91875
20
-69.575
11
118.91875
21
-63.775
0
LINE
8
0
10
118.91875
20
-60.675
11
118.91875
21
-59.925
0
LINE
8
0
10
104.91875
20
-59.925
11
104.91875
21
-60.675
0
LINE
8
0
10
104.91875
20
-63.775
11
104.91875
21
-69.575
0
LINE
8
0
10
104.91875
20
-72.675
11
104.91875
21
-73.425
0
ARC
8
0
10
104.36875
20
-63.525
40
0.25
50
180
51
270
0
ARC
8
0
10
119.46875
20
-63.525
40
0.25
50
270
51
0
0
ARC
8
0
10
119.46875
20
-60.925
40
0.25
50
0
51
90
0
ARC
8
0
10
104.36875
20
-60.925
40
0.25
50
90
51
180
0
LINE
8
0
10
104.36875
20
-63.775
11
104.91875
21
-63.775
0
LINE
8
0
10
118.91875
20
-63.775
11
119.46875
21
-63.775
0
LINE
8
0
10
119.46875
20
-60.675
11
118.91875
21
-60.675
0
LINE
8
0
10
104.91875
20
-60.675
11
104.36875
21
-60.675
0
LINE
8
0
10
119.71875
20
-63.525
11
119.71875
21
-60.925
0
LINE
8
0
10
104.11875
20
-60.925
11
104.11875
21
-63.525
0
ARC
8
0
10
104.36875
20
-72.425
40
0.25
50
180
51
270
0
ARC
8
0
10
119.46875
20
-72.425
40
0.25
50
270
51
0
0
ARC
8
0
10
119.46875
20
-69.825
40
0.25
50
0
51
90
0
ARC
8
0
10
104.36875
20
-69.825
40
0.25
50
90
51
180
0
LINE
8
0
10
104.36875
20
-72.675
11
104.91875
21
-72.675
0
LINE
8
0
10
118.91875
20
-72.675
11
119.46875
21
-72.675
0
LINE
8
0
10
119.46875
20
-69.575
11
118.91875
21
-69.575
0
LINE
8
0
10
104.91875
20
-69.575
11
104.36875
21
-69.575
0
LINE
8
0
10
119.71875
20
-72.425
11
119.71875
21
-69.825
0
LINE
8
0
10
104.11875
20
-69.825
11
104.11875
21
-72.425
0
ARC
8
0
10
59.04375
20
-74.175
40
0.5
50
180
51
270
0
ARC
8
0
10
64.79375
20
-74.175
40
0.5
50
270
51
0
0
ARC
8
0
10
64.79375
20
-61.175
40
0.5
50
0
51
90
0
ARC
8
0
10
59.04375
20
-61.175
40
0.5
50
90
51
180
0
LINE
8
0
10
59.04375
20
-74.675
11
64.79375
21
-74.675
0
LINE
8
0
10
64.79375
20
-60.675
11
59.04375
21
-60.675
0
LINE
8
0
10
65.29375
20
-74.175
11
65.29375
21
-61.175
0
LINE
8
0
10
58.54375
20
-61.175
11
58.54375
21
-74.175
0
ARC
8
0
10
159.04375
20
-74.175
40
0.5
50
180
51
270
0
ARC
8
0
10
164.79375
20
-74.175
40
0.5
50
270
51
0
0
ARC
8
0
10
164.79375
20
-61.175
40
0.5
50
0
51
90
0
ARC
8
0
10
159.04375
20
-61.175
40
0.5
50
90
51
180
0
LINE
8
0
10
159.04375
20
-74.675
11
164.79375
21
-74.675
0
LINE
8
0
10
164.79375
20
-60.675
11
159.04375
21
-60.675
0
LINE
8
0
10
165.29375
20
-74.175
11
165.29375
21
-61.175
0
LINE
8
0
10
158.54375
20
-61.175
11
158.54375
21
-74.175
0
ARC
8
0
10
176.60625
20
-73.425
40
0.25
50
180
51
270
0
ARC
8
0
10
190.10625
20
-73.425
40
0.25
50
270
51
0
0
ARC
8
0
10
190.10625
20
-59.925
40
0.25
50
0
51
90
0
ARC
8
0
10
176.60625
20
-59.925
40
0.25
50
90
51
180
0
LINE
8
0
10
176.60625
20
-73.675
11
190.10625
21
-73.675
0
LINE
8
0
10
190.10625
20
-59.675
11
176.60625
21
-59.675
0
LINE
8
0
10
190.35625
20
-73.425
11
190.35625
21
-72.675
0
LINE
8
0
10
190.35625
20
-69.575
11
190.35625
21
-63.775
0
LINE
8
0
10
190.35625
20
-60.675
11
190.35625
21
-59.925
0
LINE
8
0
10
176.35625
20
-59.925
11
176.35625
21
-60.675
0
LINE
8
0
10
176.35625
20
-63.775
11
176.35625
21
-69.575
0
LINE
8
0
10
176.35625
20
-72.675
11
176.35625
21
-73.425
0
ARC
8
0
10
175.80625
20
-63.525
40
0.25
50
180
51
270
0
ARC
8
0
10
190.90625
20
-63.525
40
0.25
50
270
51
0
0
ARC
8
0
10
190.90625
20
-60.925
40
0.25
50
0
51
90
0
ARC
8
0
10
175.80625
20
-60.925
40
0.25
50
90
51
180
0
LINE
8
0
10
175.80625
20
-63.775
11
176.35625
21
-63.775
0
LINE
8
0
10
190.35625
20
-63.775
11
190.90625
21
-63.775
0
LINE
8
0
10
190.90625
20
-60.675
11
190.35625
21
-60.675
0
LINE
8
0
10
176.35625
20
-60.675
11
175.80625
21
-60.675
0
LINE
8
0
10
191.15625
20
-63.525
11
191.15625
21
-60.925
0
LINE
8
0
10
175.55625
20
-60.925
11
175.55625
21
-63.525
0
ARC
8
0
10
175.80625
20
-72.425
40
0.25
50
180
51
270
0
ARC
8
0
10
190.90625
20
-72.425
40
0.25
50
270
51
0
0
ARC
8
0
10
190.90625
20
-69.825
40
0.25
50
0
51
90
0
ARC
8
0
10
175.80625
20
-69.825
40
0.25
50
90
51
180
0
LINE
8
0
10
175.80625
20
-72.675
11
176.35625
21
-72.675
0
LINE
8
0
10
190.35625
20
-72.675
11
190.90625
21
-72.675
0
LINE
8
0
10
190.90625
20
-69.575
11
190.35625
21
-69.575
0
LINE
8
0
10
176.35625
20
-69.575
11
175.80625
21
-69.575
0
LINE
8
0
10
191.15625
20
-72.425
11
191.15625
21
-69.825
0
LINE
8
0
10
175.55625
20
-69.825
11
175.55625
21
-72.425
0
ARC
8
0
10
200.41875
20
-73.425
40
0.25
50
180
51
270
0
ARC
8
0
10
213.91875
20
-73.425
40
0.25
50
270
51
0
0
ARC
8
0
10
213.91875
20
-59.925
40
0.25
50
0
51
90
0
ARC
8
0
10
200.41875
20
-59.925
40
0.25
50
90
51
180
0
LINE
8
0
10
200.41875
20
-73.675
11
213.91875
21
-73.675
0
LINE
8
0
10
213.91875
20
-59.675
11
200.41875
21
-59.675
0
LINE
8
0
10
214.16875
20
-73.425
11
214.16875
21
-72.675
0
LINE
8
0
10
214.16875
20
-69.575
11
214.16875
21
-63.775
0
LINE
8
0
10
214.16875
20
-60.675
11
214.16875
21
-59.925
0
LINE
8
0
10
200.16875
20
-59.925
11
200.16875
21
-60.675
0
LINE
8
0
10
200.16875
20
-63.775
11
200.16875
21
-69.575
0
LINE
8
0
10
200.16875
20
-72.675
11
200.16875
21
-73.425
0
ARC
8
0
10
199.61875
20
-63.525
40
0.25
50
180
51
270
0
ARC
8
0
10
214.71875
20
-63.525
40
0.25
50
270
51
0
0
ARC
8
0
10
214.71875
20
-60.925
40
0.25
50
0
51
90
0
ARC
8
0
10
199.61875
20
-60.925
40
0.25
50
90
51
180
0
LINE
8
0
10
199.61875
20
-63.775
11
200.16875
21
-63.775
0
LINE
8
0
10
214.16875
20
-63.775
11
214.71875
21
-63.775
0
LINE
8
0
10
214.71875
20
-60.675
11
214.16875
21
-60.675
0
LINE
8
0
10
200.16875
20
-60.675
11
199.61875
21
-60.675
0
LINE
8
0
10
214.96875
20
-63.525
11
214.96875
21
-60.925
0
LINE
8
0
10
199.36875
20
-60.925
11
199.36875
21
-63.525
0
ARC
8
0
10
199.61875
20
-72.425
40
0.25
50
180
51
270
0
ARC
8
0
10
214.71875
20
-72.425
40
0.25
50
270
51
0
0
ARC
8
0
10
214.71875
20
-69.825
40
0.25
50
0
51
90
0
ARC
8
0
10
199.61875
20
-69.825
40
0.25
50
90
51
180
0
LINE
8
0
10
199.61875
20
-72.675
11
200.16875
21
-72.675
0
LINE
8
0
10
214.16875
20
-72.675
11
214.71875
21
-72.675
0
LINE
8
0
10
214.71875
20
-69.575
11
214.16875
21
-69.575
0
LINE
8
0
10
200.16875
20
-69.575
11
199.61875
21
-69.575
0
LINE
8
0
10
214.96875
20
-72.425
11
214.96875
21
-69.825
0
LINE
8
0
10
199.36875
20
-69.825
11
199.36875
21
-72.425
0
ENDSEC
0
EOF