  0
SECTION
  2
HEADER
  9
$ACADVER
  1
AC1009
  9
$FILLMODE
 70
 0
  9
$SPLFRAME
 70
 1
  9
$EXTMIN
 10
0
 20
0
 30
0.0
  9
$EXTMAX
 10
41.6667
 20
41.6667
 30
0.0
  0
ENDSEC
  0
SECTION
  2
TABLES
  0
TABLE
  2
LAYER
 70
1
  0
LAYER
  2
0
 70
     0
 62
     7
  6
CONTINUOUS
  0
ENDTAB
  0
ENDSEC
  0
SECTION
  2
ENTITIES
  0
POLYLINE
  8
0
 62
     0
 66
     1
 10
0
 20
0
 30
0.0
 70
     1
 40
0.5
 41
0.5
  0
VERTEX
  8
0
 10
0.210938
 20
1.68056
 30
0.0
 40
0.00694444
 41
0.00694444
  0
VERTEX
  8
0
 10
0.203342
 20
1.68056
 30
0.0
 40
0.00694444
 41
0.00694444
  0
VERTEX
  8
0
 10
0.18061
 20
1.67449
 30
0.0
 40
0.00694444
 41
0.00694444
  0
VERTEX
  8
0
 10
0.155925
 20
1.65776
 30
0.0
 40
0.00694444
 41
0.00694444
  0
VERTEX
  8
0
 10
0.139214
 20
1.63308
 30
0.0
 40
0.00694444
 41
0.00694444
  0
VERTEX
  8
0
 10
0.133138
 20
1.61035
 30
0.0
 40
0.00694444
 41
0.00694444
  0
VERTEX
  8
0
 10
0.133138
 20
1.60275
 30
0.0
 40
0.00694444
 41
0.00694444
  0
VERTEX
  8
0
 10
0.133138
 20
1.57161
 30
0.0
 40
0.00694444
 41
0.00694444
  0
VERTEX
  8
0
 10
0.133138
 20
1.47819
 30
0.0
 40
0.00694444
 41
0.00694444
  0
VERTEX
  8
0
 10
0.133138
 20
1.31163
 30
0.0
 40
0.00694444
 41
0.00694444
  0
VERTEX
  8
0
 10
0.133138
 20
1.11702
 30
0.0
 40
0.00694444
 41
0.00694444
  0
VERTEX
  8
0
 10
0.133138
 20
0.908421
 30
0.0
 40
0.00694444
 41
0.00694444
  0
VERTEX
  8
0
 10
0.133138
 20
0.699653
 30
0.0
 40
0.00694444
 41
0.00694444
  0
VERTEX
  8
0
 10
0.133138
 20
0.504719
 30
0.0
 40
0.00694444
 41
0.00694444
  0
VERTEX
  8
0
 10
0.133138
 20
0.337565
 30
0.0
 40
0.00694444
 41
0.00694444
  0
VERTEX
  8
0
 10
0.133138
 20
0.24349
 30
0.0
 40
0.00694444
 41
0.00694444
  0
VERTEX
  8
0
 10
0.133138
 20
0.212076
 30
0.0
 40
0.00694444
 41
0.00694444
  0
VERTEX
  8
0
 10
0.133138
 20
0.204482
 30
0.0
 40
0.00694444
 41
0.00694444
  0
VERTEX
  8
0
 10
0.13916
 20
0.181694
 30
0.0
 40
0.00694444
 41
0.00694444
  0
VERTEX
  8
0
 10
0.152724
 20
0.159614
 30
0.0
 40
0.00694444
 41
0.00694444
  0
VERTEX
  8
0
 10
0.156467
 20
0.155871
 30
0.0
 40
0.00694444
 41
0.00694444
  0
VERTEX
  8
0
 10
0.160157
 20
0.152181
 30
0.0
 40
0.00694444
 41
0.00694444
  0
VERTEX
  8
0
 10
0.182238
 20
0.138618
 30
0.0
 40
0.00694444
 41
0.00694444
  0
VERTEX
  8
0
 10
0.205024
 20
0.132541
 30
0.0
 40
0.00694444
 41
0.00694444
  0
VERTEX
  8
0
 10
0.212674
 20
0.132541
 30
0.0
 40
0.00694444
 41
0.00694444
  0
VERTEX
  8
0
 10
0.236219
 20
0.132541
 30
0.0
 40
0.00694444
 41
0.00694444
  0
VERTEX
  8
0
 10
0.306913
 20
0.132541
 30
0.0
 40
0.00694444
 41
0.00694444
  0
VERTEX
  8
0
 10
0.434517
 20
0.132541
 30
0.0
 40
0.00694444
 41
0.00694444
  0
VERTEX
  8
0
 10
0.593317
 20
0.132541
 30
0.0
 40
0.00694444
 41
0.00694444
  0
VERTEX
  8
0
 10
0.780979
 20
0.132541
 30
0.0
 40
0.00694444
 41
0.00694444
  0
VERTEX
  8
0
 10
0.995335
 20
0.132541
 30
0.0
 40
0.00694444
 41
0.00694444
  0
VERTEX
  8
0
 10
1.23421
 20
0.132541
 30
0.0
 40
0.00694444
 41
0.00694444
  0
VERTEX
  8
0
 10
1.49522
 20
0.132541
 30
0.0
 40
0.00694444
 41
0.00694444
  0
VERTEX
  8
0
 10
1.77632
 20
0.132541
 30
0.0
 40
0.00694444
 41
0.00694444
  0
VERTEX
  8
0
 10
2.07519
 20
0.132541
 30
0.0
 40
0.00694444
 41
0.00694444
  0
VERTEX
  8
0
 10
2.3896
 20
0.132541
 30
0.0
 40
0.00694444
 41
0.00694444
  0
VERTEX
  8
0
 10
2.71733
 20
0.132541
 30
0.0
 40
0.00694444
 41
0.00694444
  0
VERTEX
  8
0
 10
3.05615
 20
0.132541
 30
0.0
 40
0.00694444
 41
0.00694444
  0
VERTEX
  8
0
 10
3.40386
 20
0.132541
 30
0.0
 40
0.00694444
 41
0.00694444
  0
VERTEX
  8
0
 10
3.75825
 20
0.132541
 30
0.0
 40
0.00694444
 41
0.00694444
  0
VERTEX
  8
0
 10
4.11703
 20
0.132541
 30
0.0
 40
0.00694444
 41
0.00694444
  0
VERTEX
  8
0
 10
4.47803
 20
0.132541
 30
0.0
 40
0.00694444
 41
0.00694444
  0
VERTEX
  8
0
 10
4.83897
 20
0.132541
 30
0.0
 40
0.00694444
 41
0.00694444
  0
VERTEX
  8
0
 10
5.19769
 20
0.132541
 30
0.0
 40
0.00694444
 41
0.00694444
  0
VERTEX
  8
0
 10
5.55192
 20
0.132541
 30
0.0
 40
0.00694444
 41
0.00694444
  0
VERTEX
  8
0
 10
5.89942
 20
0.132541
 30
0.0
 40
0.00694444
 41
0.00694444
  0
VERTEX
  8
0
 10
6.23801
 20
0.132541
 30
0.0
 40
0.00694444
 41
0.00694444
  0
VERTEX
  8
0
 10
6.56543
 20
0.132541
 30
0.0
 40
0.00694444
 41
0.00694444
  0
VERTEX
  8
0
 10
6.8795
 20
0.132541
 30
0.0
 40
0.00694444
 41
0.00694444
  0
VERTEX
  8
0
 10
7.1779
 20
0.132541
 30
0.0
 40
0.00694444
 41
0.00694444
  0
VERTEX
  8
0
 10
7.4585
 20
0.132541
 30
0.0
 40
0.00694444
 41
0.00694444
  0
VERTEX
  8
0
 10
7.71903
 20
0.132541
 30
0.0
 40
0.00694444
 41
0.00694444
  0
VERTEX
  8
0
 10
7.95725
 20
0.132541
 30
0.0
 40
0.00694444
 41
0.00694444
  0
VERTEX
  8
0
 10
8.17096
 20
0.132541
 30
0.0
 40
0.00694444
 41
0.00694444
  0
VERTEX
  8
0
 10
8.35792
 20
0.132541
 30
0.0
 40
0.00694444
 41
0.00694444
  0
VERTEX
  8
0
 10
8.5159
 20
0.132541
 30
0.0
 40
0.00694444
 41
0.00694444
  0
VERTEX
  8
0
 10
8.64268
 20
0.132541
 30
0.0
 40
0.00694444
 41
0.00694444
  0
VERTEX
  8
0
 10
8.71272
 20
0.132541
 30
0.0
 40
0.00694444
 41
0.00694444
  0
VERTEX
  8
0
 10
8.73611
 20
0.132541
 30
0.0
 40
0.00694444
 41
0.00694444
  0
VERTEX
  8
0
 10
8.74365
 20
0.132541
 30
0.0
 40
0.00694444
 41
0.00694444
  0
VERTEX
  8
0
 10
8.76628
 20
0.138672
 30
0.0
 40
0.00694444
 41
0.00694444
  0
VERTEX
  8
0
 10
8.79096
 20
0.155274
 30
0.0
 40
0.00694444
 41
0.00694444
  0
VERTEX
  8
0
 10
8.80757
 20
0.179958
 30
0.0
 40
0.00694444
 41
0.00694444
  0
VERTEX
  8
0
 10
8.81369
 20
0.202582
 30
0.0
 40
0.00694444
 41
0.00694444
  0
VERTEX
  8
0
 10
8.81369
 20
0.210124
 30
0.0
 40
0.00694444
 41
0.00694444
  0
VERTEX
  8
0
 10
8.81369
 20
0.254883
 30
0.0
 40
0.00694444
 41
0.00694444
  0
VERTEX
  8
0
 10
8.81369
 20
0.388997
 30
0.0
 40
0.00694444
 41
0.00694444
  0
VERTEX
  8
0
 10
8.81369
 20
0.644586
 30
0.0
 40
0.00694444
 41
0.00694444
  0
VERTEX
  8
0
 10
8.81369
 20
0.951389
 30
0.0
 40
0.00694444
 41
0.00694444
  0
VERTEX
  8
0
 10
8.81369
 20
1.28385
 30
0.0
 40
0.00694444
 41
0.00694444
  0
VERTEX
  8
0
 10
8.81369
 20
1.61649
 30
0.0
 40
0.00694444
 41
0.00694444
  0
VERTEX
  8
0
 10
8.81369
 20
1.92361
 30
0.0
 40
0.00694444
 41
0.00694444
  0
VERTEX
  8
0
 10
8.81369
 20
2.17979
 30
0.0
 40
0.00694444
 41
0.00694444
  0
VERTEX
  8
0
 10
8.81369
 20
2.31451
 30
0.0
 40
0.00694444
 41
0.00694444
  0
VERTEX
  8
0
 10
8.81369
 20
2.35938
 30
0.0
 40
0.00694444
 41
0.00694444
  0
VERTEX
  8
0
 10
8.81369
 20
2.36692
 30
0.0
 40
0.00694444
 41
0.00694444
  0
VERTEX
  8
0
 10
8.80767
 20
2.38954
 30
0.0
 40
0.00694444
 41
0.00694444
  0
VERTEX
  8
0
 10
8.79432
 20
2.41135
 30
0.0
 40
0.00694444
 41
0.00694444
  0
VERTEX
  8
0
 10
8.79064
 20
2.41504
 30
0.0
 40
0.00694444
 41
0.00694444
  0
VERTEX
  8
0
 10
8.78694
 20
2.41872
 30
0.0
 40
0.00694444
 41
0.00694444
  0
VERTEX
  8
0
 10
8.76508
 20
2.43213
 30
0.0
 40
0.00694444
 41
0.00694444
  0
VERTEX
  8
0
 10
8.74246
 20
2.4381
 30
0.0
 40
0.00694444
 41
0.00694444
  0
VERTEX
  8
0
 10
8.73497
 20
2.4381
 30
0.0
 40
0.00694444
 41
0.00694444
  0
VERTEX
  8
0
 10
8.71208
 20
2.4381
 30
0.0
 40
0.00694444
 41
0.00694444
  0
VERTEX
  8
0
 10
8.64356
 20
2.4381
 30
0.0
 40
0.00694444
 41
0.00694444
  0
VERTEX
  8
0
 10
8.52024
 20
2.4381
 30
0.0
 40
0.00694444
 41
0.00694444
  0
VERTEX
  8
0
 10
8.36724
 20
2.4381
 30
0.0
 40
0.00694444
 41
0.00694444
  0
VERTEX
  8
0
 10
8.18658
 20
2.4381
 30
0.0
 40
0.00694444
 41
0.00694444
  0
VERTEX
  8
0
 10
7.98047
 20
2.4381
 30
0.0
 40
0.00694444
 41
0.00694444
  0
VERTEX
  8
0
 10
7.75103
 20
2.4381
 30
0.0
 40
0.00694444
 41
0.00694444
  0
VERTEX
  8
0
 10
7.50032
 20
2.4381
 30
0.0
 40
0.00694444
 41
0.00694444
  0
VERTEX
  8
0
 10
7.23058
 20
2.4381
 30
0.0
 40
0.00694444
 41
0.00694444
  0
VERTEX
  8
0
 10
6.9439
 20
2.4381
 30
0.0
 40
0.00694444
 41
0.00694444
  0
VERTEX
  8
0
 10
6.64236
 20
2.4381
 30
0.0
 40
0.00694444
 41
0.00694444
  0
VERTEX
  8
0
 10
6.32813
 20
2.4381
 30
0.0
 40
0.00694444
 41
0.00694444
  0
VERTEX
  8
0
 10
6.00336
 20
2.4381
 30
0.0
 40
0.00694444
 41
0.00694444
  0
VERTEX
  8
0
 10
5.67019
 20
2.4381
 30
0.0
 40
0.00694444
 41
0.00694444
  0
VERTEX
  8
0
 10
5.33068
 20
2.4381
 30
0.0
 40
0.00694444
 41
0.00694444
  0
VERTEX
  8
0
 10
4.98703
 20
2.4381
 30
0.0
 40
0.00694444
 41
0.00694444
  0
VERTEX
  8
0
 10
4.64139
 20
2.4381
 30
0.0
 40
0.00694444
 41
0.00694444
  0
VERTEX
  8
0
 10
4.29579
 20
2.4381
 30
0.0
 40
0.00694444
 41
0.00694444
  0
VERTEX
  8
0
 10
3.95247
 20
2.4381
 30
0.0
 40
0.00694444
 41
0.00694444
  0
VERTEX
  8
0
 10
3.6135
 20
2.4381
 30
0.0
 40
0.00694444
 41
0.00694444
  0
VERTEX
  8
0
 10
3.28108
 20
2.4381
 30
0.0
 40
0.00694444
 41
0.00694444
  0
VERTEX
  8
0
 10
2.95725
 20
2.4381
 30
0.0
 40
0.00694444
 41
0.00694444
  0
VERTEX
  8
0
 10
2.64415
 20
2.4381
 30
0.0
 40
0.00694444
 41
0.00694444
  0
VERTEX
  8
0
 10
2.34403
 20
2.4381
 30
0.0
 40
0.00694444
 41
0.00694444
  0
VERTEX
  8
0
 10
2.05886
 20
2.4381
 30
0.0
 40
0.00694444
 41
0.00694444
  0
VERTEX
  8
0
 10
1.7909
 20
2.4381
 30
0.0
 40
0.00694444
 41
0.00694444
  0
VERTEX
  8
0
 10
1.54221
 20
2.4381
 30
0.0
 40
0.00694444
 41
0.00694444
  0
VERTEX
  8
0
 10
1.31494
 20
2.4381
 30
0.0
 40
0.00694444
 41
0.00694444
  0
VERTEX
  8
0
 10
1.11122
 20
2.4381
 30
0.0
 40
0.00694444
 41
0.00694444
  0
VERTEX
  8
0
 10
0.933214
 20
2.4381
 30
0.0
 40
0.00694444
 41
0.00694444
  0
VERTEX
  8
0
 10
0.78304
 20
2.4381
 30
0.0
 40
0.00694444
 41
0.00694444
  0
VERTEX
  8
0
 10
0.662761
 20
2.4381
 30
0.0
 40
0.00694444
 41
0.00694444
  0
VERTEX
  8
0
 10
0.596679
 20
2.4381
 30
0.0
 40
0.00694444
 41
0.00694444
  0
VERTEX
  8
0
 10
0.574653
 20
2.4381
 30
0.0
 40
0.00694444
 41
0.00694444
  0
VERTEX
  8
0
 10
0.567654
 20
2.4381
 30
0.0
 40
0.00694444
 41
0.00694444
  0
VERTEX
  8
0
 10
0.546713
 20
2.43251
 30
0.0
 40
0.00694444
 41
0.00694444
  0
VERTEX
  8
0
 10
0.523872
 20
2.41715
 30
0.0
 40
0.00694444
 41
0.00694444
  0
VERTEX
  8
0
 10
0.508464
 20
2.39442
 30
0.0
 40
0.00694444
 41
0.00694444
  0
VERTEX
  8
0
 10
0.502767
 20
2.37354
 30
0.0
 40
0.00694444
 41
0.00694444
  0
VERTEX
  8
0
 10
0.502767
 20
2.36654
 30
0.0
 40
0.00694444
 41
0.00694444
  0
VERTEX
  8
0
 10
0.502604
 20
2.33328
 30
0.0
 40
0.00694444
 41
0.00694444
  0
VERTEX
  8
0
 10
0.502225
 20
2.23335
 30
0.0
 40
0.00694444
 41
0.00694444
  0
VERTEX
  8
0
 10
0.501519
 20
2.067
 30
0.0
 40
0.00694444
 41
0.00694444
  0
VERTEX
  8
0
 10
0.500868
 20
1.89925
 30
0.0
 40
0.00694444
 41
0.00694444
  0
VERTEX
  8
0
 10
0.500435
 20
1.79617
 30
0.0
 40
0.00694444
 41
0.00694444
  0
VERTEX
  8
0
 10
0.500325
 20
1.76178
 30
0.0
 40
0.00694444
 41
0.00694444
  0
VERTEX
  8
0
 10
0.500271
 20
1.7539
 30
0.0
 40
0.00694444
 41
0.00694444
  0
VERTEX
  8
0
 10
0.493815
 20
1.73014
 30
0.0
 40
0.00694444
 41
0.00694444
  0
VERTEX
  8
0
 10
0.476292
 20
1.70432
 30
0.0
 40
0.00694444
 41
0.00694444
  0
VERTEX
  8
0
 10
0.450412
 20
1.68696
 30
0.0
 40
0.00694444
 41
0.00694444
  0
VERTEX
  8
0
 10
0.42665
 20
1.68056
 30
0.0
 40
0.00694444
 41
0.00694444
  0
VERTEX
  8
0
 10
0.418782
 20
1.68056
 30
0.0
 40
0.00694444
 41
0.00694444
  0
VERTEX
  8
0
 10
0.392686
 20
1.68056
 30
0.0
 40
0.00694444
 41
0.00694444
  0
VERTEX
  8
0
 10
0.314507
 20
1.68056
 30
0.0
 40
0.00694444
 41
0.00694444
  0
VERTEX
  8
0
 10
0.236817
 20
1.68056
 30
0.0
 40
0.00694444
 41
0.00694444
  0
VERTEX
  8
0
 10
0.210938
 20
1.68056
 30
0.0
 40
0.00694444
 41
0.00694444
  0
SEQEND
 8
0
  0
POLYLINE
  8
0
 62
     0
 66
     1
 10
0
 20
0
 30
0.0
 70
     1
 40
0.5
 41
0.5
  0
VERTEX
  8
0
 10
1.20139
 20
0.291667
 30
0.0
 40
0.00694444
 41
0.00694444
  0
VERTEX
  8
0
 10
1.20611
 20
0.291667
 30
0.0
 40
0.00694444
 41
0.00694444
  0
VERTEX
  8
0
 10
1.22027
 20
0.287869
 30
0.0
 40
0.00694444
 41
0.00694444
  0
VERTEX
  8
0
 10
1.23573
 20
0.277453
 30
0.0
 40
0.00694444
 41
0.00694444
  0
VERTEX
  8
0
 10
1.24615
 20
0.26199
 30
0.0
 40
0.00694444
 41
0.00694444
  0
VERTEX
  8
0
 10
1.25
 20
0.247831
 30
0.0
 40
0.00694444
 41
0.00694444
  0
VERTEX
  8
0
 10
1.25
 20
0.243056
 30
0.0
 40
0.00694444
 41
0.00694444
  0
VERTEX
  8
0
 10
1.25
 20
0.238336
 30
0.0
 40
0.00694444
 41
0.00694444
  0
VERTEX
  8
0
 10
1.24615
 20
0.224175
 30
0.0
 40
0.00694444
 41
0.00694444
  0
VERTEX
  8
0
 10
1.23573
 20
0.208712
 30
0.0
 40
0.00694444
 41
0.00694444
  0
VERTEX
  8
0
 10
1.22027
 20
0.198296
 30
0.0
 40
0.00694444
 41
0.00694444
  0
VERTEX
  8
0
 10
1.20611
 20
0.194444
 30
0.0
 40
0.00694444
 41
0.00694444
  0
VERTEX
  8
0
 10
1.20139
 20
0.194444
 30
0.0
 40
0.00694444
 41
0.00694444
  0
VERTEX
  8
0
 10
1.19662
 20
0.194444
 30
0.0
 40
0.00694444
 41
0.00694444
  0
VERTEX
  8
0
 10
1.18245
 20
0.198296
 30
0.0
 40
0.00694444
 41
0.00694444
  0
VERTEX
  8
0
 10
1.16699
 20
0.208712
 30
0.0
 40
0.00694444
 41
0.00694444
  0
VERTEX
  8
0
 10
1.15657
 20
0.224175
 30
0.0
 40
0.00694444
 41
0.00694444
  0
VERTEX
  8
0
 10
1.15278
 20
0.238336
 30
0.0
 40
0.00694444
 41
0.00694444
  0
VERTEX
  8
0
 10
1.15278
 20
0.243056
 30
0.0
 40
0.00694444
 41
0.00694444
  0
VERTEX
  8
0
 10
1.15278
 20
0.247831
 30
0.0
 40
0.00694444
 41
0.00694444
  0
VERTEX
  8
0
 10
1.15657
 20
0.26199
 30
0.0
 40
0.00694444
 41
0.00694444
  0
VERTEX
  8
0
 10
1.16699
 20
0.277453
 30
0.0
 40
0.00694444
 41
0.00694444
  0
VERTEX
  8
0
 10
1.18245
 20
0.287869
 30
0.0
 40
0.00694444
 41
0.00694444
  0
VERTEX
  8
0
 10
1.19662
 20
0.291667
 30
0.0
 40
0.00694444
 41
0.00694444
  0
VERTEX
  8
0
 10
1.20139
 20
0.291667
 30
0.0
 40
0.00694444
 41
0.00694444
  0
SEQEND
 8
0
  0
POLYLINE
  8
0
 62
     0
 66
     1
 10
0
 20
0
 30
0.0
 70
     1
 40
0.5
 41
0.5
  0
VERTEX
  8
0
 10
4.28472
 20
0.291667
 30
0.0
 40
0.00694444
 41
0.00694444
  0
VERTEX
  8
0
 10
4.28944
 20
0.291667
 30
0.0
 40
0.00694444
 41
0.00694444
  0
VERTEX
  8
0
 10
4.3036
 20
0.287869
 30
0.0
 40
0.00694444
 41
0.00694444
  0
VERTEX
  8
0
 10
4.31907
 20
0.277453
 30
0.0
 40
0.00694444
 41
0.00694444
  0
VERTEX
  8
0
 10
4.32949
 20
0.26199
 30
0.0
 40
0.00694444
 41
0.00694444
  0
VERTEX
  8
0
 10
4.33333
 20
0.247831
 30
0.0
 40
0.00694444
 41
0.00694444
  0
VERTEX
  8
0
 10
4.33333
 20
0.243056
 30
0.0
 40
0.00694444
 41
0.00694444
  0
VERTEX
  8
0
 10
4.33333
 20
0.238336
 30
0.0
 40
0.00694444
 41
0.00694444
  0
VERTEX
  8
0
 10
4.32949
 20
0.224175
 30
0.0
 40
0.00694444
 41
0.00694444
  0
VERTEX
  8
0
 10
4.31907
 20
0.208712
 30
0.0
 40
0.00694444
 41
0.00694444
  0
VERTEX
  8
0
 10
4.3036
 20
0.198296
 30
0.0
 40
0.00694444
 41
0.00694444
  0
VERTEX
  8
0
 10
4.28944
 20
0.194444
 30
0.0
 40
0.00694444
 41
0.00694444
  0
VERTEX
  8
0
 10
4.28472
 20
0.194444
 30
0.0
 40
0.00694444
 41
0.00694444
  0
VERTEX
  8
0
 10
4.27994
 20
0.194444
 30
0.0
 40
0.00694444
 41
0.00694444
  0
VERTEX
  8
0
 10
4.26579
 20
0.198296
 30
0.0
 40
0.00694444
 41
0.00694444
  0
VERTEX
  8
0
 10
4.25032
 20
0.208712
 30
0.0
 40
0.00694444
 41
0.00694444
  0
VERTEX
  8
0
 10
4.2399
 20
0.224175
 30
0.0
 40
0.00694444
 41
0.00694444
  0
VERTEX
  8
0
 10
4.23611
 20
0.238336
 30
0.0
 40
0.00694444
 41
0.00694444
  0
VERTEX
  8
0
 10
4.23611
 20
0.243056
 30
0.0
 40
0.00694444
 41
0.00694444
  0
VERTEX
  8
0
 10
4.23611
 20
0.247831
 30
0.0
 40
0.00694444
 41
0.00694444
  0
VERTEX
  8
0
 10
4.2399
 20
0.26199
 30
0.0
 40
0.00694444
 41
0.00694444
  0
VERTEX
  8
0
 10
4.25032
 20
0.277453
 30
0.0
 40
0.00694444
 41
0.00694444
  0
VERTEX
  8
0
 10
4.26579
 20
0.287869
 30
0.0
 40
0.00694444
 41
0.00694444
  0
VERTEX
  8
0
 10
4.27994
 20
0.291667
 30
0.0
 40
0.00694444
 41
0.00694444
  0
VERTEX
  8
0
 10
4.28472
 20
0.291667
 30
0.0
 40
0.00694444
 41
0.00694444
  0
SEQEND
 8
0
  0
POLYLINE
  8
0
 62
     0
 66
     1
 10
0
 20
0
 30
0.0
 70
     1
 40
0.5
 41
0.5
  0
VERTEX
  8
0
 10
7.75694
 20
0.291667
 30
0.0
 40
0.00694444
 41
0.00694444
  0
VERTEX
  8
0
 10
7.76167
 20
0.291667
 30
0.0
 40
0.00694444
 41
0.00694444
  0
VERTEX
  8
0
 10
7.77582
 20
0.287869
 30
0.0
 40
0.00694444
 41
0.00694444
  0
VERTEX
  8
0
 10
7.79129
 20
0.277453
 30
0.0
 40
0.00694444
 41
0.00694444
  0
VERTEX
  8
0
 10
7.80171
 20
0.26199
 30
0.0
 40
0.00694444
 41
0.00694444
  0
VERTEX
  8
0
 10
7.80556
 20
0.247831
 30
0.0
 40
0.00694444
 41
0.00694444
  0
VERTEX
  8
0
 10
7.80556
 20
0.243056
 30
0.0
 40
0.00694444
 41
0.00694444
  0
VERTEX
  8
0
 10
7.80556
 20
0.238336
 30
0.0
 40
0.00694444
 41
0.00694444
  0
VERTEX
  8
0
 10
7.80171
 20
0.224175
 30
0.0
 40
0.00694444
 41
0.00694444
  0
VERTEX
  8
0
 10
7.79129
 20
0.208712
 30
0.0
 40
0.00694444
 41
0.00694444
  0
VERTEX
  8
0
 10
7.77582
 20
0.198296
 30
0.0
 40
0.00694444
 41
0.00694444
  0
VERTEX
  8
0
 10
7.76167
 20
0.194444
 30
0.0
 40
0.00694444
 41
0.00694444
  0
VERTEX
  8
0
 10
7.75694
 20
0.194444
 30
0.0
 40
0.00694444
 41
0.00694444
  0
VERTEX
  8
0
 10
7.75217
 20
0.194444
 30
0.0
 40
0.00694444
 41
0.00694444
  0
VERTEX
  8
0
 10
7.73801
 20
0.198296
 30
0.0
 40
0.00694444
 41
0.00694444
  0
VERTEX
  8
0
 10
7.72254
 20
0.208712
 30
0.0
 40
0.00694444
 41
0.00694444
  0
VERTEX
  8
0
 10
7.71213
 20
0.224175
 30
0.0
 40
0.00694444
 41
0.00694444
  0
VERTEX
  8
0
 10
7.70833
 20
0.238336
 30
0.0
 40
0.00694444
 41
0.00694444
  0
VERTEX
  8
0
 10
7.70833
 20
0.243056
 30
0.0
 40
0.00694444
 41
0.00694444
  0
VERTEX
  8
0
 10
7.70833
 20
0.247831
 30
0.0
 40
0.00694444
 41
0.00694444
  0
VERTEX
  8
0
 10
7.71213
 20
0.26199
 30
0.0
 40
0.00694444
 41
0.00694444
  0
VERTEX
  8
0
 10
7.72254
 20
0.277453
 30
0.0
 40
0.00694444
 41
0.00694444
  0
VERTEX
  8
0
 10
7.73801
 20
0.287869
 30
0.0
 40
0.00694444
 41
0.00694444
  0
VERTEX
  8
0
 10
7.75217
 20
0.291667
 30
0.0
 40
0.00694444
 41
0.00694444
  0
VERTEX
  8
0
 10
7.75694
 20
0.291667
 30
0.0
 40
0.00694444
 41
0.00694444
  0
SEQEND
 8
0
  0
POLYLINE
  8
0
 62
     0
 66
     1
 10
0
 20
0
 30
0.0
 70
     1
 40
0.5
 41
0.5
  0
VERTEX
  8
0
 10
8.03472
 20
2.38889
 30
0.0
 40
0.00694444
 41
0.00694444
  0
VERTEX
  8
0
 10
8.03944
 20
2.38889
 30
0.0
 40
0.00694444
 41
0.00694444
  0
VERTEX
  8
0
 10
8.0536
 20
2.3851
 30
0.0
 40
0.00694444
 41
0.00694444
  0
VERTEX
  8
0
 10
8.06907
 20
2.37468
 30
0.0
 40
0.00694444
 41
0.00694444
  0
VERTEX
  8
0
 10
8.07949
 20
2.35921
 30
0.0
 40
0.00694444
 41
0.00694444
  0
VERTEX
  8
0
 10
8.08333
 20
2.34506
 30
0.0
 40
0.00694444
 41
0.00694444
  0
VERTEX
  8
0
 10
8.08333
 20
2.34028
 30
0.0
 40
0.00694444
 41
0.00694444
  0
VERTEX
  8
0
 10
8.08333
 20
2.33556
 30
0.0
 40
0.00694444
 41
0.00694444
  0
VERTEX
  8
0
 10
8.07949
 20
2.3214
 30
0.0
 40
0.00694444
 41
0.00694444
  0
VERTEX
  8
0
 10
8.06907
 20
2.30593
 30
0.0
 40
0.00694444
 41
0.00694444
  0
VERTEX
  8
0
 10
8.0536
 20
2.29551
 30
0.0
 40
0.00694444
 41
0.00694444
  0
VERTEX
  8
0
 10
8.03944
 20
2.29167
 30
0.0
 40
0.00694444
 41
0.00694444
  0
VERTEX
  8
0
 10
8.03472
 20
2.29167
 30
0.0
 40
0.00694444
 41
0.00694444
  0
VERTEX
  8
0
 10
8.02994
 20
2.29167
 30
0.0
 40
0.00694444
 41
0.00694444
  0
VERTEX
  8
0
 10
8.01579
 20
2.29551
 30
0.0
 40
0.00694444
 41
0.00694444
  0
VERTEX
  8
0
 10
8.00032
 20
2.30593
 30
0.0
 40
0.00694444
 41
0.00694444
  0
VERTEX
  8
0
 10
7.9899
 20
2.3214
 30
0.0
 40
0.00694444
 41
0.00694444
  0
VERTEX
  8
0
 10
7.98611
 20
2.33556
 30
0.0
 40
0.00694444
 41
0.00694444
  0
VERTEX
  8
0
 10
7.98611
 20
2.34028
 30
0.0
 40
0.00694444
 41
0.00694444
  0
VERTEX
  8
0
 10
7.98611
 20
2.34506
 30
0.0
 40
0.00694444
 41
0.00694444
  0
VERTEX
  8
0
 10
7.9899
 20
2.35921
 30
0.0
 40
0.00694444
 41
0.00694444
  0
VERTEX
  8
0
 10
8.00032
 20
2.37468
 30
0.0
 40
0.00694444
 41
0.00694444
  0
VERTEX
  8
0
 10
8.01579
 20
2.3851
 30
0.0
 40
0.00694444
 41
0.00694444
  0
VERTEX
  8
0
 10
8.02994
 20
2.38889
 30
0.0
 40
0.00694444
 41
0.00694444
  0
VERTEX
  8
0
 10
8.03472
 20
2.38889
 30
0.0
 40
0.00694444
 41
0.00694444
  0
SEQEND
 8
0
  0
POLYLINE
  8
0
 62
     0
 66
     1
 10
0
 20
0
 30
0.0
 70
     1
 40
0.5
 41
0.5
  0
VERTEX
  8
0
 10
1.28472
 20
2.38889
 30
0.0
 40
0.00694444
 41
0.00694444
  0
VERTEX
  8
0
 10
1.28944
 20
2.38889
 30
0.0
 40
0.00694444
 41
0.00694444
  0
VERTEX
  8
0
 10
1.3036
 20
2.3851
 30
0.0
 40
0.00694444
 41
0.00694444
  0
VERTEX
  8
0
 10
1.31907
 20
2.37468
 30
0.0
 40
0.00694444
 41
0.00694444
  0
VERTEX
  8
0
 10
1.32948
 20
2.35921
 30
0.0
 40
0.00694444
 41
0.00694444
  0
VERTEX
  8
0
 10
1.33333
 20
2.34506
 30
0.0
 40
0.00694444
 41
0.00694444
  0
VERTEX
  8
0
 10
1.33333
 20
2.34028
 30
0.0
 40
0.00694444
 41
0.00694444
  0
VERTEX
  8
0
 10
1.33333
 20
2.33556
 30
0.0
 40
0.00694444
 41
0.00694444
  0
VERTEX
  8
0
 10
1.32948
 20
2.3214
 30
0.0
 40
0.00694444
 41
0.00694444
  0
VERTEX
  8
0
 10
1.31907
 20
2.30593
 30
0.0
 40
0.00694444
 41
0.00694444
  0
VERTEX
  8
0
 10
1.3036
 20
2.29551
 30
0.0
 40
0.00694444
 41
0.00694444
  0
VERTEX
  8
0
 10
1.28944
 20
2.29167
 30
0.0
 40
0.00694444
 41
0.00694444
  0
VERTEX
  8
0
 10
1.28472
 20
2.29167
 30
0.0
 40
0.00694444
 41
0.00694444
  0
VERTEX
  8
0
 10
1.27995
 20
2.29167
 30
0.0
 40
0.00694444
 41
0.00694444
  0
VERTEX
  8
0
 10
1.26579
 20
2.29551
 30
0.0
 40
0.00694444
 41
0.00694444
  0
VERTEX
  8
0
 10
1.25033
 20
2.30593
 30
0.0
 40
0.00694444
 41
0.00694444
  0
VERTEX
  8
0
 10
1.23991
 20
2.3214
 30
0.0
 40
0.00694444
 41
0.00694444
  0
VERTEX
  8
0
 10
1.23611
 20
2.33556
 30
0.0
 40
0.00694444
 41
0.00694444
  0
VERTEX
  8
0
 10
1.23611
 20
2.34028
 30
0.0
 40
0.00694444
 41
0.00694444
  0
VERTEX
  8
0
 10
1.23611
 20
2.34506
 30
0.0
 40
0.00694444
 41
0.00694444
  0
VERTEX
  8
0
 10
1.23991
 20
2.35921
 30
0.0
 40
0.00694444
 41
0.00694444
  0
VERTEX
  8
0
 10
1.25033
 20
2.37468
 30
0.0
 40
0.00694444
 41
0.00694444
  0
VERTEX
  8
0
 10
1.26579
 20
2.3851
 30
0.0
 40
0.00694444
 41
0.00694444
  0
VERTEX
  8
0
 10
1.27995
 20
2.38889
 30
0.0
 40
0.00694444
 41
0.00694444
  0
VERTEX
  8
0
 10
1.28472
 20
2.38889
 30
0.0
 40
0.00694444
 41
0.00694444
  0
SEQEND
 8
0
  0
POLYLINE
  8
0
 62
     0
 66
     1
 10
0
 20
0
 30
0.0
 70
     1
 40
0.5
 41
0.5
  0
VERTEX
  8
0
 10
4.28472
 20
2.38889
 30
0.0
 40
0.00694444
 41
0.00694444
  0
VERTEX
  8
0
 10
4.28944
 20
2.38889
 30
0.0
 40
0.00694444
 41
0.00694444
  0
VERTEX
  8
0
 10
4.3036
 20
2.3851
 30
0.0
 40
0.00694444
 41
0.00694444
  0
VERTEX
  8
0
 10
4.31907
 20
2.37468
 30
0.0
 40
0.00694444
 41
0.00694444
  0
VERTEX
  8
0
 10
4.32949
 20
2.35921
 30
0.0
 40
0.00694444
 41
0.00694444
  0
VERTEX
  8
0
 10
4.33333
 20
2.34506
 30
0.0
 40
0.00694444
 41
0.00694444
  0
VERTEX
  8
0
 10
4.33333
 20
2.34028
 30
0.0
 40
0.00694444
 41
0.00694444
  0
VERTEX
  8
0
 10
4.33333
 20
2.33556
 30
0.0
 40
0.00694444
 41
0.00694444
  0
VERTEX
  8
0
 10
4.32949
 20
2.3214
 30
0.0
 40
0.00694444
 41
0.00694444
  0
VERTEX
  8
0
 10
4.31907
 20
2.30593
 30
0.0
 40
0.00694444
 41
0.00694444
  0
VERTEX
  8
0
 10
4.3036
 20
2.29551
 30
0.0
 40
0.00694444
 41
0.00694444
  0
VERTEX
  8
0
 10
4.28944
 20
2.29167
 30
0.0
 40
0.00694444
 41
0.00694444
  0
VERTEX
  8
0
 10
4.28472
 20
2.29167
 30
0.0
 40
0.00694444
 41
0.00694444
  0
VERTEX
  8
0
 10
4.27994
 20
2.29167
 30
0.0
 40
0.00694444
 41
0.00694444
  0
VERTEX
  8
0
 10
4.26579
 20
2.29551
 30
0.0
 40
0.00694444
 41
0.00694444
  0
VERTEX
  8
0
 10
4.25032
 20
2.30593
 30
0.0
 40
0.00694444
 41
0.00694444
  0
VERTEX
  8
0
 10
4.2399
 20
2.3214
 30
0.0
 40
0.00694444
 41
0.00694444
  0
VERTEX
  8
0
 10
4.23611
 20
2.33556
 30
0.0
 40
0.00694444
 41
0.00694444
  0
VERTEX
  8
0
 10
4.23611
 20
2.34028
 30
0.0
 40
0.00694444
 41
0.00694444
  0
VERTEX
  8
0
 10
4.23611
 20
2.34506
 30
0.0
 40
0.00694444
 41
0.00694444
  0
VERTEX
  8
0
 10
4.2399
 20
2.35921
 30
0.0
 40
0.00694444
 41
0.00694444
  0
VERTEX
  8
0
 10
4.25032
 20
2.37468
 30
0.0
 40
0.00694444
 41
0.00694444
  0
VERTEX
  8
0
 10
4.26579
 20
2.3851
 30
0.0
 40
0.00694444
 41
0.00694444
  0
VERTEX
  8
0
 10
4.27994
 20
2.38889
 30
0.0
 40
0.00694444
 41
0.00694444
  0
VERTEX
  8
0
 10
4.28472
 20
2.38889
 30
0.0
 40
0.00694444
 41
0.00694444
  0
SEQEND
 8
0
  0
ENDSEC
  0
EOF
